<svg xmlns="http://www.w3.org/2000/svg" xmlns:xlink="http://www.w3.org/1999/xlink" width="375" zoomAndPan="magnify" viewBox="0 0 375 374.999991" height="374.999991" preserveAspectRatio="xMidYMid meet" version="1.0">
<defs><clipPath id="id1"><path d="M 55 14.339844 L 331 14.339844 L 331 347 L 55 347 Z M 55 14.339844 " clip-rule="nonzero"/></clipPath></defs><rect x="-37.5" width="450" fill="rgb(100%, 100%, 100%)" y="-37.499999" height="449.999989" fill-opacity="1"/>
<rect x="-37.5" width="450" fill="rgb(100%, 100%, 100%)" y="-37.499999" height="449.999989" fill-opacity="1"/><g clip-path="url(#id1)"><path fill="rgb(18.818665%, 16.859436%, 17.649841%)" d="M 299.742188 268.46875 C 264.96875 332.324219 247.554688 333.347656 233.5625 334.171875 C 226.300781 334.605469 220.210938 331.179688 213.691406 327.542969 C 207.371094 324.015625 200.828125 320.367188 193.109375 320.367188 C 185.382812 320.367188 178.847656 324.015625 172.523438 327.542969 C 166.007812 331.179688 159.910156 334.597656 152.652344 334.171875 C 138.660156 333.347656 121.246094 332.324219 86.46875 268.46875 C 66.679688 232.125 62.332031 188.75 75.128906 155.269531 C 82.507812 135.957031 95.105469 122.296875 110.601562 116.796875 C 122.167969 112.691406 134.148438 110.613281 146.210938 110.613281 C 172.042969 110.613281 189.90625 120.226562 190.070312 120.3125 L 193.105469 121.980469 L 196.128906 120.324219 C 196.308594 120.226562 214.167969 110.613281 240 110.613281 C 252.066406 110.613281 264.042969 112.691406 275.613281 116.796875 C 291.109375 122.296875 303.707031 135.957031 311.085938 155.269531 C 323.882812 188.75 319.535156 232.125 299.742188 268.46875 Z M 156.570312 68.523438 C 124.640625 68.523438 109.316406 45.984375 103.648438 34.6875 C 114.390625 32.203125 124.800781 30.9375 134.675781 30.9375 C 164.90625 30.9375 183.597656 42.449219 192.117188 49.382812 C 191.894531 49.9375 191.675781 50.496094 191.460938 51.050781 C 172.1875 46.714844 136.46875 39.972656 134.671875 39.632812 L 132.351562 51.984375 C 132.777344 52.066406 167.125 58.546875 186.648438 62.851562 C 175.910156 66.617188 165.824219 68.523438 156.570312 68.523438 Z M 322.808594 150.777344 C 314.089844 127.96875 298.816406 111.695312 279.800781 104.949219 C 266.886719 100.367188 253.496094 98.042969 240 98.042969 C 224.292969 98.042969 211.292969 101.164062 202.496094 104.125 C 202.375 82.070312 207.222656 44.105469 231.089844 31.949219 L 222.148438 14.34375 C 211.367188 19.835938 203.5 28.238281 197.769531 37.902344 C 186.796875 29.640625 166.082031 18.371094 134.675781 18.371094 C 121.542969 18.371094 107.625 20.382812 93.316406 24.355469 L 86.96875 26.117188 L 89.03125 32.378906 C 89.199219 32.882812 93.191406 44.800781 103.410156 56.707031 C 117.097656 72.660156 135.480469 81.09375 156.570312 81.09375 L 156.574219 81.09375 C 165.46875 81.09375 174.933594 79.597656 184.84375 76.644531 C 183.214844 87.089844 182.816406 96.726562 182.832031 103.832031 C 174.054688 100.960938 161.398438 98.042969 146.210938 98.042969 C 132.71875 98.042969 119.328125 100.367188 106.410156 104.949219 C 87.394531 111.695312 72.125 127.96875 63.410156 150.777344 C 49.335938 187.601562 53.953125 235.003906 75.453125 274.484375 C 110.691406 339.195312 130.933594 345.488281 151.914062 346.722656 C 162.761719 347.363281 171.246094 342.644531 178.628906 338.523438 C 184.003906 335.527344 188.644531 332.9375 193.109375 332.9375 C 197.570312 332.9375 202.210938 335.527344 207.585938 338.523438 C 214.519531 342.394531 222.378906 346.78125 232.332031 346.78125 C 232.980469 346.78125 233.636719 346.761719 234.300781 346.722656 C 255.285156 345.488281 275.519531 339.195312 310.761719 274.484375 C 332.265625 235.003906 336.878906 187.601562 322.808594 150.777344 " fill-opacity="1" fill-rule="nonzero"/></g><path fill="rgb(18.818665%, 16.859436%, 17.649841%)" d="M 275.179688 126.429688 L 269.957031 137.859375 C 270.246094 137.992188 298.945312 151.777344 300.152344 207.027344 L 312.699219 206.75 C 311.320312 143.714844 276.652344 127.105469 275.179688 126.429688 " fill-opacity="1" fill-rule="nonzero"/><path fill="rgb(18.818665%, 16.859436%, 17.649841%)" d="M 292.335938 237.355469 L 303.929688 242.167969 L 309.800781 227.980469 L 298.207031 223.167969 L 292.335938 237.355469 " fill-opacity="1" fill-rule="nonzero"/></svg>