<svg xmlns="http://www.w3.org/2000/svg" xmlns:xlink="http://www.w3.org/1999/xlink" width="375" zoomAndPan="magnify" viewBox="0 0 375 374.999991" height="374.999991" preserveAspectRatio="xMidYMid meet" version="1.0"><defs><clipPath id="id1"><path d="M 26.839844 27 L 356.089844 27 L 356.089844 356.785156 L 26.839844 356.785156 Z M 26.839844 27 " clip-rule="nonzero"/></clipPath></defs><rect x="-37.5" width="450" fill="rgb(100%, 100%, 100%)" y="-37.499999" height="449.999989" fill-opacity="1"/><rect x="-37.5" width="450" fill="rgb(100%, 100%, 100%)" y="-37.499999" height="449.999989" fill-opacity="1"/><g clip-path="url(#id1)"><path fill="rgb(18.818665%, 16.859436%, 17.649841%)" d="M 334.011719 181.945312 C 319.449219 162.191406 299.949219 151.3125 279.097656 151.3125 C 272.136719 151.3125 265.238281 152.585938 258.496094 155.105469 C 260.683594 131.132812 272.523438 114.960938 272.648438 114.789062 C 274.246094 112.660156 273.8125 109.636719 271.683594 108.039062 C 269.554688 106.441406 266.527344 106.875 264.929688 109.003906 C 264.3125 109.828125 250.933594 127.984375 248.796875 155.347656 C 242.367188 152.863281 235.785156 151.519531 229.148438 151.332031 C 224.859375 131.574219 216.320312 113.78125 204.910156 100.988281 C 192.1875 86.71875 176.84375 79.175781 160.535156 79.175781 C 153.304688 79.175781 146.25 80.671875 139.523438 83.582031 C 139.347656 78.519531 138.753906 73.75 137.898438 69.3125 C 139.90625 69.578125 141.945312 69.71875 143.996094 69.71875 C 152.453125 69.71875 161.109375 67.460938 168.863281 63.109375 C 180.082031 56.816406 188.542969 46.613281 192.074219 35.121094 C 192.464844 33.859375 192.316406 32.492188 191.671875 31.34375 C 191.027344 30.195312 189.9375 29.359375 188.65625 29.03125 C 177 26.0625 163.882812 27.972656 152.660156 34.269531 C 144.457031 38.871094 137.742188 45.566406 133.335938 53.324219 C 128.84375 41.554688 123.515625 34.453125 123.132812 33.949219 C 121.515625 31.832031 118.488281 31.425781 116.371094 33.042969 C 114.253906 34.660156 113.847656 37.683594 115.464844 39.800781 C 115.597656 39.976562 128.160156 56.707031 129.769531 81.554688 C 123.820312 79.976562 117.730469 79.175781 111.5625 79.175781 C 88.746094 79.175781 67.355469 89.988281 51.328125 109.621094 C 35.535156 128.972656 26.839844 154.636719 26.839844 181.894531 C 26.839844 209.152344 35.535156 234.816406 51.328125 254.167969 C 67.355469 273.796875 88.746094 284.613281 111.5625 284.613281 C 120.609375 284.613281 129.511719 282.894531 138.027344 279.511719 C 143.128906 281.894531 148.449219 283.476562 153.90625 284.183594 C 157.476562 299.816406 163.832031 314.167969 172.636719 326.113281 C 187.199219 345.867188 206.699219 356.746094 227.550781 356.746094 C 236.300781 356.746094 244.960938 354.738281 253.324219 350.765625 C 261.6875 354.738281 270.347656 356.746094 279.101562 356.746094 C 299.949219 356.746094 319.449219 345.867188 334.015625 326.113281 C 348.25 306.800781 356.089844 281.199219 356.089844 254.027344 C 356.089844 226.859375 348.25 201.257812 334.011719 181.945312 Z M 157.382812 42.675781 C 164.71875 38.558594 172.996094 36.746094 180.800781 37.445312 C 177.332031 44.46875 171.472656 50.589844 164.140625 54.703125 C 156.804688 58.820312 148.527344 60.636719 140.722656 59.933594 C 144.1875 52.910156 150.046875 46.789062 157.382812 42.675781 Z M 279.097656 347.105469 C 272.03125 347.105469 264.996094 345.511719 258.144531 342.375 L 258.144531 336.46875 C 258.144531 333.808594 255.988281 331.648438 253.324219 331.648438 C 250.660156 331.648438 248.5 333.808594 248.5 336.46875 L 248.5 342.375 C 241.652344 345.515625 234.617188 347.105469 227.550781 347.105469 C 190.414062 347.105469 160.203125 305.351562 160.203125 254.027344 C 160.203125 218.589844 174.507812 186.675781 197.539062 170.734375 C 199.730469 169.21875 200.273438 166.214844 198.761719 164.027344 C 197.242188 161.839844 194.238281 161.292969 192.046875 162.808594 C 166.457031 180.523438 150.558594 215.472656 150.558594 254.027344 C 150.558594 260.84375 151.050781 267.554688 152.011719 274.097656 C 121.566406 267.824219 98.34375 228.597656 98.34375 181.890625 C 98.34375 160.484375 103.359375 139.5625 112.472656 122.980469 C 113.753906 120.644531 112.902344 117.714844 110.566406 116.433594 C 108.234375 115.148438 105.300781 116.003906 104.019531 118.335938 C 93.996094 136.578125 88.699219 158.558594 88.699219 181.890625 C 88.699219 207.859375 95.441406 232.621094 107.691406 251.617188 C 113.339844 260.378906 119.917969 267.550781 127.132812 272.945312 C 122.035156 274.28125 116.828125 274.972656 111.5625 274.972656 C 70.167969 274.972656 36.488281 233.214844 36.488281 181.894531 C 36.488281 130.570312 70.167969 88.816406 111.5625 88.816406 C 116.832031 88.816406 122.042969 89.496094 127.136719 90.832031 C 123.683594 93.425781 120.355469 96.433594 117.1875 99.855469 C 115.378906 101.808594 115.5 104.859375 117.453125 106.667969 C 119.410156 108.476562 122.460938 108.359375 124.269531 106.40625 C 134.921875 94.898438 147.460938 88.816406 160.535156 88.816406 C 187.0625 88.816406 210.847656 114.535156 219.394531 151.886719 C 217.082031 152.210938 214.785156 152.660156 212.515625 153.257812 C 209.941406 153.933594 208.402344 156.570312 209.078125 159.148438 C 209.753906 161.722656 212.394531 163.261719 214.96875 162.585938 C 219.085938 161.503906 223.320312 160.953125 227.550781 160.953125 C 234.617188 160.953125 241.65625 162.546875 248.503906 165.683594 L 248.503906 176.742188 C 248.503906 179.402344 250.664062 181.5625 253.324219 181.5625 C 255.988281 181.5625 258.148438 179.402344 258.148438 176.742188 L 258.148438 165.683594 C 264.996094 162.542969 272.03125 160.953125 279.101562 160.953125 C 316.234375 160.953125 346.445312 202.707031 346.445312 254.027344 C 346.445312 305.351562 316.234375 347.105469 279.097656 347.105469 Z M 279.097656 347.105469 " fill-opacity="1" fill-rule="nonzero"/></g><path fill="rgb(18.818665%, 16.859436%, 17.649841%)" d="M 257.636719 204.597656 C 256.820312 202.964844 255.152344 201.933594 253.324219 201.933594 C 251.496094 201.933594 249.828125 202.964844 249.011719 204.597656 C 247.800781 207.019531 245.285156 210.113281 242.378906 213.695312 C 234.085938 223.90625 222.726562 237.890625 222.726562 258.277344 C 222.726562 278.667969 234.085938 292.65625 242.378906 302.867188 C 243.386719 304.105469 244.347656 305.289062 245.234375 306.417969 C 247.203125 308.933594 250.148438 310.375 253.324219 310.375 C 256.496094 310.375 259.445312 308.933594 261.414062 306.417969 C 262.300781 305.289062 263.261719 304.105469 264.269531 302.863281 C 272.5625 292.652344 283.921875 278.667969 283.921875 258.277344 C 283.921875 237.890625 272.5625 223.90625 264.269531 213.695312 C 261.359375 210.113281 258.847656 207.019531 257.636719 204.597656 Z M 256.78125 296.789062 C 255.738281 298.074219 254.738281 299.300781 253.820312 300.476562 C 253.769531 300.539062 253.617188 300.734375 253.324219 300.734375 C 253.027344 300.734375 252.878906 300.539062 252.828125 300.476562 C 251.910156 299.304688 250.910156 298.074219 249.867188 296.789062 C 242.070312 287.191406 232.371094 275.246094 232.371094 258.277344 C 232.371094 241.3125 242.070312 229.371094 249.867188 219.769531 C 251.09375 218.257812 252.257812 216.824219 253.324219 215.445312 C 254.386719 216.824219 255.550781 218.257812 256.78125 219.769531 C 264.574219 229.367188 274.273438 241.3125 274.273438 258.277344 C 274.273438 275.246094 264.574219 287.191406 256.78125 296.789062 Z M 256.78125 296.789062 " fill-opacity="1" fill-rule="nonzero"/></svg>