<svg xmlns="http://www.w3.org/2000/svg" width="375" viewBox="0 0 375 375" height="375" version="1.0"><defs><clipPath id="a"><path d="M 32.832031 16.078125 L 342.003906 16.078125 L 342.003906 358.828125 L 32.832031 358.828125 Z M 32.832031 16.078125"/></clipPath></defs><path fill="#FFF" d="M-37.5 -37.5H412.5V412.5H-37.5z"/><path fill="none" d="M-37.5 -37.5H412.5V412.5H-37.5z"/><g clip-path="url(#a)"><path fill="#302B2D" d="M 193.316406 33.605469 C 190.15625 38.171875 186.566406 45.015625 186.566406 52.410156 C 186.566406 57.492188 187.722656 61.570312 189.304688 64.949219 C 190.519531 64.15625 191.980469 63.730469 193.4375 63.820312 C 194.441406 63.882812 195.414062 64.125 196.296875 64.582031 C 198.761719 59.773438 200.617188 54.207031 199.125 48.578125 C 197.238281 41.394531 195.082031 36.648438 193.316406 33.605469 Z M 215.96875 92.210938 C 216.304688 92.605469 216.730469 93.15625 217.246094 93.824219 C 218.128906 90.71875 218.769531 86.644531 218.769531 81.53125 C 218.769531 75.292969 215.636719 69.480469 212.6875 65.433594 C 210.316406 69.359375 207.820312 74.777344 207.515625 80.648438 C 208.339844 81.804688 209.21875 83.050781 210.164062 84.359375 C 210.527344 84.847656 211.105469 85.546875 211.714844 86.339844 C 213.628906 88.773438 215.027344 90.597656 215.96875 92.210938 Z M 171.484375 62.207031 C 168.414062 66.316406 165.101562 72.25 165.101562 78.578125 C 165.101562 86.15625 166.589844 91.511719 168.324219 94.949219 C 168.839844 94.28125 169.265625 93.792969 169.480469 93.519531 C 172.125 90.050781 175.621094 84.9375 178.8125 80.101562 C 178.207031 73.832031 174.738281 67.136719 171.484375 62.207031 Z M 314.273438 92.941406 C 315.945312 92.941406 317.589844 93.550781 318.867188 94.707031 C 319.59375 95.347656 320.140625 96.136719 320.539062 96.988281 C 321.390625 95.46875 322.058594 93.824219 322.484375 92 C 323.914062 85.730469 324.277344 81.105469 324.1875 77.878906 C 319.746094 80.3125 314.242188 84.238281 311.203125 89.992188 C 310.289062 91.785156 309.5625 93.398438 308.984375 94.917969 C 309.957031 94.339844 310.65625 93.976562 311.019531 93.761719 C 312.054688 93.214844 313.179688 92.941406 314.273438 92.941406 Z M 50.984375 80.527344 C 50.683594 85.578125 51.136719 92.332031 54.421875 97.933594 C 55.972656 100.609375 57.523438 102.710938 58.984375 104.351562 C 59.652344 102.710938 60.929688 101.402344 62.601562 100.671875 C 64.210938 99.941406 66.035156 99.910156 67.679688 100.488281 C 66.859375 96.5625 65.246094 92.605469 62.054688 89.414062 C 57.492188 84.878906 53.753906 82.140625 50.984375 80.527344 Z M 183.953125 96.988281 C 186.082031 99.117188 189.242188 102.648438 192.039062 107.273438 C 194.929688 102.191406 198.425781 98.054688 201.191406 95.195312 C 201.101562 95.070312 201.011719 94.949219 200.949219 94.859375 C 200.191406 93.914062 199.519531 93.0625 199.066406 92.425781 C 196.632812 89.078125 194.59375 86.125 192.953125 83.601562 C 190.214844 87.800781 186.933594 92.757812 183.953125 96.988281 Z M 293.902344 91.175781 C 289.585938 92.851562 284.140625 95.832031 281.464844 100.945312 C 278.03125 107.425781 276.964844 112.71875 276.90625 116.28125 C 278.515625 115.734375 279.582031 115.488281 279.761719 115.429688 C 280.644531 115.214844 281.527344 115.183594 282.378906 115.308594 C 285.296875 112.050781 288.761719 108.949219 292.261719 106.207031 C 292.835938 104.839844 293.261719 103.46875 293.566406 102.039062 C 293.660156 100.367188 293.839844 98.691406 294.175781 96.988281 C 294.238281 94.917969 294.113281 92.941406 293.902344 91.207031 Z M 96.59375 115.886719 C 97.203125 116.066406 98.023438 116.339844 99.027344 116.707031 C 98.816406 113.328125 97.871094 109.097656 95.316406 104.75 C 92.429688 99.757812 86.410156 97.171875 81.726562 95.863281 C 81.605469 100.09375 82.089844 105.722656 84.585938 110.652344 C 85.800781 111.261719 87.046875 111.839844 88.355469 112.386719 C 88.902344 112.628906 89.691406 112.933594 90.574219 113.269531 C 93.128906 114.273438 95.105469 115.0625 96.59375 115.886719 Z M 290.4375 127.082031 C 291.195312 129.820312 291.835938 132.894531 292.136719 136.210938 C 296.273438 133.714844 300.4375 132.105469 303.753906 131.070312 C 303.539062 130.066406 303.386719 129.152344 303.296875 128.453125 C 302.933594 126.046875 302.8125 123.613281 302.871094 121.210938 C 302.75 120.390625 302.78125 119.507812 302.992188 118.652344 C 303.085938 117.4375 303.207031 116.191406 303.359375 115.003906 C 302.933594 115.308594 302.539062 115.640625 302.113281 115.945312 C 301.960938 116.066406 301.808594 116.191406 301.65625 116.28125 C 297.277344 119.660156 293.082031 123.429688 290.4375 127.082031 Z M 71.996094 134.417969 C 75.433594 135.238281 79.476562 136.515625 83.550781 138.554688 C 83.613281 133.714844 84.464844 129.335938 85.316406 125.988281 C 84.371094 125.59375 83.488281 125.257812 82.882812 124.984375 C 78.625 123.128906 74.824219 121.117188 71.601562 119.261719 C 71.753906 120.085938 71.722656 120.90625 71.570312 121.667969 C 71.511719 125.867188 71.601562 130.429688 71.996094 134.417969 Z M 318.257812 135.632812 C 318.410156 136.304688 318.5625 137.367188 318.742188 138.644531 C 321.417969 136.910156 324.277344 134.203125 326.4375 130.09375 C 329.113281 125.015625 328.382812 117.832031 327.042969 112.324219 C 323.546875 114.394531 319.351562 117.589844 316.585938 122 C 316.554688 123.492188 316.644531 125.015625 316.859375 126.472656 C 316.949219 127.050781 317.101562 127.875 317.285156 128.785156 C 317.832031 131.679688 318.226562 133.867188 318.257812 135.632812 Z M 46.789062 113.542969 C 46.242188 118.257812 46.304688 124.464844 49.191406 129.457031 C 52.476562 135.054688 56.003906 138.464844 58.953125 140.351562 C 58.039062 134.902344 57.796875 128.179688 57.828125 122.152344 C 57.066406 121.117188 56.214844 120.175781 55.304688 119.292969 C 53.933594 118.351562 52.628906 117.316406 51.382812 116.160156 C 49.832031 115.125 48.25 114.242188 46.789062 113.542969 Z M 167.867188 182.160156 C 167.59375 184.53125 167.65625 187.117188 168.445312 189.25 C 170.757812 195.367188 173.585938 196.855469 174.222656 196.886719 C 176.167969 197.070312 178.234375 198.074219 179.421875 199.625 L 181.0625 201.847656 C 182.007812 203.0625 182.460938 204.554688 182.460938 206.105469 L 180.941406 295.6875 L 201.648438 258.078125 C 201.648438 258.078125 201.648438 258.078125 201.648438 258.046875 L 202.652344 256.222656 C 202.5 255.675781 202.410156 255.097656 202.410156 254.519531 L 200.765625 195.183594 L 200.796875 191.167969 C 200.828125 188.09375 202.894531 185.414062 205.84375 184.59375 C 207.457031 184.046875 212.746094 179.511719 214.9375 172.664062 C 215.878906 169.714844 215.515625 166.457031 214.785156 163.6875 C 211.59375 166.851562 208.308594 171.355469 207.640625 176.589844 C 207.183594 180.363281 203.714844 183.011719 199.976562 182.554688 C 196.238281 182.097656 193.5625 178.660156 194.015625 174.886719 C 194.714844 169.347656 196.964844 164.480469 199.703125 160.433594 L 198.882812 147.746094 C 198.730469 145.644531 199.550781 143.574219 201.132812 142.175781 C 204.140625 139.4375 212.199219 132.195312 213.75 123.917969 C 214.632812 119.140625 213.203125 114.179688 211.257812 110.105469 C 211.167969 109.921875 211.074219 109.769531 211.015625 109.617188 C 210.46875 108.519531 209.917969 107.515625 209.34375 106.574219 C 205.9375 110.46875 201.832031 116.28125 200.617188 122.882812 C 200.160156 125.347656 199.914062 127.175781 199.886719 130.886719 C 199.824219 134.660156 196.753906 137.671875 193.015625 137.671875 L 191.859375 137.671875 C 188.117188 137.671875 185.078125 134.691406 184.988281 130.976562 C 184.894531 127.601562 184.742188 126.71875 184.410156 124.800781 C 183.101562 117.589844 178.785156 111.714844 175.835938 108.398438 C 175.742188 108.582031 175.652344 108.734375 175.558594 108.886719 C 175.46875 109.070312 175.378906 109.25 175.285156 109.402344 C 172.945312 113.785156 170.816406 119.660156 171.851562 125.441406 C 173.097656 132.316406 178.964844 138.675781 182.460938 142.511719 L 182.886719 142.96875 C 184.105469 144.304688 184.773438 146.070312 184.683594 147.894531 L 183.464844 176.285156 C 187.449219 179.96875 190.671875 184.804688 191.3125 191.042969 C 191.738281 194.816406 189 198.195312 185.230469 198.589844 C 181.429688 198.984375 178.085938 196.277344 177.6875 192.503906 C 177.203125 188.0625 172.367188 184.503906 167.867188 182.160156 Z M 115.324219 219.496094 C 115.660156 219.496094 115.996094 219.527344 116.328125 219.617188 L 118.304688 219.890625 C 120.402344 220.195312 122.257812 221.472656 123.292969 223.328125 L 167.109375 301.5625 L 167.746094 263.859375 L 130.558594 203.519531 C 129.039062 200.84375 129.464844 197.496094 131.625 195.304688 C 132.839844 194.027344 135.757812 189.402344 134.359375 183.253906 C 133.75 180.515625 131.777344 177.839844 129.554688 175.648438 C 128.675781 179.480469 128.339844 184.199219 130.101562 188.304688 C 131.59375 191.773438 129.980469 195.820312 126.515625 197.34375 C 123.019531 198.835938 119.003906 197.222656 117.484375 193.722656 C 115.417969 188.882812 114.929688 183.894531 115.203125 179.328125 L 108.636719 169.59375 C 107.449219 167.859375 107.117188 165.667969 107.753906 163.660156 L 108.394531 161.710938 C 110.035156 156.84375 112.769531 148.6875 110.671875 142.816406 C 108.789062 137.519531 103.011719 133.625 98.175781 131.28125 C 97.203125 135.726562 96.59375 141.871094 98.632812 147.5625 C 99.363281 149.570312 100.335938 151.699219 101.367188 153.585938 C 103.164062 156.84375 102.039062 160.949219 98.84375 162.835938 L 97.902344 163.382812 C 94.769531 165.242188 90.757812 164.296875 88.71875 161.285156 C 87.929688 160.066406 86.652344 158.332031 85.464844 156.964844 C 81.726562 152.582031 76.3125 150.085938 72.085938 148.71875 C 72.117188 148.929688 72.085938 149.144531 72.085938 149.355469 C 72.148438 155.015625 73.152344 161.894531 76.769531 166.125 C 79.566406 169.410156 84.644531 170.472656 89.085938 171.417969 C 90.910156 171.8125 92.550781 172.179688 93.949219 172.605469 C 95.683594 173.121094 97.144531 174.339844 97.992188 175.953125 L 110.339844 199.320312 C 115.296875 200.445312 120.222656 202.882812 123.71875 207.628906 C 125.96875 210.671875 125.328125 214.992188 122.257812 217.242188 C 119.21875 219.496094 114.929688 218.855469 112.679688 215.8125 C 110.125 212.34375 104.074219 211.980469 99.363281 212.34375 C 99.878906 214.929688 100.792969 217.546875 102.402344 218.855469 C 107.085938 222.691406 112.070312 220.347656 112.132812 220.316406 C 113.105469 219.800781 114.230469 219.527344 115.324219 219.527344 Z M 185.046875 316.65625 L 204.082031 326.695312 L 261.855469 210.457031 C 263.3125 207.71875 266.382812 206.320312 269.394531 206.988281 C 271.15625 207.324219 278.609375 206.625 283.078125 202.242188 C 285.023438 200.324219 285.84375 197.3125 286.179688 194.484375 C 282.164062 195.699219 277.359375 197.953125 274.53125 202.027344 C 272.34375 205.132812 268.085938 205.894531 264.953125 203.734375 C 261.855469 201.574219 261.09375 197.28125 263.253906 194.179688 C 266.261719 189.859375 270.246094 186.816406 274.289062 184.625 L 279.0625 173.882812 C 279.914062 171.964844 281.617188 170.535156 283.65625 170.019531 C 284.78125 169.714844 286.085938 169.5 287.515625 169.226562 C 292.503906 168.285156 298.128906 167.25 301.382812 163.140625 C 305 158.578125 305.667969 150.9375 305.457031 144.976562 C 301.261719 146.527344 296.0625 149.234375 292.472656 153.769531 C 291.136719 155.441406 289.859375 157.390625 288.824219 159.246094 C 287 162.53125 282.925781 163.75 279.609375 162.015625 L 278.636719 161.496094 C 275.445312 159.792969 274.105469 155.929688 275.597656 152.613281 C 276.207031 151.273438 277.027344 149.234375 277.542969 147.5625 C 279.398438 141.660156 278.425781 135.296875 277.238281 130.917969 C 276.8125 131.128906 276.386719 131.34375 275.960938 131.585938 C 275.78125 131.679688 275.628906 131.738281 275.476562 131.828125 C 271.402344 134.050781 267.175781 137.429688 265.746094 141.992188 C 264.132812 147.105469 266.535156 155.289062 267.933594 160.191406 C 268.269531 161.253906 268.511719 162.199219 268.753906 162.988281 C 269.210938 164.753906 268.9375 166.640625 268.027344 168.222656 L 254.707031 191.042969 C 256.378906 195.882812 256.898438 201.328125 254.738281 206.804688 C 253.339844 210.335938 249.328125 212.039062 245.800781 210.640625 C 242.300781 209.242188 240.570312 205.253906 241.96875 201.726562 C 243.367188 198.226562 241.328125 193.660156 238.898438 190.039062 C 238.136719 191.410156 237.527344 192.960938 237.316406 194.542969 C 236.585938 200.265625 237.679688 203.15625 238.105469 203.824219 C 239.230469 204.554688 240.144531 205.621094 240.660156 206.835938 L 241.480469 208.664062 C 242.332031 210.640625 242.210938 212.863281 241.175781 214.75 L 213.691406 264.683594 C 213.691406 264.683594 213.691406 264.683594 213.660156 264.683594 Z M 180.089844 345.074219 L 204.140625 345.074219 L 204.113281 342.246094 C 204.050781 342.214844 203.992188 342.183594 203.929688 342.152344 L 180.363281 329.738281 Z M 211.105469 358.796875 L 173.128906 358.796875 C 171.273438 358.796875 169.507812 358.066406 168.234375 356.757812 C 166.925781 355.449219 166.226562 353.6875 166.257812 351.832031 L 166.652344 328.796875 L 113.652344 234.222656 C 107.664062 235.53125 100.0625 234.648438 93.738281 229.507812 C 84.765625 222.203125 85.101562 207.871094 85.191406 206.257812 C 85.316406 203.246094 87.382812 200.660156 90.300781 199.898438 C 90.847656 199.746094 92.429688 199.382812 94.648438 199.015625 L 87.289062 185.082031 C 86.957031 184.957031 86.621094 184.929688 86.257812 184.867188 C 80.664062 183.679688 72.179688 181.886719 66.339844 175.070312 C 61.386719 169.257812 59.347656 161.800781 58.648438 155.136719 C 50.925781 152.949219 43.109375 146.222656 37.363281 136.394531 C 28.789062 121.726562 34.992188 102.921875 35.265625 102.132812 C 35.964844 100.09375 37.515625 98.570312 39.429688 97.871094 C 34.902344 84.179688 38.609375 70.152344 38.792969 69.480469 C 39.582031 66.53125 42.230469 64.492188 45.269531 64.398438 C 47.003906 64.339844 56.855469 64.917969 71.753906 79.734375 C 72.269531 80.253906 72.789062 80.800781 73.273438 81.378906 C 74.214844 81.015625 75.21875 80.832031 76.285156 80.921875 C 77.164062 80.984375 98.359375 82.75 107.175781 97.808594 C 112.375 106.726562 113.59375 116.523438 112.316406 123.828125 C 116.96875 127.296875 121.375 131.980469 123.597656 138.191406 C 126.027344 144.945312 125.238281 152.1875 123.808594 158.089844 C 124.023438 158.027344 124.203125 157.96875 124.449219 157.90625 C 126.179688 157.390625 128.097656 157.601562 129.707031 158.515625 C 131.257812 159.398438 144.910156 167.429688 147.769531 180.273438 C 149.65625 188.609375 147.433594 195.761719 144.699219 200.476562 L 168.171875 238.453125 L 168.6875 209.546875 C 163.183594 207.324219 158.503906 201.847656 155.613281 194.085938 C 151.628906 183.40625 156.253906 171.601562 156.800781 170.261719 C 158.136719 167.066406 161.664062 165.363281 164.980469 166.273438 C 165.617188 166.457031 167.535156 167.035156 170.058594 168.070312 L 170.847656 150.148438 C 166.316406 145.15625 160.082031 137.550781 158.351562 127.90625 C 157.042969 120.691406 158.53125 113.785156 160.8125 108.066406 C 154.945312 101.980469 151.355469 91.269531 151.355469 78.609375 C 151.355469 60.6875 166.742188 46.902344 167.382812 46.292969 C 169.144531 44.742188 171.484375 44.253906 173.613281 44.804688 C 176.683594 29.648438 187.785156 18.574219 188.332031 18.054688 C 190.519531 15.925781 193.804688 15.46875 196.480469 16.929688 C 198.121094 17.875 206.726562 23.5625 212.414062 45.078125 C 212.625 45.960938 212.839844 46.84375 212.992188 47.726562 C 214.359375 47.875 215.695312 48.453125 216.792969 49.429688 C 217.429688 50.007812 232.480469 63.640625 232.480469 81.5625 C 232.480469 92.851562 229.867188 102.558594 225.394531 108.460938 C 227.3125 113.847656 228.4375 120.054688 227.222656 126.472656 C 225.792969 134.203125 221.445312 140.714844 216.882812 145.859375 C 219.34375 145.675781 221.808594 146.769531 223.207031 148.960938 C 224.148438 150.390625 232.269531 163.476562 228.011719 176.863281 C 225.367188 185.082031 219.800781 191.835938 214.511719 195.425781 L 215.542969 232.882812 L 227.070312 211.949219 C 223.90625 207.597656 222.691406 200.84375 223.722656 192.777344 C 225.09375 182.007812 233.605469 174.765625 234.578125 173.972656 C 237.253906 171.8125 241.117188 171.964844 243.640625 174.308594 C 244.035156 174.703125 245.222656 175.859375 246.679688 177.5625 L 254.707031 163.8125 C 252.851562 157.390625 249.84375 146.832031 252.671875 137.855469 C 254.738281 131.28125 259.148438 126.472656 263.828125 123.035156 C 261.945312 115.308594 263.828125 104.960938 269.304688 94.523438 C 277.390625 79.1875 297.214844 75.960938 298.066406 75.808594 C 300.011719 75.507812 301.929688 76.054688 303.386719 77.210938 C 312.601562 66.164062 326.46875 61.90625 327.136719 61.691406 C 330.054688 60.808594 333.1875 61.964844 334.859375 64.492188 C 335.863281 66.011719 340.574219 74.625 335.832031 95.101562 C 335.679688 95.832031 335.46875 96.5625 335.253906 97.261719 C 336.167969 97.960938 336.925781 98.875 337.414062 100 C 338.355469 102.160156 346.472656 121.546875 338.597656 136.484375 C 333.339844 146.464844 325.25 151.546875 318.894531 153.738281 C 318.167969 159.855469 316.28125 166.398438 312.144531 171.660156 C 307.890625 177.015625 302.355469 179.601562 297.277344 181.09375 C 298.371094 182.066406 299.164062 183.375 299.464844 184.929688 C 299.800781 186.691406 302.507812 202.363281 292.6875 212.039062 C 286.695312 217.914062 278.242188 220.40625 271.949219 220.742188 L 217.671875 330.257812 L 217.945312 351.859375 C 217.976562 353.6875 217.277344 355.449219 215.96875 356.757812 C 214.695312 358.097656 212.929688 358.828125 211.105469 358.828125 L 211.105469 358.796875"/></g></svg>