<svg xmlns="http://www.w3.org/2000/svg" xmlns:xlink="http://www.w3.org/1999/xlink" width="375" zoomAndPan="magnify" viewBox="0 0 375 374.999991" height="374.999991" preserveAspectRatio="xMidYMid meet" version="1.0"><defs><clipPath id="id1"><path d="M 122.660156 80.414062 L 252.410156 80.414062 L 252.410156 304.996094 L 122.660156 304.996094 Z M 122.660156 80.414062 " clip-rule="nonzero"/></clipPath></defs><rect x="-37.5" width="450" fill="rgb(100%, 100%, 100%)" y="-37.499999" height="449.999989" fill-opacity="1"/><rect x="-37.5" width="450" fill="rgb(100%, 100%, 100%)" y="-37.499999" height="449.999989" fill-opacity="1"/><g clip-path="url(#id1)"><path fill="rgb(18.818665%, 16.859436%, 17.649841%)" d="M 187.535156 298.644531 C 155.265625 298.644531 129.011719 272.40625 129.011719 240.15625 C 129.011719 231.789062 130.742188 223.710938 134.148438 216.15625 L 134.199219 216.050781 C 134.824219 214.664062 149.6875 181.855469 161.8125 151.019531 L 161.871094 150.851562 C 162.171875 149.9375 162.53125 149.035156 162.929688 148.152344 L 163.027344 147.910156 C 163.726562 146.109375 164.523438 144.726562 165.390625 143.792969 L 165.636719 143.492188 C 170.714844 136.484375 178.902344 132.300781 187.535156 132.300781 C 196.167969 132.300781 204.351562 136.484375 209.433594 143.492188 L 209.679688 143.792969 C 210.546875 144.722656 211.339844 146.109375 212.054688 147.945312 L 212.140625 148.152344 C 212.539062 149.03125 212.894531 149.9375 213.199219 150.855469 L 213.261719 151.019531 C 225.378906 181.855469 240.253906 214.664062 240.878906 216.050781 L 240.917969 216.140625 C 244.324219 223.710938 246.054688 231.789062 246.054688 240.15625 C 246.054688 272.40625 219.804688 298.644531 187.535156 298.644531 Z M 153.410156 102.976562 C 176.496094 102.421875 183.097656 118.761719 184.882812 125.914062 C 175.890625 126.238281 168.574219 124.097656 163.097656 119.542969 C 156.863281 114.351562 154.371094 107.101562 153.410156 102.976562 Z M 246.707031 213.535156 L 246.699219 213.511719 L 246.65625 213.425781 C 246.039062 212.050781 231.261719 179.441406 219.199219 148.777344 C 218.839844 147.703125 218.429688 146.640625 217.960938 145.613281 L 217.960938 145.609375 C 217 143.140625 215.824219 141.128906 214.464844 139.617188 C 209.074219 132.269531 200.898438 127.476562 191.984375 126.261719 C 192.421875 121.046875 193.835938 115.777344 195.730469 110.984375 C 200.695312 98.460938 210.589844 89.710938 223.757812 86.636719 C 227.742188 85.703125 226.050781 79.574219 222.066406 80.503906 C 204.539062 84.601562 192.0625 98.589844 187.445312 115.273438 C 182.394531 105.726562 171.707031 94.847656 149.394531 96.847656 L 146.269531 97.128906 L 146.507812 100.257812 C 146.554688 100.851562 147.769531 114.996094 158.96875 124.371094 C 162.339844 127.195312 166.238281 129.261719 170.617188 130.578125 C 166.746094 132.855469 163.316406 135.910156 160.601562 139.617188 C 159.238281 141.128906 158.0625 143.140625 157.109375 145.601562 L 157.105469 145.605469 C 156.640625 146.640625 156.222656 147.707031 155.863281 148.78125 C 143.804688 179.441406 129.03125 212.050781 128.402344 213.441406 L 128.332031 213.601562 C 128.183594 213.925781 128.042969 214.25 127.898438 214.585938 L 127.65625 215.132812 L 127.660156 215.140625 C 124.339844 223.066406 122.65625 231.472656 122.65625 240.15625 C 122.65625 275.90625 151.761719 304.996094 187.535156 304.996094 C 223.304688 304.996094 252.40625 275.90625 252.40625 240.15625 C 252.40625 230.878906 250.484375 221.925781 246.707031 213.535156 Z M 189.507812 219.503906 C 196.511719 221.527344 201.996094 226.074219 205.421875 232.488281 C 207.351562 236.105469 212.839844 232.894531 210.917969 229.28125 C 206.730469 221.449219 199.71875 215.835938 191.195312 213.378906 C 187.257812 212.234375 185.574219 218.371094 189.507812 219.503906 Z M 207.859375 240.320312 C 207.988281 241.449219 208.050781 242.566406 208.058594 243.703125 C 208.066406 245.359375 209.519531 246.957031 211.234375 246.875 C 212.957031 246.804688 214.425781 245.488281 214.417969 243.703125 C 214.410156 242.566406 214.347656 241.449219 214.21875 240.320312 C 214.117188 239.449219 213.933594 238.710938 213.292969 238.074219 C 212.734375 237.519531 211.828125 237.105469 211.035156 237.140625 C 209.480469 237.210938 207.652344 238.550781 207.859375 240.320312 Z M 187.535156 209.574219 C 171.210938 209.574219 157.925781 222.851562 157.925781 239.171875 C 157.925781 255.480469 171.210938 268.757812 187.535156 268.757812 C 203.859375 268.757812 217.132812 255.480469 217.132812 239.171875 C 217.132812 222.851562 203.859375 209.574219 187.535156 209.574219 Z M 187.535156 275.105469 C 167.707031 275.105469 151.574219 258.980469 151.574219 239.171875 C 151.574219 219.355469 167.707031 203.226562 187.535156 203.226562 C 207.359375 203.226562 223.488281 219.355469 223.488281 239.171875 C 223.488281 258.980469 207.359375 275.105469 187.535156 275.105469 " fill-opacity="1" fill-rule="nonzero"/></g></svg>