<svg xmlns="http://www.w3.org/2000/svg" width="375" viewBox="0 0 375 375" height="375" version="1.0"><path fill="#FFF" d="M-37.5 -37.5H412.5V412.5H-37.5z"/><path fill="#FFF" d="M-37.5 -37.5H412.5V412.5H-37.5z"/><path fill="#E1DDD3" d="M-37.5 -37.5H412.5V412.5H-37.5z"/><path fill="#302B2D" d="M 90.75 283.003906 C 85.824219 281.8125 87.921875 274.238281 92.839844 275.414062 C 116.808594 281.1875 141.980469 283.726562 166.523438 280.65625 C 199.378906 276.535156 227.703125 259.789062 248.847656 234.484375 C 252.085938 230.589844 257.625 236.183594 254.402344 240.039062 C 232.511719 266.246094 202.945312 283.582031 169.035156 288.183594 C 142.984375 291.726562 116.222656 289.125 90.75 283.003906 Z M 271.8125 213.617188 C 269.542969 218.152344 262.769531 214.167969 265.019531 209.652344 C 268.835938 201.976562 272.015625 194.027344 274.253906 185.742188 C 274.894531 183.394531 275.464844 181.03125 275.914062 178.644531 C 276.023438 178.117188 276.492188 174.964844 276.277344 176.683594 C 276.894531 171.726562 284.757812 171.675781 284.140625 176.683594 C 282.539062 189.558594 277.542969 202.105469 271.8125 213.617188 Z M 285.308594 233.40625 C 274.757812 262.515625 254.9375 284.03125 226.410156 297.351562 C 139.960938 337.722656 74.152344 283.808594 73.570312 283.265625 C 71.488281 281.1875 68.789062 275.757812 69.21875 273.824219 C 69.492188 272.617188 71.917969 270.339844 74.214844 268.78125 C 112.542969 268.347656 147.296875 261.359375 177.535156 248.03125 C 202.050781 237.234375 223.644531 222.265625 241.738281 203.558594 C 267.695312 176.710938 278.765625 150.238281 281.859375 141.726562 L 286.335938 141.726562 C 293.71875 159.835938 298.007812 198.363281 285.304688 233.40625 Z M 49.453125 232.757812 C 47.84375 230.285156 46.339844 224.425781 47.160156 222.617188 C 47.675781 221.488281 50.523438 219.773438 53.09375 218.722656 C 90.65625 226.269531 126.003906 226.917969 158.171875 220.65625 C 184.257812 215.570312 208.296875 205.972656 229.648438 192.101562 C 242.117188 184.003906 252.160156 175.457031 260.003906 167.660156 C 254.132812 176.976562 246.308594 187.539062 236.097656 198.097656 C 209.789062 225.308594 162.050781 257.660156 82.59375 260.703125 C 62.890625 248.570312 50.976562 234.9375 49.453125 232.757812 Z M 310.988281 66.308594 C 294.8125 74.863281 284.878906 90.320312 281.558594 108.09375 C 280.3125 114.761719 279.839844 121.570312 280.027344 128.347656 C 280.078125 130.125 280.363281 132.011719 280.539062 133.875 L 276.148438 133.875 L 275.433594 136.214844 C 273.527344 139.40625 257.863281 164.519531 225.023438 185.742188 C 192.785156 206.570312 136.882812 227.820312 53.554688 210.800781 L 52.503906 210.59375 L 51.492188 210.9375 C 49.980469 211.457031 42.320312 214.304688 40.015625 219.359375 C 37.527344 224.808594 40.695312 233.699219 42.863281 237.035156 C 44.113281 238.960938 53.726562 250.347656 70.261719 261.976562 C 68 263.449219 62.605469 267.386719 61.554688 272.125 C 60.253906 277.964844 65.207031 286.003906 68.019531 288.824219 C 70.238281 291.039062 88.554688 305 116.234375 313.4375 C 128.332031 317.128906 143.613281 320.152344 161.195312 320.152344 C 181.449219 320.152344 204.753906 316.128906 229.738281 304.46875 C 260.21875 290.234375 281.402344 267.230469 292.691406 236.085938 C 307.503906 195.222656 300.417969 153.089844 292.464844 136.136719 L 291.40625 133.875 L 288.351562 133.875 C 288.195312 132.445312 287.988281 131.007812 287.941406 129.65625 C 287.695312 123.792969 287.890625 117.867188 288.8125 112.066406 C 291.464844 95.457031 299.800781 81.113281 314.957031 73.09375 C 319.433594 70.730469 315.464844 63.941406 310.988281 66.308594"/></svg>