<svg xmlns="http://www.w3.org/2000/svg" xmlns:xlink="http://www.w3.org/1999/xlink" width="375" zoomAndPan="magnify" viewBox="0 0 375 374.999991" height="374.999991" preserveAspectRatio="xMidYMid meet" version="1.0"><defs><clipPath id="id1"><path d="M 184 91 L 362.941406 91 L 362.941406 223 L 184 223 Z M 184 91 " clip-rule="nonzero"/></clipPath><clipPath id="id2"><path d="M 135 7.363281 L 234 7.363281 L 234 141 L 135 141 Z M 135 7.363281 " clip-rule="nonzero"/></clipPath></defs><rect x="-37.5" width="450" fill="rgb(100%, 100%, 100%)" y="-37.499999" height="449.999989" fill-opacity="1"/><rect x="-37.5" width="450" fill="rgb(100%, 100%, 100%)" y="-37.499999" height="449.999989" fill-opacity="1"/><g clip-path="url(#id1)"><path stroke-linecap="round" transform="matrix(0.853648, 0, 0, 0.853325, -26.218406, -36.583485)" fill="none" stroke-linejoin="round" d="M 331.321237 297.225869 C 343.461232 294.32362 355.724777 288.487079 367.288202 280.174013 C 409.414395 249.920127 391.087716 198.924775 449.000936 168.812798 C 309.663267 128.396464 251.319908 196.123235 253.854984 244.527621 " stroke="rgb(0%, 0%, 0%)" stroke-width="13.066" stroke-opacity="1" stroke-miterlimit="10"/></g><path stroke-linecap="round" transform="matrix(0.853648, 0, 0, 0.853325, -26.218406, -36.583485)" fill="none" stroke-linejoin="round" d="M 277.30215 270.991187 C 277.30215 270.991187 301.481469 209.627391 383.784501 187.681994 " stroke="rgb(0%, 0%, 0%)" stroke-width="13.066" stroke-opacity="1" stroke-miterlimit="10"/><g clip-path="url(#id2)"><path stroke-linecap="round" transform="matrix(0.853648, 0, 0, 0.853325, -26.218406, -36.583485)" fill="none" stroke-linejoin="round" d="M 297.605639 173.756692 C 297.861893 169.293455 297.779526 164.66542 297.36769 159.977876 C 293.665747 118.728405 251.045351 110.484003 253.900744 58.50445 C 190.757213 117.551941 187.503713 170.218146 204.251689 200.600206 " stroke="rgb(0%, 0%, 0%)" stroke-width="13.066" stroke-opacity="1" stroke-miterlimit="10"/></g><path stroke-linecap="round" transform="matrix(0.853648, 0, 0, 0.853325, -26.218406, -36.583485)" fill="none" stroke-linejoin="round" d="M 258.513301 213.440598 C 258.513301 213.440598 229.611602 170.122015 237.697306 120.165796 " stroke="rgb(0%, 0%, 0%)" stroke-width="13.066" stroke-opacity="1" stroke-miterlimit="10"/><path stroke-linecap="round" transform="matrix(0.853648, 0, 0, 0.853325, -26.218406, -36.583485)" fill="none" stroke-linejoin="round" d="M 237.248863 394.680093 C 220.089051 441.253406 168.408275 465.09854 121.834259 447.923085 C 75.260242 430.761364 51.40124 379.097671 68.561052 332.506047 C 85.725439 285.919001 137.419943 262.0876 183.99396 279.249321 C 230.567976 296.411042 254.41325 348.093046 237.248863 394.680093 Z M 237.248863 394.680093 " stroke="rgb(0%, 0%, 0%)" stroke-width="13.066" stroke-opacity="1" stroke-miterlimit="10"/><path stroke-linecap="round" transform="matrix(0.853648, 0, 0, 0.853325, -26.218406, -36.583485)" fill="none" stroke-linejoin="round" d="M 213.82 297.482219 C 234.700059 273.957523 268.62615 264.335241 299.884462 275.870994 C 340.669902 290.876628 361.531657 336.113259 346.508814 376.863763 C 331.499699 417.632579 286.266436 438.525109 245.4993 423.501164 C 238.891629 421.061261 232.814767 417.843152 227.314476 413.965857 " stroke="rgb(0%, 0%, 0%)" stroke-width="13.066" stroke-opacity="1" stroke-miterlimit="10"/><path stroke-linecap="round" transform="matrix(0.853648, 0, 0, 0.853325, -26.218406, -36.583485)" fill="none" stroke-linejoin="round" d="M 117.656417 280.975106 C 115.711638 269.251669 116.681739 256.905667 121.102107 244.944189 C 134.642342 208.20831 175.382022 189.421512 212.113171 202.943978 C 241.714989 213.857167 259.675592 242.472242 258.417206 272.410268 " stroke="rgb(0%, 0%, 0%)" stroke-width="13.066" stroke-opacity="1" stroke-miterlimit="10"/><path stroke-linecap="round" transform="matrix(0.853648, 0, 0, 0.853325, -26.218406, -36.583485)" fill="none" stroke-linejoin="round" d="M 138.056 355.206761 L 119.477645 338.154904 L 118.855315 357.916747 L 98.835535 365.428719 L 119.38155 375.746809 L 117.034087 401.780074 L 134.834532 386.481468 L 152.332964 404.013982 L 149.893982 382.050274 L 164.903097 378.557505 L 151.948584 368.349279 L 164.903097 346.989825 Z M 138.056 355.206761 " stroke="rgb(0%, 0%, 0%)" stroke-width="13.066" stroke-opacity="1" stroke-miterlimit="10"/><path stroke-linecap="round" transform="matrix(0.853648, 0, 0, 0.853325, -26.218406, -36.583485)" fill="none" stroke-linejoin="round" d="M 290.188025 361.551425 L 268.543783 360.979215 L 279.292689 374.135466 L 270.570928 390.262632 L 289.680094 385.364514 L 302.822222 403.547058 L 305.723374 383.629574 L 326.969509 385.094431 L 312.98083 372.25404 L 320.732489 361.551425 L 306.601957 362.238077 L 302.945773 341.102929 Z M 290.188025 361.551425 " stroke="rgb(0%, 0%, 0%)" stroke-width="13.066" stroke-opacity="1" stroke-miterlimit="10"/></svg>