<svg xmlns="http://www.w3.org/2000/svg" width="375" viewBox="0 0 375 375" height="375" version="1.0"><path fill="#FFF" d="M-37.5 -37.5H412.5V412.5H-37.5z"/><path fill="none" d="M-37.5 -37.5H412.5V412.5H-37.5z"/><path fill="#302B2D" d="M 106.476562 106.921875 L 107.203125 106.921875 C 107.539062 106.878906 107.871094 106.804688 108.191406 106.699219 C 108.515625 106.59375 108.824219 106.457031 109.117188 106.289062 C 109.414062 106.125 109.691406 105.929688 109.945312 105.707031 C 110.203125 105.488281 110.4375 105.242188 110.648438 104.976562 C 110.855469 104.710938 111.035156 104.425781 111.191406 104.125 C 111.34375 103.820312 111.464844 103.507812 111.558594 103.179688 C 111.648438 102.855469 111.707031 102.523438 111.734375 102.183594 C 111.761719 101.847656 111.753906 101.507812 111.714844 101.171875 C 111.550781 100.03125 111.480469 98.882812 111.496094 97.730469 C 111.515625 96.578125 111.621094 95.433594 111.820312 94.296875 C 112.015625 93.160156 112.300781 92.046875 112.671875 90.957031 C 113.042969 89.863281 113.496094 88.808594 114.03125 87.785156 C 114.566406 86.765625 115.179688 85.792969 115.867188 84.867188 C 116.558594 83.941406 117.3125 83.074219 118.136719 82.269531 C 118.960938 81.460938 119.84375 80.722656 120.785156 80.054688 C 121.722656 79.386719 122.710938 78.792969 123.742188 78.277344 C 134.679688 72.011719 150.804688 71.390625 158.21875 77.035156 C 158.484375 77.296875 158.773438 77.53125 159.089844 77.730469 C 159.40625 77.929688 159.738281 78.09375 160.089844 78.222656 C 160.441406 78.351562 160.804688 78.441406 161.171875 78.492188 C 161.542969 78.542969 161.917969 78.550781 162.289062 78.519531 C 162.660156 78.492188 163.027344 78.421875 163.386719 78.3125 C 163.742188 78.203125 164.085938 78.058594 164.410156 77.875 C 164.738281 77.691406 165.039062 77.472656 165.320312 77.226562 C 165.597656 76.976562 165.847656 76.703125 166.066406 76.398438 C 166.285156 76.097656 166.472656 75.773438 166.621094 75.429688 C 166.769531 75.089844 166.882812 74.734375 166.953125 74.367188 C 167.027344 74 167.058594 73.632812 167.054688 73.257812 C 167.046875 72.882812 167 72.515625 166.910156 72.152344 C 166.824219 71.789062 166.699219 71.4375 166.535156 71.101562 C 166.371094 70.765625 166.175781 70.449219 165.945312 70.15625 C 165.714844 69.863281 165.453125 69.597656 165.164062 69.359375 C 164.875 69.121094 164.566406 68.917969 164.230469 68.746094 C 153.34375 60.511719 133.125 60.71875 118.351562 69.265625 C 116.878906 70.03125 115.476562 70.90625 114.136719 71.886719 C 112.800781 72.871094 111.546875 73.945312 110.375 75.121094 C 109.203125 76.292969 108.125 77.550781 107.148438 78.890625 C 106.167969 80.226562 105.296875 81.632812 104.535156 83.105469 C 103.769531 84.578125 103.125 86.097656 102.59375 87.667969 C 102.066406 89.242188 101.660156 90.84375 101.375 92.476562 C 101.089844 94.109375 100.933594 95.753906 100.902344 97.414062 C 100.871094 99.070312 100.96875 100.722656 101.191406 102.363281 C 101.269531 103.003906 101.457031 103.609375 101.761719 104.179688 C 102.066406 104.75 102.460938 105.246094 102.949219 105.664062 C 103.441406 106.085938 103.988281 106.40625 104.597656 106.625 C 105.207031 106.839844 105.832031 106.9375 106.476562 106.921875 Z M 106.476562 106.921875"/><path fill="#302B2D" d="M 344.179688 233.511719 C 345.039062 232.578125 345.824219 231.589844 346.535156 230.539062 C 347.246094 229.488281 347.875 228.390625 348.421875 227.25 C 348.96875 226.105469 349.429688 224.925781 349.796875 223.714844 C 350.167969 222.503906 350.449219 221.269531 350.632812 220.015625 C 350.820312 218.761719 350.910156 217.503906 350.910156 216.234375 C 350.90625 214.96875 350.808594 213.707031 350.617188 212.453125 C 350.429688 211.203125 350.144531 209.96875 349.769531 208.757812 C 349.394531 207.546875 348.929688 206.371094 348.378906 205.230469 C 347.535156 203.375 346.480469 201.648438 345.214844 200.050781 C 345.816406 198.460938 346.332031 196.847656 346.765625 195.203125 C 347.199219 193.5625 347.550781 191.902344 347.816406 190.226562 C 348.078125 188.546875 348.257812 186.863281 348.351562 185.164062 C 348.445312 183.46875 348.453125 181.773438 348.375 180.078125 C 348.292969 178.382812 348.128906 176.695312 347.878906 175.015625 C 347.628906 173.335938 347.292969 171.671875 346.871094 170.027344 C 346.449219 168.382812 345.949219 166.761719 345.363281 165.167969 C 344.777344 163.574219 344.113281 162.011719 343.367188 160.484375 C 342.625 158.957031 341.804688 157.472656 340.910156 156.03125 C 340.015625 154.585938 339.046875 153.191406 338.011719 151.847656 C 336.972656 150.5 335.871094 149.210938 334.703125 147.980469 C 333.53125 146.746094 332.304688 145.574219 331.015625 144.464844 C 329.730469 143.359375 328.390625 142.316406 326.996094 141.347656 C 325.601562 140.375 324.164062 139.476562 322.675781 138.648438 C 321.191406 137.824219 319.667969 137.074219 318.105469 136.402344 C 316.546875 135.730469 314.953125 135.140625 313.332031 134.632812 C 312.867188 133.441406 312.296875 132.25 311.726562 131.058594 C 311.042969 129.65625 310.308594 128.28125 309.519531 126.933594 C 308.730469 125.585938 307.890625 124.273438 306.996094 122.992188 C 306.105469 121.714844 305.164062 120.46875 304.175781 119.261719 C 303.183594 118.054688 302.152344 116.886719 301.070312 115.761719 C 299.988281 114.636719 298.867188 113.550781 297.703125 112.515625 C 296.535156 111.476562 295.332031 110.484375 294.089844 109.539062 C 292.847656 108.59375 291.570312 107.699219 290.257812 106.851562 C 288.945312 106.007812 287.601562 105.214844 286.226562 104.476562 C 284.851562 103.734375 283.449219 103.050781 282.019531 102.417969 C 280.59375 101.785156 279.140625 101.210938 277.667969 100.695312 C 276.195312 100.175781 274.703125 99.71875 273.195312 99.316406 C 271.6875 98.914062 270.164062 98.574219 268.628906 98.289062 C 267.09375 98.007812 265.546875 97.785156 263.996094 97.625 C 262.441406 97.460938 260.882812 97.359375 259.324219 97.320312 C 257.761719 97.277344 256.203125 97.300781 254.640625 97.378906 C 253.082031 97.460938 251.527344 97.601562 249.980469 97.804688 C 249.28125 94.34375 248.285156 90.96875 246.984375 87.6875 C 245.683594 84.402344 244.101562 81.257812 242.238281 78.257812 C 240.375 75.253906 238.261719 72.441406 235.894531 69.816406 C 233.527344 67.195312 230.949219 64.800781 228.15625 62.636719 C 225.019531 60.273438 221.671875 58.257812 218.113281 56.59375 C 214.554688 54.929688 210.863281 53.652344 207.035156 52.757812 C 203.210938 51.867188 199.335938 51.378906 195.40625 51.296875 C 191.476562 51.21875 187.585938 51.542969 183.726562 52.277344 C 182.429688 51.1875 181.183594 50.203125 179.941406 49.273438 C 178.8125 48.445312 177.660156 47.652344 176.484375 46.894531 C 175.308594 46.136719 174.109375 45.417969 172.890625 44.734375 C 171.671875 44.050781 170.429688 43.40625 169.171875 42.796875 C 167.910156 42.1875 166.632812 41.621094 165.335938 41.089844 C 164.042969 40.5625 162.734375 40.074219 161.40625 39.625 C 160.082031 39.175781 158.746094 38.765625 157.394531 38.398438 C 156.046875 38.03125 154.683594 37.707031 153.316406 37.425781 C 151.945312 37.140625 150.566406 36.898438 149.183594 36.699219 C 147.796875 36.5 146.410156 36.34375 145.015625 36.230469 C 143.621094 36.117188 142.222656 36.046875 140.824219 36.019531 C 139.425781 35.988281 138.027344 36.003906 136.628906 36.0625 C 135.230469 36.121094 133.835938 36.21875 132.445312 36.363281 C 131.050781 36.507812 129.667969 36.691406 128.285156 36.917969 C 126.90625 37.148438 125.535156 37.417969 124.171875 37.730469 C 122.804688 38.042969 121.453125 38.394531 120.113281 38.792969 C 118.769531 39.1875 117.441406 39.621094 116.125 40.097656 C 114.808594 40.574219 113.511719 41.09375 112.226562 41.648438 C 110.945312 42.203125 109.679688 42.800781 108.433594 43.433594 C 107.183594 44.066406 105.957031 44.738281 104.753906 45.449219 C 103.546875 46.15625 102.363281 46.902344 101.203125 47.683594 C 100.042969 48.464844 98.910156 49.285156 97.800781 50.132812 C 96.691406 50.984375 95.609375 51.871094 94.550781 52.789062 C 93.496094 53.707031 92.46875 54.65625 91.472656 55.636719 C 90.476562 56.617188 89.511719 57.625 88.574219 58.667969 C 87.640625 59.707031 86.738281 60.773438 85.867188 61.867188 C 85 62.964844 84.164062 64.085938 83.363281 65.230469 C 82.5625 66.378906 81.796875 67.546875 81.070312 68.742188 C 80.339844 69.933594 79.648438 71.148438 78.996094 72.382812 C 78.339844 73.621094 77.726562 74.875 77.148438 76.148438 C 76.570312 77.421875 76.035156 78.710938 75.535156 80.015625 C 75.039062 81.324219 74.582031 82.644531 74.164062 83.976562 C 73.75 85.3125 73.375 86.660156 73.039062 88.015625 C 72.132812 88.035156 71.226562 88.085938 70.320312 88.160156 C 69.414062 88.234375 68.515625 88.335938 67.617188 88.464844 C 66.714844 88.59375 65.824219 88.746094 64.933594 88.929688 C 64.042969 89.113281 63.160156 89.320312 62.285156 89.554688 C 61.40625 89.789062 60.539062 90.050781 59.675781 90.335938 C 58.816406 90.625 57.964844 90.9375 57.121094 91.273438 C 56.277344 91.613281 55.445312 91.972656 54.625 92.363281 C 53.804688 92.75 52.996094 93.160156 52.199219 93.597656 C 51.402344 94.03125 50.621094 94.492188 49.851562 94.972656 C 49.082031 95.457031 48.328125 95.960938 47.589844 96.488281 C 46.851562 97.015625 46.128906 97.566406 45.425781 98.136719 C 44.71875 98.707031 44.03125 99.300781 43.363281 99.910156 C 42.691406 100.523438 42.039062 101.15625 41.40625 101.804688 C 40.773438 102.457031 40.164062 103.125 39.570312 103.8125 C 38.976562 104.5 38.40625 105.203125 37.855469 105.925781 C 37.308594 106.648438 36.777344 107.386719 36.273438 108.136719 C 35.765625 108.890625 35.285156 109.660156 34.824219 110.441406 C 34.363281 111.222656 33.929688 112.019531 33.515625 112.828125 C 33.101562 113.632812 32.714844 114.453125 32.351562 115.285156 C 31.988281 116.117188 31.652344 116.957031 31.339844 117.808594 C 31.023438 118.660156 30.738281 119.519531 30.476562 120.390625 C 30.214844 121.257812 29.980469 122.132812 29.769531 123.015625 C 29.5625 123.898438 29.378906 124.789062 29.222656 125.683594 C 29.070312 126.574219 28.941406 127.472656 28.835938 128.375 C 28.734375 129.277344 28.660156 130.179688 28.613281 131.085938 C 28.566406 131.992188 28.542969 132.898438 28.550781 133.804688 C 28.558594 134.710938 28.589844 135.617188 28.652344 136.523438 C 28.710938 137.425781 28.800781 138.328125 28.914062 139.230469 C 29.03125 140.128906 29.171875 141.023438 29.339844 141.917969 C 29.507812 142.808594 29.703125 143.691406 29.925781 144.574219 C 30.144531 145.453125 30.394531 146.324219 30.667969 147.1875 C 30.941406 148.054688 31.238281 148.910156 31.566406 149.757812 C 30.328125 151.070312 29.167969 152.453125 28.089844 153.902344 C 27.339844 154.917969 26.632812 155.964844 25.96875 157.039062 C 25.304688 158.117188 24.683594 159.21875 24.113281 160.347656 C 23.542969 161.476562 23.019531 162.625 22.542969 163.796875 C 22.066406 164.96875 21.640625 166.160156 21.265625 167.367188 C 20.890625 168.574219 20.566406 169.792969 20.292969 171.027344 C 20.019531 172.261719 19.796875 173.507812 19.628906 174.761719 C 19.457031 176.011719 19.339844 177.269531 19.277344 178.535156 C 19.214844 179.796875 19.203125 181.058594 19.242188 182.324219 C 19.285156 183.585938 19.378906 184.847656 19.527344 186.101562 C 19.675781 187.359375 19.875 188.605469 20.125 189.84375 C 20.378906 191.085938 20.683594 192.3125 21.035156 193.523438 C 21.390625 194.738281 21.796875 195.933594 22.25 197.113281 C 22.707031 198.296875 23.210938 199.453125 23.761719 200.589844 C 24.3125 201.730469 24.910156 202.84375 25.558594 203.929688 C 26.203125 205.019531 26.890625 206.078125 27.625 207.105469 C 28.359375 208.136719 29.136719 209.132812 29.953125 210.101562 C 30.769531 211.066406 31.625 211.996094 32.523438 212.886719 C 33.417969 213.78125 34.347656 214.636719 35.316406 215.453125 C 36.28125 216.269531 37.28125 217.042969 38.3125 217.773438 C 39.34375 218.507812 40.40625 219.195312 41.496094 219.835938 C 42.585938 220.480469 43.699219 221.078125 44.839844 221.628906 C 45.976562 222.179688 47.136719 222.679688 48.320312 223.132812 C 49.5 223.585938 50.699219 223.992188 51.914062 224.34375 C 53.128906 224.695312 54.359375 225 55.597656 225.25 C 56.839844 225.5 58.085938 225.699219 59.34375 225.84375 C 60.601562 225.988281 61.863281 226.082031 63.128906 226.121094 C 64.390625 226.164062 65.65625 226.152344 66.921875 226.085938 C 68.183594 226.019531 69.445312 225.902344 70.699219 225.734375 C 71.953125 225.5625 73.195312 225.339844 74.433594 225.066406 C 75.667969 224.789062 76.890625 224.464844 78.097656 224.089844 C 79.304688 223.710938 80.496094 223.285156 81.667969 222.808594 C 82.839844 222.332031 83.992188 221.808594 85.117188 221.234375 C 89.472656 219.039062 93.375 216.226562 96.835938 212.792969 C 120.0625 232.421875 122.757812 257.804688 124.625 293.699219 C 124.660156 295.246094 124.789062 296.78125 125.015625 298.3125 C 125.238281 299.84375 125.554688 301.351562 125.964844 302.84375 C 126.371094 304.335938 126.871094 305.796875 127.457031 307.226562 C 128.042969 308.660156 128.714844 310.050781 129.472656 311.398438 C 130.226562 312.746094 131.0625 314.046875 131.976562 315.292969 C 132.890625 316.539062 133.878906 317.726562 134.9375 318.855469 C 135.996094 319.984375 137.121094 321.042969 138.308594 322.03125 C 139.5 323.023438 140.742188 323.9375 142.042969 324.777344 C 144.609375 326.378906 147.355469 327.578125 150.277344 328.375 C 153.199219 329.167969 156.175781 329.523438 159.203125 329.4375 C 162.132812 329.5 165.015625 329.175781 167.859375 328.464844 C 170.699219 327.753906 173.394531 326.679688 175.949219 325.242188 C 178.066406 327.917969 180.570312 330.164062 183.464844 331.976562 C 184.035156 332.339844 184.65625 332.597656 185.28125 332.960938 L 185.644531 333.269531 L 186.214844 333.269531 C 190.714844 335.527344 195.484375 336.648438 200.523438 336.636719 C 202.484375 336.667969 204.425781 336.472656 206.34375 336.054688 C 208.261719 335.636719 210.105469 335.007812 211.878906 334.160156 C 213.648438 333.316406 215.300781 332.28125 216.832031 331.054688 C 218.367188 329.828125 219.738281 328.441406 220.949219 326.898438 C 221.171875 326.609375 221.363281 326.296875 221.519531 325.96875 C 230.488281 307.941406 250.808594 277.125 270.5625 263.8125 C 271.003906 265.316406 271.53125 266.789062 272.144531 268.230469 C 272.761719 269.671875 273.460938 271.070312 274.242188 272.429688 C 275.023438 273.789062 275.882812 275.09375 276.820312 276.351562 C 277.761719 277.605469 278.769531 278.800781 279.851562 279.9375 C 280.929688 281.074219 282.074219 282.140625 283.28125 283.140625 C 284.488281 284.140625 285.753906 285.0625 287.070312 285.914062 C 288.390625 286.761719 289.753906 287.53125 291.164062 288.21875 C 292.574219 288.90625 294.019531 289.507812 295.5 290.019531 C 297.363281 290.671875 299.261719 291.183594 301.199219 291.554688 C 303.136719 291.925781 305.09375 292.152344 307.066406 292.238281 C 309.035156 292.320312 311.003906 292.257812 312.964844 292.050781 C 314.929688 291.84375 316.867188 291.492188 318.777344 291 C 320.6875 290.503906 322.550781 289.875 324.367188 289.105469 C 326.1875 288.335938 327.9375 287.4375 329.621094 286.410156 C 331.304688 285.386719 332.90625 284.238281 334.421875 282.976562 C 335.9375 281.714844 337.351562 280.347656 338.664062 278.875 C 339.976562 277.402344 341.175781 275.839844 342.257812 274.191406 C 343.339844 272.542969 344.296875 270.824219 345.125 269.035156 C 345.953125 267.246094 346.644531 265.40625 347.199219 263.511719 C 347.753906 261.621094 348.167969 259.699219 348.441406 257.746094 C 348.710938 255.792969 348.839844 253.832031 348.820312 251.859375 C 348.800781 249.886719 348.640625 247.925781 348.332031 245.980469 C 348.023438 244.03125 347.574219 242.117188 346.980469 240.238281 C 346.390625 238.355469 345.664062 236.527344 344.800781 234.753906 Z M 80.296875 212.328125 C 78.859375 213.074219 77.378906 213.714844 75.851562 214.253906 C 74.324219 214.792969 72.765625 215.21875 71.175781 215.539062 C 69.585938 215.855469 67.984375 216.0625 66.367188 216.152344 C 64.75 216.242188 63.132812 216.222656 61.519531 216.082031 C 59.90625 215.945312 58.308594 215.699219 56.730469 215.335938 C 55.152344 214.972656 53.605469 214.5 52.09375 213.921875 C 50.582031 213.339844 49.117188 212.65625 47.703125 211.867188 C 46.289062 211.082031 44.933594 210.199219 43.644531 209.21875 C 42.714844 208.535156 41.820312 207.808594 40.964844 207.035156 C 40.105469 206.261719 39.289062 205.453125 38.511719 204.597656 C 37.734375 203.746094 37.003906 202.859375 36.3125 201.933594 C 35.625 201.007812 34.980469 200.050781 34.386719 199.0625 C 33.792969 198.074219 33.246094 197.0625 32.753906 196.019531 C 32.257812 194.976562 31.816406 193.914062 31.425781 192.828125 C 31.035156 191.742188 30.699219 190.640625 30.417969 189.523438 C 30.136719 188.40625 29.914062 187.277344 29.742188 186.136719 C 29.574219 184.996094 29.460938 183.847656 29.40625 182.695312 C 29.347656 181.546875 29.351562 180.394531 29.40625 179.242188 C 29.464844 178.089844 29.578125 176.945312 29.75 175.804688 C 29.917969 174.664062 30.144531 173.535156 30.429688 172.417969 C 30.710938 171.296875 31.046875 170.195312 31.4375 169.113281 C 31.828125 168.027344 32.273438 166.964844 32.765625 165.921875 C 33.261719 164.882812 33.808594 163.867188 34.40625 162.878906 C 35 161.890625 35.644531 160.9375 36.335938 160.011719 C 37.75 158.128906 39.339844 156.402344 41.105469 154.832031 C 41.523438 154.457031 41.867188 154.023438 42.144531 153.535156 C 42.421875 153.046875 42.613281 152.527344 42.722656 151.976562 C 42.828125 151.425781 42.847656 150.871094 42.773438 150.3125 C 42.703125 149.757812 42.542969 149.226562 42.296875 148.722656 C 41.621094 147.335938 41.042969 145.910156 40.554688 144.445312 C 40.070312 142.984375 39.679688 141.492188 39.390625 139.980469 C 39.101562 138.464844 38.910156 136.9375 38.820312 135.398438 C 38.734375 133.859375 38.746094 132.320312 38.859375 130.785156 C 38.972656 129.246094 39.1875 127.722656 39.503906 126.214844 C 39.816406 124.703125 40.230469 123.222656 40.738281 121.765625 C 41.25 120.3125 41.855469 118.894531 42.550781 117.519531 C 43.246094 116.144531 44.03125 114.820312 44.902344 113.546875 C 45.773438 112.273438 46.726562 111.066406 47.757812 109.917969 C 48.789062 108.769531 49.890625 107.695312 51.0625 106.691406 C 52.234375 105.691406 53.46875 104.769531 54.761719 103.929688 C 56.054688 103.089844 57.398438 102.335938 58.792969 101.675781 C 60.1875 101.011719 61.617188 100.441406 63.085938 99.96875 C 64.554688 99.492188 66.046875 99.113281 67.5625 98.835938 C 69.082031 98.558594 70.613281 98.378906 72.152344 98.304688 C 73.695312 98.226562 75.234375 98.25 76.773438 98.375 C 77.410156 98.425781 78.039062 98.355469 78.652344 98.171875 C 79.269531 97.988281 79.828125 97.699219 80.335938 97.308594 C 80.84375 96.914062 81.265625 96.445312 81.597656 95.898438 C 81.929688 95.347656 82.152344 94.757812 82.265625 94.128906 C 83.03125 89.757812 84.289062 85.53125 86.039062 81.453125 C 87.792969 77.375 89.992188 73.554688 92.636719 69.992188 C 93.765625 68.460938 94.96875 66.992188 96.242188 65.582031 C 97.519531 64.171875 98.859375 62.828125 100.265625 61.550781 C 101.671875 60.273438 103.140625 59.066406 104.667969 57.933594 C 106.191406 56.800781 107.769531 55.742188 109.402344 54.765625 C 111.03125 53.789062 112.707031 52.890625 114.425781 52.078125 C 116.144531 51.265625 117.898438 50.539062 119.6875 49.898438 C 121.480469 49.257812 123.296875 48.703125 125.140625 48.242188 C 126.988281 47.78125 128.847656 47.410156 130.730469 47.132812 C 132.613281 46.855469 134.503906 46.667969 136.402344 46.574219 C 138.300781 46.484375 140.203125 46.484375 142.101562 46.578125 C 144 46.675781 145.890625 46.863281 147.769531 47.140625 C 149.652344 47.421875 151.515625 47.796875 153.359375 48.257812 C 155.203125 48.722656 157.019531 49.277344 158.808594 49.917969 C 160.601562 50.5625 162.351562 51.292969 164.070312 52.105469 C 165.789062 52.921875 167.460938 53.820312 169.089844 54.800781 C 170.722656 55.78125 172.296875 56.839844 173.824219 57.972656 C 175.628906 59.257812 177.355469 60.640625 179.007812 62.117188 C 179.65625 62.714844 180.410156 63.117188 181.265625 63.328125 C 182.121094 63.539062 182.976562 63.535156 183.828125 63.308594 C 187.117188 62.5 190.457031 62.0625 193.84375 61.996094 C 197.230469 61.929688 200.582031 62.238281 203.898438 62.917969 C 207.21875 63.597656 210.421875 64.636719 213.507812 66.03125 C 216.59375 67.425781 219.488281 69.144531 222.191406 71.183594 C 224.492188 72.976562 226.609375 74.960938 228.554688 77.132812 C 230.496094 79.308594 232.226562 81.636719 233.75 84.121094 C 235.273438 86.609375 236.558594 89.207031 237.613281 91.925781 C 238.667969 94.640625 239.472656 97.429688 240.027344 100.292969 C 237.144531 101.167969 234.34375 102.253906 231.628906 103.554688 C 224.636719 106.921875 218.535156 111.480469 213.328125 117.230469 C 212.613281 116.890625 211.894531 116.574219 211.164062 116.277344 C 210.429688 115.980469 209.691406 115.707031 208.945312 115.457031 C 208.199219 115.203125 207.445312 114.972656 206.683594 114.765625 C 205.921875 114.558594 205.15625 114.371094 204.382812 114.210938 C 203.613281 114.046875 202.835938 113.90625 202.058594 113.789062 C 201.277344 113.671875 200.496094 113.578125 199.707031 113.507812 C 198.921875 113.4375 198.136719 113.390625 197.347656 113.363281 C 196.558594 113.339844 195.773438 113.339844 194.984375 113.359375 C 194.195312 113.382812 193.40625 113.425781 192.621094 113.496094 C 191.835938 113.5625 191.054688 113.65625 190.273438 113.769531 C 189.492188 113.882812 188.714844 114.019531 187.945312 114.179688 C 187.171875 114.339844 186.40625 114.523438 185.644531 114.730469 C 184.882812 114.933594 184.128906 115.160156 183.378906 115.410156 C 182.632812 115.660156 181.890625 115.933594 181.160156 116.226562 C 180.425781 116.519531 179.703125 116.835938 178.992188 117.171875 C 178.277344 117.507812 177.574219 117.863281 176.882812 118.238281 C 176.191406 118.617188 175.507812 119.015625 174.839844 119.433594 C 174.171875 119.851562 173.515625 120.285156 172.871094 120.742188 C 172.230469 121.199219 171.597656 121.671875 170.984375 122.167969 C 170.371094 122.660156 169.769531 123.171875 169.183594 123.699219 C 168.597656 124.226562 168.03125 124.773438 167.476562 125.335938 C 166.925781 125.898438 166.390625 126.472656 165.871094 127.066406 C 165.351562 127.660156 164.851562 128.269531 164.367188 128.894531 C 163.886719 129.515625 163.421875 130.152344 162.976562 130.804688 C 162.53125 131.453125 162.105469 132.117188 161.699219 132.792969 C 161.292969 133.46875 160.90625 134.15625 160.542969 134.851562 C 160.175781 135.550781 159.832031 136.257812 159.507812 136.976562 C 159.183594 137.695312 158.882812 138.421875 158.601562 139.160156 C 158.320312 139.894531 158.058594 140.640625 157.824219 141.390625 C 157.585938 142.144531 157.371094 142.902344 157.179688 143.664062 C 156.988281 144.429688 156.816406 145.199219 156.671875 145.972656 C 156.523438 146.746094 156.402344 147.523438 156.300781 148.308594 C 154.9375 148.785156 153.609375 149.335938 152.308594 149.964844 C 150.277344 150.9375 148.347656 152.074219 146.511719 153.375 C 144.675781 154.675781 142.960938 156.125 141.375 157.714844 C 139.785156 159.308594 138.339844 161.023438 137.042969 162.863281 C 135.746094 164.699219 134.613281 166.632812 133.644531 168.664062 C 132.878906 169.648438 132.042969 170.5625 131.128906 171.414062 C 130.21875 172.261719 129.242188 173.035156 128.207031 173.726562 C 127.171875 174.421875 126.085938 175.027344 124.953125 175.546875 C 123.820312 176.066406 122.652344 176.492188 121.449219 176.824219 C 120.246094 177.15625 119.023438 177.386719 117.785156 177.523438 C 116.546875 177.660156 115.304688 177.695312 114.058594 177.632812 C 112.8125 177.566406 111.578125 177.402344 110.359375 177.140625 C 109.140625 176.878906 107.949219 176.523438 106.789062 176.070312 C 106.394531 175.914062 105.988281 175.804688 105.570312 175.75 C 105.148438 175.691406 104.730469 175.6875 104.308594 175.734375 C 103.886719 175.777344 103.480469 175.875 103.082031 176.019531 C 102.683594 176.167969 102.308594 176.359375 101.960938 176.597656 C 101.609375 176.832031 101.292969 177.109375 101.011719 177.425781 C 100.726562 177.742188 100.488281 178.085938 100.289062 178.457031 C 100.089844 178.832031 99.941406 179.226562 99.839844 179.636719 C 99.738281 180.046875 99.6875 180.464844 99.6875 180.886719 C 99.695312 182.511719 99.585938 184.125 99.371094 185.734375 C 99.152344 187.34375 98.820312 188.929688 98.382812 190.492188 C 97.941406 192.054688 97.394531 193.582031 96.742188 195.070312 C 96.089844 196.554688 95.339844 197.992188 94.484375 199.371094 C 93.632812 200.753906 92.6875 202.070312 91.652344 203.324219 C 90.617188 204.574219 89.5 205.746094 88.300781 206.84375 C 87.097656 207.9375 85.828125 208.945312 84.488281 209.863281 C 83.148438 210.78125 81.753906 211.601562 80.296875 212.328125 Z M 152.878906 318.09375 C 159.515625 303.695312 162.003906 276.96875 157.027344 264.277344 C 156.890625 263.976562 156.730469 263.6875 156.539062 263.417969 C 156.351562 263.148438 156.136719 262.894531 155.902344 262.664062 C 155.664062 262.433594 155.40625 262.226562 155.128906 262.046875 C 154.851562 261.867188 154.5625 261.710938 154.257812 261.585938 C 153.949219 261.460938 153.632812 261.367188 153.308594 261.300781 C 152.984375 261.234375 152.65625 261.199219 152.328125 261.199219 C 151.996094 261.195312 151.667969 261.222656 151.34375 261.285156 C 151.015625 261.34375 150.699219 261.433594 150.390625 261.554688 C 150.085938 261.675781 149.789062 261.824219 149.511719 262.003906 C 149.230469 262.179688 148.972656 262.382812 148.730469 262.609375 C 148.488281 262.835938 148.273438 263.082031 148.078125 263.351562 C 147.886719 263.621094 147.71875 263.902344 147.582031 264.203125 C 147.441406 264.503906 147.332031 264.816406 147.253906 265.136719 C 147.171875 265.457031 147.125 265.78125 147.109375 266.113281 C 147.089844 266.441406 147.105469 266.773438 147.152344 267.097656 C 147.199219 267.425781 147.273438 267.746094 147.382812 268.058594 C 151.21875 277.746094 148.988281 301.363281 143.855469 313.070312 C 142.535156 311.757812 141.347656 310.332031 140.296875 308.792969 C 139.246094 307.257812 138.347656 305.636719 137.601562 303.929688 C 136.855469 302.222656 136.277344 300.460938 135.863281 298.644531 C 135.449219 296.828125 135.210938 294.988281 135.148438 293.128906 C 133.4375 255.628906 129.964844 227.035156 103.417969 204.765625 C 106.730469 199.457031 108.839844 193.707031 109.746094 187.515625 C 113.15625 188.0625 116.574219 188.085938 119.996094 187.59375 C 123.417969 187.097656 126.6875 186.105469 129.808594 184.617188 C 129.699219 187.855469 129.984375 191.0625 130.660156 194.234375 C 131.335938 197.40625 132.382812 200.449219 133.800781 203.367188 C 134.304688 204.40625 134.855469 205.425781 135.449219 206.421875 C 136.042969 207.414062 136.679688 208.382812 137.355469 209.324219 C 138.035156 210.261719 138.75 211.171875 139.507812 212.046875 C 140.261719 212.925781 141.054688 213.769531 141.886719 214.578125 C 142.714844 215.386719 143.578125 216.160156 144.472656 216.894531 C 145.371094 217.628906 146.296875 218.324219 147.253906 218.976562 C 148.210938 219.632812 149.191406 220.242188 150.203125 220.8125 C 151.210938 221.382812 152.242188 221.90625 153.296875 222.386719 C 154.351562 222.867188 155.425781 223.300781 156.519531 223.6875 C 157.613281 224.074219 158.71875 224.414062 159.839844 224.707031 C 160.960938 224.996094 162.09375 225.238281 163.238281 225.433594 C 164.378906 225.628906 165.527344 225.769531 166.683594 225.867188 C 167.839844 225.960938 168.996094 226.003906 170.15625 226 C 171.316406 225.992188 172.472656 225.9375 173.625 225.832031 C 174.78125 225.726562 175.929688 225.570312 177.070312 225.363281 C 178.210938 225.160156 179.339844 224.90625 180.457031 224.601562 C 189.636719 246.925781 187.5625 268.679688 173.617188 298.410156 C 172.167969 301.089844 171.246094 303.9375 170.84375 306.953125 C 170.441406 309.96875 170.589844 312.957031 171.28125 315.917969 C 169.871094 316.671875 168.402344 317.28125 166.875 317.753906 C 165.347656 318.222656 163.789062 318.542969 162.199219 318.71875 C 160.609375 318.890625 159.015625 318.910156 157.421875 318.78125 C 155.828125 318.648438 154.261719 318.371094 152.722656 317.9375 Z M 212.289062 321.097656 C 211.773438 321.679688 211.21875 322.21875 210.625 322.71875 C 210.035156 323.21875 209.410156 323.675781 208.75 324.085938 C 208.09375 324.496094 207.40625 324.859375 206.699219 325.175781 C 205.988281 325.488281 205.257812 325.75 204.511719 325.960938 C 203.765625 326.171875 203.007812 326.324219 202.238281 326.429688 C 201.46875 326.53125 200.695312 326.578125 199.917969 326.570312 C 199.140625 326.5625 198.371094 326.496094 197.601562 326.378906 C 196.835938 326.261719 196.082031 326.089844 195.335938 325.863281 L 214 289.605469 C 214.160156 289.300781 214.285156 288.984375 214.378906 288.65625 C 214.472656 288.328125 214.535156 287.992188 214.5625 287.648438 C 214.59375 287.308594 214.585938 286.96875 214.546875 286.628906 C 214.507812 286.289062 214.4375 285.953125 214.332031 285.628906 C 214.230469 285.300781 214.09375 284.988281 213.925781 284.6875 C 213.761719 284.390625 213.566406 284.109375 213.34375 283.847656 C 213.125 283.585938 212.878906 283.347656 212.609375 283.136719 C 212.339844 282.921875 212.054688 282.738281 211.75 282.582031 C 211.445312 282.425781 211.128906 282.300781 210.796875 282.207031 C 210.46875 282.113281 210.132812 282.050781 209.789062 282.023438 C 209.449219 281.996094 209.109375 282 208.765625 282.039062 C 208.425781 282.078125 208.09375 282.152344 207.765625 282.253906 C 207.441406 282.359375 207.128906 282.496094 206.828125 282.664062 C 206.527344 282.828125 206.246094 283.023438 205.988281 283.246094 C 205.726562 283.46875 205.488281 283.710938 205.273438 283.980469 C 205.0625 284.25 204.878906 284.535156 204.722656 284.839844 L 186.160156 321.097656 C 185.519531 320.570312 184.929688 319.988281 184.390625 319.355469 C 183.851562 318.726562 183.367188 318.050781 182.945312 317.335938 C 182.519531 316.625 182.160156 315.878906 181.863281 315.101562 C 181.566406 314.324219 181.339844 313.53125 181.179688 312.714844 C 181.019531 311.898438 180.929688 311.078125 180.914062 310.246094 C 180.894531 309.414062 180.949219 308.589844 181.074219 307.769531 C 181.195312 306.945312 181.390625 306.140625 181.652344 305.355469 C 181.914062 304.566406 182.242188 303.804688 182.636719 303.074219 C 193.417969 280.023438 202.492188 252.363281 189.636719 220.925781 C 194.414062 218.203125 198.457031 214.644531 201.765625 210.253906 C 202.632812 210.890625 203.53125 211.476562 204.460938 212.015625 C 207.6875 213.878906 211.144531 215.089844 214.832031 215.640625 C 217.113281 224.964844 219.757812 247.960938 217.890625 256.820312 C 217.765625 257.40625 217.746094 258 217.832031 258.59375 C 217.914062 259.191406 218.097656 259.753906 218.375 260.285156 C 218.65625 260.816406 219.019531 261.285156 219.460938 261.691406 C 219.90625 262.097656 220.402344 262.417969 220.957031 262.648438 C 221.511719 262.882812 222.089844 263.015625 222.691406 263.046875 C 223.292969 263.078125 223.878906 263.007812 224.457031 262.835938 C 225.03125 262.664062 225.5625 262.398438 226.046875 262.039062 C 226.53125 261.683594 226.9375 261.253906 227.273438 260.757812 C 232.457031 252.675781 247.128906 240.039062 263.046875 240.039062 C 265.253906 240.878906 267.515625 241.515625 269.835938 241.953125 C 269.074219 244.683594 268.609375 247.464844 268.4375 250.292969 C 268.4375 251.277344 268.4375 252.261719 268.4375 253.296875 C 245.886719 265.730469 222.816406 299.863281 212.289062 321.097656 Z M 225.5625 215.070312 C 227.789062 214.59375 229.933594 213.871094 231.992188 212.898438 L 233.390625 212.171875 C 235.304688 213.015625 237.257812 213.757812 239.25 214.398438 C 239.816406 216.175781 240.507812 217.902344 241.324219 219.578125 C 243.515625 224.097656 246.453125 228.070312 250.136719 231.492188 C 242.289062 234.050781 235.238281 238.023438 228.984375 243.40625 C 228.59375 233.800781 227.453125 224.289062 225.5625 214.863281 Z M 333.242188 235.789062 C 333.730469 236.507812 334.1875 237.242188 334.613281 238 C 335.039062 238.753906 335.433594 239.527344 335.789062 240.316406 C 336.148438 241.105469 336.46875 241.910156 336.757812 242.730469 C 337.046875 243.546875 337.296875 244.378906 337.511719 245.21875 C 337.726562 246.058594 337.902344 246.90625 338.042969 247.761719 C 338.183594 248.617188 338.289062 249.480469 338.351562 250.34375 C 338.417969 251.207031 338.445312 252.074219 338.433594 252.941406 C 338.421875 253.808594 338.375 254.671875 338.289062 255.535156 C 338.203125 256.398438 338.078125 257.257812 337.917969 258.109375 C 337.753906 258.960938 337.554688 259.804688 337.320312 260.640625 C 337.085938 261.472656 336.8125 262.296875 336.507812 263.109375 C 336.199219 263.917969 335.855469 264.714844 335.480469 265.496094 C 335.101562 266.277344 334.691406 267.039062 334.246094 267.785156 C 333.800781 268.53125 333.328125 269.253906 332.820312 269.960938 C 332.3125 270.664062 331.773438 271.34375 331.207031 272 C 330.640625 272.65625 330.042969 273.285156 329.421875 273.890625 C 328.800781 274.496094 328.152344 275.070312 327.480469 275.621094 C 326.808594 276.167969 326.109375 276.683594 325.394531 277.171875 C 324.675781 277.660156 323.9375 278.113281 323.179688 278.539062 C 322.421875 278.960938 321.644531 279.347656 320.851562 279.703125 C 320.0625 280.058594 319.253906 280.378906 318.433594 280.664062 C 317.613281 280.945312 316.785156 281.195312 315.941406 281.40625 C 315.101562 281.617188 314.25 281.792969 313.394531 281.929688 C 312.535156 282.066406 311.675781 282.167969 310.808594 282.230469 C 309.945312 282.292969 309.078125 282.316406 308.207031 282.300781 C 307.339844 282.289062 306.476562 282.238281 305.613281 282.148438 C 304.746094 282.058594 303.890625 281.929688 303.039062 281.765625 C 302.183594 281.601562 301.339844 281.402344 300.507812 281.164062 C 299.671875 280.925781 298.851562 280.652344 298.039062 280.339844 C 297.226562 280.03125 296.433594 279.683594 295.652344 279.304688 C 294.871094 278.925781 294.109375 278.511719 293.363281 278.066406 C 292.621094 277.621094 291.898438 277.140625 291.195312 276.632812 C 290.492188 276.125 289.8125 275.585938 289.160156 275.015625 C 288.503906 274.445312 287.875 273.851562 287.269531 273.226562 C 286.667969 272.601562 286.09375 271.953125 285.546875 271.277344 C 285 270.605469 284.484375 269.90625 284 269.1875 C 283.515625 268.46875 283.0625 267.730469 282.640625 266.972656 C 282.222656 266.214844 281.835938 265.4375 281.484375 264.644531 C 281.128906 263.851562 280.8125 263.046875 280.53125 262.226562 C 280.25 261.40625 280.003906 260.574219 279.796875 259.730469 C 279.585938 258.890625 279.414062 258.042969 279.28125 257.183594 C 279.144531 256.328125 279.046875 255.464844 278.988281 254.601562 C 278.929688 253.734375 278.910156 252.871094 278.925781 252.003906 C 278.941406 251.136719 278.996094 250.269531 279.089844 249.410156 C 279.183594 248.546875 279.3125 247.6875 279.480469 246.839844 C 279.648438 245.988281 279.851562 245.144531 280.09375 244.3125 C 280.332031 243.480469 280.609375 242.65625 280.925781 241.847656 C 281.238281 241.039062 281.585938 240.246094 281.96875 239.46875 C 282.0625 239.273438 282.148438 239.070312 282.21875 238.863281 C 282.289062 238.660156 282.347656 238.449219 282.390625 238.234375 C 282.433594 238.019531 282.464844 237.804688 282.480469 237.589844 C 282.5 237.371094 282.5 237.152344 282.492188 236.933594 C 282.480469 236.71875 282.457031 236.5 282.417969 236.285156 C 282.378906 236.070312 282.328125 235.859375 282.261719 235.652344 C 282.199219 235.445312 282.121094 235.238281 282.03125 235.042969 C 281.941406 234.84375 281.835938 234.652344 281.722656 234.464844 C 281.609375 234.28125 281.480469 234.101562 281.34375 233.933594 C 281.207031 233.761719 281.058594 233.601562 280.902344 233.453125 C 280.746094 233.300781 280.578125 233.160156 280.402344 233.03125 C 280.226562 232.898438 280.046875 232.78125 279.855469 232.675781 C 279.664062 232.566406 279.46875 232.472656 279.265625 232.390625 C 279.0625 232.308594 278.859375 232.238281 278.648438 232.183594 C 278.4375 232.128906 278.222656 232.085938 278.003906 232.054688 C 277.789062 232.027344 277.570312 232.011719 277.355469 232.007812 C 275.695312 232.003906 274.046875 231.863281 272.414062 231.585938 C 270.777344 231.304688 269.179688 230.894531 267.613281 230.347656 C 266.046875 229.800781 264.539062 229.128906 263.082031 228.328125 C 261.628906 227.53125 260.253906 226.617188 258.953125 225.589844 C 257.652344 224.558594 256.445312 223.429688 255.335938 222.199219 C 254.222656 220.96875 253.222656 219.65625 252.332031 218.257812 C 251.441406 216.863281 250.671875 215.398438 250.023438 213.875 C 249.378906 212.347656 248.863281 210.777344 248.476562 209.167969 C 248.253906 208.25 247.8125 207.449219 247.15625 206.773438 C 246.496094 206.097656 245.710938 205.632812 244.796875 205.386719 C 241.546875 204.492188 238.417969 203.285156 235.414062 201.761719 C 234.578125 201.351562 233.699219 201.179688 232.773438 201.246094 C 231.84375 201.3125 230.996094 201.601562 230.226562 202.121094 C 229.386719 202.707031 228.503906 203.222656 227.585938 203.675781 C 226.640625 204.132812 225.667969 204.507812 224.664062 204.804688 C 223.660156 205.101562 222.640625 205.3125 221.601562 205.4375 C 220.5625 205.566406 219.519531 205.609375 218.472656 205.566406 C 217.425781 205.519531 216.390625 205.390625 215.367188 205.179688 C 214.339844 204.964844 213.339844 204.667969 212.363281 204.289062 C 211.390625 203.910156 210.449219 203.453125 209.550781 202.921875 C 208.648438 202.390625 207.796875 201.785156 206.996094 201.113281 C 206.195312 200.441406 205.453125 199.707031 204.773438 198.910156 C 204.214844 198.265625 203.535156 197.785156 202.738281 197.472656 C 201.9375 197.160156 201.113281 197.054688 200.261719 197.152344 C 199.410156 197.25 198.632812 197.542969 197.925781 198.027344 C 197.21875 198.515625 196.667969 199.136719 196.269531 199.894531 C 195.460938 201.453125 194.523438 202.929688 193.449219 204.320312 C 192.378906 205.710938 191.191406 206.996094 189.890625 208.175781 C 188.589844 209.355469 187.195312 210.414062 185.707031 211.34375 C 184.21875 212.277344 182.660156 213.070312 181.027344 213.726562 C 180.164062 214.0625 179.289062 214.359375 178.398438 214.613281 C 177.507812 214.867188 176.605469 215.082031 175.695312 215.25 C 174.785156 215.421875 173.867188 215.550781 172.945312 215.636719 C 172.019531 215.722656 171.097656 215.765625 170.167969 215.765625 C 169.242188 215.765625 168.316406 215.722656 167.394531 215.636719 C 166.472656 215.550781 165.554688 215.421875 164.644531 215.25 C 163.734375 215.078125 162.832031 214.863281 161.941406 214.609375 C 161.050781 214.351562 160.171875 214.058594 159.308594 213.71875 C 158.445312 213.382812 157.601562 213.007812 156.773438 212.589844 C 155.945312 212.175781 155.136719 211.722656 154.351562 211.230469 C 153.566406 210.742188 152.804688 210.214844 152.066406 209.652344 C 151.328125 209.09375 150.621094 208.496094 149.9375 207.871094 C 149.257812 207.242188 148.605469 206.585938 147.984375 205.894531 C 147.367188 205.207031 146.777344 204.492188 146.226562 203.75 C 145.671875 203.007812 145.152344 202.242188 144.671875 201.449219 C 144.191406 200.660156 143.746094 199.847656 143.339844 199.015625 C 142.914062 198.140625 142.535156 197.246094 142.195312 196.332031 C 141.859375 195.417969 141.570312 194.488281 141.324219 193.546875 C 141.078125 192.605469 140.878906 191.652344 140.730469 190.691406 C 140.578125 189.730469 140.472656 188.765625 140.417969 187.792969 C 140.359375 186.820312 140.351562 185.847656 140.390625 184.875 C 140.433594 183.902344 140.519531 182.9375 140.652344 181.972656 C 140.789062 181.007812 140.96875 180.054688 141.199219 179.105469 C 141.425781 178.160156 141.703125 177.226562 142.023438 176.308594 C 142.34375 175.390625 142.707031 174.488281 143.117188 173.605469 C 143.527344 172.722656 143.980469 171.859375 144.472656 171.023438 C 144.96875 170.183594 145.503906 169.371094 146.078125 168.585938 C 146.652344 167.796875 147.261719 167.042969 147.910156 166.316406 C 148.558594 165.589844 149.242188 164.898438 149.957031 164.238281 C 150.675781 163.578125 151.421875 162.957031 152.203125 162.371094 C 152.980469 161.785156 153.785156 161.238281 154.617188 160.734375 C 155.449219 160.226562 156.304688 159.761719 157.179688 159.339844 C 158.976562 158.453125 160.84375 157.765625 162.78125 157.265625 C 163.324219 157.128906 163.832031 156.90625 164.304688 156.597656 C 164.777344 156.292969 165.1875 155.921875 165.539062 155.480469 C 165.890625 155.042969 166.160156 154.558594 166.355469 154.03125 C 166.546875 153.503906 166.652344 152.960938 166.667969 152.398438 C 166.710938 151.097656 166.839844 149.804688 167.054688 148.523438 C 167.269531 147.238281 167.566406 145.976562 167.945312 144.730469 C 168.324219 143.488281 168.785156 142.273438 169.324219 141.089844 C 169.867188 139.90625 170.480469 138.761719 171.171875 137.65625 C 171.863281 136.554688 172.621094 135.5 173.453125 134.5 C 174.28125 133.496094 175.171875 132.550781 176.125 131.664062 C 177.078125 130.777344 178.085938 129.957031 179.148438 129.203125 C 180.210938 128.449219 181.316406 127.769531 182.46875 127.160156 C 183.617188 126.554688 184.804688 126.023438 186.023438 125.570312 C 187.246094 125.117188 188.492188 124.746094 189.761719 124.457031 C 191.03125 124.167969 192.3125 123.964844 193.609375 123.84375 C 194.90625 123.722656 196.207031 123.6875 197.507812 123.738281 C 198.808594 123.789062 200.101562 123.925781 201.386719 124.144531 C 202.667969 124.363281 203.933594 124.667969 205.175781 125.054688 C 206.417969 125.441406 207.632812 125.90625 208.8125 126.453125 C 209.996094 126.996094 211.136719 127.617188 212.238281 128.3125 C 212.78125 128.65625 213.367188 128.886719 213.996094 129.011719 C 214.625 129.136719 215.257812 129.140625 215.890625 129.03125 C 216.523438 128.921875 217.113281 128.703125 217.664062 128.375 C 218.214844 128.042969 218.6875 127.625 219.082031 127.121094 C 219.726562 126.296875 220.394531 125.492188 221.089844 124.710938 C 221.78125 123.929688 222.5 123.167969 223.246094 122.429688 C 223.988281 121.695312 224.753906 120.980469 225.539062 120.292969 C 226.328125 119.605469 227.136719 118.941406 227.96875 118.304688 C 228.796875 117.667969 229.644531 117.054688 230.515625 116.472656 C 231.382812 115.890625 232.269531 115.332031 233.175781 114.804688 C 234.078125 114.277344 234.996094 113.78125 235.933594 113.3125 C 236.871094 112.84375 237.820312 112.402344 238.78125 111.996094 C 239.746094 111.585938 240.722656 111.207031 241.707031 110.859375 C 242.695312 110.515625 243.695312 110.199219 244.703125 109.914062 C 245.707031 109.632812 246.722656 109.378906 247.746094 109.160156 C 248.769531 108.941406 249.800781 108.753906 250.835938 108.597656 C 251.871094 108.445312 252.910156 108.324219 253.953125 108.234375 C 254.996094 108.148438 256.042969 108.089844 257.089844 108.070312 C 258.136719 108.046875 259.179688 108.058594 260.226562 108.101562 C 261.273438 108.148438 262.316406 108.222656 263.355469 108.335938 C 264.398438 108.445312 265.433594 108.585938 266.464844 108.761719 C 267.5 108.9375 268.523438 109.148438 269.542969 109.386719 C 270.5625 109.628906 271.570312 109.902344 272.574219 110.207031 C 273.574219 110.511719 274.5625 110.847656 275.542969 111.214844 C 276.523438 111.582031 277.492188 111.980469 278.445312 112.410156 C 279.402344 112.839844 280.339844 113.300781 281.265625 113.789062 C 282.191406 114.277344 283.101562 114.792969 283.992188 115.339844 C 284.886719 115.886719 285.761719 116.460938 286.617188 117.0625 C 287.472656 117.664062 288.308594 118.292969 289.125 118.945312 C 289.941406 119.601562 290.738281 120.28125 291.511719 120.984375 C 292.285156 121.691406 293.035156 122.417969 293.761719 123.171875 C 294.488281 123.925781 295.191406 124.699219 295.867188 125.496094 C 296.546875 126.292969 297.199219 127.109375 297.824219 127.949219 C 298.449219 128.785156 299.046875 129.644531 299.621094 130.519531 C 300.191406 131.398438 300.734375 132.289062 301.25 133.199219 C 301.765625 134.113281 302.25 135.039062 302.707031 135.980469 C 303.535156 137.6875 304.261719 139.398438 304.882812 141.160156 C 305.179688 141.992188 305.660156 142.707031 306.324219 143.296875 C 306.984375 143.882812 307.75 144.277344 308.617188 144.472656 C 309.3125 144.65625 310 144.859375 310.683594 145.078125 C 311.371094 145.300781 312.046875 145.539062 312.71875 145.796875 C 313.390625 146.054688 314.054688 146.328125 314.710938 146.621094 C 315.367188 146.917969 316.015625 147.226562 316.65625 147.558594 C 317.296875 147.886719 317.925781 148.230469 318.546875 148.59375 C 319.167969 148.957031 319.777344 149.335938 320.375 149.734375 C 320.976562 150.128906 321.566406 150.542969 322.140625 150.972656 C 322.71875 151.398438 323.285156 151.84375 323.839844 152.304688 C 324.390625 152.761719 324.933594 153.234375 325.460938 153.726562 C 325.988281 154.214844 326.5 154.714844 327 155.234375 C 327.5 155.75 327.984375 156.277344 328.457031 156.820312 C 328.929688 157.363281 329.382812 157.921875 329.824219 158.488281 C 330.265625 159.054688 330.691406 159.636719 331.101562 160.226562 C 331.507812 160.816406 331.902344 161.417969 332.277344 162.03125 C 332.65625 162.644531 333.015625 163.265625 333.355469 163.898438 C 333.699219 164.53125 334.023438 165.171875 334.332031 165.820312 C 334.640625 166.46875 334.929688 167.125 335.199219 167.792969 C 335.472656 168.457031 335.726562 169.128906 335.960938 169.808594 C 336.195312 170.488281 336.414062 171.171875 336.609375 171.863281 C 336.808594 172.554688 336.988281 173.25 337.144531 173.953125 C 337.304688 174.652344 337.445312 175.355469 337.566406 176.066406 C 337.6875 176.773438 337.792969 177.484375 337.875 178.199219 C 337.957031 178.910156 338.019531 179.628906 338.0625 180.34375 C 338.105469 181.0625 338.128906 181.78125 338.136719 182.5 C 338.140625 183.21875 338.125 183.933594 338.089844 184.652344 C 338.054688 185.371094 338 186.085938 337.925781 186.800781 C 337.851562 187.515625 337.757812 188.230469 337.648438 188.9375 C 337.535156 189.648438 337.402344 190.355469 337.25 191.058594 C 337.101562 191.757812 336.929688 192.457031 336.742188 193.152344 C 336.550781 193.84375 336.34375 194.53125 336.117188 195.214844 C 335.890625 195.894531 335.644531 196.570312 335.382812 197.238281 C 335.117188 197.90625 334.835938 198.570312 334.535156 199.222656 C 334.289062 199.695312 334.121094 200.191406 334.027344 200.71875 C 333.933594 201.242188 333.921875 201.769531 333.992188 202.296875 C 334.0625 202.824219 334.207031 203.332031 334.433594 203.8125 C 334.660156 204.296875 334.953125 204.734375 335.316406 205.128906 C 336.757812 206.4375 337.898438 207.976562 338.738281 209.738281 C 339.113281 210.519531 339.425781 211.328125 339.664062 212.164062 C 339.902344 213 340.066406 213.851562 340.15625 214.714844 C 340.25 215.578125 340.265625 216.445312 340.207031 217.3125 C 340.148438 218.179688 340.015625 219.035156 339.808594 219.878906 C 339.605469 220.722656 339.328125 221.542969 338.976562 222.339844 C 338.628906 223.136719 338.214844 223.898438 337.734375 224.621094 C 337.253906 225.347656 336.714844 226.023438 336.117188 226.65625 C 335.519531 227.289062 334.871094 227.863281 334.175781 228.382812 C 333.921875 228.589844 333.6875 228.820312 333.476562 229.070312 C 333.265625 229.320312 333.082031 229.589844 332.921875 229.875 C 332.761719 230.160156 332.628906 230.457031 332.527344 230.769531 C 332.425781 231.078125 332.351562 231.394531 332.308594 231.71875 C 332.265625 232.046875 332.253906 232.371094 332.273438 232.699219 C 332.289062 233.023438 332.339844 233.347656 332.417969 233.664062 C 332.5 233.980469 332.609375 234.289062 332.746094 234.585938 C 332.882812 234.882812 333.050781 235.164062 333.242188 235.429688 Z M 333.242188 235.789062"/><path fill="#302B2D" d="M 256.773438 122.460938 C 255.363281 122.425781 253.957031 122.484375 252.554688 122.640625 C 251.152344 122.792969 249.769531 123.042969 248.398438 123.386719 C 247.03125 123.730469 245.695312 124.164062 244.386719 124.691406 C 243.078125 125.214844 241.808594 125.828125 240.582031 126.523438 C 239.359375 127.222656 238.1875 127.996094 237.066406 128.855469 C 235.945312 129.710938 234.890625 130.640625 233.898438 131.640625 C 232.902344 132.640625 231.984375 133.703125 231.132812 134.828125 C 230.285156 135.953125 229.515625 137.132812 228.828125 138.363281 C 228.613281 138.65625 228.433594 138.96875 228.285156 139.296875 C 228.140625 139.628906 228.027344 139.972656 227.953125 140.324219 C 227.875 140.679688 227.835938 141.039062 227.835938 141.402344 C 227.835938 141.761719 227.875 142.121094 227.949219 142.476562 C 228.023438 142.832031 228.132812 143.175781 228.28125 143.503906 C 228.425781 143.835938 228.605469 144.148438 228.820312 144.441406 C 229.03125 144.738281 229.273438 145.003906 229.542969 145.25 C 229.8125 145.492188 230.101562 145.703125 230.414062 145.886719 C 230.730469 146.066406 231.058594 146.214844 231.402344 146.328125 C 231.746094 146.441406 232.101562 146.519531 232.460938 146.558594 C 232.820312 146.597656 233.183594 146.597656 233.542969 146.5625 C 233.902344 146.523438 234.257812 146.453125 234.601562 146.339844 C 234.949219 146.230469 235.277344 146.085938 235.59375 145.90625 C 235.90625 145.726562 236.199219 145.515625 236.472656 145.273438 C 236.742188 145.035156 236.984375 144.765625 237.199219 144.476562 C 237.414062 144.183594 237.597656 143.871094 237.746094 143.542969 C 238.191406 142.695312 238.691406 141.882812 239.25 141.109375 C 239.808594 140.335938 240.421875 139.601562 241.085938 138.914062 C 241.746094 138.222656 242.453125 137.585938 243.207031 136.996094 C 243.960938 136.410156 244.753906 135.875 245.582031 135.398438 C 246.410156 134.921875 247.269531 134.507812 248.15625 134.152344 C 249.042969 133.796875 249.953125 133.503906 250.882812 133.277344 C 251.8125 133.050781 252.75 132.890625 253.703125 132.796875 C 254.65625 132.703125 255.609375 132.675781 256.566406 132.714844 C 258.550781 132.742188 260.503906 133.007812 262.425781 133.515625 C 264.34375 134.027344 266.171875 134.761719 267.910156 135.722656 C 269.648438 136.6875 271.242188 137.847656 272.691406 139.207031 C 274.140625 140.5625 275.398438 142.078125 276.472656 143.75 C 276.644531 144.023438 276.84375 144.28125 277.0625 144.519531 C 277.285156 144.757812 277.527344 144.972656 277.789062 145.167969 C 278.050781 145.359375 278.328125 145.527344 278.621094 145.667969 C 278.914062 145.808594 279.21875 145.921875 279.53125 146.007812 C 279.847656 146.089844 280.164062 146.144531 280.492188 146.167969 C 280.816406 146.191406 281.140625 146.183594 281.460938 146.144531 C 281.785156 146.109375 282.101562 146.042969 282.414062 145.945312 C 282.722656 145.847656 283.023438 145.722656 283.308594 145.570312 C 283.597656 145.417969 283.867188 145.238281 284.121094 145.035156 C 284.375 144.828125 284.605469 144.605469 284.816406 144.355469 C 285.027344 144.109375 285.214844 143.84375 285.375 143.5625 C 285.535156 143.277344 285.667969 142.984375 285.773438 142.675781 C 285.878906 142.367188 285.953125 142.054688 286 141.730469 C 286.046875 141.410156 286.0625 141.085938 286.046875 140.761719 C 286.03125 140.4375 285.984375 140.117188 285.910156 139.800781 C 285.835938 139.484375 285.730469 139.175781 285.597656 138.878906 C 284.84375 137.648438 284.011719 136.472656 283.109375 135.34375 C 282.207031 134.21875 281.238281 133.152344 280.199219 132.148438 C 279.160156 131.144531 278.066406 130.210938 276.910156 129.34375 C 275.753906 128.476562 274.550781 127.6875 273.296875 126.972656 C 272.039062 126.257812 270.746094 125.625 269.410156 125.070312 C 268.078125 124.519531 266.710938 124.054688 265.320312 123.671875 C 263.925781 123.292969 262.515625 123 261.082031 122.796875 C 259.652344 122.59375 258.214844 122.484375 256.773438 122.460938 Z M 256.773438 122.460938"/></svg>