<svg xmlns="http://www.w3.org/2000/svg" width="375" viewBox="0 0 375 375" height="375" version="1.0"><defs><clipPath id="a"><path d="M 17.722656 47.222656 L 355 47.222656 L 355 327.722656 L 17.722656 327.722656 Z M 17.722656 47.222656"/></clipPath></defs><path fill="#FFF" d="M-37.5 -37.5H412.5V412.5H-37.5z"/><path fill="none" d="M-37.5 -37.5H412.5V412.5H-37.5z"/><g clip-path="url(#a)"><path fill="#231F20" d="M 342.746094 234.863281 C 340.832031 247.074219 336.433594 258.476562 329.914062 268.5 C 312.507812 263.433594 302.328125 265.617188 292.484375 267.726562 C 289.914062 268.277344 287.378906 268.816406 284.726562 269.207031 C 287.96875 256.503906 287.355469 248.59375 286.753906 240.921875 C 286.28125 234.921875 285.832031 229.171875 287.425781 220.835938 C 294.097656 220.25 298.03125 218.625 301.550781 217.164062 C 305.257812 215.625 308.460938 214.292969 315.378906 214.105469 C 322.285156 213.921875 325.5625 215.074219 329.34375 216.414062 C 332.964844 217.691406 337 219.113281 343.785156 219.324219 C 343.902344 224.46875 343.5625 229.664062 342.746094 234.863281 Z M 308.597656 290.929688 L 291.386719 303.464844 C 278.015625 313.203125 261.503906 317.917969 244.914062 316.757812 C 228.507812 315.609375 212.96875 308.824219 201.160156 297.652344 C 196.875 293.605469 191.351562 291.539062 185.816406 291.539062 C 184.140625 291.539062 182.46875 291.738281 180.832031 292.121094 C 180.453125 292.207031 180.089844 292.332031 179.734375 292.480469 L 176.847656 293.675781 L 178.695312 292.683594 C 179.765625 292.105469 180.683594 291.273438 181.335938 290.246094 C 192.910156 272.074219 195.269531 259.859375 197.546875 248.023438 C 197.976562 245.808594 198.398438 243.617188 198.878906 241.398438 C 212.835938 245.722656 218.8125 251.640625 225.125 257.898438 C 232.292969 265.003906 239.703125 272.347656 257.1875 277.464844 C 265.136719 279.789062 271.582031 280.605469 277.171875 280.605469 C 283.882812 280.605469 289.367188 279.429688 294.75 278.273438 C 302.835938 276.542969 310.527344 274.910156 322.894531 277.8125 C 318.6875 282.660156 313.90625 287.066406 308.597656 290.929688 Z M 171.773438 285.164062 L 165.230469 276.191406 C 170.660156 269.664062 171.964844 260.371094 168.136719 252.378906 C 161.113281 237.726562 159.40625 220.867188 163.332031 204.90625 C 167.304688 188.761719 176.851562 174.507812 190.222656 164.769531 L 207.433594 152.234375 C 213.167969 148.058594 219.390625 144.613281 225.929688 141.992188 C 242.015625 135.542969 260.007812 134.179688 277.050781 138.027344 C 265.292969 154.484375 255.007812 160.074219 244.152344 165.972656 C 232.136719 172.496094 219.710938 179.246094 205.753906 199.804688 C 191.914062 220.199219 189.390625 233.308594 186.949219 245.984375 C 184.738281 257.457031 182.636719 268.335938 171.773438 285.164062 Z M 152.847656 202.332031 C 150.414062 212.222656 149.878906 222.414062 151.148438 232.355469 C 148.316406 233.265625 145.421875 234.003906 142.503906 234.542969 C 133.78125 236.15625 127.035156 242.6875 124.953125 250.917969 L 114.765625 250.917969 C 122.039062 231.457031 128.328125 223.148438 134.964844 214.375 C 142.078125 204.980469 149.4375 195.261719 157.679688 172.34375 C 165.996094 149.222656 165.519531 135.5625 165.058594 122.355469 C 164.636719 110.171875 164.242188 98.628906 170.851562 79.152344 C 188.914062 94.894531 200.34375 118.050781 200.34375 143.824219 L 200.34375 144.046875 L 183.863281 156.050781 C 168.441406 167.28125 157.421875 183.71875 152.847656 202.332031 Z M 86.4375 234.542969 C 70.445312 231.582031 55.804688 223.03125 45.210938 210.460938 C 34.496094 197.742188 28.59375 181.636719 28.59375 165.101562 L 28.59375 143.824219 C 28.59375 137.195312 29.347656 130.738281 30.777344 124.539062 C 40.425781 132.820312 43.621094 139.996094 46.980469 147.550781 C 51.082031 156.765625 55.324219 166.300781 69.761719 177.40625 C 84.199219 188.511719 94.503906 190.167969 104.472656 191.773438 C 112.667969 193.089844 120.453125 194.347656 130.992188 201.613281 C 129.453125 203.773438 127.914062 205.808594 126.351562 207.867188 C 119.394531 217.066406 112.199219 226.570312 104.171875 248.441406 C 103.921875 249.117188 103.777344 249.835938 103.742188 250.554688 L 103.644531 252.476562 L 103.542969 250.417969 C 103.503906 249.601562 103.324219 248.796875 103.011719 248.035156 C 100.234375 241.191406 94.109375 235.964844 86.4375 234.542969 Z M 65.75 73.199219 C 69.921875 78.570312 73.464844 81.003906 76.632812 83.179688 C 79.945312 85.445312 82.804688 87.40625 86.726562 93.101562 C 90.652344 98.796875 91.460938 102.164062 92.398438 106.0625 C 93.289062 109.769531 94.292969 113.902344 97.75 119.636719 C 91.945312 125.832031 87.03125 128.855469 81.902344 132.007812 C 75.339844 136.042969 68.582031 140.199219 60.214844 150.304688 C 58.96875 147.929688 57.914062 145.570312 56.847656 143.167969 C 52.753906 133.972656 48.523438 124.464844 34.171875 113.398438 C 40.414062 97.015625 51.53125 83.019531 65.75 73.199219 Z M 114.46875 58.011719 C 119.304688 58.011719 124.050781 58.417969 128.671875 59.191406 C 120.921875 70.386719 118.765625 78.1875 116.671875 85.757812 C 114.652344 93.082031 112.722656 100.03125 105.132812 110.5625 C 103.976562 108.007812 103.457031 105.867188 102.898438 103.542969 C 101.859375 99.222656 100.679688 94.324219 95.621094 86.984375 C 90.566406 79.640625 86.40625 76.792969 82.742188 74.28125 C 80.15625 72.503906 77.839844 70.910156 75.078125 67.585938 C 86.886719 61.46875 100.28125 58.011719 114.46875 58.011719 Z M 140.023438 61.890625 C 147.832031 64.328125 155.164062 67.855469 161.84375 72.289062 C 161.777344 72.4375 161.707031 72.589844 161.652344 72.742188 C 153.339844 95.867188 153.8125 109.523438 154.273438 122.730469 C 154.714844 135.480469 155.132812 147.523438 147.519531 168.695312 C 143.746094 179.1875 140.246094 186.613281 136.839844 192.539062 C 124.480469 184.066406 115.191406 182.574219 106.1875 181.121094 C 97.152344 179.667969 88.617188 178.292969 76.347656 168.855469 C 72.179688 165.652344 69.023438 162.621094 66.523438 159.695312 C 74.738281 149.082031 80.972656 145.246094 87.558594 141.195312 C 94.945312 136.65625 102.582031 131.960938 112.484375 118.792969 C 122.386719 105.621094 124.773438 96.984375 127.082031 88.628906 C 129.214844 80.90625 131.226562 73.613281 139.902344 62.078125 C 139.945312 62.015625 139.984375 61.953125 140.023438 61.890625 Z M 287.707031 141.617188 C 287.792969 141.492188 287.867188 141.363281 287.9375 141.234375 C 295.625 144.058594 302.757812 147.910156 309.222656 152.691406 C 309.199219 152.761719 309.167969 152.824219 309.148438 152.898438 C 304.925781 166.691406 300.214844 172.617188 295.226562 178.890625 C 289.828125 185.671875 284.25 192.6875 279.429688 208.4375 C 274.613281 224.191406 275.3125 233.125 275.988281 241.765625 C 276.59375 249.464844 277.152344 256.769531 273.417969 269.636719 C 269.574219 269.34375 265.273438 268.585938 260.226562 267.109375 C 245.363281 262.761719 239.226562 256.679688 232.726562 250.238281 C 225.707031 243.277344 218.445312 236.085938 201.707031 230.984375 C 204.105469 223.867188 207.875 215.902344 214.691406 205.863281 C 227.171875 187.476562 237.925781 181.632812 249.308594 175.449219 C 261.328125 168.921875 273.75 162.175781 287.707031 141.617188 Z M 327.417969 171.039062 C 335.605469 182.265625 340.824219 195.0625 342.847656 208.480469 C 338.546875 208.210938 335.898438 207.285156 332.945312 206.238281 C 328.753906 204.757812 324.007812 203.085938 315.085938 203.324219 C 306.167969 203.5625 301.511719 205.496094 297.40625 207.199219 C 295.195312 208.117188 293.15625 208.960938 290.410156 209.53125 C 294.460938 197.191406 298.941406 191.550781 303.679688 185.601562 C 308.566406 179.453125 313.609375 173.117188 318.101562 160.25 C 321.46875 163.550781 324.582031 167.152344 327.417969 171.039062 Z M 336.140625 164.683594 C 323.253906 147.019531 305.257812 134.5625 284.09375 128.667969 C 263.582031 122.953125 241.496094 124.128906 221.910156 131.980469 C 218.140625 133.492188 214.46875 135.246094 210.910156 137.226562 C 207.507812 87.027344 165.554688 47.222656 114.46875 47.222656 C 61.164062 47.222656 17.796875 90.554688 17.796875 143.824219 L 17.796875 165.101562 C 17.796875 184.171875 24.601562 202.75 36.953125 217.410156 C 49.152344 231.886719 66.03125 241.738281 84.46875 245.152344 C 89.910156 246.160156 93.859375 250.851562 93.859375 256.308594 C 93.859375 259.292969 96.273438 261.703125 99.257812 261.703125 L 129.679688 261.703125 C 132.660156 261.703125 135.078125 259.292969 135.078125 256.308594 C 135.078125 250.851562 139.027344 246.160156 144.46875 245.152344 C 147.421875 244.601562 150.347656 243.871094 153.234375 242.992188 C 154.515625 247.8125 156.230469 252.515625 158.398438 257.039062 C 160.785156 262.023438 159.320312 267.976562 154.902344 271.195312 C 152.492188 272.949219 151.964844 276.324219 153.722656 278.734375 L 171.640625 303.300781 C 172.484375 304.457031 173.753906 305.230469 175.167969 305.453125 C 176.582031 305.671875 178.023438 305.324219 179.183594 304.480469 C 183.597656 301.269531 189.71875 301.6875 193.738281 305.492188 C 207.359375 318.371094 225.265625 326.195312 244.160156 327.519531 C 246.066406 327.65625 247.96875 327.71875 249.871094 327.71875 C 267.046875 327.71875 283.859375 322.296875 297.746094 312.183594 L 314.957031 299.648438 C 335.742188 284.507812 349.402344 262.09375 353.414062 236.535156 C 357.425781 210.972656 351.289062 185.453125 336.140625 164.683594"/></g></svg>