<svg xmlns="http://www.w3.org/2000/svg" width="375" viewBox="0 0 375 375" height="375" version="1.0"><defs><clipPath id="a"><path d="M 37.84375 39.484375 L 337.113281 39.484375 L 337.113281 330.484375 L 37.84375 330.484375 Z M 37.84375 39.484375"/></clipPath></defs><path fill="#FFF" d="M-37.5 -37.5H412.5V412.5H-37.5z"/><path fill="#E1DDD3" d="M-37.5 -37.5H412.5V412.5H-37.5z"/><g clip-path="url(#a)"><path fill="#302B2D" d="M 310.269531 266.144531 C 297.660156 288.597656 279.726562 306.617188 255.085938 315.210938 C 237.300781 321.40625 218.222656 322.769531 199.5625 321.066406 C 196.863281 320.824219 194.15625 320.527344 191.445312 320.160156 C 203.867188 316.945312 215.652344 311.585938 225.832031 303.519531 C 231.808594 298.785156 237.957031 292.824219 241.851562 286.015625 C 252.695312 286.839844 265.125 285.054688 274.046875 278.945312 C 289.628906 268.289062 290.347656 241.683594 278.445312 227.921875 C 276.394531 225.554688 273.632812 223.292969 270.628906 221.84375 C 271.441406 218.652344 272.097656 215.398438 272.554688 212.121094 C 272.796875 211.582031 272.921875 210.957031 272.890625 210.21875 C 272.871094 209.964844 272.882812 209.699219 272.871094 209.445312 C 273.167969 206.558594 273.304688 203.675781 273.21875 200.808594 C 273.929688 194.488281 275.558594 188.1875 277.992188 182.523438 C 286.03125 163.730469 303.382812 156.265625 322.777344 156.699219 C 326.121094 166.308594 327.644531 176.824219 328.308594 186.847656 C 330.152344 214.445312 323.824219 242.023438 310.269531 266.144531 Z M 105.757812 306.535156 C 92.058594 301.503906 77.648438 292.699219 72.617188 278.195312 C 71.03125 273.617188 70.507812 269.316406 70.792969 264.507812 C 70.898438 262.6875 70.898438 261.894531 71.585938 259.65625 C 71.851562 259.0625 71.964844 258.429688 71.898438 257.792969 C 71.957031 257.402344 72.015625 257.023438 72.054688 256.789062 C 72.371094 254.941406 72.746094 253.113281 73.152344 251.28125 C 86.152344 239.738281 107.203125 242.804688 122.699219 246.441406 C 133.425781 248.957031 144.636719 252.550781 154.316406 257.023438 C 159.234375 259.296875 163.542969 252 158.589844 249.707031 C 146.8125 244.285156 134.191406 240.171875 121.515625 237.511719 C 107.113281 234.488281 90.058594 232.871094 76.378906 239.210938 C 77.433594 235.839844 78.59375 232.511719 79.875 229.222656 C 80.351562 227.996094 80.851562 226.769531 81.363281 225.554688 C 81.539062 225.257812 81.6875 224.929688 81.796875 224.550781 C 86.996094 212.5 93.949219 201.042969 102.65625 191.179688 C 102.8125 191.160156 102.949219 191.148438 103.03125 191.136719 C 105.019531 190.988281 107.015625 190.925781 109.007812 190.925781 C 115.503906 190.90625 121.996094 191.507812 128.367188 192.777344 C 149.035156 196.878906 167.203125 207.425781 180.988281 223.355469 C 184.5625 227.480469 190.53125 221.476562 186.976562 217.363281 C 168.578125 196.09375 140.015625 182.34375 111.507812 182.269531 C 113.851562 180.175781 116.285156 178.1875 118.832031 176.328125 C 131.984375 166.730469 147.089844 160.8125 163.074219 157.90625 C 168.429688 156.933594 166.164062 148.773438 160.824219 149.734375 C 136.679688 154.132812 115.097656 165.738281 98.511719 183.316406 C 97.425781 183.726562 96.789062 184.519531 96.542969 185.460938 C 94.558594 187.671875 92.636719 189.953125 90.8125 192.34375 C 89.050781 194.648438 87.371094 197.027344 85.769531 199.457031 C 86.085938 191.488281 85.300781 183.539062 82.632812 176.074219 C 80.71875 170.726562 77.871094 165.199219 73.242188 161.6875 C 68.894531 158.402344 64.664062 165.75 68.964844 169.003906 C 66.863281 167.40625 70.421875 170.714844 70.273438 170.527344 C 72.261719 173.0625 73.707031 176.066406 74.730469 179.109375 C 79.335938 192.808594 77.148438 208.007812 73.789062 221.726562 C 70.460938 229.476562 67.785156 237.511719 65.769531 245.648438 C 65.621094 246.25 65.480469 246.855469 65.339844 247.457031 C 65.171875 247.847656 65.082031 248.25 65.058594 248.652344 C 64.984375 248.957031 64.921875 249.273438 64.851562 249.589844 C 58.675781 242.457031 53.878906 233.734375 50.765625 225.175781 C 46.6875 213.96875 45.277344 202.015625 46.683594 190.164062 C 47.589844 182.554688 49.683594 175.050781 52.511719 167.9375 C 54.101562 163.929688 55.988281 160.050781 58.046875 156.265625 C 59.910156 152.832031 64.109375 148.457031 63.972656 144.472656 C 63.847656 140.925781 62.996094 139.265625 63.0625 135.273438 C 63.175781 128.519531 65.128906 121.734375 69.386719 116.390625 C 69.632812 116.078125 69.898438 115.789062 70.160156 115.492188 C 70.535156 115.21875 70.855469 114.863281 71.125 114.421875 C 78.621094 106.601562 89.964844 103.535156 100.433594 102.289062 C 105.164062 101.726562 105.136719 100.582031 107.449219 98.085938 C 110.445312 94.84375 113.828125 91.96875 117.550781 89.585938 C 126.929688 83.574219 139.59375 80.347656 150.433594 83.597656 C 150.824219 83.8125 151.246094 83.964844 151.722656 84.019531 C 154.632812 85.046875 157.382812 86.558594 159.890625 88.636719 C 165.476562 93.285156 169.6875 100.339844 171.234375 107.460938 C 171.75 109.878906 174.289062 110.753906 176.449219 110.417969 C 175.230469 110.605469 177.09375 110.34375 178.257812 110.246094 C 180.640625 110.039062 183.03125 109.953125 185.410156 109.964844 C 192.550781 109.988281 199.660156 110.917969 206.464844 113.132812 C 214.589844 115.773438 222.082031 120.5625 227.097656 127.582031 C 234.34375 137.734375 235.730469 150.503906 235.179688 162.628906 C 235.09375 164.394531 236.542969 166.328125 238.289062 166.710938 C 244.445312 168.074219 250.371094 171.636719 254.984375 176.253906 C 261.925781 183.1875 264.589844 192.003906 264.804688 201.160156 C 264.773438 201.390625 264.738281 201.613281 264.730469 201.84375 C 264.484375 204.308594 264.328125 206.824219 264.390625 209.308594 C 263.820312 214.117188 262.738281 218.894531 261.386719 223.429688 C 260.773438 225.492188 262.125 228.21875 264.347656 228.640625 C 278.460938 231.292969 281.488281 256.207031 274.496094 266.800781 C 267.523438 277.359375 250.902344 278.640625 239.410156 277.316406 C 238.066406 277.167969 236.332031 278.214844 235.75 279.410156 C 226.683594 298.351562 203.089844 309.503906 183.285156 313.40625 C 178.734375 314.3125 174.078125 314.9375 169.359375 315.328125 C 168.480469 315.128906 167.699219 315.203125 167.03125 315.488281 C 146.359375 316.828125 124.714844 313.476562 105.757812 306.535156 Z M 71.96875 96.765625 C 75.957031 82.949219 91.566406 79.226562 104.207031 78.375 C 106.203125 78.242188 107.621094 77.132812 108.289062 75.269531 C 108.914062 73.527344 109.386719 72.554688 110.660156 70.128906 C 112.890625 65.890625 115.5625 61.867188 118.835938 58.355469 C 128.386719 48.109375 141.175781 45.242188 154.359375 50.0625 C 159.816406 52.058594 165.816406 58.261719 171.539062 55.980469 C 174.132812 54.945312 175.78125 54.113281 178.894531 53.035156 C 187.8125 49.945312 197.777344 47.683594 207.238281 49.304688 C 221.46875 51.746094 227.636719 63.496094 229.71875 76.34375 C 204.773438 68.265625 177.625 67.921875 152.242188 75.390625 C 150.730469 74.949219 149.195312 74.605469 147.617188 74.375 C 129.914062 71.785156 111.125 80.136719 99.859375 93.910156 C 89.585938 95.167969 79.234375 98.054688 70.996094 103.722656 C 71.03125 101.378906 71.308594 99.050781 71.96875 96.765625 Z M 300.371094 151.195312 C 291.664062 154.007812 283.769531 158.902344 277.71875 166.542969 C 273.996094 171.234375 271.191406 176.488281 269.128906 182.039062 C 267.402344 178.246094 265.078125 174.660156 262.039062 171.375 C 257.257812 166.183594 250.644531 161.691406 243.734375 159.429688 C 243.9375 140.808594 238.394531 122.292969 222.226562 111.386719 C 211.179688 103.933594 197.214844 101.347656 184.074219 101.507812 C 182.214844 101.527344 180.339844 101.613281 178.476562 101.765625 C 175.90625 93.578125 170.679688 86.257812 163.847656 81.191406 C 191.652344 75.308594 220.980469 78.984375 246.242188 92.488281 C 270.3125 105.359375 289.503906 126.226562 300.371094 151.195312 Z M 329.847656 151.460938 C 329.105469 149.597656 327.796875 148.476562 325.761719 148.351562 C 320.007812 147.992188 314.230469 148.226562 308.644531 149.175781 C 297.015625 122.03125 276.703125 99.175781 250.519531 85.179688 C 246.644531 83.113281 242.679688 81.253906 238.648438 79.609375 C 236.964844 63.304688 230.277344 47.105469 213.222656 42.019531 C 201.078125 38.398438 187.492188 40.996094 175.832031 45.15625 C 173.503906 45.988281 171.1875 46.875 168.933594 47.886719 C 152.292969 38.039062 132.859375 35.234375 117.023438 48.402344 C 110.238281 54.046875 104.699219 61.902344 101.234375 70.152344 C 86.621094 71.589844 71.0625 76.644531 64.976562 91.226562 C 63.136719 95.636719 62.371094 100.472656 62.523438 105.246094 C 62.582031 107.027344 62.78125 108.800781 63.046875 110.558594 C 63.070312 110.683594 63.082031 110.800781 63.09375 110.910156 C 60.664062 113.851562 58.640625 117.242188 57.160156 121.152344 C 54.46875 128.226562 53.742188 136.726562 55.285156 144.277344 C 39.648438 169.355469 32.199219 199.40625 42.773438 227.925781 C 47.019531 239.382812 53.746094 251.167969 62.796875 259.730469 C 57.867188 280.882812 74.277344 300.648438 92.09375 309.757812 C 104.019531 315.867188 117.183594 319.316406 130.359375 321.460938 C 142.832031 323.5 155.53125 324.535156 168.164062 323.777344 C 194.519531 332.242188 225.75 332.792969 252.15625 325.035156 C 306.265625 309.136719 336.746094 251.390625 337.09375 197.523438 C 337.199219 182.34375 335.527344 165.71875 329.847656 151.457031"/></g></svg>