<svg xmlns="http://www.w3.org/2000/svg" xmlns:xlink="http://www.w3.org/1999/xlink" width="375" zoomAndPan="magnify" viewBox="0 0 375 374.999991" height="374.999991" preserveAspectRatio="xMidYMid meet" version="1.0"><defs><clipPath id="id1"><path d="M 10.496094 50.101562 L 365.996094 50.101562 L 365.996094 326.101562 L 10.496094 326.101562 Z M 10.496094 50.101562 " clip-rule="nonzero"/></clipPath></defs><rect x="-37.5" width="450" fill="rgb(100%, 100%, 100%)" y="-37.499999" height="449.999989" fill-opacity="1"/><rect x="-37.5" width="450" fill="rgb(100%, 100%, 100%)" y="-37.499999" height="449.999989" fill-opacity="1"/><path fill="rgb(18.818665%, 16.859436%, 17.649841%)" d="M 71.257812 280.953125 C 99.574219 302.472656 136.402344 314.324219 174.960938 314.324219 C 213.519531 314.324219 250.347656 302.472656 278.664062 280.953125 C 306.957031 259.449219 324.160156 230.332031 327.101562 198.988281 L 327.601562 193.96875 L 322.902344 193.96875 L 322.453125 198.539062 C 316.605469 260.84375 251.820312 309.652344 174.960938 309.652344 C 98.101562 309.652344 33.316406 260.84375 27.464844 198.492188 L 26.945312 193.96875 L 26.621094 191.144531 L 21.976562 191.679688 L 22.242188 193.96875 L 22.820312 198.976562 C 25.761719 230.332031 42.960938 259.449219 71.257812 280.953125 " fill-opacity="1" fill-rule="nonzero"/><g clip-path="url(#id1)"><path fill="rgb(18.818665%, 16.859436%, 17.649841%)" d="M 328.460938 278.28125 C 308.242188 302.039062 277.796875 314.640625 237.886719 315.789062 C 257.449219 309.050781 275.429688 299.128906 290.878906 286.34375 C 292.136719 285.304688 293.363281 284.246094 294.574219 283.179688 C 294.761719 283.011719 294.949219 282.84375 295.136719 282.675781 C 296.09375 281.828125 297.03125 280.96875 297.960938 280.101562 C 298.085938 279.980469 298.214844 279.863281 298.339844 279.742188 C 322.476562 257 336.640625 228.632812 338.992188 198.328125 C 339 198.226562 339.007812 198.125 339.015625 198.027344 C 339.078125 197.179688 339.140625 196.332031 339.183594 195.484375 C 339.207031 195.0625 339.21875 194.632812 339.238281 194.207031 C 339.265625 193.625 339.292969 193.046875 339.308594 192.460938 C 339.335938 191.40625 339.355469 190.351562 339.355469 189.296875 L 339.355469 184.621094 L 293.4375 184.621094 L 292.519531 188.101562 C 288.019531 205.128906 273.992188 220.824219 253.019531 232.300781 C 231.339844 244.167969 203.617188 250.699219 174.960938 250.699219 C 173.710938 250.699219 172.460938 250.683594 171.214844 250.65625 C 170.898438 250.652344 170.578125 250.644531 170.261719 250.636719 C 169.097656 250.609375 167.9375 250.570312 166.777344 250.523438 C 166.382812 250.503906 165.988281 250.480469 165.589844 250.460938 C 164.816406 250.421875 164.039062 250.378906 163.269531 250.332031 C 162.730469 250.296875 162.1875 250.265625 161.652344 250.226562 C 160.734375 250.164062 159.816406 250.089844 158.902344 250.011719 C 158.140625 249.945312 157.378906 249.875 156.621094 249.800781 C 156.390625 249.777344 156.15625 249.753906 155.925781 249.730469 C 142.15625 248.320312 128.890625 245.394531 116.734375 241.097656 C 116.558594 241.035156 116.382812 240.96875 116.203125 240.90625 C 115.128906 240.519531 114.0625 240.125 113.003906 239.71875 C 112.570312 239.550781 112.140625 239.386719 111.707031 239.214844 C 111.457031 239.113281 111.207031 239.011719 110.953125 238.910156 C 103.882812 222.730469 100.300781 205.5 100.300781 187.664062 C 100.300781 116.984375 157.796875 59.480469 228.46875 59.480469 C 299.140625 59.480469 356.636719 116.984375 356.636719 187.664062 C 356.636719 225.289062 346.894531 256.617188 328.460938 278.28125 Z M 174.960938 316.777344 C 91.371094 316.777344 23.019531 262.105469 20.015625 193.96875 L 22.242188 193.96875 L 21.976562 191.679688 L 26.621094 191.144531 L 26.945312 193.96875 L 49.402344 193.96875 C 60.804688 228.496094 103.777344 254.238281 156.445312 259.179688 C 156.570312 259.191406 156.691406 259.203125 156.816406 259.214844 C 158.257812 259.347656 159.703125 259.46875 161.160156 259.570312 L 161.183594 259.570312 C 162.582031 259.664062 163.992188 259.746094 165.402344 259.8125 C 165.578125 259.820312 165.753906 259.832031 165.929688 259.839844 C 167.285156 259.902344 168.644531 259.949219 170.011719 259.980469 C 170.273438 259.988281 170.535156 259.992188 170.800781 260 C 172.179688 260.027344 173.566406 260.046875 174.960938 260.046875 C 235.847656 260.046875 287.808594 232.46875 300.519531 193.96875 L 329.90625 193.96875 C 329.890625 194.296875 329.863281 194.621094 329.847656 194.953125 C 329.8125 195.566406 329.78125 196.175781 329.738281 196.789062 C 329.6875 197.476562 329.628906 198.160156 329.566406 198.84375 C 329.546875 199.078125 329.523438 199.316406 329.5 199.554688 C 329.421875 200.371094 329.332031 201.183594 329.234375 201.996094 L 329.210938 202.175781 C 324.988281 236.1875 304.238281 266.835938 273.160156 287.863281 C 273.011719 287.96875 272.855469 288.070312 272.707031 288.171875 C 272.109375 288.574219 271.511719 288.96875 270.910156 289.359375 C 270.492188 289.628906 270.070312 289.898438 269.652344 290.167969 C 269.253906 290.421875 268.855469 290.671875 268.457031 290.925781 C 267.6875 291.402344 266.914062 291.878906 266.132812 292.347656 C 266.046875 292.398438 265.960938 292.453125 265.875 292.5 C 240.320312 307.765625 208.894531 316.777344 174.960938 316.777344 Z M 228.46875 50.132812 C 152.640625 50.132812 90.953125 111.828125 90.953125 187.664062 C 90.953125 203.386719 93.5625 218.671875 98.699219 233.261719 C 98.097656 232.945312 97.496094 232.625 96.898438 232.300781 C 75.929688 220.824219 61.902344 205.128906 57.40625 188.101562 L 56.484375 184.621094 L 10.570312 184.621094 L 10.570312 189.296875 C 10.570312 226.015625 27.785156 260.480469 59.042969 286.34375 C 90.046875 312 131.214844 326.125 174.960938 326.125 C 185.871094 326.125 196.621094 325.246094 207.089844 323.527344 C 213.550781 324.53125 220.527344 325.082031 228.398438 325.199219 C 229.539062 325.214844 230.679688 325.222656 231.800781 325.222656 L 231.8125 325.222656 C 277.578125 325.222656 312.492188 311.46875 335.578125 284.339844 C 355.46875 260.964844 365.980469 227.535156 365.980469 187.664062 C 365.980469 111.828125 304.292969 50.132812 228.46875 50.132812 " fill-opacity="1" fill-rule="nonzero"/></g><path fill="rgb(18.818665%, 16.859436%, 17.649841%)" d="M 173.039062 81.316406 C 172.570312 81.523438 161.433594 86.503906 148.398438 99.378906 C 136.503906 111.136719 120.621094 132.066406 112.507812 165.039062 L 121.582031 167.269531 C 129.121094 136.644531 143.714844 117.242188 154.632812 106.359375 C 166.488281 94.546875 176.710938 89.910156 176.8125 89.867188 L 174.917969 85.59375 L 173.039062 81.316406 " fill-opacity="1" fill-rule="nonzero"/><path fill="rgb(18.818665%, 16.859436%, 17.649841%)" d="M 112.375 187.664062 L 121.71875 187.664062 L 121.71875 176.835938 L 112.375 176.835938 L 112.375 187.664062 " fill-opacity="1" fill-rule="nonzero"/></svg>