<svg xmlns="http://www.w3.org/2000/svg" width="375" viewBox="0 0 375 375" height="375" version="1.0"><defs><clipPath id="a"><path d="M 116.046875 46 L 167 46 L 167 96 L 116.046875 96 Z M 116.046875 46"/></clipPath><clipPath id="b"><path d="M 193 104 L 259.296875 104 L 259.296875 145 L 193 145 Z M 193 104"/></clipPath></defs><path fill="#FFF" d="M-37.5 -37.5H412.5V412.5H-37.5z"/><path fill="none" d="M-37.5 -37.5H412.5V412.5H-37.5z"/><path stroke-linecap="round" transform="matrix(.08778 0 0 -.08746 54.166 364.701)" fill="none" stroke-linejoin="round" d="M 1885.549143 2039.001469 C 1885.549143 1807.203227 1673.672177 350.62595 1387.831859 350.62595 C 1101.991542 350.62595 890.114576 1807.203227 890.114576 2039.001469 C 890.114576 2270.755049 1078.004631 2458.650079 1309.774267 2458.650079 L 1465.889452 2458.650079 C 1697.703591 2458.650079 1885.549143 2270.755049 1885.549143 2039.001469 Z M 1885.549143 2039.001469" stroke="#1B181A" stroke-width="56.742" stroke-miterlimit="10"/><path stroke-linecap="round" transform="matrix(.08778 0 0 -.08746 54.166 364.701)" fill="none" stroke-linejoin="round" d="M 892.028189 1990.230047 C 1006.666933 1965.442374 1104.127668 1982.369452 1207.106726 2007.4251" stroke="#1B181A" stroke-width="56.742" stroke-miterlimit="10"/><path stroke-linecap="round" transform="matrix(.08778 0 0 -.08746 54.166 364.701)" fill="none" stroke-linejoin="round" d="M 1848.433959 2202.108826 C 1802.596262 2170.577119 1725.606733 2163.431123 1669.31092 2171.961656" stroke="#1B181A" stroke-width="56.742" stroke-miterlimit="10"/><path stroke-linecap="round" transform="matrix(.08778 0 0 -.08746 54.166 364.701)" fill="none" stroke-linejoin="round" d="M 1878.117206 1922.119774 C 1758.894691 1873.839639 1618.800449 1869.328729 1522.051756 1875.715463" stroke="#1B181A" stroke-width="56.742" stroke-miterlimit="10"/><path stroke-linecap="round" transform="matrix(.08778 0 0 -.08746 54.166 364.701)" fill="none" stroke-linejoin="round" d="M 1006.666933 1635.208038 C 1062.117196 1635.386688 1118.457511 1633.912827 1172.750705 1646.686294" stroke="#1B181A" stroke-width="56.742" stroke-miterlimit="10"/><path stroke-linecap="round" transform="matrix(.08778 0 0 -.08746 54.166 364.701)" fill="none" stroke-linejoin="round" d="M 1350.227147 1585.364717 C 1425.214059 1585.364717 1499.978458 1581.613069 1573.585788 1596.842973" stroke="#1B181A" stroke-width="56.742" stroke-miterlimit="10"/><path stroke-linecap="round" transform="matrix(.08778 0 0 -.08746 54.166 364.701)" fill="none" stroke-linejoin="round" d="M 1012.941803 1194.300091 C 1089.708819 1174.06799 1193.310915 1172.058179 1261.488926 1191.39703" stroke="#1B181A" stroke-width="56.742" stroke-miterlimit="10"/><path stroke-linecap="round" transform="matrix(.08778 0 0 -.08746 54.166 364.701)" fill="none" stroke-linejoin="round" d="M 1373.145995 1101.893432 C 1405.098875 1095.863997 1447.865892 1094.122161 1481.954897 1096.176635" stroke="#1B181A" stroke-width="56.742" stroke-miterlimit="10"/><path stroke-linecap="round" transform="matrix(.08778 0 0 -.08746 54.166 364.701)" fill="none" stroke-linejoin="round" d="M 1261.488926 847.406652 C 1304.700968 847.228002 1352.363273 836.464346 1393.216676 847.406652" stroke="#1B181A" stroke-width="56.742" stroke-miterlimit="10"/><path stroke-linecap="round" transform="matrix(.08778 0 0 -.08746 54.166 364.701)" fill="none" stroke-linejoin="round" d="M 1235.72191 1316.853921 C 1277.420863 1323.687279 1319.34233 1322.43673 1361.708822 1322.61538" stroke="#1B181A" stroke-width="56.742" stroke-miterlimit="10"/><path stroke-linecap="round" transform="matrix(.08778 0 0 -.08746 54.166 364.701)" fill="none" stroke-linejoin="round" d="M 1802.596262 1404.660346 C 1758.894691 1366.027305 1678.033434 1366.027305 1610.83448 1366.027305" stroke="#1B181A" stroke-width="56.742" stroke-miterlimit="10"/><path stroke-linecap="round" transform="matrix(.08778 0 0 -.08746 54.166 364.701)" fill="none" stroke-linejoin="round" d="M 1172.750705 622.665081 C 1261.488926 609.444989 1301.763796 615.60841 1350.227147 621.637844" stroke="#1B181A" stroke-width="56.742" stroke-miterlimit="10"/><path stroke-linecap="round" transform="matrix(.08778 0 0 -.08746 54.166 364.701)" fill="none" stroke-linejoin="round" d="M 1396.064844 461.299561 C 1424.991546 459.4684 1485.91563 466.748383 1527.792594 467.016358" stroke="#1B181A" stroke-width="56.742" stroke-miterlimit="10"/><path stroke-linecap="round" transform="matrix(.08778 0 0 -.08746 54.166 364.701)" fill="none" stroke-linejoin="round" d="M 1522.051756 951.470218 C 1547.729767 950.219668 1682.706209 967.146746 1706.737622 976.213229" stroke="#1B181A" stroke-width="56.742" stroke-miterlimit="10"/><path stroke-linecap="round" transform="matrix(.08778 0 0 -.08746 54.166 364.701)" fill="none" stroke-linejoin="round" d="M 1968.012495 3129.971732 C 1852.839718 2969.097499 1603.313537 2950.51791 1603.313537 2950.51791 C 1603.313537 2950.51791 1540.520343 3192.722508 1655.648617 3353.641404 C 1770.77689 3514.426311 2020.303071 3533.005901 2020.303071 3533.005901 C 2020.303071 3533.005901 2083.140768 3290.801302 1968.012495 3129.971732 Z M 1968.012495 3129.971732" stroke="#1B181A" stroke-width="56.742" stroke-miterlimit="10"/><path stroke-linecap="round" transform="matrix(.08778 0 0 -.08746 54.166 364.701)" fill="none" stroke-linejoin="round" d="M 1415.645996 2458.650079 C 1471.229766 2719.657579 1636.067465 3061.370171 1850.303069 3257.438434" stroke="#1B181A" stroke-width="56.742" stroke-miterlimit="10"/><g clip-path="url(#a)"><path stroke-linecap="round" transform="matrix(.08778 0 0 -.08746 54.166 364.701)" fill="none" stroke-linejoin="round" d="M 860.030806 3217.063557 C 1003.106724 3080.441048 1251.69835 3108.578407 1251.69835 3108.578407 C 1251.69835 3108.578407 1268.386832 3358.241638 1125.355416 3494.864148 C 982.279499 3631.531319 733.64337 3603.304635 733.64337 3603.304635 C 733.64337 3603.304635 716.999391 3353.641404 860.030806 3217.063557 Z M 860.030806 3217.063557" stroke="#1B181A" stroke-width="56.742" stroke-miterlimit="10"/></g><path stroke-linecap="round" transform="matrix(.08778 0 0 -.08746 54.166 364.701)" fill="none" stroke-linejoin="round" d="M 1415.645996 2458.650079 C 1338.433953 3081.066322 1283.028193 3146.809485 951.928713 3364.22641" stroke="#1B181A" stroke-width="56.742" stroke-miterlimit="10"/><g clip-path="url(#b)"><path stroke-linecap="round" transform="matrix(.08778 0 0 -.08746 54.166 364.701)" fill="none" stroke-linejoin="round" d="M 2013.850192 2563.472906 C 1823.646001 2509.118675 1616.664323 2649.805469 1616.664323 2649.805469 C 1616.664323 2649.805469 1718.08579 2878.522001 1908.289981 2932.83157 C 2098.494172 2987.230464 2305.47585 2846.543669 2305.47585 2846.543669 C 2305.47585 2846.543669 2204.054382 2617.782475 2013.850192 2563.472906 Z M 2013.850192 2563.472906" stroke="#1B181A" stroke-width="56.742" stroke-miterlimit="10"/></g><path stroke-linecap="round" transform="matrix(.08778 0 0 -.08746 54.166 364.701)" fill="none" stroke-linejoin="round" d="M 1415.645996 2458.650079 C 1415.645996 2458.650079 1560.635526 2744.891877 2000.988935 2736.495332" stroke="#1B181A" stroke-width="56.742" stroke-miterlimit="10"/><path stroke-linecap="round" transform="matrix(.08778 0 0 -.08746 54.166 364.701)" fill="none" stroke-linejoin="round" d="M 899.549131 2680.309939 C 1050.502012 2552.485938 1297.046518 2595.406576 1297.046518 2595.406576 C 1297.046518 2595.406576 1298.78212 2845.65042 1147.829239 2973.474421 C 996.876357 3101.298423 750.331852 3058.333123 750.331852 3058.333123 C 750.331852 3058.333123 748.59625 2808.133941 899.549131 2680.309939 Z M 899.549131 2680.309939" stroke="#1B181A" stroke-width="56.742" stroke-miterlimit="10"/><path stroke-linecap="round" transform="matrix(.08778 0 0 -.08746 54.166 364.701)" fill="none" stroke-linejoin="round" d="M 1415.645996 2458.650079 C 1415.645996 2458.650079 1238.258559 2694.869906 982.502012 2832.742965" stroke="#1B181A" stroke-width="56.742" stroke-miterlimit="10"/><path stroke-linecap="round" transform="matrix(.08778 0 0 -.08746 54.166 364.701)" fill="none" stroke-linejoin="round" d="M 1303.988926 3584.680384 C 1319.119817 3387.495559 1522.986311 3242.342517 1522.986311 3242.342517 C 1522.986311 3242.342517 1702.198355 3416.92813 1686.97846 3614.112954 C 1671.84757 3811.387104 1468.025578 3956.495483 1468.025578 3956.495483 C 1468.025578 3956.495483 1288.769031 3781.909871 1303.988926 3584.680384 Z M 1303.988926 3584.680384" stroke="#1B181A" stroke-width="56.742" stroke-miterlimit="10"/><path stroke-linecap="round" transform="matrix(.08778 0 0 -.08746 54.166 364.701)" fill="none" stroke-linejoin="round" d="M 1415.645996 2458.650079 C 1364.824006 2867.936994 1655.02558 3161.905401 1470.651232 3632.781869" stroke="#1B181A" stroke-width="56.742" stroke-miterlimit="10"/></svg>