<svg xmlns="http://www.w3.org/2000/svg" width="375" viewBox="0 0 375 375" height="375" version="1.0"><defs><clipPath id="a"><path d="M 266 55.238281 L 310 55.238281 L 310 127 L 266 127 Z M 266 55.238281"/></clipPath><clipPath id="b"><path d="M 173 133 L 322 133 L 322 319.988281 L 173 319.988281 Z M 173 133"/></clipPath><clipPath id="c"><path d="M 83 55.238281 L 296 55.238281 L 296 148 L 83 148 Z M 83 55.238281"/></clipPath></defs><path fill="#FFF" d="M-37.5 -37.5H412.5V412.5H-37.5z"/><path fill="#E1DDD3" d="M-37.5 -37.5H412.5V412.5H-37.5z"/><path fill="#302B2D" d="M 205.578125 96.539062 C 202.070312 91.585938 196.292969 88.488281 189.898438 88.488281 C 183.503906 88.488281 177.519531 91.378906 174.011719 96.128906 C 172.777344 97.984375 173.1875 100.464844 175.042969 101.910156 C 176.902344 103.148438 179.375 102.734375 180.820312 100.878906 C 182.675781 98.191406 186.183594 96.539062 189.898438 96.746094 C 193.613281 96.746094 197.117188 98.398438 198.769531 101.082031 C 200.007812 102.941406 202.6875 103.355469 204.546875 102.117188 C 206.195312 100.878906 206.816406 98.398438 205.578125 96.539062 Z M 205.578125 96.539062"/><path fill="#302B2D" d="M 154.207031 117.398438 C 156.476562 117.605469 158.539062 115.953125 158.746094 113.679688 C 158.953125 111.410156 157.304688 109.34375 155.035156 109.136719 C 150.496094 108.726562 145.75 110.582031 142.449219 113.886719 C 138.941406 117.398438 137.5 122.148438 138.53125 126.484375 C 138.941406 128.34375 140.59375 129.582031 142.449219 129.582031 C 145.132812 129.582031 147.195312 126.898438 146.371094 124.417969 C 145.957031 122.972656 146.574219 121.117188 148.019531 119.671875 C 149.875 118.222656 152.144531 117.191406 154.207031 117.398438 Z M 154.207031 117.398438"/><path fill="#302B2D" d="M 229.714844 129.582031 C 231.984375 130.203125 234.253906 128.757812 234.664062 126.691406 C 235.695312 122.355469 234.253906 117.605469 230.746094 114.09375 C 227.445312 110.582031 222.699219 108.929688 218.160156 109.34375 C 215.890625 109.550781 214.242188 111.617188 214.449219 113.886719 C 214.652344 116.160156 216.71875 117.8125 218.984375 117.605469 C 221.050781 117.398438 223.316406 118.429688 224.96875 120.082031 C 226.414062 121.527344 227.03125 123.386719 226.617188 124.832031 C 226.207031 126.898438 227.652344 129.167969 229.714844 129.582031 Z M 229.714844 129.582031"/><path fill="#302B2D" d="M 121.199219 134.125 C 118.933594 133.507812 116.664062 134.746094 116.042969 137.015625 C 114.394531 142.59375 116.25 148.789062 120.375 153.125 C 123.882812 156.636719 128.628906 158.699219 133.578125 158.699219 C 136.671875 158.699219 140.59375 157.667969 139.972656 153.746094 C 139.5625 151.472656 137.5 150.027344 135.230469 150.441406 C 131.929688 151.058594 128.628906 149.820312 126.152344 147.550781 C 123.882812 145.277344 123.058594 142.179688 123.882812 139.289062 C 124.707031 137.015625 123.265625 134.746094 121.199219 134.125 Z M 121.199219 134.125"/><path fill="#302B2D" d="M 242.089844 150.234375 C 239.820312 149.820312 237.757812 151.265625 237.347656 153.539062 C 236.519531 157.667969 240.855469 158.699219 243.949219 158.699219 C 248.691406 158.699219 253.4375 156.84375 256.945312 153.125 C 261.277344 148.789062 262.925781 142.59375 261.484375 136.8125 C 260.863281 134.539062 258.59375 133.300781 256.53125 133.917969 C 254.261719 134.539062 253.023438 136.8125 253.644531 138.875 C 254.46875 141.765625 253.4375 144.863281 251.167969 147.136719 C 248.488281 149.820312 245.1875 150.855469 242.089844 150.234375 Z M 242.089844 150.234375"/><path fill="#302B2D" d="M 198.769531 169.027344 C 196.914062 171.710938 193.40625 173.363281 189.691406 173.15625 C 185.976562 173.15625 182.675781 171.503906 180.820312 168.820312 C 179.582031 166.960938 176.902344 166.34375 175.042969 167.789062 C 173.1875 169.027344 172.777344 171.503906 174.011719 173.570312 C 178.550781 181.210938 189.691406 181.417969 189.691406 181.417969 C 196.085938 181.417969 201.863281 178.527344 205.371094 173.777344 C 206.609375 171.917969 206.195312 169.441406 204.339844 167.996094 C 202.6875 166.753906 200.007812 167.167969 198.769531 169.027344 Z M 198.769531 169.027344"/><path fill="#302B2D" d="M 179.996094 224.785156 C 181.441406 222.101562 183.089844 219.621094 184.742188 217.144531 C 166.378906 192.570312 140.800781 180.589844 113.773438 168.199219 L 108.203125 165.722656 C 96.03125 160.148438 81.59375 151.679688 76.640625 136.8125 C 76.023438 135.160156 74.578125 133.917969 72.925781 133.917969 C 71.277344 133.917969 69.625 134.953125 69.007812 136.605469 C 67.769531 139.289062 42.394531 203.925781 71.894531 253.078125 C 89.019531 281.78125 120.996094 298.71875 167.207031 303.878906 C 166.585938 300.988281 166.175781 298.304688 165.761719 295.414062 C 123.675781 290.25 94.382812 274.761719 78.910156 248.949219 C 57.867188 213.839844 67.5625 168.613281 73.339844 149.203125 C 80.972656 161.179688 93.761719 168.199219 104.695312 173.363281 L 110.265625 175.839844 C 137.292969 188.234375 162.875 200.003906 179.996094 224.785156 Z M 179.996094 224.785156"/><g clip-path="url(#a)"><path fill="#302B2D" d="M 272.828125 84.148438 C 281.90625 81.257812 291.191406 76.921875 298.410156 69.28125 C 300.265625 79.8125 302.535156 98.398438 299.648438 118.222656 C 301.09375 120.082031 302.125 122.355469 303.15625 124.625 C 303.363281 125.246094 303.566406 125.660156 303.773438 126.277344 C 304.601562 126.070312 306.664062 125.867188 306.867188 125.867188 C 313.675781 92.410156 305.011719 60.605469 304.601562 58.542969 C 304.1875 56.890625 302.742188 55.859375 301.09375 55.445312 C 299.441406 55.238281 297.792969 56.0625 296.964844 57.507812 C 290.363281 68.867188 278.195312 74.238281 266.847656 77.335938 C 267.878906 79.195312 268.910156 81.050781 269.527344 82.910156 C 270.558594 83.117188 271.796875 83.53125 272.828125 84.148438 Z M 272.828125 84.148438"/></g><g clip-path="url(#b)"><path fill="#302B2D" d="M 310.582031 136.605469 C 309.964844 134.953125 308.3125 133.917969 306.664062 133.917969 C 305.011719 133.917969 303.363281 135.160156 302.949219 136.8125 C 298.203125 151.886719 283.558594 160.148438 271.386719 165.722656 L 265.816406 168.199219 C 237.347656 181.417969 210.320312 193.808594 191.960938 221.066406 C 174.011719 247.707031 168.648438 280.542969 177.3125 310.902344 C 178.757812 315.859375 183.089844 318.957031 188.042969 319.574219 C 191.546875 319.988281 195.054688 319.574219 197.945312 317.304688 C 200.417969 315.238281 202.070312 312.347656 203.71875 309.664062 C 204.957031 307.597656 207.640625 304.292969 212.179688 303.671875 C 258.390625 298.511719 290.570312 281.578125 307.695312 252.871094 C 336.988281 203.925781 311.613281 139.289062 310.582031 136.605469 Z M 300.472656 248.742188 C 284.796875 274.96875 254.675781 290.871094 211.148438 295.621094 C 205.371094 296.238281 200.007812 299.75 196.5 305.324219 C 196.292969 305.738281 195.878906 306.359375 195.675781 306.769531 C 194.847656 308.011719 194.4375 309.042969 193.816406 309.664062 C 194.847656 291.902344 207.226562 284.46875 222.285156 277.445312 C 253.4375 262.785156 269.941406 238.828125 267.671875 211.980469 C 267.464844 209.710938 265.402344 208.058594 263.132812 208.265625 C 260.863281 208.472656 259.214844 210.535156 259.421875 212.808594 C 261.484375 236.554688 246.21875 252.664062 232.601562 261.957031 C 233.425781 255.347656 233.21875 246.054688 228.476562 238.621094 C 227.238281 236.761719 224.761719 236.144531 222.699219 237.382812 C 220.84375 238.621094 220.222656 241.101562 221.460938 243.164062 C 226.824219 251.632812 223.9375 264.640625 223.113281 267.738281 C 221.460938 268.566406 220.015625 269.390625 218.78125 270.011719 C 205.988281 276.207031 186.804688 285.292969 185.566406 309.664062 C 185.359375 309.457031 185.152344 309.042969 185.152344 308.628906 C 177.109375 280.75 182.058594 250.394531 198.769531 225.816406 C 215.890625 200.417969 241.886719 188.4375 269.117188 175.839844 L 274.6875 173.363281 C 285.621094 168.199219 298.410156 161.179688 306.042969 149.203125 C 311.820312 168.40625 321.515625 213.632812 300.472656 248.742188 Z M 300.472656 248.742188"/></g><g clip-path="url(#c)"><path fill="#302B2D" d="M 94.175781 147.757812 C 94.175781 146.929688 93.761719 145.898438 93.351562 145.277344 C 90.257812 141.558594 89.636719 136.605469 91.289062 132.0625 C 92.9375 127.519531 96.859375 124.417969 101.601562 123.59375 C 102.839844 123.386719 103.871094 122.5625 104.492188 121.527344 C 105.109375 120.496094 105.109375 119.257812 104.695312 118.019531 C 102.839844 113.476562 103.664062 108.519531 106.554688 104.800781 C 109.234375 101.289062 113.566406 99.433594 118.105469 99.636719 C 119.757812 103.355469 122.644531 106.246094 126.359375 107.898438 C 128.421875 108.929688 130.898438 107.898438 131.929688 105.832031 C 132.960938 103.769531 131.929688 101.289062 129.867188 100.257812 C 127.800781 99.226562 126.152344 97.574219 125.328125 95.507812 C 124.089844 92.617188 124.5 88.898438 125.945312 86.214844 C 129.039062 80.640625 137.085938 79.195312 142.449219 81.671875 C 143.480469 82.085938 144.925781 82.085938 145.957031 81.671875 C 146.988281 81.050781 147.8125 80.019531 148.226562 78.988281 C 149.257812 74.03125 152.558594 70.3125 157.304688 68.867188 C 162.253906 67.214844 167.410156 68.660156 171.125 72.171875 C 172.15625 73.203125 173.394531 73.617188 174.632812 73.410156 C 175.871094 73.203125 177.109375 72.378906 177.726562 71.140625 C 179.996094 66.597656 184.535156 63.703125 189.691406 63.703125 C 194.4375 63.703125 198.769531 66.183594 201.246094 70.3125 C 201.863281 71.347656 202.894531 72.171875 204.132812 72.378906 C 205.371094 72.585938 206.609375 72.171875 207.433594 71.347656 C 210.941406 68.042969 215.890625 67.007812 220.429688 68.453125 C 224.96875 69.902344 228.476562 73.617188 229.507812 78.160156 C 229.714844 79.398438 230.539062 80.433594 231.777344 80.84375 C 232.808594 81.464844 234.253906 81.464844 235.285156 80.84375 C 239.617188 78.78125 244.566406 79.195312 248.691406 81.878906 C 251.167969 83.53125 253.023438 86.007812 253.851562 88.898438 C 255.5 94.683594 253.644531 99.226562 251.992188 101.910156 C 250.757812 103.769531 251.375 106.453125 253.230469 107.691406 C 255.089844 108.929688 257.769531 108.3125 259.007812 106.453125 C 260.039062 104.800781 261.484375 101.910156 262.101562 98.605469 C 265.816406 98.8125 269.117188 100.671875 271.59375 103.5625 C 274.6875 107.28125 275.304688 112.234375 273.65625 116.777344 C 273.242188 118.019531 273.242188 119.257812 273.859375 120.289062 C 274.480469 121.320312 275.511719 122.148438 276.75 122.355469 C 281.496094 123.179688 285.414062 126.277344 287.269531 130.820312 C 289.128906 135.363281 288.300781 140.320312 285.414062 144.039062 C 284.589844 145.070312 284.382812 146.308594 284.589844 147.550781 C 284.589844 147.757812 284.796875 147.960938 284.796875 147.960938 C 289.746094 143.832031 292.839844 139.289062 294.492188 134.332031 C 294.902344 133.300781 295.316406 132.265625 295.933594 131.234375 C 295.730469 129.996094 295.316406 128.757812 294.902344 127.519531 C 292.632812 121.734375 288.097656 117.398438 282.527344 115.125 C 283.351562 109.136719 281.90625 102.941406 277.988281 98.191406 C 274.066406 93.441406 268.496094 90.550781 262.515625 90.140625 C 262.308594 88.898438 261.894531 87.453125 261.484375 86.214844 C 260.039062 81.878906 257.152344 77.953125 253.230469 75.0625 C 248.074219 71.550781 241.886719 70.519531 236.109375 71.964844 C 233.425781 66.597656 228.683594 62.257812 222.90625 60.402344 C 217.128906 58.542969 210.734375 59.367188 205.578125 62.464844 C 201.65625 58.128906 195.878906 55.445312 189.691406 55.445312 C 183.089844 55.445312 177.109375 58.335938 172.980469 63.292969 C 167.617188 59.78125 160.808594 58.957031 154.621094 61.019531 C 148.84375 62.878906 144.101562 67.214844 141.625 72.792969 C 141.625 72.792969 136.46875 72.171875 133.371094 72.585938 C 127.390625 73.410156 121.820312 76.921875 118.933594 82.292969 C 117.28125 84.976562 116.042969 88.074219 115.632812 91.378906 C 109.648438 91.789062 104.078125 94.886719 100.160156 99.636719 C 96.445312 104.386719 95 110.789062 95.828125 116.777344 C 90.257812 119.050781 85.71875 123.59375 83.65625 129.375 C 83.449219 129.996094 83.242188 130.617188 83.035156 131.234375 C 83.65625 132.265625 84.273438 133.300781 84.6875 134.332031 C 85.925781 139.289062 89.226562 143.625 94.175781 147.757812 Z M 94.175781 147.757812"/></g><path fill="#302B2D" d="M 116.042969 208.265625 C 113.773438 208.058594 111.710938 209.710938 111.503906 211.980469 C 109.234375 238.828125 125.738281 262.578125 156.890625 277.445312 C 159.777344 278.683594 162.460938 280.132812 164.9375 281.578125 C 164.9375 278.480469 165.140625 275.382812 165.347656 272.488281 C 163.699219 271.664062 162.046875 270.835938 160.398438 270.011719 C 159.160156 269.390625 157.507812 268.566406 156.066406 267.738281 C 154.621094 262.785156 152.765625 250.804688 157.714844 243.164062 C 158.953125 241.304688 158.335938 238.621094 156.476562 237.382812 C 154.621094 236.144531 151.9375 236.761719 150.703125 238.621094 C 145.957031 246.054688 145.75 255.144531 146.574219 261.957031 C 132.960938 252.457031 117.695312 236.554688 119.757812 212.808594 C 119.964844 210.535156 118.3125 208.472656 116.042969 208.265625 Z M 116.042969 208.265625"/></svg>