<svg xmlns="http://www.w3.org/2000/svg" width="375" viewBox="0 0 375 375" height="375" version="1.0"><defs><clipPath id="a"><path d="M 89 41 L 287.691406 41 L 287.691406 334.710938 L 89 334.710938 Z M 89 41"/></clipPath></defs><path fill="#FFF" d="M-37.5 -37.5H412.5V412.5H-37.5z"/><path fill="none" d="M-37.5 -37.5H412.5V412.5H-37.5z"/><g clip-path="url(#a)"><path fill="#302B2D" d="M 225.835938 78.753906 C 225.316406 79.4375 225.648438 78.988281 225.835938 78.753906 Z M 234.480469 97.421875 C 228.933594 95.058594 221.324219 95.113281 214.535156 96.78125 C 216.714844 92.703125 219.054688 88.707031 221.585938 84.835938 C 222.683594 83.164062 223.8125 81.527344 224.984375 79.902344 C 225.316406 79.441406 225.660156 78.988281 226.011719 78.535156 C 225.949219 78.605469 225.917969 78.65625 225.867188 78.710938 C 229.140625 74.597656 223.324219 68.726562 219.976562 72.878906 C 209.4375 85.949219 201.445312 101.4375 195.871094 117.789062 C 193.484375 112.636719 190.078125 107.976562 186.132812 104.507812 C 182.136719 100.996094 176.242188 106.835938 180.261719 110.367188 C 185.289062 114.785156 188.527344 120.234375 190.050781 126.738281 C 190.53125 128.796875 190.828125 130.867188 190.90625 132.976562 C 190.921875 133.414062 190.828125 134.886719 190.835938 135.46875 C 188.296875 146.4375 186.757812 157.527344 186.203125 168.328125 C 185.925781 173.660156 194.230469 173.636719 194.5 168.328125 C 195.578125 147.460938 200.574219 126.882812 209.105469 107.8125 C 213.085938 105.410156 217.605469 104.5 222.277344 104.339844 C 224.226562 104.269531 226.195312 104.296875 228.15625 104.476562 C 228.789062 104.535156 231.492188 105.09375 230.292969 104.582031 C 235.152344 106.65625 239.382812 99.515625 234.480469 97.421875 Z M 149.351562 147.097656 C 149.375 147.128906 149.398438 147.152344 149.421875 147.183594 L 149.4375 147.210938 C 149.40625 147.171875 149.382812 147.140625 149.351562 147.097656 Z M 163.773438 161.863281 C 158.59375 146.148438 151.589844 130.664062 143.128906 116.050781 C 142.28125 109.265625 146.742188 101.898438 151.054688 97 C 154.566406 93.007812 148.71875 87.121094 145.183594 91.140625 C 141.621094 95.183594 138.40625 100.046875 136.527344 105.265625 C 131.28125 97.175781 125.589844 89.421875 119.511719 82.128906 C 116.089844 78.023438 110.242188 83.917969 113.640625 87.992188 C 125.214844 101.878906 135.355469 117.648438 143.511719 134.203125 C 136.890625 131.828125 129.460938 130.960938 123.535156 131 C 118.195312 131.039062 118.183594 139.324219 123.535156 139.285156 C 130.292969 139.242188 136.953125 140.363281 143.050781 143.359375 C 144.800781 144.222656 146.550781 145.191406 148.121094 146.355469 C 148.433594 146.582031 149.320312 147.441406 149.609375 147.617188 C 151.886719 153.070312 153.949219 158.550781 155.761719 164.066406 C 157.429688 169.117188 165.445312 166.953125 163.773438 161.863281 Z M 274.851562 109.71875 C 274.976562 109.921875 275.113281 110.109375 275.246094 110.308594 C 275.269531 110.371094 275.207031 110.28125 274.851562 109.71875 Z M 263.875 138.988281 C 261.390625 140.402344 261.367188 143.503906 263.039062 145.496094 C 261.886719 144.113281 263.667969 146.644531 263.886719 147.191406 C 264.800781 149.457031 264.777344 151.929688 264.085938 154.25 C 261.191406 163.882812 249.90625 169.5 241.871094 174.257812 C 235.664062 177.929688 228.84375 181.273438 223.703125 186.445312 C 218.664062 191.539062 216.292969 198.128906 215.296875 205.101562 C 212.394531 225.527344 218.21875 246.1875 223.785156 265.679688 C 228.046875 280.621094 237.582031 300.394531 227.808594 315.003906 C 218.851562 328.390625 203.273438 326.394531 189.3125 326.394531 C 174.875 326.394531 159.132812 327.996094 150.765625 313.273438 C 143.335938 300.195312 149.890625 282.710938 153.203125 269.351562 C 157.449219 252.1875 162.449219 234.847656 164.003906 217.175781 C 164.699219 209.25 164.152344 201.523438 159.898438 194.570312 C 154.914062 186.425781 146.929688 180.445312 139.050781 175.292969 C 131.546875 170.398438 123.417969 166.40625 116.117188 161.210938 C 112.214844 158.429688 108.816406 154.992188 110.445312 149.851562 C 111.257812 147.273438 112.988281 144.878906 114.957031 143.042969 C 116.832031 141.289062 116.460938 137.730469 114.117188 136.535156 C 107.566406 133.1875 95.121094 126.617188 98.496094 117.273438 C 99.257812 115.152344 100.652344 113.3125 102.21875 111.71875 C 102.785156 111.136719 103.386719 110.605469 104 110.066406 C 104.097656 109.984375 104.15625 109.929688 104.21875 109.875 C 104.21875 109.875 104.234375 109.867188 104.273438 109.839844 C 105.921875 108.679688 107.226562 106.066406 105.765625 104.171875 C 98.097656 94.246094 103.847656 75.398438 115.152344 70.875 C 126.722656 66.246094 136.757812 75.28125 140.011719 84.707031 C 140.71875 86.75 142.875 88.332031 145.117188 87.601562 C 151.664062 85.46875 158.636719 85.152344 163.066406 91.203125 C 164.074219 92.582031 164.894531 94.148438 165.503906 95.785156 C 155.636719 101.269531 154.644531 116.050781 156.648438 127.535156 C 157.679688 133.410156 159.363281 139.296875 162.515625 144.386719 C 167.285156 152.085938 169.9375 161.203125 172.386719 169.863281 C 174.125 175.988281 175.699219 182.089844 175.699219 188.484375 L 175.699219 293.378906 C 175.699219 298.71875 184 298.726562 184 293.378906 L 184 215.273438 C 184 204.945312 184.792969 194.257812 183.878906 183.964844 C 182.441406 167.769531 175.636719 152.25 168.355469 138.027344 C 163.464844 128.472656 158.371094 101.515625 175.335938 101.902344 C 177.476562 101.949219 179.621094 99.960938 179.484375 97.753906 C 179.269531 94.28125 179.613281 90.707031 180.550781 87.355469 C 182.488281 80.417969 187.109375 77.828125 194.164062 79.601562 C 195.800781 80.007812 198.089844 79.363281 198.859375 77.691406 C 199.582031 76.117188 200.433594 74.546875 201.398438 73.027344 C 202.03125 72.585938 202.507812 71.933594 202.714844 71.070312 C 208.609375 62.859375 217.816406 56.808594 228.210938 60.011719 C 241.363281 64.058594 245.210938 78.085938 241.675781 90.269531 C 241.125 92.15625 242.078125 93.890625 243.582031 94.949219 C 243.65625 95.007812 243.707031 95.042969 243.75 95.066406 C 243.757812 95.078125 243.757812 95.082031 243.777344 95.09375 C 244.496094 95.683594 245.1875 96.273438 245.863281 96.902344 C 247.757812 98.675781 249.574219 100.667969 250.703125 103.023438 C 254.964844 111.828125 243.613281 116.800781 237.042969 119.292969 C 234.449219 120.277344 232.554688 124.058594 235.21875 126.21875 C 237.738281 128.269531 240.039062 131.234375 240.660156 134.472656 C 242.277344 142.886719 231.652344 148.164062 226.042969 152.273438 C 213.992188 161.109375 202.328125 170.988281 197.988281 185.855469 C 194.277344 198.542969 196.007812 213.296875 196.007812 226.375 L 196.007812 293.378906 C 196.007812 298.71875 204.308594 298.726562 204.308594 293.378906 L 204.308594 208.0625 C 204.308594 200.847656 204.125 193.6875 206.402344 186.726562 C 211.574219 170.925781 226.820312 162.472656 239.207031 152.882812 C 245.933594 147.667969 250.953125 140.109375 248.421875 131.34375 C 247.757812 129.054688 246.609375 126.78125 245.148438 124.742188 C 254.039062 120.367188 262.589844 113.292969 259.378906 102.449219 C 257.90625 97.484375 254.371094 93.144531 250.351562 89.78125 C 251.023438 86.636719 251.304688 83.453125 251.191406 80.324219 C 259.949219 78.160156 271.671875 78.140625 274.761719 87.890625 C 276.71875 94.066406 274.59375 99.847656 274.003906 105.980469 C 273.835938 107.796875 274.148438 108.5 275.070312 110.011719 C 275.132812 110.109375 275.214844 110.261719 275.246094 110.308594 C 275.746094 111.0625 276.261719 111.808594 276.6875 112.617188 C 282.84375 124.214844 273.652344 133.460938 263.875 138.988281 Z M 152.621094 67.058594 C 154.832031 67.886719 157.027344 66.113281 157.730469 64.164062 C 158.242188 62.71875 160.453125 58.867188 162.265625 56.789062 C 166.765625 51.609375 173.28125 49.09375 180.109375 50.570312 C 185.976562 51.839844 190.074219 56.238281 192.359375 61.609375 C 193.191406 63.570312 193.75 65.667969 194.195312 67.75 C 194.257812 68.035156 194.289062 68.324219 194.339844 68.613281 C 193.855469 69.386719 193.398438 70.175781 192.960938 70.976562 C 184.777344 70 177.496094 73.175781 173.902344 81.394531 C 172.828125 83.855469 172.074219 86.527344 171.625 89.257812 C 170.644531 87.492188 169.484375 85.835938 168.1875 84.402344 C 162.449219 78.042969 154.292969 76.9375 146.429688 78.65625 C 144.445312 74.53125 141.703125 70.882812 138.425781 68.007812 C 142.25 64.910156 147.914062 65.292969 152.621094 67.058594 Z M 287.042969 119.296875 C 286.78125 114.65625 285.113281 110.003906 282.449219 106.144531 C 285.15625 92.734375 284.335938 76.347656 268.738281 72.011719 C 262.820312 70.359375 256.050781 70.65625 249.882812 72.09375 C 247.386719 63.316406 241.34375 55.871094 231.734375 52.457031 C 220.179688 48.355469 208.984375 52.632812 200.828125 60.546875 C 197.632812 51.632812 190.871094 44.089844 181.078125 42.335938 C 168.480469 40.078125 157.019531 47.191406 151.421875 58.050781 C 144.089844 56.378906 136.328125 57.949219 131.261719 63.421875 C 125.4375 60.871094 118.734375 60.5 111.84375 63.328125 C 102.925781 66.996094 97.152344 75.335938 95.226562 84.585938 C 93.886719 91.03125 93.703125 99.183594 96.777344 105.40625 C 93.621094 108.429688 91.105469 112.238281 90.105469 116.429688 C 87.40625 127.707031 96.542969 135.929688 105.558594 141.285156 C 102.585938 145.589844 100.851562 150.90625 102.007812 155.964844 C 103.914062 164.304688 112.492188 168.972656 119.289062 173.027344 C 132.691406 181.046875 154.761719 190.855469 155.933594 208.828125 C 156.464844 216.917969 154.800781 225.203125 153.21875 233.097656 C 151.265625 242.867188 148.835938 252.539062 146.425781 262.203125 C 142.746094 276.988281 136.015625 294.890625 140.515625 310.191406 C 143.398438 319.988281 150.699219 328.070312 160.113281 332.023438 C 166.21875 334.589844 172.46875 334.679688 178.949219 334.679688 L 200.691406 334.679688 C 207.171875 334.679688 213.421875 334.589844 219.535156 332.023438 C 228.9375 328.070312 236.242188 319.988281 239.125 310.191406 C 241.53125 302.027344 240.109375 293.957031 238.097656 285.90625 C 232.730469 264.511719 224.28125 243.40625 222.945312 221.199219 C 222.394531 212.148438 222.335938 200.488281 228.707031 193.222656 C 234.6875 186.394531 244.378906 182.609375 251.925781 177.839844 C 261.015625 172.097656 271.617188 164.449219 272.78125 152.808594 C 273.082031 149.851562 272.65625 146.800781 271.535156 144.039062 C 280.148438 138.40625 287.664062 130.25 287.042969 119.296875"/></g></svg>