<svg xmlns="http://www.w3.org/2000/svg" xmlns:xlink="http://www.w3.org/1999/xlink" width="375" zoomAndPan="magnify" viewBox="0 0 375 374.999991" height="374.999991" preserveAspectRatio="xMidYMid meet" version="1.0"><defs><clipPath id="id1"><path d="M 37.769531 25.714844 L 331.261719 25.714844 L 331.261719 348.964844 L 37.769531 348.964844 Z M 37.769531 25.714844 " clip-rule="nonzero"/></clipPath></defs><rect x="-37.5" width="450" fill="rgb(100%, 100%, 100%)" y="-37.499999" height="449.999989" fill-opacity="1"/><rect x="-37.5" width="450" fill="rgb(100%, 100%, 100%)" y="-37.499999" height="449.999989" fill-opacity="1"/><g clip-path="url(#id1)"><path fill="rgb(18.818665%, 16.859436%, 17.649841%)" d="M 322.121094 282.976562 C 322.121094 257.425781 296.636719 236.636719 265.304688 236.636719 L 264.871094 236.636719 C 266.996094 245.671875 268.664062 254.992188 269.109375 264.210938 C 274.652344 263.09375 279.804688 259.871094 283.121094 254.527344 C 286.203125 249.523438 294.125 254.113281 291.015625 259.140625 C 285.234375 268.484375 275.601562 273.316406 265.816406 273.667969 C 265.042969 273.851562 264.21875 273.851562 263.441406 273.667969 C 253.671875 273.292969 244.046875 268.460938 238.277344 259.140625 C 235.167969 254.113281 243.089844 249.523438 246.1875 254.527344 C 249.429688 259.769531 254.449219 262.964844 259.875 264.15625 C 259.691406 261.628906 259.417969 259.09375 259.109375 256.605469 C 258.300781 250.09375 257.15625 243.664062 255.726562 237.3125 C 228.953125 241.035156 208.496094 260.089844 208.496094 282.976562 C 208.496094 308.722656 233.832031 339.839844 265.304688 339.839844 C 296.773438 339.839844 322.121094 308.722656 322.121094 282.976562 Z M 154.570312 89.496094 C 150.210938 85.351562 144.925781 81.96875 139.550781 79.652344 C 123.453125 72.714844 107.28125 77.242188 93.5 86.476562 C 97.648438 90.589844 102.691406 93.980469 107.871094 96.378906 C 123.96875 103.855469 140.742188 99.136719 154.570312 89.496094 Z M 165.585938 84.59375 C 166.203125 84.445312 166.832031 84.304688 167.449219 84.132812 C 172.765625 82.65625 177.804688 80.417969 182.421875 77.382812 C 196.839844 67.90625 201.984375 52 201.882812 35.625 C 201.195312 35.777344 200.519531 35.921875 199.847656 36.097656 C 194.535156 37.472656 189.480469 39.585938 184.855469 42.554688 C 170.167969 51.964844 165.300781 68.125 165.585938 84.59375 Z M 125.296875 240.117188 C 120.253906 248.261719 114.878906 256.28125 109.027344 263.867188 C 113.992188 262.496094 118.523438 259.386719 121.53125 254.535156 C 124.628906 249.53125 132.542969 254.121094 129.4375 259.148438 C 117.417969 278.566406 88.710938 278.566406 76.699219 259.148438 C 73.589844 254.121094 81.507812 249.53125 84.601562 254.535156 C 87.652344 259.46875 92.277344 262.597656 97.324219 263.921875 C 100.335938 260.335938 102.863281 256.886719 105.683594 252.957031 C 109.21875 248.035156 112.679688 242.953125 116.03125 237.742188 C 112.066406 237.035156 107.953125 236.644531 103.722656 236.644531 C 72.398438 236.644531 46.914062 257.433594 46.914062 282.984375 C 46.914062 308.730469 72.253906 339.847656 103.722656 339.847656 C 135.195312 339.847656 160.535156 308.730469 160.535156 282.984375 C 160.535156 263.660156 145.957031 247.0625 125.296875 240.117188 Z M 331.269531 282.984375 C 331.269531 297.9375 324.082031 314.535156 312.058594 327.363281 C 298.972656 341.308594 282.382812 348.984375 265.308594 348.984375 C 248.246094 348.984375 231.644531 341.308594 218.570312 327.363281 C 206.535156 314.535156 199.359375 297.9375 199.359375 282.984375 C 199.359375 255.777344 222.765625 233.105469 253.515625 228.410156 C 239.769531 177.980469 207.210938 133.308594 166.984375 100.289062 C 168.082031 116.296875 166.871094 132.3125 163.707031 148.144531 C 157.753906 177.796875 145.441406 206.148438 130.117188 232.15625 C 153.386719 240.734375 169.683594 260.277344 169.683594 282.984375 C 169.683594 297.9375 162.496094 314.535156 150.46875 327.363281 C 137.394531 341.308594 120.792969 348.984375 103.730469 348.984375 C 86.664062 348.984375 70.066406 341.308594 56.992188 327.363281 C 44.957031 314.535156 37.773438 297.9375 37.773438 282.984375 C 37.773438 252.398438 67.363281 227.507812 103.730469 227.507812 C 109.777344 227.507812 115.628906 228.203125 121.195312 229.496094 C 145.078125 190.066406 161.933594 144.058594 157.753906 98.242188 C 142.695312 108.035156 125.007812 112.902344 107.355469 106.042969 C 98.402344 102.566406 89.445312 96.644531 83.480469 88.984375 C 81.503906 86.4375 81.863281 83.753906 84.410156 81.792969 C 100.671875 69.265625 121.1875 62.714844 141.039062 70.441406 C 146.398438 72.527344 151.777344 75.449219 156.519531 79.089844 C 157.375 61.960938 163.921875 45.878906 178.789062 35.613281 C 186.6875 30.164062 196.617188 26.433594 206.25 25.726562 C 208.855469 25.539062 210.664062 27.976562 210.820312 30.304688 C 212.34375 51.253906 206.195312 71.804688 188.492188 84.300781 C 183.523438 87.8125 177.773438 90.644531 171.785156 92.484375 C 189.292969 106.734375 205.269531 122.679688 219.0625 140.628906 C 238.921875 166.457031 254.097656 196.050781 262.566406 227.566406 C 263.480469 227.53125 264.394531 227.507812 265.308594 227.507812 C 301.683594 227.507812 331.269531 252.398438 331.269531 282.984375 Z M 135.835938 317.699219 C 144.554688 308.160156 150.503906 296.40625 150.839844 283.316406 C 150.988281 277.421875 141.839844 277.421875 141.6875 283.316406 C 141.414062 293.941406 136.421875 303.5 129.363281 311.234375 C 125.398438 315.585938 131.855469 322.074219 135.835938 317.699219 Z M 275.5 331.449219 C 278.199219 330.457031 280.792969 329.15625 283.351562 327.851562 C 285.488281 326.757812 286.289062 323.582031 285 321.59375 C 283.59375 319.410156 281.019531 318.785156 278.734375 319.949219 C 277.683594 320.484375 276.621094 321.011719 275.558594 321.511719 C 275.035156 321.777344 274.496094 322.027344 273.949219 322.265625 C 273.46875 322.484375 273.308594 322.542969 273.902344 322.300781 C 273.628906 322.414062 273.34375 322.53125 273.066406 322.632812 C 270.828125 323.457031 269.066406 325.761719 269.867188 328.253906 C 270.578125 330.445312 273.101562 332.34375 275.5 331.449219 Z M 296.355469 317.699219 C 305.066406 308.160156 311.019531 296.40625 311.351562 283.316406 C 311.511719 277.421875 302.355469 277.421875 302.195312 283.316406 C 301.933594 293.941406 296.941406 303.5 289.878906 311.234375 C 285.914062 315.585938 292.367188 322.074219 296.355469 317.699219 Z M 114.992188 331.449219 C 112.589844 332.34375 110.070312 330.445312 109.363281 328.253906 C 108.554688 325.761719 110.320312 323.457031 112.558594 322.632812 C 112.839844 322.53125 113.109375 322.414062 113.386719 322.300781 C 112.804688 322.542969 112.960938 322.484375 113.441406 322.265625 C 113.980469 322.027344 114.519531 321.777344 115.050781 321.511719 C 116.121094 321.011719 117.179688 320.484375 118.226562 319.949219 C 120.511719 318.785156 123.082031 319.410156 124.488281 321.59375 C 125.773438 323.582031 124.984375 326.757812 122.847656 327.851562 C 120.289062 329.15625 117.6875 330.457031 114.992188 331.449219 " fill-opacity="1" fill-rule="nonzero"/></g></svg>