<svg xmlns="http://www.w3.org/2000/svg" width="375" viewBox="0 0 375 375" height="375" version="1.0"><defs><clipPath id="a"><path d="M 92 15 L 272 15 L 272 337.851562 L 92 337.851562 Z M 92 15"/></clipPath></defs><path fill="#FFF" d="M-37.5 -37.5H412.5V412.5H-37.5z"/><path fill="#E1DDD3" d="M-37.5 -37.5H412.5V412.5H-37.5z"/><g clip-path="url(#a)" fill="#302B2D"><path d="M 166.445312 191 C 166.058594 190.9375 165.457031 190.78125 164.976562 190.3125 C 164.117188 189.480469 164.164062 188.15625 164.1875 187.382812 C 164.222656 186.300781 164.585938 178.308594 162.699219 176.472656 C 162.46875 176.246094 162.488281 175.933594 159.199219 175.460938 C 155.382812 174.914062 151.5625 174.335938 147.890625 173.148438 C 146.164062 172.59375 145.988281 173.25 146.070312 174.660156 C 146.113281 175.363281 146.035156 176.117188 145.816406 176.785156 C 145.488281 177.777344 144.707031 178.386719 143.632812 178.375 C 142.480469 178.363281 141.628906 177.789062 141.304688 176.644531 C 141.152344 176.109375 141.101562 175.535156 141.101562 174.976562 C 141.042969 138.726562 143.738281 102.765625 152.882812 67.535156 C 156.195312 54.761719 160.507812 42.335938 167.613281 31.070312 C 170.242188 26.902344 173.273438 23.074219 177.167969 20 C 184.773438 14 193.273438 13.847656 201.136719 19.5625 C 206.371094 23.367188 210.179688 28.425781 213.453125 33.898438 C 221.023438 46.550781 225.699219 60.363281 229.484375 74.511719 C 233.894531 90.980469 236.800781 107.734375 238.941406 124.628906 C 238.992188 125.027344 239.046875 125.429688 239.050781 125.828125 C 239.066406 127.371094 238.492188 128.570312 236.824219 128.734375 C 235.296875 128.878906 234.410156 127.957031 234.1875 126.5 C 233.78125 123.882812 233.4375 121.253906 233.089844 118.628906 C 232.90625 117.234375 232.78125 116.253906 231.035156 117.621094 C 227.800781 120.160156 224.136719 122.019531 220.308594 123.503906 C 218.960938 124.027344 218.527344 124.730469 218.617188 126.195312 C 219.039062 133.167969 219.34375 140.148438 219.664062 147.128906 C 219.703125 148 219.675781 148.898438 219.523438 149.753906 C 219.320312 150.894531 218.597656 151.632812 217.382812 151.671875 C 216.105469 151.714844 215.050781 151.128906 214.957031 149.832031 C 214.796875 147.570312 213.582031 147.84375 212.046875 148.292969 C 206.480469 149.921875 200.757812 150.75 195.023438 151.445312 C 193.453125 151.636719 193.027344 152.171875 193.078125 153.683594 C 193.230469 158.496094 193.339844 163.320312 193.285156 168.136719 C 193.261719 169.945312 194 170.15625 195.421875 169.800781 C 199 168.902344 202.578125 168.007812 206.15625 167.101562 C 206.699219 166.964844 207.222656 166.738281 207.769531 166.621094 C 209.226562 166.316406 210.605469 166.441406 211.121094 168.089844 C 211.65625 169.800781 210.75 170.855469 209.167969 171.394531 C 204.910156 172.851562 200.558594 173.996094 196.117188 174.695312 C 194.113281 175.011719 193.261719 175.664062 193.386719 177.878906 C 193.667969 182.929688 193.722656 187.992188 193.71875 193.054688 C 193.71875 194.828125 194.289062 195.132812 195.820312 194.546875 C 197.164062 194.03125 198.554688 193.621094 199.933594 193.203125 C 201.414062 192.757812 202.746094 193.003906 203.3125 194.582031 C 203.867188 196.140625 203.054688 197.292969 201.625 197.835938 C 199.679688 198.574219 197.699219 199.296875 195.667969 199.707031 C 194.132812 200.019531 193.753906 200.691406 193.804688 202.140625 C 193.949219 206.074219 193.964844 210.011719 194.019531 213.945312 C 194.03125 214.746094 194.054688 215.554688 193.984375 216.351562 C 193.867188 217.699219 193.195312 218.664062 191.765625 218.765625 C 190.191406 218.882812 189.433594 217.878906 189.15625 216.484375 C 189.015625 215.78125 189.019531 215.046875 189.011719 214.324219 C 188.964844 210.390625 188.886719 206.453125 188.925781 202.519531 C 188.941406 201.140625 188.507812 200.71875 187.121094 200.796875 C 184.960938 200.921875 182.789062 200.875 180.625 200.796875 C 179.066406 200.738281 177.964844 199.933594 178.042969 198.253906 C 178.125 196.59375 179.253906 195.917969 180.835938 195.910156 C 182.921875 195.898438 185.011719 195.863281 187.097656 195.890625 C 188.339844 195.902344 188.785156 195.347656 188.757812 194.125 C 188.632812 188.585938 188.515625 183.042969 188.496094 177.503906 C 188.492188 175.980469 187.675781 176.046875 186.648438 176.164062 C 181.046875 176.8125 175.429688 176.808594 169.8125 176.484375 C 168.4375 176.40625 168.128906 176.953125 168.246094 178.152344 C 168.246094 178.152344 168.5 179.957031 169.078125 187.261719 C 169.210938 188.953125 169.167969 189.851562 168.546875 190.441406 C 167.929688 191.027344 167.015625 191.046875 166.445312 191 Z M 174.992188 29.601562 C 174.261719 29.890625 173.972656 30.589844 173.558594 31.164062 C 170.082031 36.023438 167.507812 41.363281 165.082031 46.800781 C 164.394531 48.34375 164.851562 48.839844 166.285156 49.289062 C 171.304688 50.867188 171.292969 50.902344 172.191406 45.65625 C 172.234375 45.402344 172.300781 45.1875 172.351562 44.953125 C 172.921875 42.296875 174.453125 32.941406 174.992188 29.601562 Z M 213.476562 118.613281 C 212.609375 111.242188 212.035156 106.050781 211.972656 104.222656 C 211.960938 103.882812 211.9375 102.90625 211.316406 102.488281 C 210.953125 102.246094 210.402344 102.242188 209.582031 102.515625 C 204.546875 104.191406 199.335938 105.109375 194.078125 105.726562 C 192.746094 105.882812 192.308594 106.296875 192.347656 107.628906 C 192.492188 113 192.578125 118.375 192.617188 123.75 C 192.628906 125.101562 192.957031 125.570312 194.441406 125.304688 C 199.804688 124.351562 205.121094 123.238281 210.382812 121.792969 C 211.09375 121.597656 212.679688 121.257812 213.265625 120.019531 C 213.519531 119.488281 213.511719 118.957031 213.476562 118.613281 Z M 188.089844 153.726562 C 188.105469 153.511719 188.160156 152.875 187.769531 152.503906 C 187.5 152.25 187.050781 152.199219 186.375 152.253906 C 180.789062 152.707031 175.199219 153.199219 169.589844 152.679688 C 168.167969 152.546875 167.792969 153.101562 167.804688 154.433594 C 167.859375 159.480469 167.863281 164.527344 167.800781 169.574219 C 167.785156 170.902344 168.222656 171.332031 169.554688 171.46875 C 175.246094 172.046875 180.910156 171.6875 186.582031 171.230469 C 187.273438 171.175781 187.753906 171.003906 188.054688 170.667969 C 188.523438 170.140625 188.460938 169.378906 188.441406 169.101562 C 188.320312 167.328125 187.953125 155.824219 188.089844 153.726562 Z M 187.394531 116.78125 C 187.351562 112.78125 187.359375 109.851562 187.488281 108.28125 C 187.511719 107.976562 187.589844 107.160156 187.089844 106.675781 C 186.761719 106.351562 186.214844 106.265625 185.410156 106.320312 C 180.84375 106.632812 176.273438 106.488281 171.726562 105.902344 C 170.457031 105.742188 170.261719 106.335938 170.203125 107.386719 C 169.878906 113.074219 169.5625 118.761719 169.101562 124.441406 C 168.964844 126.121094 169.464844 126.730469 171.117188 126.800781 C 176.023438 127.019531 180.898438 126.46875 185.789062 126.320312 C 186.449219 126.296875 186.90625 126.140625 187.199219 125.835938 C 187.703125 125.320312 187.65625 124.523438 187.636719 124.175781 C 187.550781 122.675781 187.488281 120.121094 187.394531 116.78125 Z M 192.046875 96.992188 C 192.050781 97.078125 192.070312 97.34375 192.109375 97.871094 C 192.269531 99.996094 192.347656 100.40625 192.648438 100.660156 C 193.042969 100.988281 193.621094 100.894531 193.902344 100.851562 C 199.210938 100.039062 204.460938 98.984375 209.597656 97.398438 C 210.8125 97.027344 211.222656 96.398438 211.054688 95.132812 C 210.363281 89.898438 209.730469 84.652344 209.109375 79.40625 C 208.949219 78.03125 208.394531 77.734375 207.023438 78.085938 C 202.597656 79.226562 198.078125 79.878906 193.523438 80.207031 C 192.886719 80.253906 192.472656 80.386719 192.222656 80.664062 C 191.835938 81.09375 191.886719 81.722656 191.902344 81.949219 C 192.265625 86.949219 191.8125 91.980469 192.046875 96.992188 Z M 192.796875 138.46875 C 192.925781 141.789062 192.96875 144.085938 192.886719 145.214844 C 192.867188 145.453125 192.816406 146.109375 193.203125 146.445312 C 193.398438 146.617188 193.710938 146.683594 194.207031 146.609375 C 200.550781 145.65625 206.902344 144.746094 213.058594 142.851562 C 213.898438 142.59375 214.535156 142.300781 214.476562 141.253906 C 214.222656 136.683594 213.988281 132.113281 213.757812 127.542969 C 213.703125 126.421875 213.351562 126.019531 212.109375 126.410156 C 206.28125 128.25 200.304688 129.445312 194.261719 130.289062 C 192.921875 130.476562 192.753906 131.105469 192.78125 132.199219 C 192.832031 134.289062 192.796875 136.378906 192.796875 138.46875 Z M 165.3125 106.3125 C 165.351562 106.070312 165.363281 105.734375 165.183594 105.449219 C 164.902344 105.003906 164.300781 104.925781 164.105469 104.894531 C 160.140625 104.265625 156.261719 103.28125 152.445312 102.050781 C 151.5 101.746094 150.992188 101.871094 150.855469 103.039062 C 150.117188 109.320312 149.324219 115.597656 148.503906 121.871094 C 148.320312 123.289062 148.871094 123.839844 150.234375 124.136719 C 154.074219 124.972656 157.933594 125.605469 161.824219 126.148438 C 162.765625 126.277344 163.339844 126.183594 163.691406 125.875 C 164.296875 125.347656 164.253906 124.378906 164.242188 124.078125 C 164.1875 122.230469 164.621094 115.640625 165.3125 106.3125 Z M 187.335938 91.058594 C 187.359375 88.472656 187.3125 85.882812 187.378906 83.296875 C 187.386719 82.871094 187.421875 81.675781 186.664062 81.054688 C 186.140625 80.632812 185.472656 80.664062 185.171875 80.671875 C 181.640625 80.796875 178.101562 80.738281 174.589844 80.273438 C 173.210938 80.089844 172.632812 80.433594 172.511719 81.992188 C 172.054688 87.75 171.453125 93.496094 170.828125 99.238281 C 170.6875 100.488281 171.023438 100.894531 172.277344 101.058594 C 176.84375 101.648438 181.417969 101.363281 185.992188 101.429688 C 187.277344 101.449219 187.367188 100.738281 187.351562 99.730469 C 187.339844 98.984375 187.289062 96.347656 187.335938 91.058594 Z M 176.820312 147.761719 C 180.027344 147.660156 183.242188 147.734375 186.4375 147.300781 C 187.46875 147.164062 188.035156 146.976562 188.011719 145.761719 C 187.917969 141.425781 187.886719 137.085938 187.898438 132.746094 C 187.902344 131.445312 187.410156 131.167969 186.152344 131.238281 C 180.863281 131.535156 175.574219 131.96875 170.269531 131.691406 C 169.160156 131.632812 168.679688 131.96875 168.648438 133.140625 C 168.519531 137.472656 168.351562 141.808594 168.121094 146.136719 C 168.046875 147.5 168.6875 147.785156 169.832031 147.769531 C 172.164062 147.742188 174.492188 147.761719 176.820312 147.761719 Z M 162.933594 161.808594 C 162.9375 161.808594 162.945312 161.808594 162.949219 161.808594 C 162.949219 159.246094 162.898438 156.679688 162.972656 154.121094 C 163.007812 152.859375 162.6875 152.207031 161.292969 152.117188 C 156.890625 151.847656 152.566406 151.046875 148.3125 149.898438 C 147.144531 149.582031 146.554688 149.585938 146.53125 151.0625 C 146.449219 155.945312 146.289062 160.828125 146.097656 165.707031 C 146.050781 166.925781 146.386719 167.578125 147.648438 167.949219 C 152.113281 169.265625 156.675781 170.054688 161.261719 170.753906 C 162.5 170.941406 163 170.582031 162.957031 169.257812 C 162.875 166.777344 162.933594 164.292969 162.933594 161.808594 Z M 207.933594 71.179688 C 207.035156 65.980469 206.128906 60.785156 205.246094 55.582031 C 205.046875 54.394531 204.488281 54.28125 203.398438 54.589844 C 200.085938 55.527344 196.691406 56.132812 193.269531 56.453125 C 191.761719 56.589844 191.453125 57.203125 191.5 58.570312 C 191.679688 63.609375 191.808594 68.652344 191.835938 73.695312 C 191.84375 75.152344 192.382812 75.496094 193.6875 75.316406 C 197.964844 74.726562 202.246094 74.207031 206.441406 73.128906 C 207.558594 72.84375 208.238281 72.46875 207.933594 71.179688 Z M 168.078125 80.851562 C 168.007812 80.621094 167.871094 80.28125 167.585938 79.964844 C 167.0625 79.378906 166.363281 79.222656 166.074219 79.171875 C 165.210938 79.019531 160.421875 78.15625 157.714844 76.992188 C 156.136719 76.3125 155.640625 76.832031 155.363281 78.296875 C 154.300781 83.890625 153.21875 89.476562 152.070312 95.046875 C 151.820312 96.261719 152.160156 96.769531 153.316406 97.132812 C 156.839844 98.246094 160.414062 99.128906 164.019531 99.902344 C 164.679688 100.042969 165.144531 100.019531 165.460938 99.789062 C 165.972656 99.410156 165.996094 98.636719 166.003906 98.410156 C 166.066406 96.953125 166.894531 90.21875 168.078125 80.851562 Z M 192.707031 51.570312 C 196.050781 51.171875 199.351562 50.539062 202.613281 49.683594 C 203.71875 49.390625 203.875 48.828125 203.628906 47.738281 C 201.875 39.914062 199.863281 32.167969 197.207031 24.589844 C 196.507812 22.589844 195.195312 21.664062 193.378906 21.015625 C 191.664062 20.40625 190.820312 20.488281 190.929688 22.738281 C 191.199219 28.105469 191.25 33.484375 191.347656 38.859375 C 191.414062 42.550781 191.40625 46.242188 191.445312 49.933594 C 191.453125 50.78125 191.214844 51.863281 192.707031 51.570312 Z M 147.042969 140.214844 C 147.054688 140.21875 147.066406 140.21875 147.082031 140.21875 C 147.035156 141.097656 147.039062 141.984375 146.933594 142.859375 C 146.804688 143.90625 147.148438 144.476562 148.222656 144.761719 C 152.484375 145.894531 156.800781 146.703125 161.179688 147.21875 C 162.773438 147.40625 163.28125 146.851562 163.3125 145.28125 C 163.398438 141.117188 163.242188 136.9375 163.785156 132.792969 C 163.972656 131.355469 163.078125 131.234375 162.074219 131.128906 C 157.851562 130.691406 153.644531 130.121094 149.542969 129.007812 C 147.992188 128.589844 147.75 129.460938 147.671875 130.625 C 147.460938 133.820312 147.25 137.019531 147.042969 140.214844 Z M 216.484375 102.113281 C 217.367188 110.367188 217.953125 116.234375 217.957031 117.496094 C 217.957031 117.691406 217.949219 118.402344 218.355469 118.652344 C 218.566406 118.78125 218.890625 118.757812 219.390625 118.539062 C 223.515625 116.710938 227.46875 114.628906 230.664062 111.355469 C 231.277344 110.726562 231.890625 110.085938 231.695312 109.058594 C 230.839844 104.496094 229.992188 99.933594 229.167969 95.367188 C 228.964844 94.230469 228.507812 94.136719 227.570312 94.722656 C 224.441406 96.679688 221.148438 98.324219 217.714844 99.683594 C 217.550781 99.746094 217.109375 99.90625 216.792969 100.332031 C 216.367188 100.90625 216.40625 101.644531 216.484375 102.113281 Z M 186.957031 66.539062 C 186.972656 64.703125 187.246094 60.101562 186.875 58.414062 C 186.8125 58.128906 186.675781 57.667969 186.285156 57.34375 C 185.863281 56.996094 185.347656 56.976562 185.132812 56.972656 C 182.484375 56.90625 179.835938 56.761719 177.199219 56.507812 C 175.949219 56.386719 175.511719 56.753906 175.371094 57.992188 C 174.777344 63.25 174.105469 68.5 173.433594 73.75 C 173.3125 74.695312 173.453125 75.289062 174.582031 75.355469 C 178.1875 75.566406 181.78125 75.90625 185.40625 75.8125 C 186.746094 75.78125 186.992188 75.152344 186.972656 74.007812 C 186.957031 73.210938 186.917969 70.988281 186.957031 66.539062 Z M 186.523438 36.476562 C 186.523438 36.65625 186.523438 36.832031 186.523438 37.011719 C 186.164062 29.292969 185.976562 23.9375 186.089844 22.535156 C 186.109375 22.332031 186.179688 21.570312 185.773438 21.285156 C 185.523438 21.109375 185.101562 21.179688 184.445312 21.417969 C 182.839844 22 182.339844 23.296875 181.910156 24.671875 C 179.351562 32.871094 177.984375 41.328125 176.523438 49.765625 C 176.28125 51.164062 176.878906 51.664062 178.1875 51.683594 C 180.429688 51.722656 182.671875 51.765625 184.914062 51.882812 C 186.191406 51.949219 186.558594 51.40625 186.546875 50.183594 C 186.492188 45.613281 186.523438 41.046875 186.523438 36.476562 Z M 227.691406 87.851562 C 226.335938 82.667969 224.980469 77.484375 223.625 72.300781 C 223.332031 71.183594 222.730469 71.710938 222.207031 72.0625 C 219.929688 73.578125 217.472656 74.738281 214.929688 75.714844 C 214.242188 75.980469 213.550781 76.195312 213.683594 77.179688 C 214.40625 82.648438 215.132812 88.117188 215.824219 93.59375 C 215.964844 94.726562 216.4375 94.886719 217.40625 94.441406 C 220.605469 92.964844 223.753906 91.390625 226.695312 89.4375 C 227.253906 89.066406 227.734375 88.660156 227.691406 87.851562 Z M 170.523438 56.746094 C 170.785156 55.714844 170.21875 55.375 169.296875 55.160156 C 167.511719 54.746094 165.714844 54.304688 163.992188 53.6875 C 162.863281 53.285156 162.417969 53.613281 162.070312 54.640625 C 160.367188 59.71875 158.804688 64.832031 157.417969 70.007812 C 157.136719 71.0625 157.285156 71.628906 158.367188 72.015625 C 161.160156 73.019531 164.027344 73.710938 166.917969 74.328125 C 167.914062 74.542969 168.4375 74.183594 168.558594 73.167969 C 169.207031 67.695312 169.867188 62.222656 170.523438 56.746094 Z M 221.539062 65.371094 C 221.511719 65.132812 221.402344 64.96875 221.382812 64.914062 C 220.199219 61.519531 219.082031 58.097656 217.824219 54.730469 C 215.867188 49.5 215.847656 49.554688 210.871094 52.042969 C 209.855469 52.554688 209.714844 53.082031 209.910156 54.101562 C 210.324219 56.21875 211.710938 63.675781 211.875 64.703125 C 212.082031 65.996094 212.367188 67 212.941406 69.007812 C 213.265625 70.132812 213.347656 70.441406 213.667969 70.65625 C 214.648438 71.316406 216.332031 70.253906 219.019531 68.566406 C 219.019531 68.566406 219.910156 68.007812 221.039062 66.625 C 221.261719 66.351562 221.605469 65.898438 221.539062 65.371094 Z M 204.59375 30.855469 C 205.839844 35.910156 207.136719 40.644531 208.125 45.441406 C 208.332031 46.460938 208.609375 47.023438 209.035156 47.195312 C 209.136719 47.234375 209.320312 47.269531 210.757812 46.675781 C 211.746094 46.273438 212.105469 46.074219 212.410156 45.871094 C 212.941406 45.523438 213.210938 45.347656 213.339844 45.035156 C 213.613281 44.375 213.113281 43.589844 212.9375 43.296875 C 211.59375 41.023438 210.464844 38.621094 209.101562 36.355469 C 207.933594 34.410156 206.929688 32.285156 204.59375 30.855469 Z M 261.792969 123.457031 C 250.207031 138.054688 244.25 154.8125 242.425781 173.234375 C 240.621094 191.402344 240.1875 209.625 240.207031 227.855469 C 240.222656 242.8125 240.238281 257.761719 237.113281 272.460938 C 234.457031 284.953125 229.894531 296.628906 220.355469 305.695312 C 218.324219 307.625 216.042969 309.289062 213.898438 311.105469 C 212.683594 312.136719 211.96875 313.421875 213.078125 314.875 C 214.191406 316.328125 215.632812 316 216.910156 315.03125 C 219.34375 313.191406 221.746094 311.320312 223.964844 309.210938 C 233.542969 300.117188 238.496094 288.503906 241.464844 276.023438 C 245.058594 260.929688 245.355469 245.492188 245.253906 230.039062 C 245.132812 211.5625 245.617188 193.105469 247.292969 174.6875 C 249.144531 154.277344 256.390625 136.238281 270.355469 121.070312 C 271.414062 119.921875 272.519531 118.746094 271.585938 117.046875 C 270.691406 115.429688 269.105469 115.539062 267.546875 115.648438 C 258.105469 116.304688 250.121094 120.351562 243.042969 126.351562 C 231.082031 136.488281 222.925781 149.367188 216.730469 163.582031 C 208.957031 181.429688 204.570312 200.253906 200.988281 219.296875 C 200.085938 224.109375 199.410156 228.964844 199.226562 233.871094 C 199.160156 235.652344 199.503906 237.46875 201.757812 237.527344 C 203.925781 237.582031 204.167969 235.878906 204.25 234.148438 C 204.339844 232.222656 204.464844 230.296875 204.714844 228.386719 C 206.835938 212.179688 210.683594 196.355469 215.585938 180.796875 C 219.78125 167.484375 225.460938 154.839844 233.871094 143.582031 C 240.382812 134.863281 247.804688 127.171875 258.132812 122.933594 C 259.578125 122.339844 261.007812 121.558594 262.667969 121.707031 C 262.738281 122.550781 262.179688 122.972656 261.792969 123.457031 Z M 166.308594 192.753906 C 182.714844 205.527344 193.777344 232.554688 193.777344 232.554688 C 198.167969 244.441406 201.6875 256.648438 205.878906 268.613281 C 208.722656 276.726562 212.160156 284.617188 217.800781 291.300781 C 218.835938 292.523438 220.003906 293.636719 221.105469 294.804688 C 222.207031 295.96875 222.816406 297.320312 221.570312 298.636719 C 220.21875 300.0625 218.78125 299.4375 217.546875 298.289062 C 213.441406 294.480469 210.273438 289.992188 207.628906 285.058594 C 201.589844 273.792969 198.101562 261.585938 194.273438 249.5 C 190.683594 238.164062 186.992188 226.875 180.84375 216.582031 C 180.003906 215.171875 179.105469 213.914062 177.554688 213.203125 C 160.964844 205.566406 144.007812 203.546875 126.652344 210.289062 C 118.378906 213.503906 112.46875 219.8125 107.160156 226.675781 C 105.445312 228.894531 104 231.320312 102.394531 233.625 C 100.800781 235.914062 98.394531 236.023438 97.265625 233.554688 C 91.441406 220.859375 89.226562 204.808594 99.757812 192.726562 C 105.351562 186.3125 112.707031 183.171875 120.804688 181.4375 C 136.261719 178.132812 150.230469 181.726562 163.097656 190.523438 C 164.058594 191.175781 164.992188 191.777344 164.992188 191.777344 C 164.992188 191.777344 165.65625 192.246094 166.308594 192.753906 Z M 100.195312 227.269531 C 100.667969 226.703125 101.375 225.871094 102.25 224.886719 C 108.210938 218.195312 116.878906 207.636719 129.339844 203.90625 C 146.347656 198.820312 166.90625 203.550781 169.40625 204.550781 C 169.605469 204.632812 171.664062 205.476562 171.964844 205.011719 C 172.152344 204.722656 171.621094 203.972656 171.433594 203.707031 C 171.066406 203.1875 170.675781 202.882812 170.636719 202.84375 C 166.980469 199.183594 162.746094 196.289062 158.433594 193.492188 C 147.144531 186.171875 134.957031 183.480469 121.695312 186.34375 C 114.398438 187.917969 108.074219 190.757812 103.59375 195.902344 C 100.363281 199.609375 99.070312 203.339844 98.683594 204.507812 C 97.023438 209.558594 96.410156 217.40625 99.421875 225.398438 C 99.570312 225.792969 99.832031 226.457031 100.195312 227.269531 Z M 202.617188 336.746094 C 206.089844 336.007812 208.113281 333.933594 208.683594 330.457031 C 208.953125 328.792969 209.117188 327.113281 209.34375 325.445312 C 210.285156 318.597656 209.167969 317.367188 202.554688 319.003906 C 184.441406 323.488281 163.710938 313.152344 154.785156 299.523438 C 148.898438 290.527344 145.882812 280.570312 143.707031 270.226562 C 141.261719 258.605469 141.023438 246.804688 140.777344 235.003906 C 140.648438 228.738281 140.492188 222.476562 139.050781 216.335938 C 138.664062 214.691406 138.25 213.039062 137.300781 211.621094 C 136.511719 210.4375 135.355469 209.84375 133.980469 210.523438 C 132.59375 211.207031 132.355469 212.457031 132.910156 213.808594 C 133.617188 215.523438 134.144531 217.28125 134.511719 219.097656 C 135.628906 224.640625 135.65625 230.269531 135.796875 235.886719 C 136.082031 246.964844 136.242188 258.046875 138.367188 268.980469 C 140.363281 279.253906 143.082031 289.246094 148.230469 298.519531 C 158.875 317.695312 182.066406 327.511719 199.703125 324.621094 C 204.644531 323.8125 204.617188 323.921875 203.902344 328.863281 C 203.632812 330.726562 202.808594 331.746094 200.878906 331.953125 C 195.277344 332.546875 189.695312 332.78125 184.070312 332.128906 C 180.746094 331.742188 178.347656 330.746094 178.300781 326.902344 C 178.292969 326.53125 178.058594 326.136719 177.859375 325.792969 C 177.316406 324.871094 176.484375 324.457031 175.421875 324.632812 C 174.355469 324.808594 173.742188 325.492188 173.496094 326.523438 C 172.601562 330.226562 175.511719 335.222656 179.183594 336.179688 C 183.960938 337.425781 188.824219 337.828125 194.683594 337.445312 C 196.699219 337.195312 199.683594 337.367188 202.617188 336.746094 Z M 155.359375 279.035156 C 158.914062 289.265625 163.882812 298.625 172.582031 305.515625 C 177.703125 309.570312 183.523438 311.851562 190.085938 312.074219 C 191.761719 312.132812 193.238281 311.648438 193.304688 309.660156 C 193.363281 307.808594 192.046875 307.222656 190.429688 307.136719 C 181.511719 306.683594 174.792969 302.230469 169.511719 295.386719 C 161.316406 284.765625 157.863281 272.289062 155.746094 259.332031 C 154.382812 250.984375 154.050781 242.5625 154.191406 234.117188 C 154.222656 232.453125 153.761719 230.929688 151.800781 230.839844 C 149.789062 230.746094 149.273438 232.269531 149.234375 233.925781 C 149.175781 236.492188 149.21875 239.0625 149.21875 241.632812 C 149.542969 254.386719 151.15625 266.933594 155.359375 279.035156 Z M 149.78125 220.40625 C 149.722656 221.761719 150.371094 222.738281 151.84375 222.832031 C 153.402344 222.933594 154.273438 222.074219 154.320312 220.574219 C 154.367188 219.164062 153.496094 218.414062 152.207031 218.238281 C 150.675781 218.25 149.84375 219.011719 149.78125 220.40625 Z M 149.78125 220.40625"/><path d="M 166.445312 191 C 166.058594 190.9375 165.457031 190.78125 164.976562 190.3125 C 164.117188 189.480469 164.164062 188.15625 164.1875 187.382812 C 164.222656 186.300781 164.585938 178.308594 162.699219 176.472656 C 162.46875 176.246094 162.488281 175.933594 159.199219 175.460938 C 155.382812 174.914062 151.5625 174.335938 147.890625 173.148438 C 146.164062 172.59375 145.988281 173.25 146.070312 174.660156 C 146.113281 175.363281 146.035156 176.117188 145.816406 176.785156 C 145.488281 177.777344 144.707031 178.386719 143.632812 178.375 C 142.480469 178.363281 141.628906 177.789062 141.304688 176.644531 C 141.152344 176.109375 141.101562 175.535156 141.101562 174.976562 C 141.042969 138.726562 143.738281 102.765625 152.882812 67.535156 C 156.195312 54.761719 160.507812 42.335938 167.613281 31.070312 C 170.242188 26.902344 173.273438 23.074219 177.167969 20 C 184.773438 14 193.273438 13.847656 201.136719 19.5625 C 206.371094 23.367188 210.179688 28.425781 213.453125 33.898438 C 221.023438 46.550781 225.699219 60.363281 229.484375 74.511719 C 233.894531 90.980469 236.800781 107.734375 238.941406 124.628906 C 238.992188 125.027344 239.046875 125.429688 239.050781 125.828125 C 239.066406 127.371094 238.492188 128.570312 236.824219 128.734375 C 235.296875 128.878906 234.410156 127.957031 234.1875 126.5 C 233.78125 123.882812 233.4375 121.253906 233.089844 118.628906 C 232.90625 117.234375 232.78125 116.253906 231.035156 117.621094 C 227.800781 120.160156 224.136719 122.019531 220.308594 123.503906 C 218.960938 124.027344 218.527344 124.730469 218.617188 126.195312 C 219.039062 133.167969 219.34375 140.148438 219.664062 147.128906 C 219.703125 148 219.675781 148.898438 219.523438 149.753906 C 219.320312 150.894531 218.597656 151.632812 217.382812 151.671875 C 216.105469 151.714844 215.050781 151.128906 214.957031 149.832031 C 214.796875 147.570312 213.582031 147.84375 212.046875 148.292969 C 206.480469 149.921875 200.757812 150.75 195.023438 151.445312 C 193.453125 151.636719 193.027344 152.171875 193.078125 153.683594 C 193.230469 158.496094 193.339844 163.320312 193.285156 168.136719 C 193.261719 169.945312 194 170.15625 195.421875 169.800781 C 199 168.902344 202.578125 168.007812 206.15625 167.101562 C 206.699219 166.964844 207.222656 166.738281 207.769531 166.621094 C 209.226562 166.316406 210.605469 166.441406 211.121094 168.089844 C 211.65625 169.800781 210.75 170.855469 209.167969 171.394531 C 204.910156 172.851562 200.558594 173.996094 196.117188 174.695312 C 194.113281 175.011719 193.261719 175.664062 193.386719 177.878906 C 193.667969 182.929688 193.722656 187.992188 193.71875 193.054688 C 193.71875 194.828125 194.289062 195.132812 195.820312 194.546875 C 197.164062 194.03125 198.554688 193.621094 199.933594 193.203125 C 201.414062 192.757812 202.746094 193.003906 203.3125 194.582031 C 203.867188 196.140625 203.054688 197.292969 201.625 197.835938 C 199.679688 198.574219 197.699219 199.296875 195.667969 199.707031 C 194.132812 200.019531 193.753906 200.691406 193.804688 202.140625 C 193.949219 206.074219 193.964844 210.011719 194.019531 213.945312 C 194.03125 214.746094 194.054688 215.554688 193.984375 216.351562 C 193.867188 217.699219 193.195312 218.664062 191.765625 218.765625 C 190.191406 218.882812 189.433594 217.878906 189.15625 216.484375 C 189.015625 215.78125 189.019531 215.046875 189.011719 214.324219 C 188.964844 210.390625 188.886719 206.453125 188.925781 202.519531 C 188.941406 201.140625 188.507812 200.71875 187.121094 200.796875 C 184.960938 200.921875 182.789062 200.875 180.625 200.796875 C 179.066406 200.738281 177.964844 199.933594 178.042969 198.253906 C 178.125 196.59375 179.253906 195.917969 180.835938 195.910156 C 182.921875 195.898438 185.011719 195.863281 187.097656 195.890625 C 188.339844 195.902344 188.785156 195.347656 188.757812 194.125 C 188.632812 188.585938 188.515625 183.042969 188.496094 177.503906 C 188.492188 175.980469 187.675781 176.046875 186.648438 176.164062 C 181.046875 176.8125 175.429688 176.808594 169.8125 176.484375 C 168.4375 176.40625 168.128906 176.953125 168.246094 178.152344 C 168.246094 178.152344 168.5 179.957031 169.078125 187.261719 C 169.210938 188.953125 169.167969 189.851562 168.546875 190.441406 C 167.929688 191.027344 167.015625 191.046875 166.445312 191 Z M 174.992188 29.601562 C 174.261719 29.890625 173.972656 30.589844 173.558594 31.164062 C 170.082031 36.023438 167.507812 41.363281 165.082031 46.800781 C 164.394531 48.34375 164.851562 48.839844 166.285156 49.289062 C 171.304688 50.867188 171.292969 50.902344 172.191406 45.65625 C 172.234375 45.402344 172.300781 45.1875 172.351562 44.953125 C 172.921875 42.296875 174.453125 32.941406 174.992188 29.601562 Z M 213.476562 118.613281 C 212.609375 111.242188 212.035156 106.050781 211.972656 104.222656 C 211.960938 103.882812 211.9375 102.90625 211.316406 102.488281 C 210.953125 102.246094 210.402344 102.242188 209.582031 102.515625 C 204.546875 104.191406 199.335938 105.109375 194.078125 105.726562 C 192.746094 105.882812 192.308594 106.296875 192.347656 107.628906 C 192.492188 113 192.578125 118.375 192.617188 123.75 C 192.628906 125.101562 192.957031 125.570312 194.441406 125.304688 C 199.804688 124.351562 205.121094 123.238281 210.382812 121.792969 C 211.09375 121.597656 212.679688 121.257812 213.265625 120.019531 C 213.519531 119.488281 213.511719 118.957031 213.476562 118.613281 Z M 188.089844 153.726562 C 188.105469 153.511719 188.160156 152.875 187.769531 152.503906 C 187.5 152.25 187.050781 152.199219 186.375 152.253906 C 180.789062 152.707031 175.199219 153.199219 169.589844 152.679688 C 168.167969 152.546875 167.792969 153.101562 167.804688 154.433594 C 167.859375 159.480469 167.863281 164.527344 167.800781 169.574219 C 167.785156 170.902344 168.222656 171.332031 169.554688 171.46875 C 175.246094 172.046875 180.910156 171.6875 186.582031 171.230469 C 187.273438 171.175781 187.753906 171.003906 188.054688 170.667969 C 188.523438 170.140625 188.460938 169.378906 188.441406 169.101562 C 188.320312 167.328125 187.953125 155.824219 188.089844 153.726562 Z M 187.394531 116.78125 C 187.351562 112.78125 187.359375 109.851562 187.488281 108.28125 C 187.511719 107.976562 187.589844 107.160156 187.089844 106.675781 C 186.761719 106.351562 186.214844 106.265625 185.410156 106.320312 C 180.84375 106.632812 176.273438 106.488281 171.726562 105.902344 C 170.457031 105.742188 170.261719 106.335938 170.203125 107.386719 C 169.878906 113.074219 169.5625 118.761719 169.101562 124.441406 C 168.964844 126.121094 169.464844 126.730469 171.117188 126.800781 C 176.023438 127.019531 180.898438 126.46875 185.789062 126.320312 C 186.449219 126.296875 186.90625 126.140625 187.199219 125.835938 C 187.703125 125.320312 187.65625 124.523438 187.636719 124.175781 C 187.550781 122.675781 187.488281 120.121094 187.394531 116.78125 Z M 192.046875 96.992188 C 192.050781 97.078125 192.070312 97.34375 192.109375 97.871094 C 192.269531 99.996094 192.347656 100.40625 192.648438 100.660156 C 193.042969 100.988281 193.621094 100.894531 193.902344 100.851562 C 199.210938 100.039062 204.460938 98.984375 209.597656 97.398438 C 210.8125 97.027344 211.222656 96.398438 211.054688 95.132812 C 210.363281 89.898438 209.730469 84.652344 209.109375 79.40625 C 208.949219 78.03125 208.394531 77.734375 207.023438 78.085938 C 202.597656 79.226562 198.078125 79.878906 193.523438 80.207031 C 192.886719 80.253906 192.472656 80.386719 192.222656 80.664062 C 191.835938 81.09375 191.886719 81.722656 191.902344 81.949219 C 192.265625 86.949219 191.8125 91.980469 192.046875 96.992188 Z M 192.796875 138.46875 C 192.925781 141.789062 192.96875 144.085938 192.886719 145.214844 C 192.867188 145.453125 192.816406 146.109375 193.203125 146.445312 C 193.398438 146.617188 193.710938 146.683594 194.207031 146.609375 C 200.550781 145.65625 206.902344 144.746094 213.058594 142.851562 C 213.898438 142.59375 214.535156 142.300781 214.476562 141.253906 C 214.222656 136.683594 213.988281 132.113281 213.757812 127.542969 C 213.703125 126.421875 213.351562 126.019531 212.109375 126.410156 C 206.28125 128.25 200.304688 129.445312 194.261719 130.289062 C 192.921875 130.476562 192.753906 131.105469 192.78125 132.199219 C 192.832031 134.289062 192.796875 136.378906 192.796875 138.46875 Z M 165.3125 106.3125 C 165.351562 106.070312 165.363281 105.734375 165.183594 105.449219 C 164.902344 105.003906 164.300781 104.925781 164.105469 104.894531 C 160.140625 104.265625 156.261719 103.28125 152.445312 102.050781 C 151.5 101.746094 150.992188 101.871094 150.855469 103.039062 C 150.117188 109.320312 149.324219 115.597656 148.503906 121.871094 C 148.320312 123.289062 148.871094 123.839844 150.234375 124.136719 C 154.074219 124.972656 157.933594 125.605469 161.824219 126.148438 C 162.765625 126.277344 163.339844 126.183594 163.691406 125.875 C 164.296875 125.347656 164.253906 124.378906 164.242188 124.078125 C 164.1875 122.230469 164.621094 115.640625 165.3125 106.3125 Z M 187.335938 91.058594 C 187.359375 88.472656 187.3125 85.882812 187.378906 83.296875 C 187.386719 82.871094 187.421875 81.675781 186.664062 81.054688 C 186.140625 80.632812 185.472656 80.664062 185.171875 80.671875 C 181.640625 80.796875 178.101562 80.738281 174.589844 80.273438 C 173.210938 80.089844 172.632812 80.433594 172.511719 81.992188 C 172.054688 87.75 171.453125 93.496094 170.828125 99.238281 C 170.6875 100.488281 171.023438 100.894531 172.277344 101.058594 C 176.84375 101.648438 181.417969 101.363281 185.992188 101.429688 C 187.277344 101.449219 187.367188 100.738281 187.351562 99.730469 C 187.339844 98.984375 187.289062 96.347656 187.335938 91.058594 Z M 176.820312 147.761719 C 180.027344 147.660156 183.242188 147.734375 186.4375 147.300781 C 187.46875 147.164062 188.035156 146.976562 188.011719 145.761719 C 187.917969 141.425781 187.886719 137.085938 187.898438 132.746094 C 187.902344 131.445312 187.410156 131.167969 186.152344 131.238281 C 180.863281 131.535156 175.574219 131.96875 170.269531 131.691406 C 169.160156 131.632812 168.679688 131.96875 168.648438 133.140625 C 168.519531 137.472656 168.351562 141.808594 168.121094 146.136719 C 168.046875 147.5 168.6875 147.785156 169.832031 147.769531 C 172.164062 147.742188 174.492188 147.761719 176.820312 147.761719 Z M 162.933594 161.808594 C 162.9375 161.808594 162.945312 161.808594 162.949219 161.808594 C 162.949219 159.246094 162.898438 156.679688 162.972656 154.121094 C 163.007812 152.859375 162.6875 152.207031 161.292969 152.117188 C 156.890625 151.847656 152.566406 151.046875 148.3125 149.898438 C 147.144531 149.582031 146.554688 149.585938 146.53125 151.0625 C 146.449219 155.945312 146.289062 160.828125 146.097656 165.707031 C 146.050781 166.925781 146.386719 167.578125 147.648438 167.949219 C 152.113281 169.265625 156.675781 170.054688 161.261719 170.753906 C 162.5 170.941406 163 170.582031 162.957031 169.257812 C 162.875 166.777344 162.933594 164.292969 162.933594 161.808594 Z M 207.933594 71.179688 C 207.035156 65.980469 206.128906 60.785156 205.246094 55.582031 C 205.046875 54.394531 204.488281 54.28125 203.398438 54.589844 C 200.085938 55.527344 196.691406 56.132812 193.269531 56.453125 C 191.761719 56.589844 191.453125 57.203125 191.5 58.570312 C 191.679688 63.609375 191.808594 68.652344 191.835938 73.695312 C 191.84375 75.152344 192.382812 75.496094 193.6875 75.316406 C 197.964844 74.726562 202.246094 74.207031 206.441406 73.128906 C 207.558594 72.84375 208.238281 72.46875 207.933594 71.179688 Z M 168.078125 80.851562 C 168.007812 80.621094 167.871094 80.28125 167.585938 79.964844 C 167.0625 79.378906 166.363281 79.222656 166.074219 79.171875 C 165.210938 79.019531 160.421875 78.15625 157.714844 76.992188 C 156.136719 76.3125 155.640625 76.832031 155.363281 78.296875 C 154.300781 83.890625 153.21875 89.476562 152.070312 95.046875 C 151.820312 96.261719 152.160156 96.769531 153.316406 97.132812 C 156.839844 98.246094 160.414062 99.128906 164.019531 99.902344 C 164.679688 100.042969 165.144531 100.019531 165.460938 99.789062 C 165.972656 99.410156 165.996094 98.636719 166.003906 98.410156 C 166.066406 96.953125 166.894531 90.21875 168.078125 80.851562 Z M 192.707031 51.570312 C 196.050781 51.171875 199.351562 50.539062 202.613281 49.683594 C 203.71875 49.390625 203.875 48.828125 203.628906 47.738281 C 201.875 39.914062 199.863281 32.167969 197.207031 24.589844 C 196.507812 22.589844 195.195312 21.664062 193.378906 21.015625 C 191.664062 20.40625 190.820312 20.488281 190.929688 22.738281 C 191.199219 28.105469 191.25 33.484375 191.347656 38.859375 C 191.414062 42.550781 191.40625 46.242188 191.445312 49.933594 C 191.453125 50.78125 191.214844 51.863281 192.707031 51.570312 Z M 147.042969 140.214844 C 147.054688 140.21875 147.066406 140.21875 147.082031 140.21875 C 147.035156 141.097656 147.039062 141.984375 146.933594 142.859375 C 146.804688 143.90625 147.148438 144.476562 148.222656 144.761719 C 152.484375 145.894531 156.800781 146.703125 161.179688 147.21875 C 162.773438 147.40625 163.28125 146.851562 163.3125 145.28125 C 163.398438 141.117188 163.242188 136.9375 163.785156 132.792969 C 163.972656 131.355469 163.078125 131.234375 162.074219 131.128906 C 157.851562 130.691406 153.644531 130.121094 149.542969 129.007812 C 147.992188 128.589844 147.75 129.460938 147.671875 130.625 C 147.460938 133.820312 147.25 137.019531 147.042969 140.214844 Z M 216.484375 102.113281 C 217.367188 110.367188 217.953125 116.234375 217.957031 117.496094 C 217.957031 117.691406 217.949219 118.402344 218.355469 118.652344 C 218.566406 118.78125 218.890625 118.757812 219.390625 118.539062 C 223.515625 116.710938 227.46875 114.628906 230.664062 111.355469 C 231.277344 110.726562 231.890625 110.085938 231.695312 109.058594 C 230.839844 104.496094 229.992188 99.933594 229.167969 95.367188 C 228.964844 94.230469 228.507812 94.136719 227.570312 94.722656 C 224.441406 96.679688 221.148438 98.324219 217.714844 99.683594 C 217.550781 99.746094 217.109375 99.90625 216.792969 100.332031 C 216.367188 100.90625 216.40625 101.644531 216.484375 102.113281 Z M 186.957031 66.539062 C 186.972656 64.703125 187.246094 60.101562 186.875 58.414062 C 186.8125 58.128906 186.675781 57.667969 186.285156 57.34375 C 185.863281 56.996094 185.347656 56.976562 185.132812 56.972656 C 182.484375 56.90625 179.835938 56.761719 177.199219 56.507812 C 175.949219 56.386719 175.511719 56.753906 175.371094 57.992188 C 174.777344 63.25 174.105469 68.5 173.433594 73.75 C 173.3125 74.695312 173.453125 75.289062 174.582031 75.355469 C 178.1875 75.566406 181.78125 75.90625 185.40625 75.8125 C 186.746094 75.78125 186.992188 75.152344 186.972656 74.007812 C 186.957031 73.210938 186.917969 70.988281 186.957031 66.539062 Z M 186.523438 36.476562 C 186.523438 36.65625 186.523438 36.832031 186.523438 37.011719 C 186.164062 29.292969 185.976562 23.9375 186.089844 22.535156 C 186.109375 22.332031 186.179688 21.570312 185.773438 21.285156 C 185.523438 21.109375 185.101562 21.179688 184.445312 21.417969 C 182.839844 22 182.339844 23.296875 181.910156 24.671875 C 179.351562 32.871094 177.984375 41.328125 176.523438 49.765625 C 176.28125 51.164062 176.878906 51.664062 178.1875 51.683594 C 180.429688 51.722656 182.671875 51.765625 184.914062 51.882812 C 186.191406 51.949219 186.558594 51.40625 186.546875 50.183594 C 186.492188 45.613281 186.523438 41.046875 186.523438 36.476562 Z M 227.691406 87.851562 C 226.335938 82.667969 224.980469 77.484375 223.625 72.300781 C 223.332031 71.183594 222.730469 71.710938 222.207031 72.0625 C 219.929688 73.578125 217.472656 74.738281 214.929688 75.714844 C 214.242188 75.980469 213.550781 76.195312 213.683594 77.179688 C 214.40625 82.648438 215.132812 88.117188 215.824219 93.59375 C 215.964844 94.726562 216.4375 94.886719 217.40625 94.441406 C 220.605469 92.964844 223.753906 91.390625 226.695312 89.4375 C 227.253906 89.066406 227.734375 88.660156 227.691406 87.851562 Z M 170.523438 56.746094 C 170.785156 55.714844 170.21875 55.375 169.296875 55.160156 C 167.511719 54.746094 165.714844 54.304688 163.992188 53.6875 C 162.863281 53.285156 162.417969 53.613281 162.070312 54.640625 C 160.367188 59.71875 158.804688 64.832031 157.417969 70.007812 C 157.136719 71.0625 157.285156 71.628906 158.367188 72.015625 C 161.160156 73.019531 164.027344 73.710938 166.917969 74.328125 C 167.914062 74.542969 168.4375 74.183594 168.558594 73.167969 C 169.207031 67.695312 169.867188 62.222656 170.523438 56.746094 Z M 221.539062 65.371094 C 221.511719 65.132812 221.402344 64.96875 221.382812 64.914062 C 220.199219 61.519531 219.082031 58.097656 217.824219 54.730469 C 215.867188 49.5 215.847656 49.554688 210.871094 52.042969 C 209.855469 52.554688 209.714844 53.082031 209.910156 54.101562 C 210.324219 56.21875 211.710938 63.675781 211.875 64.703125 C 212.082031 65.996094 212.367188 67 212.941406 69.007812 C 213.265625 70.132812 213.347656 70.441406 213.667969 70.65625 C 214.648438 71.316406 216.332031 70.253906 219.019531 68.566406 C 219.019531 68.566406 219.910156 68.007812 221.039062 66.625 C 221.261719 66.351562 221.605469 65.898438 221.539062 65.371094 Z M 204.59375 30.855469 C 205.839844 35.910156 207.136719 40.644531 208.125 45.441406 C 208.332031 46.460938 208.609375 47.023438 209.035156 47.195312 C 209.136719 47.234375 209.320312 47.269531 210.757812 46.675781 C 211.746094 46.273438 212.105469 46.074219 212.410156 45.871094 C 212.941406 45.523438 213.210938 45.347656 213.339844 45.035156 C 213.613281 44.375 213.113281 43.589844 212.9375 43.296875 C 211.59375 41.023438 210.464844 38.621094 209.101562 36.355469 C 207.933594 34.410156 206.929688 32.285156 204.59375 30.855469 Z M 261.792969 123.457031 C 250.207031 138.054688 244.25 154.8125 242.425781 173.234375 C 240.621094 191.402344 240.1875 209.625 240.207031 227.855469 C 240.222656 242.8125 240.238281 257.761719 237.113281 272.460938 C 234.457031 284.953125 229.894531 296.628906 220.355469 305.695312 C 218.324219 307.625 216.042969 309.289062 213.898438 311.105469 C 212.683594 312.136719 211.96875 313.421875 213.078125 314.875 C 214.191406 316.328125 215.632812 316 216.910156 315.03125 C 219.34375 313.191406 221.746094 311.320312 223.964844 309.210938 C 233.542969 300.117188 238.496094 288.503906 241.464844 276.023438 C 245.058594 260.929688 245.355469 245.492188 245.253906 230.039062 C 245.132812 211.5625 245.617188 193.105469 247.292969 174.6875 C 249.144531 154.277344 256.390625 136.238281 270.355469 121.070312 C 271.414062 119.921875 272.519531 118.746094 271.585938 117.046875 C 270.691406 115.429688 269.105469 115.539062 267.546875 115.648438 C 258.105469 116.304688 250.121094 120.351562 243.042969 126.351562 C 231.082031 136.488281 222.925781 149.367188 216.730469 163.582031 C 208.957031 181.429688 204.570312 200.253906 200.988281 219.296875 C 200.085938 224.109375 199.410156 228.964844 199.226562 233.871094 C 199.160156 235.652344 199.503906 237.46875 201.757812 237.527344 C 203.925781 237.582031 204.167969 235.878906 204.25 234.148438 C 204.339844 232.222656 204.464844 230.296875 204.714844 228.386719 C 206.835938 212.179688 210.683594 196.355469 215.585938 180.796875 C 219.78125 167.484375 225.460938 154.839844 233.871094 143.582031 C 240.382812 134.863281 247.804688 127.171875 258.132812 122.933594 C 259.578125 122.339844 261.007812 121.558594 262.667969 121.707031 C 262.738281 122.550781 262.179688 122.972656 261.792969 123.457031 Z M 166.308594 192.753906 C 182.714844 205.527344 193.777344 232.554688 193.777344 232.554688 C 198.167969 244.441406 201.6875 256.648438 205.878906 268.613281 C 208.722656 276.726562 212.160156 284.617188 217.800781 291.300781 C 218.835938 292.523438 220.003906 293.636719 221.105469 294.804688 C 222.207031 295.96875 222.816406 297.320312 221.570312 298.636719 C 220.21875 300.0625 218.78125 299.4375 217.546875 298.289062 C 213.441406 294.480469 210.273438 289.992188 207.628906 285.058594 C 201.589844 273.792969 198.101562 261.585938 194.273438 249.5 C 190.683594 238.164062 186.992188 226.875 180.84375 216.582031 C 180.003906 215.171875 179.105469 213.914062 177.554688 213.203125 C 160.964844 205.566406 144.007812 203.546875 126.652344 210.289062 C 118.378906 213.503906 112.46875 219.8125 107.160156 226.675781 C 105.445312 228.894531 104 231.320312 102.394531 233.625 C 100.800781 235.914062 98.394531 236.023438 97.265625 233.554688 C 91.441406 220.859375 89.226562 204.808594 99.757812 192.726562 C 105.351562 186.3125 112.707031 183.171875 120.804688 181.4375 C 136.261719 178.132812 150.230469 181.726562 163.097656 190.523438 C 164.058594 191.175781 164.992188 191.777344 164.992188 191.777344 C 164.992188 191.777344 165.65625 192.246094 166.308594 192.753906 Z M 100.195312 227.269531 C 100.667969 226.703125 101.375 225.871094 102.25 224.886719 C 108.210938 218.195312 116.878906 207.636719 129.339844 203.90625 C 146.347656 198.820312 166.90625 203.550781 169.40625 204.550781 C 169.605469 204.632812 171.664062 205.476562 171.964844 205.011719 C 172.152344 204.722656 171.621094 203.972656 171.433594 203.707031 C 171.066406 203.1875 170.675781 202.882812 170.636719 202.84375 C 166.980469 199.183594 162.746094 196.289062 158.433594 193.492188 C 147.144531 186.171875 134.957031 183.480469 121.695312 186.34375 C 114.398438 187.917969 108.074219 190.757812 103.59375 195.902344 C 100.363281 199.609375 99.070312 203.339844 98.683594 204.507812 C 97.023438 209.558594 96.410156 217.40625 99.421875 225.398438 C 99.570312 225.792969 99.832031 226.457031 100.195312 227.269531 Z M 202.617188 336.746094 C 206.089844 336.007812 208.113281 333.933594 208.683594 330.457031 C 208.953125 328.792969 209.117188 327.113281 209.34375 325.445312 C 210.285156 318.597656 209.167969 317.367188 202.554688 319.003906 C 184.441406 323.488281 163.710938 313.152344 154.785156 299.523438 C 148.898438 290.527344 145.882812 280.570312 143.707031 270.226562 C 141.261719 258.605469 141.023438 246.804688 140.777344 235.003906 C 140.648438 228.738281 140.492188 222.476562 139.050781 216.335938 C 138.664062 214.691406 138.25 213.039062 137.300781 211.621094 C 136.511719 210.4375 135.355469 209.84375 133.980469 210.523438 C 132.59375 211.207031 132.355469 212.457031 132.910156 213.808594 C 133.617188 215.523438 134.144531 217.28125 134.511719 219.097656 C 135.628906 224.640625 135.65625 230.269531 135.796875 235.886719 C 136.082031 246.964844 136.242188 258.046875 138.367188 268.980469 C 140.363281 279.253906 143.082031 289.246094 148.230469 298.519531 C 158.875 317.695312 182.066406 327.511719 199.703125 324.621094 C 204.644531 323.8125 204.617188 323.921875 203.902344 328.863281 C 203.632812 330.726562 202.808594 331.746094 200.878906 331.953125 C 195.277344 332.546875 189.695312 332.78125 184.070312 332.128906 C 180.746094 331.742188 178.347656 330.746094 178.300781 326.902344 C 178.292969 326.53125 178.058594 326.136719 177.859375 325.792969 C 177.316406 324.871094 176.484375 324.457031 175.421875 324.632812 C 174.355469 324.808594 173.742188 325.492188 173.496094 326.523438 C 172.601562 330.226562 175.511719 335.222656 179.183594 336.179688 C 183.960938 337.425781 188.824219 337.828125 194.683594 337.445312 C 196.699219 337.195312 199.683594 337.367188 202.617188 336.746094 Z M 155.359375 279.035156 C 158.914062 289.265625 163.882812 298.625 172.582031 305.515625 C 177.703125 309.570312 183.523438 311.851562 190.085938 312.074219 C 191.761719 312.132812 193.238281 311.648438 193.304688 309.660156 C 193.363281 307.808594 192.046875 307.222656 190.429688 307.136719 C 181.511719 306.683594 174.792969 302.230469 169.511719 295.386719 C 161.316406 284.765625 157.863281 272.289062 155.746094 259.332031 C 154.382812 250.984375 154.050781 242.5625 154.191406 234.117188 C 154.222656 232.453125 153.761719 230.929688 151.800781 230.839844 C 149.789062 230.746094 149.273438 232.269531 149.234375 233.925781 C 149.175781 236.492188 149.21875 239.0625 149.21875 241.632812 C 149.542969 254.386719 151.15625 266.933594 155.359375 279.035156 Z M 149.78125 220.40625 C 149.722656 221.761719 150.371094 222.738281 151.84375 222.832031 C 153.402344 222.933594 154.273438 222.074219 154.320312 220.574219 C 154.367188 219.164062 153.496094 218.414062 152.207031 218.238281 C 150.675781 218.25 149.84375 219.011719 149.78125 220.40625 Z M 149.78125 220.40625"/></g></svg>