<svg xmlns="http://www.w3.org/2000/svg" width="375" viewBox="0 0 375 375" height="375" version="1.0"><defs><clipPath id="a"><path d="M 57 75 L 317 75 L 317 301.671875 L 57 301.671875 Z M 57 75"/></clipPath></defs><path fill="#FFF" d="M-37.5 -37.5H412.5V412.5H-37.5z"/><path fill="none" d="M-37.5 -37.5H412.5V412.5H-37.5z"/><g clip-path="url(#a)"><path fill="#302B2D" d="M 307.644531 157.492188 C 297.1875 189.859375 281.441406 216.964844 260.847656 238.054688 C 234.113281 265.441406 196.144531 284.667969 156.6875 290.800781 C 131.945312 294.652344 110.640625 295.101562 89.648438 292.21875 C 87.90625 291.980469 86.238281 291.449219 84.652344 290.726562 C 85.769531 290.882812 86.886719 291.027344 88.007812 291.15625 C 97.378906 292.300781 108.25 293.382812 117.320312 290.085938 C 124.683594 287.414062 127.554688 278.773438 134.859375 276.519531 C 149.3125 272.070312 165.226562 275.621094 180.023438 274.441406 C 185.9375 273.964844 191.230469 272.601562 195.992188 268.96875 C 202.242188 264.207031 208.09375 258.945312 214.042969 253.828125 C 219.308594 249.296875 224.351562 244.40625 231.015625 242.089844 C 236.535156 240.167969 242.332031 239.226562 247.996094 237.851562 C 256.242188 235.855469 262.648438 229.511719 268.644531 223.683594 C 272.96875 219.472656 276.878906 214.628906 279.164062 208.980469 C 280.792969 204.980469 281.210938 200.585938 282.363281 196.421875 C 285.691406 184.394531 290.351562 172.640625 295.425781 161.257812 C 298.6875 153.933594 302.097656 144.960938 307.214844 138.160156 C 309.390625 144.710938 309.589844 151.484375 307.644531 157.492188 Z M 66.09375 249.695312 C 66.175781 249.335938 66.273438 248.96875 66.367188 248.613281 C 68.566406 248.320312 70.847656 247.542969 72.820312 247.09375 C 77.46875 246.03125 82.230469 245.007812 87.03125 245.226562 C 92.21875 245.457031 94.320312 248.429688 98.554688 250.738281 C 102.917969 253.117188 107.917969 254.113281 112.835938 254.398438 C 118.234375 254.699219 123.839844 254.042969 129.027344 252.523438 C 134.589844 250.894531 139.015625 247.78125 144.078125 245.097656 C 150.214844 241.839844 156.984375 239.441406 163.894531 238.527344 C 168.847656 237.867188 173.765625 238.71875 178.703125 237.984375 C 187.980469 236.601562 197.429688 232.65625 205.398438 227.769531 C 208.25 226.011719 211.558594 223.898438 213.378906 220.976562 C 214.980469 218.414062 214.796875 215.144531 215.28125 212.246094 C 216.003906 207.960938 217.328125 203.777344 220.546875 200.699219 C 224.675781 196.765625 231.082031 195.226562 235.863281 192.125 C 244.070312 186.804688 254.382812 178.410156 256.027344 168.074219 C 256.941406 162.371094 254.609375 156.492188 256.117188 150.808594 C 257.644531 145.039062 264.042969 142.027344 267.863281 137.804688 C 272.707031 132.464844 280.273438 123.179688 280.949219 114.726562 C 281.847656 114.859375 282.761719 115.019531 283.691406 115.226562 C 291.726562 117.0625 299.03125 122.71875 303.820312 130.785156 C 298.976562 136.277344 295.683594 143.605469 292.59375 150.019531 C 287.679688 160.226562 283.328125 170.75 279.515625 181.421875 C 277.898438 185.972656 276.355469 190.566406 275.101562 195.246094 C 273.976562 199.410156 273.65625 203.859375 271.738281 207.75 C 267.660156 216.023438 259.050781 223.59375 251.566406 228.886719 C 248.402344 231.121094 243.039062 231.457031 239.246094 232.300781 C 233.753906 233.535156 228.121094 234.882812 223.105469 237.535156 C 217.21875 240.660156 212.144531 245.8125 207.136719 250.140625 C 201.625 254.902344 196.1875 260.386719 190.035156 264.320312 C 184.625 267.773438 177.257812 267.398438 171.105469 267.324219 C 163.164062 267.234375 155.222656 266.820312 147.28125 267.40625 C 137.863281 268.101562 129.59375 268.972656 123.003906 276.1875 C 119.871094 279.609375 117.445312 282.65625 112.804688 283.792969 C 107.523438 285.082031 101.851562 284.910156 96.460938 284.605469 C 91.140625 284.296875 85.835938 283.644531 80.589844 282.710938 C 78.695312 282.375 76.800781 282.007812 74.925781 281.558594 C 74.210938 281.386719 73.09375 280.882812 72.707031 280.800781 C 71.191406 278.941406 70.074219 277.300781 69.441406 276.324219 C 63.398438 266.921875 64.746094 255.605469 66.09375 249.695312 Z M 80.695312 229.671875 C 154.40625 216.355469 192.003906 207 240.5625 140.488281 C 251.347656 125.71875 261.101562 115.9375 273.503906 114.558594 C 273.054688 117.398438 271.21875 120.417969 270.011719 122.523438 C 267.460938 126.972656 264.328125 131.121094 260.679688 134.722656 C 257.078125 138.277344 252.691406 140.660156 250.378906 145.359375 C 248.175781 149.816406 248.160156 154.828125 248.496094 159.683594 C 248.84375 164.769531 249.15625 168.296875 246.21875 172.699219 C 242.9375 177.625 238.1875 181.722656 233.332031 185.027344 C 224.898438 190.757812 214.742188 192.710938 210.347656 202.898438 C 208.800781 206.476562 208.1875 210.222656 207.695312 214.058594 C 207.328125 216.894531 207.066406 217.609375 204.699219 219.4375 C 197.667969 224.875 188.21875 228.566406 179.589844 230.40625 C 175.304688 231.320312 171.199219 230.652344 166.875 230.898438 C 160.734375 231.265625 154.664062 232.703125 148.921875 234.910156 C 143.140625 237.125 138.175781 240.4375 132.71875 243.25 C 128.152344 245.609375 122.851562 246.78125 117.742188 247.066406 C 112.28125 247.359375 106.117188 246.902344 101.375 243.910156 C 97.097656 241.199219 94.414062 238.644531 89.085938 238.058594 C 84.15625 237.507812 79.132812 238.296875 74.308594 239.277344 C 72.8125 239.578125 71.136719 240.128906 69.441406 240.605469 C 72.304688 235.027344 76.382812 230.453125 80.699219 229.671875 Z M 297.824219 113.691406 C 297.863281 108.585938 298.136719 103.484375 299.671875 98.566406 C 302.046875 90.964844 307.484375 85.769531 314.488281 82.285156 C 318.710938 80.1875 315.007812 73.855469 310.792969 75.953125 C 302.722656 79.96875 296.480469 86.207031 293.273438 94.707031 C 291.445312 99.53125 290.816406 104.640625 290.59375 109.769531 C 288.875 109.066406 287.113281 108.5 285.3125 108.089844 C 261.457031 102.644531 246.660156 119.726562 234.660156 136.164062 C 187.753906 200.417969 151.175781 209.5 79.398438 222.460938 C 68.929688 224.355469 61.46875 237.0625 58.964844 248.074219 C 56.207031 260.210938 57.746094 271.65625 63.300781 280.285156 C 64.175781 281.652344 65.453125 283.492188 67.085938 285.503906 C 67.285156 285.898438 67.59375 286.28125 68.03125 286.640625 C 72.679688 292.066406 79.785156 298.257812 88.660156 299.484375 C 98.042969 300.765625 107.472656 301.414062 117.210938 301.414062 C 130.015625 301.414062 143.351562 300.296875 157.820312 298.046875 C 198.800781 291.675781 238.257812 271.671875 266.082031 243.183594 C 287.46875 221.269531 303.792969 193.203125 314.605469 159.75 C 317.851562 149.703125 316.386719 138.074219 310.585938 127.84375 C 307.285156 122.039062 302.886719 117.214844 297.824219 113.691406"/></g></svg>