<svg xmlns="http://www.w3.org/2000/svg" xmlns:xlink="http://www.w3.org/1999/xlink" width="375" zoomAndPan="magnify" viewBox="0 0 375 374.999991" height="374.999991" preserveAspectRatio="xMidYMid meet" version="1.0"><defs><clipPath id="id1"><path d="M 15.546875 77 L 323 77 L 323 356.046875 L 15.546875 356.046875 Z M 15.546875 77 " clip-rule="nonzero"/></clipPath></defs><rect x="-37.5" width="450" fill="rgb(100%, 100%, 100%)" y="-37.499999" height="449.999989" fill-opacity="1"/><rect x="-37.5" width="450" fill="" y="-37.499999" height="449.999989" fill-opacity="1"/><path stroke-linecap="round" transform="matrix(7.079002, 0, 0, 7.079002, 8.466169, 9.174054)" fill="none" stroke-linejoin="round" d="M 43.731152 19.804083 C 42.688234 18.437806 41.293264 16.585938 41.563098 14.500104 C 39.535203 16.527998 36.4059 16.768035 36.4059 16.768035 C 36.4059 16.768035 36.825826 12.577053 38.391857 11.009918 C 35.530732 11.10814 33.803021 11.476196 31.806028 11.333278 C 35.085975 6.912192 38.76819 8.253085 40.947832 8.159829 C 43.898901 5.789262 46.374864 2.036967 46.374864 2.036967 L 47.999939 2.999873 C 47.999939 2.999873 46.909014 6.868047 43.859171 10.271047 C 44.089827 11.105933 46.388107 14.139773 43.731152 19.804083 Z M 43.731152 19.804083 " stroke="rgb(0%, 0%, 0%)" stroke-width="2" stroke-opacity="1" stroke-miterlimit="10"/><g clip-path="url(#id1)"><path stroke-linecap="round" transform="matrix(7.079002, 0, 0, 7.079002, 8.466169, 9.174054)" fill="none" stroke-linejoin="round" d="M 33.517185 10.620893 C 29.8289 12.143884 25.83988 18.483054 21.109229 22.03118 C 12.55179 28.448156 2.000117 25.839759 2.000117 37.999953 C 2.000117 43.522999 6.476936 47.999818 11.999982 47.999818 C 27.95496 47.999818 42.33894 29.898859 43.354819 18.830142 " stroke="rgb(0%, 0%, 0%)" stroke-width="2" stroke-opacity="1" stroke-miterlimit="10"/></g><path stroke-linecap="round" transform="matrix(7.079002, 0, 0, 7.079002, 8.466169, 9.174054)" fill="none" stroke-linejoin="round" d="M 31.377825 19.747798 C 31.377825 19.747798 24.433873 29.769184 11.369266 32.742878 " stroke="rgb(0%, 0%, 0%)" stroke-width="2" stroke-opacity="1" stroke-miterlimit="10"/></svg>