<svg xmlns="http://www.w3.org/2000/svg" xmlns:xlink="http://www.w3.org/1999/xlink" width="375" zoomAndPan="magnify" viewBox="0 0 375 374.999991" height="374.999991" preserveAspectRatio="xMidYMid meet" version="1.0"><rect x="-37.5" width="450" fill="rgb(100%, 100%, 100%)" y="-37.499999" height="449.999989" fill-opacity="1"/><rect x="-37.5" width="450" fill="rgb(100%, 100%, 100%)" y="-37.499999" height="449.999989" fill-opacity="1"/><path fill="rgb(18.818665%, 16.859436%, 17.649841%)" d="M 317.371094 193.097656 C 298.617188 176.152344 287.253906 152.035156 285.640625 148.46875 C 285.402344 145.710938 285.3125 142.949219 285.371094 140.179688 C 285.386719 139.476562 285.339844 138.78125 285.230469 138.089844 C 285.121094 137.394531 284.949219 136.71875 284.714844 136.058594 C 284.484375 135.394531 284.191406 134.761719 283.84375 134.152344 C 283.496094 133.542969 283.097656 132.972656 282.644531 132.433594 C 282.195312 131.898438 281.699219 131.40625 281.15625 130.960938 C 280.617188 130.515625 280.039062 130.121094 279.425781 129.777344 C 278.816406 129.4375 278.175781 129.152344 277.515625 128.929688 C 276.851562 128.703125 276.171875 128.539062 275.480469 128.433594 C 274.785156 128.332031 274.089844 128.292969 273.386719 128.316406 C 272.6875 128.339844 271.996094 128.425781 271.308594 128.574219 C 270.625 128.722656 269.960938 128.933594 269.3125 129.203125 C 268.664062 129.472656 268.046875 129.800781 267.460938 130.183594 C 266.875 130.566406 266.324219 130.996094 265.816406 131.476562 C 265.304688 131.960938 264.84375 132.484375 264.429688 133.046875 C 264.015625 133.613281 263.652344 134.210938 263.347656 134.84375 C 263.042969 135.472656 262.792969 136.128906 262.605469 136.800781 C 260.011719 146.1875 252.394531 164.183594 230.597656 179.519531 C 220.140625 150.9375 198.878906 122.046875 171.878906 99.835938 C 169.789062 98.117188 165.734375 94.316406 160.148438 88.839844 C 158.589844 87.308594 157.292969 85.578125 156.257812 83.652344 C 155.226562 81.726562 154.5 79.6875 154.089844 77.542969 C 150.402344 58.726562 141.621094 47.949219 134.902344 42.21875 C 134.253906 41.675781 133.566406 41.191406 132.835938 40.761719 C 132.105469 40.332031 131.34375 39.96875 130.554688 39.667969 C 129.761719 39.367188 128.953125 39.136719 128.121094 38.972656 C 127.292969 38.808594 126.453125 38.714844 125.609375 38.691406 C 124.761719 38.667969 123.921875 38.71875 123.082031 38.835938 C 122.246094 38.953125 121.421875 39.144531 120.617188 39.398438 C 119.8125 39.65625 119.03125 39.980469 118.28125 40.367188 C 117.527344 40.753906 116.8125 41.203125 116.136719 41.710938 L 110.992188 45.59375 C 110.804688 45.738281 110.636719 45.898438 110.484375 46.074219 C 110.332031 46.25 110.199219 46.441406 110.085938 46.644531 C 109.972656 46.851562 109.878906 47.0625 109.8125 47.285156 C 109.742188 47.507812 109.695312 47.738281 109.671875 47.96875 C 109.648438 48.203125 109.652344 48.433594 109.675781 48.667969 C 109.703125 48.898438 109.75 49.128906 109.820312 49.351562 C 109.894531 49.574219 109.988281 49.785156 110.101562 49.988281 C 110.21875 50.191406 110.351562 50.378906 110.507812 50.554688 C 116.898438 57.90625 119.945312 59.246094 121.160156 71.34375 C 121.140625 72.953125 120.96875 74.542969 120.640625 76.117188 C 120.3125 77.691406 119.832031 79.21875 119.199219 80.699219 C 118.570312 82.179688 117.804688 83.582031 116.894531 84.910156 C 115.988281 86.242188 114.960938 87.46875 113.816406 88.59375 C 107.96875 94.355469 103.859375 98.242188 101.921875 99.832031 C 43.40625 150.371094 11.367188 220.496094 59.292969 275.457031 C 60.898438 277.257812 62.59375 278.96875 64.382812 280.59375 C 66.167969 282.214844 68.035156 283.738281 69.984375 285.160156 C 71.929688 286.585938 73.949219 287.902344 76.035156 289.113281 C 78.125 290.324219 80.269531 291.417969 82.472656 292.402344 C 84.675781 293.382812 86.925781 294.246094 89.21875 294.992188 C 91.515625 295.734375 93.84375 296.355469 96.203125 296.855469 C 98.566406 297.351562 100.945312 297.722656 103.34375 297.96875 C 105.746094 298.214844 108.152344 298.332031 110.5625 298.320312 L 160.066406 298.320312 C 160.515625 298.320312 160.949219 298.234375 161.363281 298.0625 C 161.777344 297.890625 162.144531 297.644531 162.460938 297.328125 C 162.78125 297.011719 163.023438 296.644531 163.195312 296.226562 C 163.367188 295.8125 163.453125 295.378906 163.453125 294.929688 C 163.453125 294.480469 163.367188 294.046875 163.195312 293.632812 C 163.023438 293.21875 162.78125 292.851562 162.460938 292.53125 C 162.144531 292.214844 161.777344 291.96875 161.363281 291.796875 C 160.949219 291.625 160.515625 291.539062 160.066406 291.539062 L 127.105469 291.539062 C 102.410156 274.75 88.855469 251.035156 86.820312 221.023438 C 86.792969 220.574219 86.675781 220.148438 86.476562 219.746094 C 86.277344 219.34375 86.007812 218.992188 85.667969 218.699219 C 85.332031 218.402344 84.949219 218.183594 84.523438 218.039062 C 84.097656 217.894531 83.660156 217.839844 83.210938 217.871094 C 82.761719 217.898438 82.335938 218.015625 81.933594 218.214844 C 81.53125 218.414062 81.183594 218.683594 80.886719 219.023438 C 80.59375 219.359375 80.371094 219.742188 80.230469 220.167969 C 80.085938 220.59375 80.027344 221.03125 80.058594 221.480469 C 82.019531 250.472656 94.011719 273.992188 115.722656 291.539062 C 96.328125 292.605469 76.992188 285.519531 64.375 270.960938 C 52.492188 257.507812 45.433594 242.707031 43.398438 226.984375 C 38.476562 189.027344 63.722656 140.03125 106.21875 105.070312 C 108.132812 103.390625 113.753906 98.367188 119.3125 92.628906 C 117.179688 100.609375 113.910156 108.097656 109.507812 115.089844 C 98.660156 133.167969 90.566406 152.410156 85.230469 172.8125 C 85.109375 173.25 85.078125 173.695312 85.136719 174.144531 C 85.195312 174.59375 85.339844 175.015625 85.566406 175.410156 C 85.792969 175.800781 86.089844 176.136719 86.449219 176.410156 C 86.8125 176.683594 87.210938 176.878906 87.652344 176.992188 C 88.089844 177.105469 88.535156 177.128906 88.984375 177.0625 C 89.433594 177 89.851562 176.851562 90.238281 176.617188 C 90.628906 176.382812 90.957031 176.085938 91.226562 175.71875 C 91.496094 175.351562 91.683594 174.949219 91.792969 174.507812 C 96.949219 154.765625 104.777344 136.148438 115.273438 118.652344 C 127.488281 98.878906 128.898438 81.921875 127.917969 71.140625 C 127.925781 67.828125 127.390625 64.601562 126.3125 61.46875 C 125.234375 58.335938 123.671875 55.464844 121.625 52.859375 L 118 48.789062 L 120.214844 47.117188 C 120.582031 46.839844 120.976562 46.59375 121.386719 46.378906 C 121.796875 46.164062 122.226562 45.988281 122.667969 45.847656 C 123.109375 45.703125 123.558594 45.601562 124.015625 45.535156 C 124.476562 45.46875 124.9375 45.441406 125.402344 45.453125 C 125.863281 45.464844 126.324219 45.515625 126.777344 45.605469 C 127.234375 45.695312 127.679688 45.820312 128.113281 45.984375 C 128.546875 46.148438 128.960938 46.347656 129.363281 46.582031 C 129.761719 46.8125 130.140625 47.078125 130.496094 47.378906 C 136.382812 52.394531 144.085938 61.910156 147.40625 78.734375 C 147.648438 80.804688 149.996094 98.46875 161.617188 122.550781 C 175.460938 151.21875 193.011719 186.46875 190.375 218.347656 C 166.714844 249.070312 167.6875 302.738281 194.582031 328.410156 C 207.714844 341.71875 226.675781 350.097656 247.988281 352.011719 C 274.125 356.242188 305.828125 353.828125 325.078125 340.136719 C 357.425781 319.203125 363.542969 270.082031 347.871094 235.371094 C 344.367188 227.3125 340.042969 219.714844 334.902344 212.585938 C 329.757812 205.460938 323.914062 198.960938 317.371094 193.097656 Z M 168.945312 122.117188 C 164.867188 113.953125 161.433594 105.523438 158.644531 96.832031 C 162.746094 100.796875 165.753906 103.574219 167.574219 105.070312 C 194.242188 127.003906 215.074219 155.597656 224.875 183.65625 C 214.742188 191.128906 205.578125 199.644531 197.386719 209.210938 C 196.59375 179.320312 181.394531 147.875 168.945312 122.117188 Z M 348.265625 289.4375 C 345.070312 309.675781 332.984375 339.703125 290.097656 345.96875 C 311.667969 336.734375 326.808594 318.089844 331.085938 293.179688 C 331.746094 288.734375 325.230469 287.671875 324.40625 292.03125 C 318.34375 327.351562 287.929688 348.746094 248.710938 345.265625 C 213.050781 342.101562 176.398438 318.992188 180.476562 263.613281 C 183.089844 228.042969 211.121094 201.386719 234.175781 185.289062 C 257.949219 168.6875 266.285156 148.914062 269.136719 138.605469 C 269.296875 138.039062 269.550781 137.523438 269.898438 137.050781 C 270.246094 136.578125 270.664062 136.183594 271.15625 135.863281 C 271.652344 135.542969 272.183594 135.324219 272.757812 135.199219 C 273.328125 135.074219 273.90625 135.054688 274.488281 135.144531 C 275.066406 135.230469 275.613281 135.414062 276.125 135.703125 C 276.636719 135.988281 277.082031 136.355469 277.460938 136.804688 C 277.839844 137.253906 278.125 137.753906 278.320312 138.308594 C 278.515625 138.859375 278.605469 139.429688 278.59375 140.015625 C 278.503906 145.179688 278.859375 150.308594 279.667969 155.410156 C 280.476562 160.507812 281.71875 165.5 283.398438 170.382812 C 285.078125 175.261719 287.167969 179.960938 289.671875 184.476562 C 292.171875 188.992188 295.046875 193.257812 298.296875 197.269531 C 314.625 217.632812 323.015625 235.707031 325.507812 255.871094 C 325.5625 256.316406 325.699219 256.734375 325.921875 257.128906 C 326.140625 257.519531 326.429688 257.851562 326.785156 258.128906 C 327.140625 258.40625 327.53125 258.605469 327.964844 258.722656 C 328.398438 258.84375 328.839844 258.875 329.285156 258.820312 C 329.730469 258.765625 330.148438 258.628906 330.539062 258.40625 C 330.929688 258.183594 331.265625 257.898438 331.542969 257.542969 C 331.820312 257.1875 332.015625 256.792969 332.136719 256.359375 C 332.257812 255.925781 332.289062 255.488281 332.234375 255.039062 C 329.582031 233.554688 320.746094 214.425781 303.582031 193.023438 C 298.679688 186.933594 294.714844 180.289062 291.6875 173.082031 C 297.703125 182.300781 304.75 190.648438 312.824219 198.125 C 340.144531 222.8125 353.390625 256.945312 348.265625 289.433594 Z M 348.265625 289.4375 " fill-opacity="1" fill-rule="nonzero"/><path fill="rgb(18.818665%, 16.859436%, 17.649841%)" d="M 261.449219 206.214844 C 235.203125 200.386719 197.179688 218.769531 190.875 262.972656 C 187.707031 284.832031 193.796875 301.566406 208.984375 312.707031 C 209.917969 313.390625 210.902344 313.984375 211.941406 314.492188 C 212.980469 315.003906 214.054688 315.414062 215.167969 315.734375 C 216.28125 316.050781 217.410156 316.269531 218.5625 316.386719 C 219.710938 316.503906 220.863281 316.519531 222.019531 316.433594 C 223.171875 316.347656 224.308594 316.160156 225.429688 315.871094 C 226.546875 315.585938 227.632812 315.203125 228.6875 314.722656 C 229.738281 314.242188 230.742188 313.671875 231.691406 313.015625 C 232.644531 312.359375 233.53125 311.621094 234.351562 310.808594 C 241.265625 321.105469 257.988281 325.992188 271.515625 320.410156 C 324.746094 300.382812 313.59375 217.460938 261.449219 206.214844 Z M 284.519531 265.953125 C 284.515625 265.976562 284.507812 265.996094 284.5 266.015625 C 284.5 266.011719 284.511719 265.972656 284.519531 265.953125 Z M 284.519531 265.945312 C 287.105469 257.957031 294.433594 257.386719 298.636719 257.773438 C 299.269531 261.503906 299.585938 265.261719 299.582031 269.046875 C 296.191406 268.707031 292.808594 268.785156 289.4375 269.285156 C 287.304688 269.78125 284.121094 267.945312 284.523438 265.945312 Z M 297.207031 250.925781 C 293.347656 250.800781 289.714844 251.644531 286.304688 253.460938 C 285.777344 250.457031 285.375 243.660156 280.585938 245.007812 C 280.160156 245.148438 279.777344 245.367188 279.4375 245.664062 C 279.097656 245.957031 278.828125 246.304688 278.625 246.707031 C 278.425781 247.113281 278.308594 247.535156 278.277344 247.984375 C 278.246094 248.433594 278.304688 248.871094 278.445312 249.296875 C 279.511719 252.496094 281.449219 260.246094 276.40625 263.277344 C 274.058594 264.683594 271.273438 264.691406 268.125 263.335938 C 267.636719 259.191406 266.585938 255.191406 264.980469 251.335938 C 268.726562 248.863281 272.808594 245 272.785156 240.15625 C 280.050781 241.742188 285.949219 236.265625 286.78125 229.3125 C 289.28125 232.492188 291.410156 235.90625 293.171875 239.554688 C 294.929688 243.199219 296.277344 246.992188 297.210938 250.929688 Z M 226.105469 228.785156 C 225.042969 226.335938 223.628906 224.113281 221.859375 222.113281 C 225.78125 219.378906 229.96875 217.132812 234.414062 215.378906 C 232.539062 219.359375 231.691406 223.550781 231.875 227.945312 C 230.988281 228.417969 230.050781 228.722656 229.0625 228.867188 C 228.070312 229.011719 227.085938 228.984375 226.105469 228.785156 Z M 241.953125 241.5625 C 243.980469 236.367188 250.9375 236.101562 258.640625 235.875 C 261.105469 235.925781 264.574219 235.445312 265.695312 238.339844 C 267.515625 241.753906 261.890625 245.589844 259.128906 246.832031 C 253.378906 249.539062 240.410156 248.824219 241.957031 241.5625 Z M 280.316406 222.765625 C 280.574219 226.550781 280.097656 231.054688 277.980469 232.710938 C 277.515625 233.039062 277.007812 233.277344 276.464844 233.433594 C 275.917969 233.585938 275.359375 233.644531 274.792969 233.605469 C 274.226562 233.570312 273.683594 233.4375 273.160156 233.214844 C 272.640625 232.992188 272.171875 232.6875 271.753906 232.300781 C 271.167969 231.785156 270.710938 231.171875 270.375 230.46875 C 270.039062 229.765625 269.851562 229.023438 269.816406 228.242188 C 269.640625 224.375 270.089844 220.585938 271.171875 216.867188 C 274.449219 218.480469 277.496094 220.445312 280.316406 222.765625 Z M 249.644531 273.710938 C 245.917969 265.632812 244.976562 257.847656 253.152344 255.054688 C 255.070312 254.976562 256.953125 254.675781 258.800781 254.144531 C 260.972656 259.523438 261.9375 265.109375 261.699219 270.902344 C 261.421875 271.984375 261.25 273.082031 261.1875 274.195312 C 259.011719 279.769531 251.894531 278.332031 249.648438 273.710938 Z M 259.863281 212.8125 C 261.496094 213.203125 263.175781 213.683594 264.878906 214.265625 C 263.359375 219.148438 262.765625 224.140625 263.109375 229.242188 C 260.480469 229.0625 257.851562 229.039062 255.222656 229.171875 C 256.417969 225.996094 256.878906 222.714844 256.605469 219.328125 C 256.5625 218.875 256.433594 218.453125 256.222656 218.050781 C 256.007812 217.652344 255.726562 217.308594 255.375 217.023438 C 255.023438 216.738281 254.628906 216.53125 254.195312 216.402344 C 253.761719 216.273438 253.320312 216.230469 252.871094 216.28125 C 252.417969 216.328125 251.996094 216.460938 251.597656 216.679688 C 251.203125 216.898438 250.863281 217.1875 250.582031 217.542969 C 250.300781 217.894531 250.097656 218.292969 249.972656 218.726562 C 249.847656 219.164062 249.816406 219.605469 249.867188 220.054688 C 249.875 220.132812 250.523438 227.550781 245.84375 230.527344 C 243.816406 231.050781 241.945312 231.917969 240.238281 233.128906 C 239.296875 232.066406 238.804688 230.824219 238.757812 229.40625 C 237.761719 219.851562 242.617188 214.339844 244.878906 212.328125 C 249.90625 211.476562 254.902344 211.636719 259.867188 212.808594 Z M 216.542969 226.34375 C 218.871094 228.960938 222.148438 233.867188 220.007812 239.074219 C 218.121094 243.917969 214.277344 246.003906 210.925781 245.613281 C 210.550781 245.527344 206.046875 245.195312 204.957031 241.03125 C 207.976562 235.46875 211.835938 230.574219 216.542969 226.34375 Z M 197.582031 263.945312 C 198.332031 258.597656 199.664062 253.398438 201.582031 248.347656 C 203.488281 250.179688 205.722656 251.40625 208.285156 252.03125 C 207.152344 254.5625 204.8125 263.164062 210.320312 263.441406 C 210.554688 263.441406 210.785156 263.417969 211.015625 263.371094 C 211.246094 263.324219 211.464844 263.253906 211.679688 263.15625 C 211.894531 263.0625 212.097656 262.949219 212.289062 262.8125 C 212.480469 262.675781 212.65625 262.523438 212.8125 262.351562 C 212.972656 262.179688 213.113281 261.992188 213.230469 261.789062 C 213.351562 261.589844 213.449219 261.378906 213.527344 261.15625 C 213.601562 260.933594 213.65625 260.707031 213.6875 260.472656 C 213.714844 260.242188 213.71875 260.007812 213.703125 259.773438 C 213.597656 258.960938 213.601562 258.148438 213.714844 257.335938 C 213.832031 256.523438 214.050781 255.742188 214.378906 254.992188 C 214.707031 254.238281 215.128906 253.542969 215.640625 252.90625 C 216.15625 252.269531 216.75 251.710938 217.414062 251.230469 C 222.125 249.675781 227.714844 242.085938 227.515625 235.734375 C 229.488281 235.792969 231.398438 235.464844 233.238281 234.757812 C 233.878906 236.152344 234.769531 237.359375 235.914062 238.378906 C 233.234375 244.546875 236.820312 251.777344 243.429688 253.71875 C 238.09375 259.285156 240.101562 269.519531 243.359375 276.273438 C 238.679688 277.101562 235.515625 281.140625 233.941406 285.527344 C 232.386719 284.535156 230.699219 283.890625 228.878906 283.597656 C 227.058594 283.300781 225.253906 283.378906 223.46875 283.832031 C 221.992188 273.773438 225.109375 264.164062 232.820312 262.53125 C 233.261719 262.464844 233.675781 262.3125 234.058594 262.082031 C 234.441406 261.851562 234.765625 261.554688 235.03125 261.195312 C 235.300781 260.835938 235.488281 260.4375 235.59375 260.003906 C 235.703125 259.570312 235.726562 259.132812 235.660156 258.6875 C 235.597656 258.246094 235.449219 257.832031 235.222656 257.445312 C 234.992188 257.0625 234.699219 256.734375 234.339844 256.46875 C 233.984375 256.199219 233.585938 256.007812 233.152344 255.894531 C 232.722656 255.785156 232.28125 255.757812 231.839844 255.820312 C 229.5625 255.941406 221.664062 259.25 218.671875 266.714844 C 206.992188 264.875 200.332031 275.507812 198.285156 285.566406 C 196.617188 278.40625 196.382812 271.199219 197.582031 263.945312 Z M 229.882812 305.664062 C 229.351562 306.230469 228.777344 306.746094 228.15625 307.210938 C 227.53125 307.671875 226.875 308.074219 226.175781 308.417969 C 225.480469 308.761719 224.761719 309.035156 224.011719 309.246094 C 223.265625 309.457031 222.507812 309.601562 221.734375 309.671875 C 220.960938 309.746094 220.191406 309.746094 219.417969 309.675781 C 218.644531 309.609375 217.886719 309.46875 217.136719 309.261719 C 216.390625 309.054688 215.667969 308.78125 214.972656 308.441406 C 214.273438 308.101562 213.613281 307.699219 212.988281 307.238281 C 209.265625 304.539062 206.121094 301.289062 203.542969 297.480469 C 203.875 290.582031 205.683594 272.871094 216.757812 273.335938 C 216.148438 277.882812 216.25 282.414062 217.0625 286.929688 C 212.804688 290.730469 210.550781 294.378906 214.367188 296.703125 C 214.773438 296.894531 215.203125 297.003906 215.652344 297.023438 C 216.097656 297.046875 216.535156 296.980469 216.957031 296.828125 C 217.382812 296.679688 217.757812 296.453125 218.09375 296.148438 C 218.425781 295.847656 218.6875 295.492188 218.878906 295.085938 C 220.597656 291.277344 228.140625 287.472656 232.066406 292.914062 C 231.394531 296.597656 231.179688 300.304688 231.429688 304.042969 C 230.933594 304.574219 230.328125 305.164062 229.882812 305.664062 Z M 253.03125 315.292969 C 242.683594 312.847656 238.953125 305.738281 238.257812 304.203125 C 237.964844 300.878906 238.117188 297.578125 238.710938 294.296875 C 239.039062 290.9375 240.066406 287.8125 241.800781 284.917969 C 242.070312 284.515625 242.394531 284.160156 242.773438 283.859375 C 243.152344 283.554688 243.566406 283.3125 244.019531 283.136719 C 244.46875 282.957031 244.9375 282.851562 245.421875 282.8125 C 245.90625 282.777344 246.382812 282.816406 246.855469 282.925781 C 247.328125 283.035156 247.773438 283.210938 248.195312 283.457031 C 248.613281 283.703125 248.984375 284.003906 249.3125 284.363281 C 249.640625 284.71875 249.90625 285.117188 250.113281 285.558594 C 250.320312 285.996094 250.453125 286.457031 250.519531 286.9375 C 251.664062 292.621094 250.378906 300.019531 247.15625 301.300781 C 247.199219 301.285156 247.246094 301.269531 247.292969 301.257812 L 249.074219 307.804688 C 255.578125 306.058594 259.554688 295.390625 256.917969 284.527344 C 259.019531 284.382812 260.960938 283.746094 262.746094 282.625 C 263.777344 284.796875 265.238281 286.628906 267.125 288.121094 C 261.316406 294.53125 264.542969 308.238281 266.277344 314.980469 C 261.886719 316.199219 257.472656 316.300781 253.03125 315.292969 Z M 272.621094 312.480469 C 270.910156 304.980469 268.300781 293.539062 274.042969 291.386719 C 277.859375 290.257812 280.578125 292.960938 280.96875 296.171875 L 281.835938 306.574219 C 278.957031 308.84375 275.886719 310.816406 272.621094 312.484375 Z M 288.140625 300.621094 L 287.722656 295.609375 C 287.316406 288.933594 280.699219 283.351562 274.070312 284.445312 C 268.855469 282.089844 267.90625 277.996094 267.941406 275.210938 C 268.308594 273.703125 268.488281 272.171875 268.480469 270.617188 C 270.140625 271.078125 271.832031 271.242188 273.550781 271.105469 C 275.269531 270.96875 276.910156 270.546875 278.480469 269.832031 C 278.742188 270.371094 279.046875 270.886719 279.394531 271.375 C 279.738281 271.867188 280.121094 272.328125 280.539062 272.757812 C 280.960938 273.1875 281.410156 273.582031 281.890625 273.9375 C 282.375 274.296875 282.882812 274.613281 283.414062 274.886719 C 283.949219 275.164062 284.5 275.394531 285.070312 275.582031 C 285.640625 275.769531 286.222656 275.914062 286.8125 276.007812 C 287.40625 276.101562 288.003906 276.148438 288.601562 276.148438 C 289.203125 276.144531 289.796875 276.097656 290.390625 276 C 293.3125 275.566406 296.238281 275.507812 299.171875 275.828125 C 298.652344 280.429688 297.453125 284.847656 295.570312 289.078125 C 293.6875 293.308594 291.210938 297.160156 288.140625 300.625 Z M 288.140625 300.621094 " fill-opacity="1" fill-rule="nonzero"/><path fill="rgb(18.818665%, 16.859436%, 17.649841%)" d="M 81.019531 193.980469 C 77.847656 197.222656 82.582031 202.023438 85.863281 198.894531 C 89.039062 195.65625 84.300781 190.851562 81.019531 193.980469 Z M 81.019531 193.980469 " fill-opacity="1" fill-rule="nonzero"/><path fill="rgb(18.818665%, 16.859436%, 17.649841%)" d="M 326.449219 271.898438 C 323.277344 275.140625 328.011719 279.941406 331.292969 276.8125 C 334.46875 273.574219 329.730469 268.769531 326.449219 271.898438 Z M 326.449219 271.898438 " fill-opacity="1" fill-rule="nonzero"/></svg>