<svg xmlns="http://www.w3.org/2000/svg" xmlns:xlink="http://www.w3.org/1999/xlink" width="375" zoomAndPan="magnify" viewBox="0 0 375 374.999991" height="374.999991" preserveAspectRatio="xMidYMid meet" version="1.0"><defs><clipPath id="id1"><path d="M 105 209.253906 L 354.804688 209.253906 L 354.804688 352.5 L 105 352.5 Z M 105 209.253906 " clip-rule="nonzero"/></clipPath><clipPath id="id2"><path d="M 164 37.5 L 190 37.5 L 190 116 L 164 116 Z M 164 37.5 " clip-rule="nonzero"/></clipPath></defs><rect x="-37.5" width="450" fill="rgb(100%, 100%, 100%)" y="-37.499999" height="449.999989" fill-opacity="1"/><rect x="-37.5" width="450" fill="rgb(100%, 100%, 100%)" y="-37.499999" height="449.999989" fill-opacity="1"/><path fill="rgb(18.818665%, 16.859436%, 17.649841%)" d="M 153.445312 325.878906 C 153.136719 325.484375 152.976562 325.066406 152.882812 324.636719 C 120 321.800781 88.304688 307.28125 65.964844 282.101562 C 31.769531 243.558594 26.46875 186.589844 54.25 142.921875 C 81.179688 100.59375 132.480469 79.230469 181.554688 85.390625 C 181.425781 84.949219 181.398438 84.460938 181.570312 83.898438 C 181.941406 82.648438 182.363281 81.625 182.933594 80.617188 C 182.960938 80.335938 183.066406 80.113281 183.148438 79.875 C 138.183594 74.007812 90.871094 90.046875 60.726562 124.820312 C 25.792969 165.105469 20.589844 224.300781 49.34375 269.507812 C 73.179688 306.972656 115.050781 328.78125 158.484375 330.75 C 156.628906 329.382812 154.921875 327.78125 153.445312 325.878906 " fill-opacity="1" fill-rule="nonzero"/><path fill="rgb(18.818665%, 16.859436%, 17.649841%)" d="M 292.570312 204.789062 C 292.480469 210.390625 291.914062 215.886719 291.0625 221.285156 L 296.742188 221.285156 C 297.558594 215.878906 298.15625 210.402344 298.242188 204.789062 C 297.457031 156.304688 268.695312 114.183594 226.253906 93.027344 C 226.042969 93.28125 225.804688 93.523438 225.460938 93.726562 C 223.6875 94.75 221.820312 95.558594 219.921875 96.296875 C 262 115.664062 291.792969 156.601562 292.570312 204.789062 " fill-opacity="1" fill-rule="nonzero"/><path fill="rgb(18.818665%, 16.859436%, 17.649841%)" d="M 161.78125 104.589844 C 154.578125 104.589844 149.574219 106.949219 149.257812 109.597656 C 149.070312 111.164062 150.441406 112.972656 153.027344 114.554688 C 155.945312 116.34375 159.992188 117.621094 164.410156 118.144531 C 173.839844 119.257812 180.773438 116.539062 181.148438 113.390625 C 181.335938 111.828125 179.960938 110.019531 177.378906 108.433594 C 174.457031 106.648438 170.40625 105.371094 165.996094 104.84375 C 164.527344 104.671875 163.117188 104.589844 161.78125 104.589844 Z M 168.601562 120.972656 C 167.152344 120.972656 165.644531 120.882812 164.109375 120.699219 C 159.328125 120.132812 154.910156 118.734375 151.683594 116.75 C 148.152344 114.589844 146.386719 111.941406 146.695312 109.296875 C 147.3125 104.136719 155.957031 101.066406 166.292969 102.289062 C 171.078125 102.859375 175.496094 104.261719 178.714844 106.238281 C 182.246094 108.402344 184.019531 111.050781 183.710938 113.691406 C 183.175781 118.089844 176.863281 120.972656 168.601562 120.972656 " fill-opacity="1" fill-rule="nonzero"/><g clip-path="url(#id1)"><path fill="rgb(18.818665%, 16.859436%, 17.649841%)" d="M 249.277344 345.210938 C 186.769531 355.484375 124.460938 322.019531 111.75 258.117188 C 111.425781 258.695312 111.589844 258.40625 111.75 258.117188 C 115.425781 257.453125 119.023438 256.804688 122.679688 256.140625 C 135.601562 312.6875 191.863281 344.273438 247.847656 335.1875 C 303.5 324.125 344.738281 274.765625 337.203125 217.417969 C 340.839844 216.761719 344.480469 216.105469 348.121094 215.453125 C 356.972656 278.832031 310.375 333.199219 249.277344 345.210938 Z M 335.429688 241.464844 C 333.964844 256.050781 329.03125 270.234375 321.40625 282.738281 C 305.039062 309.570312 277.648438 326.648438 247.160156 332.710938 C 219.683594 337.171875 191.273438 332.511719 167.773438 317.105469 C 157.066406 310.078125 147.617188 301.1875 140.257812 290.675781 C 136.703125 285.601562 133.714844 280.210938 131.210938 274.550781 C 129.992188 271.789062 125.679688 259.171875 125.128906 255.796875 C 191.1875 243.867188 254.585938 232.328125 320.925781 220.355469 C 325.828125 219.46875 330.3125 218.660156 335.210938 217.773438 C 336.53125 222.535156 335.828125 237.492188 335.429688 241.464844 Z M 353.253906 211.390625 C 352.988281 209.785156 351.128906 209.160156 349.761719 209.410156 C 279.160156 222.152344 208.566406 234.894531 137.96875 247.640625 C 127.859375 249.46875 117.738281 251.296875 107.621094 253.121094 C 106.035156 253.410156 105.359375 255.21875 105.644531 256.609375 C 118.988281 323.730469 185.40625 361.441406 250.785156 350.683594 C 316.03125 337.851562 364.210938 278.78125 353.253906 211.390625 " fill-opacity="1" fill-rule="nonzero"/></g><path fill="rgb(18.818665%, 16.859436%, 17.649841%)" d="M 231.207031 315.363281 C 232.210938 316.65625 236.460938 321.351562 245.003906 320.578125 C 253.488281 319.785156 257.351562 313.410156 258.289062 311.585938 L 233.875 254.421875 Z M 243.101562 323.238281 C 233.324219 323.238281 229.019531 316.734375 228.824219 316.445312 L 228.601562 316.101562 L 228.625 315.691406 L 231.800781 243 L 261.097656 311.613281 L 260.886719 312.117188 C 260.710938 312.527344 256.507812 322.089844 245.234375 323.132812 C 244.5 323.210938 243.785156 323.238281 243.101562 323.238281 " fill-opacity="1" fill-rule="nonzero"/><path fill="rgb(18.818665%, 16.859436%, 17.649841%)" d="M 182.480469 296.566406 C 182.511719 296.566406 180.011719 300.882812 181.542969 305.46875 C 182.726562 309.027344 186.019531 311.90625 191.320312 314.027344 C 202.59375 318.542969 209.945312 319.570312 214.453125 317.269531 C 217.101562 315.914062 218.871094 313.324219 219.863281 309.359375 C 220.953125 304.980469 222.945312 271.246094 223.996094 251.1875 Z M 208.097656 321.027344 C 203.511719 320.886719 197.75 319.371094 190.359375 316.410156 C 184.308594 313.992188 180.515625 310.566406 179.085938 306.246094 C 177.164062 300.433594 180.289062 295.246094 180.429688 295.027344 L 226.929688 244.152344 L 226.746094 247.734375 C 226.625 250.023438 223.859375 303.917969 222.351562 309.980469 C 221.171875 314.710938 218.96875 317.839844 215.617188 319.550781 C 213.539062 320.621094 211.070312 321.113281 208.097656 321.027344 " fill-opacity="1" fill-rule="nonzero"/><path fill="rgb(18.818665%, 16.859436%, 17.649841%)" d="M 153.695312 257.148438 C 153.757812 257.148438 148.628906 259.214844 146.742188 264.230469 C 145.359375 267.894531 145.988281 272.273438 148.601562 277.269531 C 154.179688 287.90625 159.082031 293.351562 164.027344 294.445312 C 167.09375 295.121094 170.328125 294.125 173.914062 291.371094 C 178.238281 288.058594 207.6875 255.722656 216.574219 245.933594 Z M 165.929688 297.226562 C 165.101562 297.226562 164.292969 297.136719 163.472656 296.960938 C 157.652344 295.675781 152.359375 289.96875 146.324219 278.457031 C 143.347656 272.777344 142.671875 267.675781 144.339844 263.285156 C 146.679688 257.136719 152.742188 254.777344 153.003906 254.683594 L 223.53125 242.078125 L 221.011719 244.867188 C 219.371094 246.683594 180.738281 289.386719 175.484375 293.414062 C 172.152344 295.96875 169.003906 297.226562 165.929688 297.226562 " fill-opacity="1" fill-rule="nonzero"/><path fill="rgb(18.818665%, 16.859436%, 17.649841%)" d="M 241.101562 247.785156 C 248.867188 266.3125 262.136719 297.398438 264.632812 301.144531 C 266.902344 304.542969 269.445312 306.382812 272.398438 306.761719 C 277.382812 307.398438 283.988281 303.957031 293.085938 295.902344 C 297.351562 292.117188 299.472656 288.300781 299.390625 284.550781 C 299.273438 279.640625 295.339844 276.390625 295.296875 276.363281 Z M 273.648438 309.414062 C 273.109375 309.414062 272.589844 309.382812 272.066406 309.3125 C 268.335938 308.832031 265.199219 306.628906 262.496094 302.570312 C 259.035156 297.386719 238.226562 247.585938 237.34375 245.46875 L 235.964844 242.164062 L 296.707031 274.21875 C 297.109375 274.511719 301.808594 278.34375 301.964844 284.460938 C 302.078125 289.015625 299.664062 293.515625 294.792969 297.835938 C 285.835938 305.773438 279.21875 309.414062 273.648438 309.414062 " fill-opacity="1" fill-rule="nonzero"/><path fill="rgb(18.818665%, 16.859436%, 17.649841%)" d="M 247.8125 240.765625 C 259.664062 246.632812 298.902344 265.96875 304.136719 267.476562 C 308.46875 268.722656 311.851562 268.476562 314.460938 266.734375 C 318.664062 263.914062 321.230469 257.042969 322.535156 245.105469 C 323.144531 239.492188 322.125 235.171875 319.488281 232.265625 C 315.902344 228.316406 310.480469 228.261719 310.226562 228.261719 L 310.222656 228.261719 Z M 309.105469 270.832031 C 307.363281 270.832031 305.484375 270.539062 303.425781 269.941406 C 297.058594 268.117188 245.484375 242.484375 243.296875 241.398438 L 239.921875 239.722656 L 309.945312 225.707031 C 310.4375 225.679688 316.949219 225.648438 321.394531 230.535156 C 324.546875 234.007812 325.789062 239 325.089844 245.375 C 323.679688 258.296875 320.839844 265.542969 315.898438 268.859375 C 313.929688 270.179688 311.691406 270.832031 309.105469 270.832031 " fill-opacity="1" fill-rule="nonzero"/><path fill="rgb(18.818665%, 16.859436%, 17.649841%)" d="M 182.683594 88.753906 C 187.9375 91.191406 207.902344 99.582031 222.183594 93.152344 C 236.246094 86.8125 240.839844 67.707031 241.882812 62.328125 C 236.613281 59.878906 216.660156 51.496094 202.382812 57.941406 C 188.292969 64.285156 183.714844 83.375 182.683594 88.753906 Z M 209.832031 99.570312 C 194.871094 99.570312 180.316406 92.101562 179.511719 91.6875 L 178.261719 91.039062 L 178.445312 89.636719 C 178.597656 88.535156 182.339844 62.566406 200.722656 54.273438 C 218.960938 46.035156 243.984375 58.84375 245.046875 59.398438 L 246.300781 60.050781 L 246.117188 61.449219 C 245.960938 62.550781 242.222656 88.523438 223.835938 96.8125 L 223.011719 94.976562 L 223.835938 96.8125 C 219.425781 98.8125 214.601562 99.570312 209.832031 99.570312 " fill-opacity="1" fill-rule="nonzero"/><path fill="rgb(18.818665%, 16.859436%, 17.649841%)" d="M 180.449219 91.191406 C 179.957031 91.191406 179.484375 90.90625 179.269531 90.421875 C 178.988281 89.769531 179.28125 89.011719 179.929688 88.726562 L 244.082031 60.5 C 244.75 60.210938 245.496094 60.515625 245.785156 61.160156 C 246.066406 61.8125 245.773438 62.574219 245.125 62.855469 L 180.964844 91.082031 C 180.792969 91.152344 180.621094 91.191406 180.449219 91.191406 " fill-opacity="1" fill-rule="nonzero"/><path fill="rgb(18.818665%, 16.859436%, 17.649841%)" d="M 219.386719 97.582031 C 219.167969 97.582031 218.941406 97.523438 218.738281 97.402344 L 195.9375 83.917969 C 195.320312 83.554688 195.117188 82.765625 195.476562 82.152344 C 195.839844 81.542969 196.621094 81.335938 197.242188 81.695312 L 220.046875 95.183594 C 220.660156 95.546875 220.867188 96.335938 220.5 96.949219 C 220.25 97.355469 219.824219 97.582031 219.386719 97.582031 " fill-opacity="1" fill-rule="nonzero"/><path fill="rgb(18.818665%, 16.859436%, 17.649841%)" d="M 229.882812 90.316406 C 229.644531 90.316406 229.414062 90.25 229.195312 90.117188 L 209.6875 77.824219 C 209.09375 77.441406 208.90625 76.648438 209.292969 76.046875 C 209.671875 75.441406 210.460938 75.277344 211.0625 75.648438 L 230.570312 87.941406 C 231.164062 88.316406 231.351562 89.109375 230.964844 89.714844 C 230.71875 90.105469 230.308594 90.316406 229.882812 90.316406 " fill-opacity="1" fill-rule="nonzero"/><path fill="rgb(18.818665%, 16.859436%, 17.649841%)" d="M 237.648438 78.375 L 223.265625 70.683594 C 222.722656 71.355469 221.980469 71.851562 221.082031 72.183594 C 221.191406 72.34375 221.257812 72.535156 221.449219 72.632812 L 236.433594 80.644531 C 236.621094 80.746094 236.832031 80.792969 237.039062 80.792969 C 237.5 80.792969 237.941406 80.542969 238.175781 80.113281 C 238.5 79.492188 238.269531 78.707031 237.648438 78.375 " fill-opacity="1" fill-rule="nonzero"/><g clip-path="url(#id2)"><path fill="rgb(18.818665%, 16.859436%, 17.649841%)" d="M 167.085938 115.277344 C 166.523438 115.277344 165.960938 115.109375 165.46875 114.765625 C 164.175781 113.867188 163.867188 112.101562 164.765625 110.816406 C 182.375 85.621094 185.023438 58.734375 184.148438 40.617188 C 184.070312 39.058594 185.277344 37.726562 186.847656 37.652344 C 188.585938 37.515625 189.738281 38.789062 189.8125 40.351562 C 190.738281 59.355469 187.9375 87.558594 169.414062 114.066406 C 168.867188 114.847656 167.980469 115.277344 167.085938 115.277344 " fill-opacity="1" fill-rule="nonzero"/></g><path fill="rgb(18.818665%, 16.859436%, 17.649841%)" d="M 67.527344 175.675781 C 71.179688 175.675781 71.191406 170 67.527344 170 C 63.882812 170 63.871094 175.675781 67.527344 175.675781 " fill-opacity="1" fill-rule="nonzero"/><path fill="rgb(18.818665%, 16.859436%, 17.649841%)" d="M 66.890625 204.59375 C 70.539062 204.59375 70.546875 198.921875 66.890625 198.921875 C 63.234375 198.921875 63.226562 204.59375 66.890625 204.59375 " fill-opacity="1" fill-rule="nonzero"/><path fill="rgb(18.818665%, 16.859436%, 17.649841%)" d="M 96.464844 221.308594 C 100.113281 221.308594 100.125 215.636719 96.464844 215.636719 C 92.8125 215.636719 92.808594 221.308594 96.464844 221.308594 " fill-opacity="1" fill-rule="nonzero"/><path fill="rgb(18.818665%, 16.859436%, 17.649841%)" d="M 99.035156 164.105469 C 102.683594 164.105469 102.695312 158.433594 99.035156 158.433594 C 95.382812 158.433594 95.378906 164.105469 99.035156 164.105469 " fill-opacity="1" fill-rule="nonzero"/><path fill="rgb(18.818665%, 16.859436%, 17.649841%)" d="M 92.601562 157.679688 C 96.253906 157.679688 96.265625 152.007812 92.601562 152.007812 C 88.957031 152.007812 88.949219 157.679688 92.601562 157.679688 " fill-opacity="1" fill-rule="nonzero"/><path fill="rgb(18.818665%, 16.859436%, 17.649841%)" d="M 136.328125 119.757812 C 139.980469 119.757812 139.988281 114.085938 136.328125 114.085938 C 132.679688 114.085938 132.675781 119.757812 136.328125 119.757812 " fill-opacity="1" fill-rule="nonzero"/><path fill="rgb(18.818665%, 16.859436%, 17.649841%)" d="M 110.609375 113.972656 C 114.257812 113.972656 114.265625 108.300781 110.609375 108.300781 C 106.957031 108.300781 106.953125 113.972656 110.609375 113.972656 " fill-opacity="1" fill-rule="nonzero"/><path fill="rgb(18.818665%, 16.859436%, 17.649841%)" d="M 115.109375 160.886719 C 118.757812 160.886719 118.769531 155.214844 115.109375 155.214844 C 111.457031 155.214844 111.453125 160.886719 115.109375 160.886719 " fill-opacity="1" fill-rule="nonzero"/><path fill="rgb(18.818665%, 16.859436%, 17.649841%)" d="M 144.691406 212.949219 C 148.335938 212.949219 148.347656 207.277344 144.691406 207.277344 C 141.03125 207.277344 141.027344 212.949219 144.691406 212.949219 " fill-opacity="1" fill-rule="nonzero"/><path fill="rgb(18.818665%, 16.859436%, 17.649841%)" d="M 92.601562 255.199219 C 96.253906 255.199219 96.265625 249.523438 92.601562 249.523438 C 88.957031 249.523438 88.949219 255.199219 92.601562 255.199219 " fill-opacity="1" fill-rule="nonzero"/><path fill="rgb(18.818665%, 16.859436%, 17.649841%)" d="M 46.3125 200.738281 C 49.957031 200.738281 49.96875 195.066406 46.3125 195.066406 C 42.660156 195.066406 42.652344 200.738281 46.3125 200.738281 " fill-opacity="1" fill-rule="nonzero"/><path fill="rgb(18.818665%, 16.859436%, 17.649841%)" d="M 60.125 240.582031 C 63.777344 240.582031 63.785156 234.910156 60.125 234.910156 C 56.46875 234.910156 56.464844 240.582031 60.125 240.582031 " fill-opacity="1" fill-rule="nonzero"/><path fill="rgb(18.818665%, 16.859436%, 17.649841%)" d="M 182.621094 183.386719 C 186.269531 183.386719 186.28125 177.714844 182.621094 177.714844 C 178.976562 177.714844 178.964844 183.386719 182.621094 183.386719 " fill-opacity="1" fill-rule="nonzero"/></svg>