<svg xmlns="http://www.w3.org/2000/svg" xmlns:xlink="http://www.w3.org/1999/xlink" width="375" zoomAndPan="magnify" viewBox="0 0 375 374.999991" height="374.999991" preserveAspectRatio="xMidYMid meet" version="1.0"><defs><clipPath id="id1"><path d="M 30 14 L 345.394531 14 L 345.394531 361.554688 L 30 361.554688 Z M 30 14 " clip-rule="nonzero"/></clipPath></defs><rect x="-37.5" width="450" fill="rgb(100%, 100%, 100%)" y="-37.499999" height="449.999989" fill-opacity="1"/><rect x="-37.5" width="450" fill="rgb(100%, 100%, 100%)" y="-37.499999" height="449.999989" fill-opacity="1"/><rect x="-37.5" width="450" fill="rgb(100%, 100%, 100%)" y="-37.499999" height="449.999989" fill-opacity="1"/><g clip-path="url(#id1)"><path fill="rgb(18.818665%, 16.859436%, 17.649841%)" d="M 340.238281 14.035156 C 337.25 13.765625 334.535156 15.9375 334.265625 18.925781 C 333.179688 28.699219 322.316406 37.117188 315.800781 41.191406 C 315.53125 41.191406 308.199219 41.734375 304.671875 42.277344 C 230.550781 35.21875 212.90625 71.605469 210.191406 79.480469 C 177.882812 97.671875 166.75 124.828125 164.308594 132.160156 C 149.105469 145.195312 137.699219 165.015625 130.371094 179.679688 C 127.65625 185.382812 125.484375 191.628906 123.582031 200.046875 C 120.054688 215.253906 102.679688 229.101562 101.320312 230.1875 C 84.214844 241.320312 66.570312 266.574219 65.753906 267.933594 C 53.535156 286.398438 40.777344 295.359375 34.261719 299.160156 C 29.644531 301.875 29.917969 305.679688 30.1875 306.765625 C 30.460938 307.851562 31.546875 311.382812 36.703125 312.195312 C 42.132812 313.011719 47.5625 313.28125 52.992188 313.28125 C 76.613281 313.28125 99.148438 305.949219 120.054688 291.285156 C 122.496094 289.65625 123.039062 286.128906 121.410156 283.683594 C 119.78125 281.238281 116.253906 280.695312 113.808594 282.324219 C 93.445312 296.445312 71.457031 303.234375 48.921875 302.421875 C 56.796875 296.445312 65.753906 287.484375 74.714844 274.179688 C 74.984375 273.90625 91.816406 249.195312 107.292969 239.421875 C 107.292969 239.421875 107.566406 239.148438 107.566406 239.148438 C 109.195312 237.792969 120.324219 229.101562 127.925781 216.882812 C 127.382812 217.699219 128.199219 219.597656 128.742188 220.414062 C 129.554688 222.042969 131.457031 222.855469 133.355469 222.855469 C 135.527344 222.855469 137.429688 221.5 138.242188 219.597656 C 140.144531 214.710938 139.328125 207.648438 135.527344 197.332031 C 135.527344 197.332031 135.527344 197.058594 135.527344 197.058594 C 136.886719 192.171875 138.242188 188.371094 140.144531 184.839844 C 144.761719 175.0625 153.992188 158.5 165.664062 146.28125 C 165.9375 148.179688 165.9375 150.082031 165.664062 151.710938 C 164.578125 154.96875 167.292969 158.773438 170.824219 158.773438 C 173.265625 158.773438 175.4375 157.140625 175.980469 154.96875 C 177.882812 148.179688 175.710938 140.304688 174.351562 136.777344 C 175.710938 132.972656 185.210938 106.363281 216.433594 89.253906 C 218.335938 88.167969 219.691406 86.539062 220.234375 84.367188 C 222.136719 76.765625 232.996094 61.558594 260.6875 55.582031 C 230.550781 71.0625 225.9375 94.414062 225.121094 101.203125 C 196.886719 124.554688 191.457031 153.070312 190.371094 160.671875 C 178.152344 176.421875 170.550781 198.144531 166.480469 213.894531 C 164.851562 219.871094 164.035156 226.660156 163.765625 235.078125 C 163.492188 250.28125 149.105469 267.117188 147.746094 268.75 C 133.085938 283.140625 120.867188 311.382812 120.324219 312.46875 C 111.910156 332.832031 101.050781 344.238281 95.347656 349.125 C 91.273438 352.65625 92.359375 356.1875 92.902344 357.273438 C 93.988281 360.257812 97.519531 361.347656 100.507812 361.347656 C 171.910156 357 203.132812 293.1875 208.832031 280.425781 C 209.917969 277.710938 211.003906 274.992188 211.820312 271.734375 C 216.707031 252.183594 224.851562 237.792969 226.207031 235.347656 C 241.414062 217.699219 245.757812 195.429688 246.84375 187.285156 C 248.742188 185.925781 250.914062 184.027344 252.542969 182.125 C 265.847656 168.003906 267.203125 148.453125 267.203125 147.367188 C 267.203125 141.390625 268.832031 135.417969 271.820312 129.714844 C 273.71875 126.1875 276.433594 123.199219 280.238281 119.667969 C 286.480469 114.507812 292.996094 104.460938 294.082031 102.5625 C 296.796875 98.488281 298.15625 93.328125 302.226562 90.339844 C 319.332031 77.035156 322.859375 61.558594 323.945312 48.25 C 323.945312 48.25 323.945312 47.980469 323.945312 47.980469 C 331.550781 42.820312 343.496094 33.046875 345.125 19.46875 C 345.394531 17.023438 343.222656 14.308594 340.238281 14.035156 Z M 295.441406 82.464844 C 294.355469 83.28125 293.539062 84.097656 292.996094 84.910156 C 290.28125 88.441406 286.480469 93.328125 284.851562 97.671875 C 282.410156 101.476562 277.519531 108.535156 273.449219 111.792969 C 272.089844 113.152344 268.289062 116.410156 267.746094 116.953125 C 266.933594 117.769531 263.132812 119.941406 253.902344 121.296875 C 250.914062 121.839844 248.742188 124.554688 249.285156 127.542969 C 249.558594 130.53125 252.542969 132.703125 255.53125 132.160156 C 256.886719 131.886719 258.246094 131.617188 259.601562 131.617188 C 257.703125 136.777344 256.617188 142.207031 256.617188 147.636719 C 256.617188 147.910156 255.53125 165.015625 243.855469 176.421875 C 242.5 177.507812 238.425781 179.136719 230.550781 180.222656 C 227.566406 180.496094 225.394531 183.480469 225.9375 186.46875 C 226.207031 189.457031 229.195312 191.628906 232.179688 191.085938 C 233.269531 190.8125 234.625 190.8125 235.710938 190.542969 C 234.082031 198.6875 230.007812 214.167969 219.964844 227.203125 C 219.691406 227.472656 219.421875 227.746094 219.148438 228.015625 C 218.335938 228.832031 214.535156 231.003906 205.304688 232.359375 C 202.316406 232.902344 200.144531 235.621094 200.6875 238.605469 C 200.960938 240.507812 202.316406 242.136719 204.21875 242.953125 C 206.390625 243.765625 209.105469 242.953125 211.277344 242.679688 C 207.746094 248.925781 203.945312 258.429688 201.230469 269.5625 C 200.6875 272.277344 199.875 274.449219 199.058594 276.351562 C 194.171875 287.484375 168.378906 340.164062 110.824219 349.398438 C 117.339844 342.066406 124.398438 331.476562 130.640625 316.8125 C 130.640625 316.539062 142.585938 289.113281 155.890625 276.351562 C 155.890625 276.351562 155.890625 276.351562 156.164062 276.078125 C 156.433594 275.808594 174.625 255.441406 175.167969 235.078125 C 175.4375 227.472656 175.980469 221.5 177.339844 216.339844 C 180.597656 204.121094 187.65625 181.582031 199.875 166.375 C 200.144531 166.101562 200.417969 165.558594 200.417969 165.289062 C 202.859375 163.929688 206.117188 162.574219 208.832031 162.574219 C 211.820312 162.574219 214.261719 159.859375 213.992188 156.871094 C 213.992188 153.882812 211.546875 151.441406 208.289062 151.710938 C 206.660156 151.710938 205.03125 151.984375 203.402344 152.527344 C 206.660156 141.390625 214.261719 123.199219 233.265625 107.449219 C 234.894531 106.089844 235.984375 103.917969 235.984375 102.019531 C 235.984375 100.117188 238.699219 59.113281 312.542969 52.054688 C 312.542969 52.054688 312.542969 52.054688 312.816406 52.054688 C 311.457031 61.828125 308.199219 72.691406 295.441406 82.464844 Z M 295.441406 82.464844 " fill-opacity="1" fill-rule="nonzero"/></g></svg>