<svg xmlns="http://www.w3.org/2000/svg" xmlns:xlink="http://www.w3.org/1999/xlink" width="375" zoomAndPan="magnify" viewBox="0 0 375 374.999991" height="374.999991" preserveAspectRatio="xMidYMid meet" version="1.0"><defs><clipPath id="id1"><path d="M 26.089844 14.816406 L 333 14.816406 L 333 358.316406 L 26.089844 358.316406 Z M 26.089844 14.816406 " clip-rule="nonzero"/></clipPath></defs><rect x="-37.5" width="450" fill="rgb(100%, 100%, 100%)" y="-37.499999" height="449.999989" fill-opacity="1"/><rect x="-37.5" width="450" fill="rgb(100%, 100%, 100%)" y="-37.499999" height="449.999989" fill-opacity="1"/><g clip-path="url(#id1)"><path fill="rgb(18.818665%, 16.859436%, 17.649841%)" d="M 330.042969 140.476562 C 328.273438 128.335938 325.359375 116.472656 321.292969 104.894531 C 317.230469 93.3125 312.09375 82.230469 305.886719 71.640625 C 299.433594 60.664062 291.953125 50.441406 283.433594 40.972656 C 274.917969 31.503906 265.539062 22.980469 255.296875 15.398438 C 255.023438 15.191406 254.71875 15.046875 254.382812 14.964844 C 254.050781 14.878906 253.710938 14.863281 253.371094 14.910156 C 253.03125 14.960938 252.714844 15.074219 252.417969 15.25 C 252.121094 15.425781 251.871094 15.652344 251.664062 15.929688 L 182.238281 108.984375 L 27.007812 317 C 26.804688 317.277344 26.660156 317.578125 26.578125 317.910156 C 26.492188 318.246094 26.476562 318.578125 26.527344 318.917969 C 26.574219 319.257812 26.6875 319.574219 26.863281 319.871094 C 27.039062 320.164062 27.261719 320.414062 27.539062 320.621094 C 35.105469 326.265625 43.046875 331.316406 51.371094 335.777344 C 59.691406 340.238281 68.300781 344.054688 77.195312 347.230469 C 86.085938 350.410156 95.167969 352.910156 104.433594 354.734375 C 113.703125 356.558594 123.054688 357.6875 132.488281 358.117188 C 135.40625 358.25 138.332031 358.316406 141.261719 358.316406 C 149.726562 358.320312 158.148438 357.769531 166.539062 356.65625 C 174.925781 355.546875 183.203125 353.886719 191.371094 351.675781 C 199.539062 349.46875 207.523438 346.730469 215.324219 343.460938 C 223.128906 340.191406 230.679688 336.421875 237.980469 332.152344 C 241.382812 330.160156 244.722656 328.0625 247.996094 325.863281 C 251.269531 323.664062 254.472656 321.367188 257.605469 318.96875 C 260.734375 316.570312 263.789062 314.074219 266.761719 311.488281 C 269.738281 308.898438 272.628906 306.222656 275.4375 303.453125 C 278.246094 300.6875 280.96875 297.835938 283.597656 294.898438 C 286.230469 291.960938 288.765625 288.945312 291.207031 285.851562 C 293.652344 282.757812 295.996094 279.59375 298.242188 276.355469 C 300.488281 273.113281 302.632812 269.808594 304.671875 266.4375 C 306.710938 263.0625 308.644531 259.632812 310.46875 256.140625 C 312.296875 252.648438 314.011719 249.101562 315.617188 245.503906 C 317.222656 241.902344 318.714844 238.257812 320.09375 234.566406 C 321.472656 230.875 322.734375 227.144531 323.878906 223.375 C 325.023438 219.605469 326.050781 215.804688 326.960938 211.972656 C 327.871094 208.136719 328.660156 204.28125 329.328125 200.398438 C 329.996094 196.515625 330.542969 192.617188 330.96875 188.699219 C 331.398438 184.78125 331.699219 180.855469 331.882812 176.921875 C 332.433594 164.714844 331.820312 152.566406 330.042969 140.476562 Z M 184.820312 114.175781 C 186.121094 115.222656 187.382812 116.316406 188.609375 117.453125 C 189.832031 118.59375 191.011719 119.773438 192.152344 120.996094 C 193.289062 122.222656 194.378906 123.484375 195.425781 124.789062 C 196.472656 126.089844 197.46875 127.429688 198.417969 128.804688 C 199.367188 130.179688 200.265625 131.585938 201.113281 133.027344 C 201.960938 134.464844 202.753906 135.933594 203.492188 137.433594 C 204.234375 138.929688 204.917969 140.453125 205.546875 142 C 206.175781 143.546875 206.75 145.113281 207.265625 146.699219 C 207.78125 148.289062 208.238281 149.894531 208.636719 151.515625 C 209.035156 153.136719 209.375 154.769531 209.65625 156.417969 C 209.9375 158.0625 210.15625 159.71875 210.316406 161.378906 C 210.480469 163.039062 210.578125 164.707031 210.617188 166.375 C 210.65625 168.042969 210.636719 169.714844 210.554688 171.378906 C 210.472656 173.046875 210.332031 174.710938 210.128906 176.367188 C 209.925781 178.027344 209.664062 179.671875 209.339844 181.3125 C 209.019531 182.949219 208.636719 184.574219 208.199219 186.1875 C 207.757812 187.796875 207.261719 189.390625 206.703125 190.964844 C 206.148438 192.539062 205.535156 194.089844 204.867188 195.621094 C 204.199219 197.152344 203.476562 198.65625 202.699219 200.136719 C 201.921875 201.613281 201.089844 203.0625 200.207031 204.480469 C 199.324219 205.898438 198.390625 207.28125 197.410156 208.632812 C 196.425781 209.984375 195.394531 211.296875 194.316406 212.574219 C 193.234375 213.847656 192.113281 215.082031 190.945312 216.277344 C 189.777344 217.472656 188.566406 218.625 187.3125 219.730469 C 186.0625 220.835938 184.769531 221.898438 183.441406 222.910156 C 182.113281 223.925781 180.75 224.890625 179.347656 225.804688 C 177.949219 226.71875 176.519531 227.582031 175.058594 228.394531 C 173.597656 229.207031 172.105469 229.964844 170.589844 230.667969 C 169.074219 231.371094 167.53125 232.019531 165.96875 232.609375 C 164.40625 233.203125 162.820312 233.738281 161.21875 234.214844 C 159.617188 234.695312 158 235.113281 156.363281 235.472656 C 154.730469 235.832031 153.085938 236.132812 151.433594 236.375 C 148.0625 236.871094 144.675781 237.121094 141.269531 237.117188 C 137.800781 237.117188 134.351562 236.855469 130.921875 236.332031 C 127.492188 235.808594 124.121094 235.03125 120.8125 234 C 117.5 232.964844 114.285156 231.691406 111.167969 230.171875 C 108.050781 228.652344 105.066406 226.90625 102.214844 224.933594 Z M 290.144531 278.589844 C 253.785156 327.316406 197.859375 353.0625 141.1875 353.0625 C 131.507812 353.070312 121.886719 352.324219 112.328125 350.820312 C 102.765625 349.320312 93.378906 347.082031 84.171875 344.105469 C 74.964844 341.128906 66.046875 337.453125 57.417969 333.074219 C 48.789062 328.699219 40.554688 323.671875 32.71875 318.003906 L 99.0625 229.089844 C 102.148438 231.222656 105.378906 233.113281 108.75 234.761719 C 112.121094 236.40625 115.597656 237.789062 119.183594 238.910156 C 122.765625 240.027344 126.410156 240.871094 130.121094 241.441406 C 133.832031 242.007812 137.5625 242.292969 141.316406 242.296875 C 147.953125 242.292969 154.476562 241.421875 160.882812 239.6875 C 167.289062 237.957031 173.355469 235.417969 179.085938 232.078125 C 180.382812 231.320312 181.652344 230.523438 182.898438 229.6875 C 184.144531 228.851562 185.367188 227.980469 186.5625 227.074219 C 187.753906 226.164062 188.921875 225.21875 190.058594 224.242188 C 191.191406 223.261719 192.300781 222.25 193.375 221.203125 C 194.449219 220.160156 195.492188 219.082031 196.503906 217.972656 C 197.511719 216.863281 198.488281 215.726562 199.429688 214.558594 C 200.371094 213.390625 201.273438 212.195312 202.140625 210.972656 C 203.011719 209.75 203.839844 208.503906 204.632812 207.230469 C 205.425781 205.957031 206.179688 204.660156 206.894531 203.34375 C 207.609375 202.023438 208.28125 200.6875 208.914062 199.328125 C 209.546875 197.96875 210.140625 196.59375 210.6875 195.199219 C 211.238281 193.800781 211.742188 192.394531 212.207031 190.96875 C 212.671875 189.542969 213.09375 188.105469 213.46875 186.652344 C 213.84375 185.203125 214.175781 183.742188 214.464844 182.269531 C 214.753906 180.800781 214.996094 179.324219 215.195312 177.835938 C 215.394531 176.351562 215.546875 174.863281 215.65625 173.367188 C 215.761719 171.871094 215.824219 170.375 215.84375 168.875 C 215.859375 167.378906 215.832031 165.878906 215.757812 164.382812 C 215.683594 162.886719 215.566406 161.394531 215.402344 159.90625 C 215.234375 158.414062 215.027344 156.929688 214.773438 155.453125 C 214.519531 153.976562 214.21875 152.507812 213.875 151.050781 C 213.53125 149.59375 213.144531 148.144531 212.714844 146.710938 C 212.285156 145.273438 211.808594 143.851562 211.292969 142.445312 C 210.773438 141.039062 210.214844 139.648438 209.613281 138.277344 C 209.011719 136.902344 208.371094 135.550781 207.6875 134.214844 C 207.003906 132.882812 206.277344 131.570312 205.515625 130.277344 C 204.75 128.988281 203.949219 127.722656 203.109375 126.480469 C 202.269531 125.238281 201.394531 124.023438 200.480469 122.832031 C 199.566406 121.644531 198.617188 120.484375 197.632812 119.351562 C 196.648438 118.222656 195.628906 117.121094 194.578125 116.050781 C 193.527344 114.980469 192.445312 113.941406 191.332031 112.9375 C 190.21875 111.933594 189.074219 110.964844 187.902344 110.027344 L 254.28125 21.105469 C 256.667969 22.933594 259.007812 24.816406 261.304688 26.757812 C 263.597656 28.699219 265.84375 30.695312 268.042969 32.746094 C 270.238281 34.796875 272.386719 36.898438 274.480469 39.050781 C 276.578125 41.207031 278.617188 43.410156 280.605469 45.664062 C 282.59375 47.917969 284.527344 50.21875 286.402344 52.566406 C 288.277344 54.914062 290.09375 57.304688 291.851562 59.738281 C 293.613281 62.175781 295.3125 64.652344 296.949219 67.167969 C 298.589844 69.6875 300.164062 72.246094 301.679688 74.839844 C 303.191406 77.433594 304.640625 80.0625 306.027344 82.730469 C 307.414062 85.394531 308.734375 88.089844 309.988281 90.820312 C 311.242188 93.550781 312.429688 96.308594 313.546875 99.09375 C 314.667969 101.878906 315.71875 104.691406 316.699219 107.53125 C 317.683594 110.367188 318.597656 113.230469 319.441406 116.109375 C 320.28125 118.992188 321.054688 121.894531 321.757812 124.8125 C 322.460938 127.734375 323.089844 130.667969 323.648438 133.617188 C 324.207031 136.570312 324.695312 139.53125 325.109375 142.503906 C 325.523438 145.480469 325.863281 148.460938 326.132812 151.453125 C 326.402344 154.441406 326.597656 157.4375 326.722656 160.4375 C 326.84375 163.4375 326.894531 166.441406 326.871094 169.441406 C 326.847656 172.445312 326.75 175.445312 326.582031 178.441406 C 326.410156 181.441406 326.167969 184.433594 325.855469 187.417969 C 325.539062 190.40625 325.152344 193.382812 324.691406 196.347656 C 324.230469 199.316406 323.699219 202.269531 323.09375 205.210938 C 322.488281 208.152344 321.8125 211.078125 321.066406 213.984375 C 320.320312 216.894531 319.5 219.785156 318.613281 222.652344 C 317.726562 225.519531 316.769531 228.367188 315.742188 231.1875 C 314.714844 234.011719 313.621094 236.808594 312.457031 239.578125 C 311.296875 242.34375 310.066406 245.085938 308.769531 247.792969 C 307.472656 250.503906 306.113281 253.179688 304.683594 255.824219 C 303.257812 258.46875 301.769531 261.074219 300.214844 263.644531 C 298.660156 266.214844 297.042969 268.746094 295.367188 271.238281 C 293.691406 273.734375 291.953125 276.183594 290.15625 278.589844 Z M 290.144531 278.589844 " fill-opacity="1" fill-rule="nonzero"/></g><path fill="rgb(18.818665%, 16.859436%, 17.649841%)" d="M 125.566406 219.101562 C 128.449219 223.421875 132.523438 227.832031 135.46875 229.824219 C 137.722656 231.351562 140.207031 232.117188 142.929688 232.117188 C 143.785156 232.117188 144.636719 232.035156 145.480469 231.878906 C 146.777344 231.628906 148.011719 231.195312 149.179688 230.582031 C 150.347656 229.96875 151.402344 229.195312 152.339844 228.269531 C 153.277344 227.34375 154.0625 226.300781 154.691406 225.140625 C 155.324219 223.984375 155.769531 222.757812 156.035156 221.46875 C 156.300781 220.175781 156.375 218.875 156.25 217.5625 C 156.128906 216.25 155.820312 214.980469 155.324219 213.761719 C 154.824219 212.539062 154.160156 211.417969 153.328125 210.394531 C 152.496094 209.367188 151.535156 208.488281 150.441406 207.746094 C 147.496094 205.757812 141.882812 203.625 136.789062 202.554688 C 129.503906 201.023438 124.722656 201.867188 122.574219 205.007812 C 120.429688 208.144531 121.441406 212.90625 125.566406 219.101562 Z M 126.875 207.914062 C 127.191406 207.445312 128.367188 207 130.527344 207 C 132.285156 207.027344 134.019531 207.234375 135.730469 207.617188 C 140.699219 208.660156 145.523438 210.675781 147.53125 212.035156 C 147.976562 212.335938 148.386719 212.675781 148.761719 213.054688 C 149.140625 213.4375 149.476562 213.851562 149.769531 214.296875 C 150.066406 214.742188 150.316406 215.214844 150.515625 215.710938 C 150.71875 216.207031 150.871094 216.71875 150.972656 217.242188 C 151.074219 217.769531 151.125 218.300781 151.121094 218.835938 C 151.117188 219.371094 151.0625 219.902344 150.953125 220.425781 C 150.847656 220.949219 150.6875 221.457031 150.480469 221.953125 C 150.269531 222.445312 150.015625 222.914062 149.714844 223.355469 C 149.414062 223.800781 149.074219 224.210938 148.691406 224.585938 C 148.3125 224.960938 147.898438 225.296875 147.449219 225.59375 C 147 225.886719 146.527344 226.136719 146.03125 226.335938 C 145.535156 226.539062 145.023438 226.691406 144.496094 226.792969 C 143.96875 226.894531 143.4375 226.941406 142.902344 226.9375 C 142.367188 226.9375 141.835938 226.878906 141.308594 226.773438 C 140.785156 226.664062 140.273438 226.507812 139.78125 226.300781 C 139.285156 226.089844 138.816406 225.835938 138.375 225.539062 C 136.355469 224.164062 132.695312 220.449219 129.890625 216.230469 C 126.738281 211.503906 126.359375 208.667969 126.875 207.890625 Z M 126.875 207.914062 " fill-opacity="1" fill-rule="nonzero"/><path fill="rgb(18.818665%, 16.859436%, 17.649841%)" d="M 170.980469 206.59375 C 171.707031 207.046875 172.46875 207.429688 173.269531 207.734375 C 174.066406 208.042969 174.890625 208.269531 175.734375 208.421875 C 176.574219 208.570312 177.425781 208.636719 178.28125 208.625 C 179.136719 208.609375 179.984375 208.515625 180.824219 208.339844 C 181.660156 208.160156 182.476562 207.90625 183.265625 207.574219 C 184.054688 207.242188 184.804688 206.835938 185.515625 206.359375 C 186.226562 205.882812 186.882812 205.34375 187.492188 204.742188 C 188.097656 204.136719 188.640625 203.480469 189.121094 202.773438 C 189.601562 202.066406 190.011719 201.320312 190.347656 200.535156 C 190.683594 199.75 190.941406 198.9375 191.125 198.101562 C 191.304688 197.265625 191.402344 196.421875 191.421875 195.566406 C 191.4375 194.710938 191.375 193.863281 191.226562 193.019531 C 191.082031 192.175781 190.855469 191.355469 190.550781 190.558594 C 190.246094 189.757812 189.871094 188.996094 189.417969 188.269531 C 188.96875 187.542969 188.453125 186.867188 187.871094 186.238281 C 187.289062 185.609375 186.652344 185.042969 185.960938 184.539062 C 183.015625 182.546875 177.402344 180.417969 172.308594 179.347656 C 165.023438 177.8125 160.234375 178.660156 158.09375 181.804688 C 155.953125 184.949219 156.957031 189.703125 161.085938 195.894531 C 163.96875 200.191406 168.035156 204.601562 170.980469 206.59375 Z M 162.386719 184.683594 C 162.703125 184.214844 163.878906 183.769531 166.039062 183.769531 C 167.796875 183.800781 169.53125 184.007812 171.242188 184.394531 C 176.210938 185.433594 181.035156 187.445312 183.050781 188.804688 C 183.496094 189.105469 183.90625 189.445312 184.28125 189.824219 C 184.660156 190.207031 184.996094 190.621094 185.289062 191.066406 C 185.585938 191.515625 185.832031 191.984375 186.035156 192.480469 C 186.238281 192.976562 186.390625 193.488281 186.492188 194.015625 C 186.59375 194.539062 186.640625 195.070312 186.640625 195.605469 C 186.636719 196.140625 186.582031 196.671875 186.472656 197.195312 C 186.363281 197.71875 186.207031 198.230469 186 198.722656 C 185.789062 199.214844 185.535156 199.683594 185.234375 200.128906 C 184.933594 200.570312 184.59375 200.980469 184.210938 201.355469 C 183.828125 201.734375 183.414062 202.066406 182.96875 202.363281 C 182.519531 202.65625 182.046875 202.90625 181.550781 203.109375 C 181.054688 203.308594 180.542969 203.460938 180.015625 203.5625 C 179.488281 203.664062 178.957031 203.710938 178.421875 203.710938 C 177.886719 203.707031 177.355469 203.652344 176.828125 203.542969 C 176.304688 203.4375 175.792969 203.277344 175.300781 203.070312 C 174.804688 202.863281 174.335938 202.609375 173.890625 202.308594 C 171.875 200.933594 168.214844 197.21875 165.402344 193 C 162.257812 188.28125 161.871094 185.4375 162.386719 184.683594 Z M 162.386719 184.683594 " fill-opacity="1" fill-rule="nonzero"/><path fill="rgb(18.818665%, 16.859436%, 17.649841%)" d="M 181 165.800781 C 183.25 167.332031 185.734375 168.097656 188.457031 168.101562 C 189.316406 168.101562 190.167969 168.019531 191.011719 167.855469 C 192.308594 167.605469 193.539062 167.171875 194.707031 166.558594 C 195.875 165.945312 196.929688 165.175781 197.871094 164.246094 C 198.808594 163.320312 199.59375 162.277344 200.222656 161.121094 C 200.851562 159.960938 201.300781 158.734375 201.566406 157.445312 C 201.832031 156.152344 201.902344 154.851562 201.78125 153.539062 C 201.660156 152.226562 201.351562 150.960938 200.851562 149.738281 C 200.355469 148.515625 199.691406 147.394531 198.859375 146.371094 C 198.027344 145.347656 197.066406 144.464844 195.972656 143.726562 C 193.027344 141.742188 187.414062 139.605469 182.320312 138.53125 C 175.035156 137.007812 170.25 137.847656 168.105469 140.992188 C 165.957031 144.136719 166.96875 148.890625 171.097656 155.078125 C 173.980469 159.398438 178.054688 163.808594 181 165.800781 Z M 172.398438 143.890625 C 172.714844 143.429688 173.898438 142.984375 176.058594 142.984375 C 177.8125 143.011719 179.546875 143.21875 181.261719 143.601562 C 186.230469 144.640625 191.046875 146.652344 193.0625 148.019531 C 193.503906 148.316406 193.917969 148.660156 194.292969 149.039062 C 194.671875 149.421875 195.007812 149.832031 195.300781 150.28125 C 195.597656 150.726562 195.84375 151.199219 196.046875 151.695312 C 196.25 152.191406 196.402344 152.699219 196.503906 153.226562 C 196.605469 153.75 196.65625 154.28125 196.652344 154.816406 C 196.648438 155.351562 196.59375 155.882812 196.484375 156.40625 C 196.378906 156.929688 196.21875 157.441406 196.011719 157.933594 C 195.804688 158.425781 195.550781 158.894531 195.25 159.335938 C 194.949219 159.78125 194.605469 160.191406 194.226562 160.566406 C 193.84375 160.941406 193.425781 161.277344 192.980469 161.570312 C 192.53125 161.863281 192.058594 162.113281 191.5625 162.3125 C 191.066406 162.515625 190.554688 162.667969 190.027344 162.769531 C 189.5 162.867188 188.96875 162.917969 188.433594 162.914062 C 187.898438 162.910156 187.367188 162.855469 186.839844 162.75 C 186.316406 162.640625 185.804688 162.484375 185.3125 162.277344 C 184.816406 162.070312 184.347656 161.816406 183.902344 161.515625 C 181.886719 160.140625 178.226562 156.433594 175.417969 152.207031 C 172.269531 147.488281 171.890625 144.652344 172.398438 143.890625 Z M 172.398438 143.890625 " fill-opacity="1" fill-rule="nonzero"/></svg>