<svg xmlns="http://www.w3.org/2000/svg" xmlns:xlink="http://www.w3.org/1999/xlink" width="375" zoomAndPan="magnify" viewBox="0 0 375 374.999991" height="374.999991" preserveAspectRatio="xMidYMid meet" version="1.0"><defs><clipPath id="id1"><path d="M 13.449219 37.679688 L 353.902344 37.679688 L 353.902344 331.308594 L 13.449219 331.308594 Z M 13.449219 37.679688 " clip-rule="nonzero"/></clipPath></defs><rect x="-37.5" width="450" fill="rgb(100%, 100%, 100%)" y="-37.499999" height="449.999989" fill-opacity="1"/><rect x="-37.5" width="450" fill="rgb(100%, 100%, 100%)" y="-37.499999" height="449.999989" fill-opacity="1"/><g clip-path="url(#id1)"><path fill="rgb(18.818665%, 16.859436%, 17.649841%)" d="M 110.367188 207.777344 C 106.1875 210.355469 102.523438 212.175781 99.644531 213.371094 C 101.851562 211.019531 105.007812 208.246094 109.101562 205.714844 C 113.195312 203.183594 117.082031 201.59375 120.171875 200.675781 C 117.816406 202.714844 114.542969 205.183594 110.367188 207.777344 Z M 115.417969 215.972656 C 125.914062 209.488281 137.519531 200.292969 133.238281 193.324219 C 131.246094 190.09375 126.855469 189.214844 120.175781 190.707031 C 114.980469 191.863281 109.257812 194.289062 104.046875 197.507812 C 98.835938 200.726562 94.113281 204.777344 90.75 208.910156 C 86.417969 214.214844 85.226562 218.554688 87.21875 221.785156 C 88.550781 223.941406 90.761719 224.832031 93.492188 224.832031 C 99.554688 224.832031 108.179688 220.457031 115.417969 215.972656 Z M 292.898438 55.964844 C 242.148438 30.878906 175.445312 62.105469 144.199219 125.5625 C 140.058594 133.964844 136.691406 142.648438 134.128906 151.476562 C 167.625 138.550781 197.597656 135.363281 205.707031 146.074219 C 205.851562 146.269531 205.980469 146.464844 206.101562 146.667969 C 206.175781 146.777344 206.257812 146.863281 206.320312 146.976562 C 221.082031 173.605469 229.277344 204.308594 226.699219 234.878906 C 224.921875 256.117188 218.039062 276.898438 205.296875 293.980469 C 251.789062 300.429688 302.464844 268.992188 328.296875 216.53125 C 359.53125 153.074219 343.664062 81.039062 292.898438 55.964844 Z M 198.75 286.707031 C 224.691406 250.292969 221.359375 201.460938 203.25 162.246094 C 200.242188 167.730469 195.949219 172.820312 192.457031 176.953125 C 167.277344 206.847656 131.90625 229.726562 97.347656 247.121094 C 81.222656 255.234375 64.265625 262.625 46.65625 266.832031 C 41.828125 267.976562 36.144531 269.265625 30.582031 269.472656 C 45.117188 287.347656 63.453125 302.113281 84.535156 311.527344 C 124.011719 329.164062 172.351562 323.777344 198.75 286.707031 Z M 23.097656 258.972656 C 26.308594 260.164062 30.324219 259.742188 33.574219 259.417969 C 40.617188 258.71875 47.574219 256.789062 54.304688 254.667969 C 69.214844 249.980469 83.839844 243.722656 97.96875 236.382812 C 98.085938 234.476562 98.199219 232.574219 98.3125 230.679688 C 98.476562 227.96875 100.394531 225.96875 103.132812 225.847656 C 105.625 225.738281 108.101562 228.148438 107.953125 230.679688 C 107.941406 230.777344 107.9375 230.886719 107.933594 230.980469 C 119.507812 224.4375 130.683594 217.179688 141.339844 209.476562 C 141.015625 209.378906 140.679688 209.296875 140.34375 209.210938 C 134.339844 207.65625 136.902344 198.351562 142.90625 199.894531 C 145.683594 200.617188 148.453125 201.339844 151.230469 202.0625 C 152.207031 201.292969 153.203125 200.542969 154.167969 199.773438 C 165.800781 190.585938 177.039062 180.582031 186.496094 169.117188 C 190.25 164.574219 196.289062 157.484375 197.214844 151.164062 C 194.207031 149.273438 184.28125 147.660156 164.933594 151.992188 C 152.132812 154.859375 126.089844 162.488281 95.605469 181.339844 C 92.445312 183.292969 89.429688 185.257812 86.523438 187.222656 C 87.464844 187.910156 88.40625 188.609375 89.34375 189.308594 C 91.515625 190.914062 92.402344 193.394531 91.074219 195.914062 C 89.945312 198.050781 86.515625 199.144531 84.480469 197.640625 C 82.5 196.179688 80.523438 194.710938 78.542969 193.25 C 78.453125 193.179688 78.375 193.105469 78.285156 193.035156 C 57.941406 207.980469 44.910156 222.207031 38.3125 230.304688 C 25.613281 245.878906 22.679688 255.535156 23.097656 258.972656 Z M 336.9375 220.796875 C 311.707031 272.027344 263.914062 304.464844 217.351562 304.464844 C 210.890625 304.464844 204.441406 303.839844 198.089844 302.546875 C 183.195312 318.230469 163.101562 328.042969 141.636719 330.574219 C 91.101562 336.566406 43.222656 305.03125 15.207031 265.035156 L 15.203125 265.035156 C 15.199219 265.035156 15.191406 265.023438 15.191406 265.011719 C 15.175781 264.988281 15.15625 264.964844 15.136719 264.9375 C 14.921875 264.636719 14.765625 264.324219 14.644531 264.011719 C 9.441406 253.101562 22.445312 234.511719 30.855469 224.195312 C 45.863281 205.789062 67.0625 187.660156 90.542969 173.132812 C 101.105469 166.597656 112.109375 160.875 122.957031 156.09375 C 125.824219 144.203125 130.050781 132.507812 135.574219 121.296875 C 169.152344 53.070312 241.644531 19.878906 297.160156 47.3125 C 352.675781 74.746094 370.515625 152.566406 336.9375 220.796875 Z M 68.757812 214.441406 C 71.230469 214.019531 73.707031 213.585938 76.179688 213.152344 C 78.671875 212.71875 80.292969 209.535156 79.546875 207.210938 C 78.675781 204.523438 76.285156 203.378906 73.621094 203.847656 C 71.148438 204.28125 68.667969 204.703125 66.199219 205.136719 C 63.707031 205.570312 62.085938 208.765625 62.832031 211.078125 C 63.699219 213.757812 66.089844 214.914062 68.757812 214.441406 Z M 58.761719 233.523438 C 61.144531 232.742188 63.523438 231.957031 65.90625 231.175781 C 68.296875 230.378906 70.101562 227.800781 69.269531 225.230469 C 68.5 222.84375 65.90625 221.011719 63.34375 221.855469 C 60.960938 222.652344 58.578125 223.4375 56.199219 224.21875 C 53.808594 225.003906 52.003906 227.59375 52.835938 230.160156 C 53.605469 232.546875 56.195312 234.382812 58.761719 233.523438 Z M 81.703125 239.25 C 83.140625 237.527344 84.578125 235.804688 86.015625 234.089844 C 87.628906 232.152344 88.050781 229.125 86.015625 227.257812 C 84.230469 225.617188 80.925781 225.183594 79.203125 227.257812 C 77.765625 228.980469 76.328125 230.703125 74.886719 232.429688 C 73.269531 234.355469 72.851562 237.382812 74.886719 239.25 C 76.667969 240.890625 79.972656 241.324219 81.703125 239.25 Z M 116.484375 185.453125 C 116.945312 183.453125 117.40625 181.4375 117.867188 179.425781 C 118.4375 176.964844 117.117188 174.085938 114.503906 173.480469 C 112.050781 172.929688 109.183594 174.230469 108.578125 176.859375 C 108.117188 178.871094 107.652344 180.882812 107.191406 182.882812 C 106.625 185.34375 107.941406 188.238281 110.554688 188.828125 C 113.015625 189.394531 115.875 188.09375 116.484375 185.453125 Z M 135.628906 183.222656 L 138.40625 177.941406 C 139.585938 175.699219 139.046875 172.589844 136.6875 171.335938 C 134.449219 170.15625 131.34375 170.6875 130.089844 173.058594 C 129.164062 174.820312 128.238281 176.582031 127.3125 178.351562 C 126.136719 180.582031 126.671875 183.691406 129.039062 184.957031 C 131.261719 186.128906 134.378906 185.609375 135.628906 183.222656 Z M 154.675781 171.769531 C 155.914062 170.167969 157.152344 168.550781 158.394531 166.9375 C 159.101562 166.019531 159.175781 164.273438 158.886719 163.222656 C 158.574219 162.101562 157.707031 160.886719 156.671875 160.332031 C 155.554688 159.742188 154.195312 159.449219 152.953125 159.847656 C 151.679688 160.269531 150.886719 161.019531 150.078125 162.066406 C 148.828125 163.683594 147.589844 165.285156 146.347656 166.902344 C 145.640625 167.816406 145.578125 169.566406 145.855469 170.625 C 146.167969 171.734375 147.035156 172.953125 148.082031 173.507812 C 149.1875 174.097656 150.546875 174.398438 151.789062 174 C 153.0625 173.578125 153.855469 172.832031 154.675781 171.769531 Z M 152.941406 189.261719 C 150.609375 190.597656 147.769531 189.730469 146.347656 187.527344 C 144.941406 185.34375 145.890625 182.1875 148.082031 180.917969 C 150.558594 179.484375 153.050781 178.050781 155.527344 176.617188 C 157.875 175.265625 160.703125 176.132812 162.121094 178.351562 C 163.53125 180.523438 162.578125 183.691406 160.402344 184.957031 C 157.910156 186.378906 155.421875 187.816406 152.941406 189.261719 " fill-opacity="1" fill-rule="nonzero"/></g></svg>