<svg xmlns="http://www.w3.org/2000/svg" xmlns:xlink="http://www.w3.org/1999/xlink" width="375" zoomAndPan="magnify" viewBox="0 0 375 374.999991" height="374.999991" preserveAspectRatio="xMidYMid meet" version="1.0"><defs><clipPath id="id1"><path d="M 30 118 L 226 118 L 226 312.921875 L 30 312.921875 Z M 30 118 " clip-rule="nonzero"/></clipPath><clipPath id="id2"><path d="M 99 59.421875 L 350 59.421875 L 350 312 L 99 312 Z M 99 59.421875 " clip-rule="nonzero"/></clipPath></defs><rect x="-37.5" width="450" fill="rgb(100%, 100%, 100%)" y="-37.499999" height="449.999989" fill-opacity="1"/><rect x="-37.5" width="450" fill="rgb(100%, 100%, 100%)" y="-37.499999" height="449.999989" fill-opacity="1"/><path fill="rgb(18.818665%, 16.859436%, 17.649841%)" d="M 288.109375 127.136719 C 290.09375 125.152344 290.09375 122.175781 288.109375 120.191406 C 262.046875 94.148438 228.789062 79.265625 196.523438 79.265625 C 193.792969 79.265625 191.558594 81.5 191.558594 84.226562 C 191.558594 86.957031 193.792969 89.1875 196.523438 89.1875 C 226.058594 89.1875 256.835938 103.078125 280.910156 127.136719 C 281.902344 128.128906 283.144531 128.625 284.386719 128.625 C 285.625 128.625 287.113281 128.128906 288.109375 127.136719 Z M 288.109375 127.136719 " fill-opacity="1" fill-rule="nonzero"/><g clip-path="url(#id1)"><path fill="rgb(18.818665%, 16.859436%, 17.649841%)" d="M 67.960938 118.457031 C 63.738281 118.703125 59.769531 120.6875 57.039062 123.914062 C 19.3125 170.050781 22.539062 236.523438 64.734375 278.445312 C 87.320312 301.015625 116.855469 312.425781 146.390625 312.425781 C 172.199219 312.425781 198.011719 303.746094 219.605469 286.132812 C 222.832031 283.40625 224.816406 279.4375 225.066406 275.21875 C 225.316406 271.003906 223.578125 267.035156 220.597656 264.058594 L 79.128906 122.671875 C 76.398438 119.695312 72.179688 118.207031 67.960938 118.457031 Z M 213.898438 271.003906 C 214.890625 271.996094 215.386719 273.234375 215.386719 274.722656 C 215.386719 276.210938 214.640625 277.453125 213.648438 278.445312 C 171.457031 312.921875 110.648438 309.945312 72.179688 271.5 C 33.460938 233.050781 30.480469 172.28125 64.980469 130.113281 C 65.972656 129.121094 67.214844 128.378906 68.703125 128.378906 C 68.703125 128.378906 68.953125 128.378906 68.953125 128.378906 C 70.191406 128.378906 71.433594 128.875 72.425781 129.867188 L 75.40625 132.84375 C 41.402344 170.296875 42.644531 228.585938 78.878906 264.554688 C 97.496094 283.15625 122.066406 292.582031 146.636719 292.582031 C 169.71875 292.582031 192.554688 284.398438 210.671875 268.027344 Z M 181.632812 239.003906 L 193.296875 250.664062 C 191.3125 252.152344 189.078125 253.640625 186.84375 254.878906 L 178.652344 236.027344 Z M 93.027344 150.453125 L 106.925781 164.34375 L 88.808594 156.902344 C 90.046875 154.671875 91.539062 152.4375 93.027344 150.453125 Z M 85.828125 143.261719 C 82.355469 147.476562 79.375 152.4375 77.390625 157.648438 C 76.398438 160.128906 77.640625 163.105469 80.121094 164.097656 L 125.042969 182.699219 L 159.542969 217.179688 C 159.542969 217.179688 159.542969 217.179688 159.542969 217.425781 L 179.648438 263.808594 C 180.390625 265.792969 182.378906 266.785156 184.113281 266.785156 C 184.859375 266.785156 185.355469 266.539062 186.101562 266.289062 C 191.3125 264.058594 196.027344 261.328125 200 257.855469 L 203.472656 261.328125 C 169.71875 291.34375 117.847656 290.101562 85.582031 257.855469 C 53.316406 225.609375 52.074219 173.769531 82.105469 140.035156 Z M 85.828125 143.261719 " fill-opacity="1" fill-rule="nonzero"/></g><path fill="rgb(18.818665%, 16.859436%, 17.649841%)" d="M 69.945312 217.921875 C 70.691406 219.90625 72.675781 220.898438 74.414062 220.898438 C 75.15625 220.898438 75.652344 220.898438 76.398438 220.402344 L 123.058594 201.054688 C 125.042969 200.3125 126.035156 198.574219 126.035156 196.34375 C 126.035156 194.359375 124.796875 192.621094 122.808594 191.878906 L 75.902344 173.273438 C 73.417969 172.28125 70.441406 173.523438 69.449219 176.003906 C 63.988281 189.644531 64.238281 204.527344 69.945312 217.921875 Z M 77.144531 184.4375 L 107.917969 196.589844 L 77.390625 209.242188 C 74.910156 201.304688 74.660156 192.621094 77.144531 184.4375 Z M 77.144531 184.4375 " fill-opacity="1" fill-rule="nonzero"/><path fill="rgb(18.818665%, 16.859436%, 17.649841%)" d="M 77.390625 236.523438 C 83.097656 250.167969 93.523438 260.585938 107.175781 265.792969 C 107.671875 266.042969 108.414062 266.042969 108.910156 266.042969 C 110.898438 266.042969 112.632812 264.800781 113.378906 263.066406 L 132.738281 216.433594 C 133.484375 214.449219 132.988281 212.464844 131.746094 210.976562 C 130.257812 209.488281 128.269531 209.242188 126.285156 209.984375 L 79.871094 230.074219 C 77.390625 231.066406 76.398438 234.042969 77.390625 236.523438 Z M 119.085938 223.875 L 106.429688 254.632812 C 98.984375 250.664062 92.777344 244.710938 88.558594 237.019531 Z M 119.085938 223.875 " fill-opacity="1" fill-rule="nonzero"/><path fill="rgb(18.818665%, 16.859436%, 17.649841%)" d="M 125.539062 273.730469 C 132.242188 276.460938 139.191406 277.949219 146.140625 277.949219 C 153.339844 277.949219 160.535156 276.460938 167.484375 273.484375 C 169.96875 272.492188 171.207031 269.515625 170.214844 267.035156 L 150.855469 220.402344 C 150.113281 218.417969 148.125 217.425781 146.140625 217.425781 C 144.15625 217.425781 142.417969 218.667969 141.671875 220.652344 L 122.808594 267.53125 C 121.816406 270.011719 123.058594 272.738281 125.539062 273.730469 Z M 146.390625 235.53125 L 159.046875 266.042969 C 150.855469 268.523438 142.167969 268.523438 133.980469 266.289062 Z M 146.390625 235.53125 " fill-opacity="1" fill-rule="nonzero"/><g clip-path="url(#id2)"><path fill="rgb(18.818665%, 16.859436%, 17.649841%)" d="M 108.167969 137.554688 C 110.152344 129.121094 113.128906 120.9375 117.351562 113.246094 C 119.335938 109.773438 118.839844 105.308594 115.859375 102.332031 C 109.90625 96.382812 108.910156 86.460938 114.371094 80.011719 C 117.597656 76.042969 122.066406 74.304688 126.78125 74.304688 C 131 74.304688 134.972656 75.792969 138.199219 79.019531 L 138.695312 79.515625 C 140.433594 81.25 142.664062 82.242188 145.148438 82.242188 C 146.636719 82.242188 148.375 81.746094 149.617188 81.003906 C 163.515625 73.066406 179.648438 69.34375 196.523438 69.34375 C 229.78125 69.34375 266.265625 84.226562 295.058594 113 C 338.242188 156.160156 350.40625 216.683594 327.324219 258.105469 C 325.335938 261.824219 325.832031 266.289062 328.8125 269.265625 L 329.308594 269.761719 C 336.257812 276.707031 335.511719 288.613281 326.828125 294.566406 C 324.34375 296.304688 321.367188 297.046875 318.386719 297.046875 C 313.921875 297.046875 309.453125 295.3125 306.226562 291.839844 C 304.488281 290.101562 302.007812 289.109375 299.773438 289.109375 C 298.285156 289.109375 296.546875 289.605469 295.058594 290.351562 C 281.160156 298.039062 265.027344 302.007812 248.148438 302.007812 C 238.964844 302.007812 229.285156 300.769531 219.855469 298.535156 C 216.132812 301.265625 212.410156 303.496094 208.6875 305.730469 C 221.839844 309.699219 234.996094 311.929688 248.398438 311.929688 C 267.011719 311.929688 284.882812 307.464844 299.773438 299.28125 C 304.738281 304.242188 311.6875 306.96875 318.636719 306.96875 C 323.601562 306.96875 328.5625 305.480469 332.78125 302.753906 C 339.234375 298.289062 343.457031 291.34375 344.199219 283.652344 C 344.945312 275.964844 342.214844 268.273438 336.753906 262.816406 L 336.503906 262.570312 C 348.914062 240.246094 352.390625 212.21875 346.183594 183.941406 C 339.980469 155.167969 324.839844 128.128906 302.503906 105.804688 C 272.472656 76.289062 234 59.421875 196.523438 59.421875 C 177.910156 59.421875 160.039062 63.886719 145.148438 72.074219 L 144.898438 71.824219 C 139.9375 66.863281 133.484375 64.136719 126.535156 64.136719 C 118.839844 64.136719 111.640625 67.609375 106.679688 73.5625 C 98.238281 83.730469 98.984375 98.863281 108.414062 108.78125 C 104.941406 115.230469 101.960938 122.175781 99.976562 129.371094 Z M 108.167969 137.554688 " fill-opacity="1" fill-rule="nonzero"/></g></svg>