<svg xmlns="http://www.w3.org/2000/svg" xmlns:xlink="http://www.w3.org/1999/xlink" width="375" zoomAndPan="magnify" viewBox="0 0 375 374.999991" height="374.999991" preserveAspectRatio="xMidYMid meet" version="1.0"><defs><clipPath id="id1"><path d="M 37.5 40.144531 L 334.5 40.144531 L 334.5 337 L 37.5 337 Z M 37.5 40.144531 " clip-rule="nonzero"/></clipPath></defs><rect x="-37.5" width="450" fill="rgb(100%, 100%, 100%)" y="-37.499999" height="449.999989" fill-opacity="1"/><rect x="-37.5" width="450" fill="rgb(100%, 100%, 100%)" y="-37.499999" height="449.999989" fill-opacity="1"/><g clip-path="url(#id1)"><path fill="rgb(18.818665%, 16.859436%, 17.649841%)" d="M 332.5625 52.199219 L 322.695312 42.332031 C 320.839844 40.476562 317.847656 40.390625 315.90625 42.152344 L 256.289062 95.804688 L 284 48.300781 C 284.894531 46.773438 284.898438 44.890625 284.015625 43.359375 C 283.132812 41.824219 281.503906 40.886719 279.738281 40.886719 L 260.003906 40.886719 C 258.292969 40.886719 256.703125 41.773438 255.800781 43.234375 L 177.332031 170.746094 L 55.75 265.519531 C 44.597656 274.816406 39.664062 289.917969 43.1875 304.007812 C 43.453125 305.0625 43.785156 306.144531 44.191406 307.261719 L 38.980469 314.203125 C 37.511719 316.164062 37.703125 318.917969 39.4375 320.652344 L 54.238281 335.453125 C 55.203125 336.414062 56.464844 336.898438 57.726562 336.898438 C 58.992188 336.898438 60.253906 336.414062 61.214844 335.453125 L 66.421875 330.25 C 67.941406 330.855469 69.421875 331.339844 70.886719 331.703125 C 84.980469 335.238281 100.078125 330.292969 109.351562 319.15625 L 199.640625 211.800781 C 200.046875 211.320312 200.351562 210.773438 200.550781 210.1875 L 204.8125 197.394531 L 331.140625 139.101562 C 332.886719 138.292969 334.007812 136.546875 334.007812 134.625 L 334.007812 119.824219 C 334.007812 118.222656 333.230469 116.722656 331.933594 115.800781 C 330.632812 114.878906 328.960938 114.636719 327.453125 115.164062 L 249.441406 142.300781 L 332.5625 59.175781 C 334.488281 57.246094 334.488281 54.128906 332.5625 52.199219 Z M 191.484375 206.175781 L 138.761719 268.867188 L 138.695312 268.777344 L 105.914062 292.621094 C 93.835938 301.402344 78.355469 303.335938 64.492188 297.785156 L 60.824219 306.949219 C 67.246094 309.519531 73.9375 310.777344 80.59375 310.777344 C 91.589844 310.777344 102.46875 307.316406 111.714844 300.597656 L 112.632812 299.933594 L 101.789062 312.828125 C 94.902344 321.097656 83.710938 324.734375 73.277344 322.144531 C 71.488281 321.695312 69.609375 320.972656 67.546875 319.949219 C 65.652344 318.996094 63.355469 319.375 61.855469 320.875 L 57.726562 324.988281 L 49.4375 316.699219 L 53.742188 310.964844 C 54.808594 309.542969 55.023438 307.65625 54.3125 306.03125 C 53.59375 304.378906 53.09375 302.972656 52.753906 301.609375 C 50.144531 291.175781 53.800781 279.980469 61.9375 273.203125 L 184.09375 177.980469 C 184.558594 177.621094 184.953125 177.175781 185.265625 176.671875 L 262.761719 50.753906 L 271.148438 50.753906 L 222.117188 134.800781 C 211.527344 152.960938 202.777344 172.292969 196.125 192.246094 Z M 324.140625 131.464844 L 209.46875 184.375 C 212.128906 177.339844 215.054688 170.40625 218.242188 163.59375 L 324.140625 126.757812 Z M 228.042969 149.738281 L 224.492188 150.972656 C 226.480469 147.203125 228.496094 143.449219 230.644531 139.769531 L 239.988281 123.75 L 319.027344 52.617188 L 322.097656 55.6875 Z M 228.042969 149.738281 " fill-opacity="1" fill-rule="nonzero"/></g></svg>