<svg xmlns="http://www.w3.org/2000/svg" xmlns:xlink="http://www.w3.org/1999/xlink" width="375" zoomAndPan="magnify" viewBox="0 0 375 374.999991" height="374.999991" preserveAspectRatio="xMidYMid meet" version="1.0"><rect x="-37.5" width="450" fill="rgb(100%, 100%, 100%)" y="-37.499999" height="449.999989" fill-opacity="1"/><rect x="-37.5" width="450" fill="rgb(100%, 100%, 100%)" y="-37.499999" height="449.999989" fill-opacity="1"/><path fill="rgb(18.818665%, 16.859436%, 17.649841%)" d="M 89.429688 242.761719 C 88.859375 241.933594 88.316406 241.074219 87.871094 240.214844 L 42.582031 253.351562 L 42.519531 253.382812 L 42.042969 253.507812 C 41.34375 253.699219 40.707031 253.921875 40.101562 254.113281 C 38.957031 254.496094 38.003906 254.78125 37.113281 254.972656 C 36.125 255.542969 35.460938 256.433594 35.332031 257.960938 C 35.140625 260.0625 36.890625 263.910156 39.277344 267.28125 C 41.34375 270.171875 43.761719 272.558594 45.636719 272.8125 C 47.511719 273.035156 49.070312 272.75 50.40625 272.144531 C 50.628906 272.050781 50.882812 271.953125 51.105469 271.828125 C 51.933594 271.191406 52.824219 270.585938 53.652344 269.984375 C 53.015625 270.429688 51.902344 271.191406 54.191406 269.632812 L 54.222656 269.601562 C 59.472656 265.722656 66.117188 260.601562 72.765625 255.480469 C 78.679688 250.933594 84.566406 246.386719 89.429688 242.761719 Z M 94.964844 248.136719 C 94.167969 247.625 93.40625 247.054688 92.707031 246.417969 C 87.746094 250.105469 81.734375 254.75 75.753906 259.359375 C 69.171875 264.417969 62.621094 269.441406 57.53125 273.226562 C 56.355469 274.210938 55.175781 275.136719 53.875 275.867188 C 51.582031 277.710938 49.800781 279.839844 51.074219 282.226562 C 52.09375 284.199219 56.289062 286.839844 60.902344 288.875 C 65.546875 290.941406 70.410156 292.308594 72.859375 291.800781 C 75.914062 291.164062 76.898438 289.222656 77.789062 287.027344 C 78.109375 286.105469 78.457031 285.183594 78.902344 284.261719 C 81.257812 278.761719 84.121094 272.398438 87.015625 266.039062 C 89.84375 259.804688 92.707031 253.542969 94.964844 248.136719 Z M 112.425781 250.710938 C 111.820312 250.839844 111.214844 250.933594 110.613281 251.027344 C 110.039062 251.09375 109.4375 251.15625 108.734375 251.1875 C 108.164062 251.21875 107.496094 251.21875 106.699219 251.21875 C 105.90625 251.21875 105.238281 251.21875 104.664062 251.1875 C 103.964844 251.15625 103.359375 251.09375 102.789062 251.027344 C 101.613281 250.871094 100.46875 250.617188 99.386719 250.265625 C 97.09375 255.671875 94.296875 261.875 91.464844 268.042969 C 88.382812 274.816406 85.328125 281.589844 82.941406 287.285156 C 82.941406 287.316406 82.910156 287.378906 82.910156 287.410156 C 82.75 287.792969 82.65625 288.015625 82.5625 288.238281 L 82.402344 288.617188 C 82.117188 289.605469 81.957031 290.589844 82.050781 291.511719 C 82.179688 293.039062 83.007812 294.566406 84.914062 295.964844 C 86.25 296.949219 88.636719 297.777344 92.039062 298.414062 C 95.632812 299.113281 100.246094 299.558594 105.808594 299.75 C 111.375 299.558594 115.988281 299.113281 119.582031 298.414062 C 122.984375 297.777344 125.371094 296.949219 126.707031 295.964844 C 128.613281 294.566406 129.441406 293.039062 129.566406 291.511719 C 129.632812 290.589844 129.503906 289.605469 129.21875 288.617188 L 129.058594 288.238281 C 128.964844 288.015625 128.867188 287.761719 128.710938 287.410156 C 128.710938 287.378906 128.675781 287.316406 128.675781 287.285156 C 126.292969 281.589844 123.238281 274.816406 120.152344 268.042969 C 117.417969 262.03125 114.683594 256.023438 112.425781 250.710938 Z M 119.996094 247.023438 C 119.074219 247.753906 118.054688 248.421875 117.003906 248.992188 C 119.230469 254.175781 121.902344 260.125 124.605469 266.039062 C 127.5 272.398438 130.394531 278.761719 132.714844 284.261719 C 133.128906 285.183594 133.542969 286.105469 133.828125 287.027344 C 134.71875 289.222656 135.707031 291.164062 138.757812 291.800781 C 141.207031 292.308594 146.074219 290.941406 150.71875 288.875 C 155.328125 286.839844 159.527344 284.199219 160.546875 282.226562 C 161.816406 279.839844 160.035156 277.710938 157.746094 275.867188 C 156.441406 275.136719 155.265625 274.210938 154.089844 273.226562 C 149.03125 269.472656 142.734375 264.578125 136.4375 259.679688 C 130.679688 255.195312 124.925781 250.710938 119.996094 247.023438 Z M 125.210938 240.789062 C 124.703125 241.710938 124.097656 242.632812 123.429688 243.492188 C 128.167969 247.054688 133.828125 251.441406 139.457031 255.832031 C 145.789062 260.761719 152.117188 265.722656 157.398438 269.601562 L 157.429688 269.632812 C 159.75 271.222656 158.574219 270.429688 157.9375 269.984375 C 158.796875 270.554688 159.65625 271.160156 160.511719 271.828125 C 160.734375 271.953125 160.992188 272.050781 161.214844 272.144531 C 162.546875 272.75 164.105469 273.035156 166.015625 272.8125 C 167.828125 272.558594 170.277344 270.078125 172.40625 267.058594 C 174.855469 263.527344 176.667969 259.488281 176.480469 257.359375 C 176.414062 256.339844 176.035156 255.640625 175.460938 255.195312 C 174.1875 254.972656 172.886719 254.558594 171.453125 254.113281 C 170.816406 253.890625 170.148438 253.699219 169.738281 253.574219 C 169.703125 253.542969 169.640625 253.542969 169.609375 253.542969 Z M 85.902344 232.488281 C 69.742188 231.214844 57.246094 229.753906 47.511719 228.511719 L 47.511719 228.546875 L 47.320312 228.511719 C 44.777344 228.164062 42.425781 227.878906 40.230469 227.589844 C 36.125 227.273438 31.929688 227.589844 29.988281 230.101562 C 29.894531 230.230469 29.828125 230.324219 29.765625 230.421875 C 28.460938 232.550781 28.238281 236.464844 28.8125 240.25 C 29.382812 244 30.65625 247.46875 32.375 248.804688 C 32.46875 248.835938 32.53125 248.898438 32.597656 248.929688 C 33.902344 249.757812 34.855469 250.074219 35.714844 250.105469 C 36.953125 249.628906 38.351562 249.3125 39.816406 248.992188 C 40.292969 248.898438 40.769531 248.769531 41.375 248.613281 L 86.1875 235.636719 C 86.125 235.414062 86.089844 235.191406 86.027344 235 C 85.902344 234.269531 85.867188 233.378906 85.902344 232.488281 Z M 178.132812 296.601562 C 179.753906 294.46875 181.3125 292.277344 182.746094 290.019531 C 181.503906 291.257812 180.230469 292.46875 178.929688 293.613281 C 164.710938 306.171875 145.535156 314.855469 125.75 318.542969 C 119.328125 319.753906 112.808594 320.421875 106.351562 320.546875 C 98.910156 320.898438 91.402344 320.132812 84.023438 318.449219 C 64.71875 314.058594 46.367188 303.34375 32.660156 289.667969 C 27.792969 284.800781 23.5 279.554688 19.96875 274.085938 C 23.246094 281.84375 27.667969 289.320312 33.074219 296.15625 C 46.71875 313.519531 66.53125 326.75 89.273438 330.246094 C 91.910156 330.660156 94.550781 330.949219 97.316406 331.171875 C 100.148438 331.359375 103.074219 331.457031 106.253906 331.457031 C 109.4375 331.457031 112.363281 331.359375 115.191406 331.171875 C 117.960938 330.949219 120.566406 330.660156 123.238281 330.246094 C 145.789062 326.78125 164.996094 313.742188 178.132812 296.601562 Z M 191.457031 227.972656 C 189.964844 227.941406 188.121094 227.941406 185.925781 228.035156 C 186.148438 228.289062 186.371094 228.546875 186.5625 228.800781 C 186.75 229.054688 186.941406 229.339844 187.132812 229.625 C 189.011719 232.679688 189.550781 237.511719 188.976562 241.996094 C 188.375 246.578125 186.5625 250.964844 183.824219 253.0625 C 183.636719 253.222656 183.414062 253.351562 183.191406 253.507812 C 182.394531 253.988281 181.664062 254.367188 180.964844 254.65625 C 181.15625 255.320312 181.28125 256.085938 181.34375 256.945312 C 181.632812 260.15625 179.4375 265.5 176.382812 269.855469 C 173.585938 273.863281 169.960938 277.203125 166.621094 277.648438 C 166.269531 277.679688 165.921875 277.710938 165.601562 277.742188 C 166.300781 279.652344 166.238281 281.875 164.871094 284.484375 C 163.3125 287.472656 158.191406 290.910156 152.691406 293.324219 C 147.21875 295.773438 141.207031 297.300781 137.773438 296.601562 C 136.054688 296.21875 134.75 295.679688 133.671875 295.011719 C 132.9375 296.761719 131.636719 298.414062 129.597656 299.910156 C 127.691406 301.308594 124.636719 302.421875 120.472656 303.214844 C 116.65625 303.949219 111.757812 304.425781 105.875 304.617188 C 105.84375 304.648438 105.777344 304.648438 105.746094 304.617188 L 105.683594 304.617188 C 99.832031 304.425781 94.964844 303.949219 91.148438 303.214844 C 86.980469 302.421875 83.929688 301.308594 82.019531 299.910156 C 79.984375 298.414062 78.679688 296.761719 77.949219 295.011719 C 76.867188 295.679688 75.5625 296.21875 73.847656 296.601562 C 70.410156 297.300781 64.402344 295.773438 58.929688 293.324219 C 53.429688 290.910156 48.308594 287.472656 46.75 284.484375 C 45.382812 281.875 45.316406 279.652344 46.019531 277.742188 C 45.699219 277.710938 45.351562 277.679688 45 277.648438 C 41.660156 277.203125 38.066406 273.988281 35.300781 270.109375 C 32.308594 265.914062 30.179688 260.761719 30.464844 257.546875 C 30.59375 256.054688 30.910156 254.84375 31.355469 253.859375 C 30.941406 253.636719 30.496094 253.382812 30.050781 253.097656 C 29.828125 252.96875 29.605469 252.808594 29.417969 252.683594 C 26.648438 250.550781 24.710938 245.84375 23.976562 240.980469 C 23.246094 236.175781 23.691406 231.027344 25.601562 227.878906 C 25.757812 227.621094 25.917969 227.367188 26.109375 227.144531 C 26.425781 226.730469 26.777344 226.320312 27.15625 225.96875 C 24.613281 225.714844 22.578125 225.621094 20.957031 225.683594 C 18.347656 225.777344 16.820312 226.828125 15.898438 228.289062 C 15.421875 229.085938 15.074219 229.976562 14.785156 230.960938 C 13.960938 234.621094 13.640625 238.371094 13.832031 242.125 C 14.53125 257.484375 23.117188 273.226562 36.125 286.203125 C 49.199219 299.273438 66.722656 309.480469 85.105469 313.679688 C 92.070312 315.269531 99.132812 316 106.128906 315.683594 L 106.222656 315.683594 C 112.363281 315.554688 118.628906 314.917969 124.859375 313.742188 C 143.816406 310.210938 162.167969 301.945312 175.683594 289.988281 C 184.558594 282.132812 191.332031 272.71875 194.796875 262 C 196.960938 252.96875 197.566406 243.777344 196.355469 234.9375 C 196.230469 234.140625 196.164062 233.570312 196.101562 233.027344 C 195.785156 230.070312 195.59375 228.164062 191.457031 227.972656 Z M 122.632812 232.839844 C 119.707031 233.027344 116.71875 233.21875 113.570312 233.441406 C 110.613281 233.632812 107.972656 233.695312 105.332031 233.664062 C 102.628906 233.632812 100.023438 233.507812 97.09375 233.316406 C 94.933594 233.15625 92.832031 233.027344 90.765625 232.871094 C 90.765625 233.316406 90.765625 233.730469 90.832031 234.046875 C 91.402344 236.941406 92.992188 239.960938 95.410156 242.285156 C 97.507812 244.285156 100.210938 245.75 103.394531 246.164062 C 103.933594 246.226562 104.441406 246.289062 104.953125 246.289062 C 105.523438 246.355469 106.097656 246.355469 106.699219 246.355469 C 107.304688 246.355469 107.878906 246.355469 108.480469 246.289062 C 108.957031 246.289062 109.46875 246.226562 110.039062 246.164062 C 113.1875 245.75 115.890625 244.285156 117.992188 242.285156 C 120.40625 239.960938 122 236.941406 122.570312 234.046875 C 122.632812 233.730469 122.632812 233.316406 122.632812 232.839844 Z M 164.074219 229.65625 C 154.757812 230.421875 142.863281 231.40625 127.5 232.488281 C 127.53125 233.378906 127.5 234.238281 127.375 235 C 127.277344 235.414062 127.183594 235.828125 127.085938 236.242188 L 170.339844 248.644531 C 171.105469 248.835938 171.867188 248.992188 172.597656 249.121094 C 174.378906 249.4375 176.003906 249.757812 177.335938 250.359375 C 178.386719 250.328125 179.46875 250.042969 180.644531 249.34375 C 180.710938 249.28125 180.804688 249.25 180.867188 249.183594 C 182.523438 247.914062 183.699219 244.765625 184.113281 241.359375 C 184.589844 237.894531 184.269531 234.269531 182.96875 232.171875 C 182.871094 232.011719 182.777344 231.882812 182.679688 231.757812 C 180.199219 228.511719 174.222656 228.957031 169.355469 229.308594 C 168.050781 229.402344 166.8125 229.5 165.570312 229.53125 Z M 259.582031 283.46875 C 260.507812 284.546875 261.394531 285.503906 262.253906 286.425781 C 263.175781 287.378906 264.101562 288.300781 265.023438 289.222656 C 272.78125 296.664062 281.402344 302.390625 290.179688 306.140625 C 298.863281 309.832031 307.703125 311.546875 316.003906 310.976562 C 321.855469 310.59375 327.074219 309.257812 331.652344 307.160156 C 343.800781 301.65625 351.753906 290.6875 356.460938 277.488281 C 361.230469 264.035156 362.628906 248.261719 361.644531 233.410156 C 360.6875 219.546875 357.667969 206.539062 353.34375 197.027344 C 352.898438 196.105469 352.546875 195.3125 352.230469 194.644531 C 343.675781 177.183594 329.296875 161.476562 312.472656 152.285156 C 295.808594 143.1875 276.726562 140.453125 258.503906 148.753906 C 257.867188 149.039062 257.355469 149.261719 257.007812 149.453125 C 250.359375 152.699219 244.253906 157.179688 239.453125 163.828125 C 234.648438 170.472656 231.085938 179.347656 229.59375 191.304688 C 228.542969 199.828125 229.050781 209.71875 230.769531 219.863281 C 232.644531 230.582031 235.824219 241.582031 239.992188 251.695312 C 241.996094 256.53125 245.238281 262.667969 248.898438 268.617188 C 252.332031 274.179688 256.117188 279.554688 259.582031 283.46875 Z M 297.335938 207.492188 C 297.78125 207.808594 298.164062 208.128906 298.542969 208.445312 C 298.894531 208.699219 299.273438 208.953125 300.261719 209.71875 L 301.054688 210.355469 L 301.214844 211.371094 C 301.3125 212.324219 301.4375 213.375 301.597656 214.648438 L 301.660156 215.1875 C 302.457031 214.996094 303.25 214.804688 303.792969 214.679688 L 305.253906 214.328125 L 306.207031 215.507812 C 306.527344 215.886719 306.941406 216.398438 307.480469 217.066406 L 308.246094 214.140625 L 311.105469 214.617188 L 310.949219 214.234375 C 310.691406 213.628906 310.46875 213.027344 310.214844 212.421875 L 309.738281 211.148438 L 310.535156 210.066406 C 311.074219 209.367188 311.488281 208.796875 311.742188 208.414062 C 310.691406 207.621094 309.738281 206.886719 309.039062 206.316406 L 308.246094 205.742188 L 307.925781 203.613281 C 307.800781 202.914062 307.703125 202.246094 307.578125 201.480469 C 307.164062 201.546875 306.589844 201.640625 305.796875 201.769531 L 304.394531 202.023438 L 303.472656 200.910156 C 303.058594 200.433594 302.679688 199.953125 302.296875 199.476562 L 301.4375 201.957031 L 298.574219 201.386719 C 298.957031 202.402344 299.242188 203.199219 299.308594 203.324219 L 299.753906 204.660156 L 298.863281 205.710938 C 298.289062 206.378906 297.78125 206.984375 297.335938 207.492188 Z M 284.964844 233.761719 C 289.957031 227.050781 293.902344 221.769531 297.015625 217.542969 C 296.921875 216.875 296.859375 216.078125 296.730469 215.21875 C 296.667969 214.550781 296.570312 213.789062 296.445312 212.960938 L 295.585938 212.292969 C 294.632812 211.5625 293.679688 210.832031 292.820312 210.195312 C 290.464844 209.878906 282.292969 208.859375 273.800781 207.777344 C 269.886719 207.300781 265.914062 206.792969 251.949219 205.074219 L 251.761719 205.042969 C 247.496094 204.183594 245.207031 206.695312 244.382812 210.863281 C 243.203125 217 244.761719 226.253906 247.847656 234.9375 C 250.902344 243.585938 255.449219 251.539062 260.1875 255.195312 C 263.367188 257.644531 266.738281 257.769531 269.699219 253.921875 L 269.792969 253.988281 C 269.953125 253.730469 270.109375 253.476562 270.300781 253.253906 L 270.332031 253.222656 C 275.453125 246.449219 280.289062 239.992188 284.964844 233.761719 Z M 315.8125 279.078125 L 315.78125 278.984375 C 315.75 278.601562 315.6875 278.25 315.65625 277.871094 L 315.621094 277.871094 C 313.96875 267.882812 312.316406 258.214844 310.726562 248.867188 C 309.199219 240.152344 307.734375 231.628906 306.273438 223.359375 C 305.605469 222.535156 305 221.804688 304.523438 221.230469 C 304.269531 220.847656 303.886719 220.402344 303.410156 219.800781 C 302.964844 219.894531 302.613281 219.992188 302.265625 220.085938 L 300.960938 220.371094 C 296.539062 226.382812 292.4375 231.914062 288.84375 236.6875 C 284.453125 242.632812 279.589844 249.089844 274.246094 256.148438 L 274.214844 256.148438 C 273.738281 256.816406 273.324219 257.515625 272.972656 258.214844 C 271.191406 262 271.765625 266.167969 273.832031 270.207031 C 276.058594 274.53125 280.003906 278.695312 284.710938 282.132812 C 287.253906 284.039062 290.082031 285.691406 292.945312 287.0625 C 298.863281 289.890625 304.683594 291.226562 309.101562 290.496094 C 310.503906 290.273438 311.742188 289.828125 312.730469 289.160156 C 313.683594 288.492188 314.476562 287.632812 315.019531 286.488281 C 315.84375 284.675781 316.195312 282.257812 315.8125 279.078125 Z M 292.691406 199.445312 C 287.730469 194.582031 282.800781 189.714844 277.871094 184.847656 C 275.199219 182.273438 270.175781 177.34375 262.636719 169.964844 C 259.773438 167.515625 256.59375 167.804688 253.699219 169.648438 C 250.648438 171.554688 247.910156 175.023438 246.003906 179.03125 C 244.0625 183.003906 243.046875 187.457031 243.457031 191.304688 C 243.902344 195.4375 246.195312 198.875 251.25 200.019531 C 251.664062 200.050781 252.140625 200.113281 252.585938 200.210938 C 254.019531 200.398438 264.417969 201.703125 274.371094 202.945312 C 278.222656 203.453125 281.972656 203.898438 292.789062 205.265625 C 293.167969 204.851562 293.421875 204.535156 293.582031 204.40625 C 293.804688 204.121094 293.996094 203.898438 294.21875 203.644531 C 293.804688 202.5625 293.644531 202.054688 293.457031 201.546875 C 292.789062 199.730469 292.976562 200.242188 292.691406 199.445312 Z M 298.894531 194.421875 C 297.78125 188.410156 296.730469 182.65625 295.679688 177.121094 C 294.695312 171.777344 293.679688 166.308594 292.597656 160.679688 C 292.34375 159.597656 292.183594 158.867188 291.992188 158.292969 C 291.800781 157.816406 291.675781 157.46875 291.484375 157.148438 C 290.082031 154.382812 281.464844 153.777344 273.769531 154.988281 C 270.746094 155.464844 267.882812 156.257812 265.722656 157.371094 C 263.910156 158.261719 262.699219 159.34375 262.382812 160.488281 C 262.0625 161.792969 262.890625 163.574219 265.46875 165.894531 L 265.4375 165.925781 C 265.59375 166.085938 265.785156 166.214844 265.914062 166.371094 L 266.039062 166.4375 C 268.648438 169.011719 273.769531 174.003906 281.273438 181.382812 C 286.171875 186.214844 291.101562 191.019531 296.03125 195.851562 C 296.476562 195.949219 297.082031 196.105469 297.84375 196.265625 L 298.226562 196.328125 Z M 320.105469 171.652344 C 319.503906 173.6875 318.421875 177.3125 317.339844 181.066406 L 316.449219 184.085938 C 315.558594 187.171875 314.828125 189.585938 314.253906 191.527344 C 313.554688 193.914062 312.824219 196.328125 312.09375 198.808594 C 312.25 199.890625 312.507812 201.355469 312.730469 202.816406 L 312.761719 203.039062 C 314.097656 204.058594 315.113281 204.820312 316.101562 205.582031 L 318.390625 205.902344 C 322.746094 206.507812 326.945312 207.078125 331.015625 207.652344 C 332.574219 207.84375 334.132812 208.066406 335.660156 208.253906 C 338.96875 208.730469 342.148438 209.144531 344.976562 209.527344 C 345.167969 205.933594 340.429688 197.0625 334.769531 188.695312 C 329.394531 180.714844 323.351562 173.433594 320.105469 171.652344 Z M 296.953125 157.53125 C 296.953125 157.5625 297.015625 157.816406 297.144531 158.421875 L 297.082031 158.421875 C 297.175781 158.804688 297.273438 159.214844 297.367188 159.660156 L 297.367188 159.726562 C 298.320312 164.621094 299.339844 170.125 300.484375 176.261719 C 301.5 181.796875 302.582031 187.550781 303.664062 193.53125 L 304.046875 194.007812 C 304.839844 194.929688 305.636719 195.851562 306.367188 196.710938 L 307.066406 196.585938 L 307.671875 196.488281 C 308.339844 194.324219 308.976562 192.195312 309.578125 190.128906 C 310.535156 186.980469 311.265625 184.4375 311.773438 182.71875 L 312.632812 179.730469 C 313.460938 176.960938 314.222656 174.289062 315.558594 169.679688 L 315.589844 169.679688 C 316.164062 167.359375 311.328125 163.351562 306.304688 160.488281 C 304.046875 159.214844 301.789062 158.230469 299.847656 157.753906 C 298.417969 157.371094 297.335938 157.277344 296.953125 157.53125 Z M 352.453125 259.136719 C 351.910156 259.617188 351.371094 259.964844 350.765625 260.21875 C 352.578125 266.484375 350.351562 273.894531 346.25 280.03125 C 343.640625 284.007812 340.175781 287.472656 336.613281 289.730469 C 332.734375 292.148438 328.628906 293.230469 324.941406 292.117188 C 322.90625 291.511719 321.09375 290.304688 319.566406 288.332031 C 319.503906 288.394531 319.472656 288.492188 319.4375 288.585938 C 318.515625 290.527344 317.148438 292.054688 315.496094 293.167969 C 313.875 294.28125 311.964844 294.980469 309.898438 295.328125 C 304.492188 296.21875 297.589844 294.726562 290.816406 291.480469 C 287.699219 289.988281 284.644531 288.171875 281.816406 286.074219 C 276.535156 282.195312 272.082031 277.457031 269.476562 272.433594 C 267.695312 268.933594 266.769531 265.339844 267.027344 261.777344 C 263.8125 262.667969 260.472656 261.554688 257.230469 259.074219 C 251.695312 254.8125 246.574219 246.003906 243.234375 236.558594 C 239.863281 227.144531 238.210938 216.9375 239.578125 209.910156 C 240.277344 206.410156 241.613281 203.613281 243.777344 201.894531 C 240.660156 199.414062 239.039062 195.851562 238.59375 191.8125 C 238.082031 187.074219 239.324219 181.667969 241.582031 176.929688 C 243.902344 172.128906 247.273438 167.929688 251.09375 165.511719 C 253.222656 164.144531 255.480469 163.320312 257.738281 163.222656 C 257.324219 161.855469 257.324219 160.550781 257.644531 159.28125 C 258.3125 156.609375 260.507812 154.542969 263.496094 153.015625 C 266.136719 151.679688 269.476562 150.726562 273.003906 150.152344 C 281.273438 148.882812 290.71875 149.929688 294.566406 153.300781 C 296.222656 152.378906 298.480469 152.347656 301.023438 153.015625 C 303.410156 153.585938 306.082031 154.765625 308.6875 156.226562 C 313.394531 158.898438 317.816406 162.714844 319.597656 166.402344 C 320.011719 166.4375 320.425781 166.53125 320.871094 166.691406 C 325.003906 167.992188 332.542969 176.644531 338.808594 185.960938 C 345.136719 195.3125 350.351562 205.617188 349.78125 210.289062 C 349.75 210.832031 349.621094 211.339844 349.460938 211.785156 C 351.179688 213.40625 352.546875 215.761719 353.660156 218.621094 C 355.601562 223.742188 356.683594 230.675781 356.90625 237.355469 C 357.128906 244.0625 356.492188 250.710938 354.996094 254.910156 C 354.359375 256.722656 353.5 258.183594 352.453125 259.136719 Z M 326.816406 236.335938 C 322.078125 230.484375 317.722656 225.078125 313.585938 219.992188 L 311.804688 219.703125 C 311.742188 219.992188 311.582031 220.53125 311.265625 221.707031 L 311.074219 222.4375 C 312.472656 230.324219 313.9375 238.816406 315.527344 248.039062 C 317.085938 257.039062 318.738281 266.675781 320.457031 277.074219 C 320.519531 277.519531 320.585938 277.933594 320.648438 278.378906 C 321.730469 283.945312 323.828125 286.679688 326.339844 287.441406 C 328.566406 288.109375 331.300781 287.316406 334.003906 285.597656 C 337.027344 283.722656 339.921875 280.765625 342.179688 277.359375 C 346.410156 271 348.382812 263.175781 344.277344 258.152344 L 344.34375 258.089844 C 344.121094 257.867188 343.898438 257.613281 343.675781 257.324219 L 343.640625 257.292969 C 343.101562 256.59375 343.707031 257.359375 342.273438 255.578125 C 340.367188 253.191406 341.671875 254.8125 340.84375 253.765625 C 336.105469 247.878906 331.460938 242.0625 326.816406 236.335938 Z M 317.054688 216.492188 C 321.792969 222.34375 326.339844 228.003906 330.601562 233.25 C 335.246094 239.007812 339.921875 244.828125 344.660156 250.710938 C 346.472656 253 345.167969 251.347656 346.089844 252.523438 C 346.601562 253.160156 346.027344 252.460938 347.425781 254.210938 C 348.09375 255.003906 348.636719 255.449219 349.050781 255.609375 C 349.082031 255.609375 349.113281 255.578125 349.144531 255.511719 C 349.589844 255.132812 349.972656 254.335938 350.386719 253.253906 C 351.6875 249.628906 352.230469 243.652344 352.039062 237.511719 C 351.816406 231.34375 350.828125 224.984375 349.082031 220.339844 C 347.808594 217.03125 346.25 214.742188 344.5 214.394531 L 344.4375 214.394531 L 344.40625 214.359375 C 341.128906 213.949219 338.078125 213.535156 335.023438 213.089844 C 333.496094 212.898438 331.9375 212.675781 330.378906 212.484375 C 326.308594 211.914062 322.109375 211.339844 317.753906 210.769531 L 316.226562 210.546875 L 315.242188 211.878906 L 315.496094 212.484375 C 316.035156 213.917969 316.609375 215.316406 317.054688 216.492188 Z M 189.042969 223.074219 C 189.996094 223.074219 190.855469 223.074219 191.648438 223.105469 C 199.984375 223.425781 200.363281 226.988281 201 232.488281 C 201.0625 233.09375 201.128906 233.695312 201.191406 234.207031 C 201.828125 237.734375 202.175781 241.234375 202.242188 244.636719 C 202.335938 251.25 201.351562 257.546875 199.472656 263.464844 C 197.789062 270.363281 195.242188 277.171875 192 283.691406 C 190.503906 286.933594 188.914062 293.007812 188.597656 298.796875 C 188.34375 304.105469 189.136719 309.097656 192.160156 310.753906 C 192.253906 310.785156 192.382812 310.847656 192.476562 310.878906 C 196.515625 312.757812 201.859375 309.957031 206.851562 307.320312 C 209.238281 306.078125 211.527344 304.871094 213.785156 304.074219 C 220.050781 301.878906 226.632812 305.792969 233.1875 309.703125 C 236.398438 311.613281 239.609375 313.519531 242.535156 314.539062 C 256.433594 319.210938 272.082031 320.644531 287.378906 319.402344 C 294.726562 318.800781 301.980469 317.589844 308.910156 315.808594 C 302.105469 315.300781 295.109375 313.550781 288.238281 310.625 C 278.953125 306.683594 269.824219 300.609375 261.652344 292.722656 C 260.664062 291.765625 259.679688 290.78125 258.726562 289.796875 C 257.707031 288.746094 256.785156 287.726562 255.894531 286.710938 C 252.238281 282.542969 248.292969 276.949219 244.730469 271.160156 C 240.976562 265.054688 237.640625 258.691406 235.507812 253.542969 C 231.183594 243.109375 227.875 231.726562 225.964844 220.65625 C 224.121094 210.066406 223.613281 199.730469 224.726562 190.734375 C 226.253906 178.617188 229.75 169.425781 234.554688 162.300781 C 231.375 164.8125 228.289062 167.546875 225.296875 170.441406 C 209.585938 185.613281 196.578125 205.105469 189.042969 223.074219 Z M 280.636719 138.894531 C 292.5 138.769531 304.109375 142.171875 314.796875 147.992188 C 332.511719 157.691406 347.617188 174.164062 356.585938 192.511719 C 357.0625 193.46875 357.476562 194.292969 357.796875 195.027344 C 362.34375 205.042969 365.554688 218.621094 366.507812 233.0625 C 367.558594 248.515625 366.0625 264.988281 361.039062 279.109375 C 355.980469 293.421875 347.269531 305.347656 333.910156 311.515625 L 333.972656 311.613281 C 320.773438 318.449219 304.492188 322.902344 287.761719 324.269531 C 271.890625 325.574219 255.542969 324.046875 240.976562 319.148438 C 237.542969 318.003906 234.109375 315.9375 230.671875 313.871094 C 225.109375 310.5625 219.511719 307.222656 215.375 308.6875 C 213.46875 309.355469 211.335938 310.5 209.140625 311.644531 C 203.097656 314.792969 196.644531 318.195312 190.441406 315.332031 C 190.21875 315.238281 190.027344 315.140625 189.835938 315.046875 C 184.78125 312.246094 183.378906 305.539062 183.730469 298.542969 C 183.761719 298.0625 183.792969 297.585938 183.824219 297.109375 C 183.253906 297.9375 182.648438 298.765625 182.011719 299.558594 C 168.144531 317.652344 147.855469 331.425781 123.9375 335.082031 C 121.203125 335.527344 118.46875 335.8125 115.542969 336.035156 C 112.710938 336.226562 109.660156 336.355469 106.253906 336.355469 C 102.851562 336.355469 99.800781 336.226562 96.96875 336.035156 C 94.042969 335.8125 91.277344 335.527344 88.539062 335.082031 C 64.496094 331.390625 43.601562 317.464844 29.226562 299.175781 C 14.183594 280.097656 6.230469 256.179688 9.21875 234.175781 C 9.601562 231.28125 10.207031 228.226562 11.765625 225.714844 C 13.515625 222.949219 16.25 220.976562 20.765625 220.785156 C 24.835938 220.625 30.71875 221.421875 39.753906 222.597656 L 40.484375 222.695312 C 42.742188 222.851562 44.9375 223.203125 46.8125 223.488281 C 47.480469 223.582031 48.085938 223.679688 48.179688 223.679688 C 59.820312 225.175781 75.5 226.953125 96.746094 228.386719 C 93.789062 219.417969 92.070312 209.71875 91.6875 199.511719 C 91.308594 189.046875 92.386719 178.042969 95.09375 166.847656 C 100.816406 142.964844 112.933594 121.753906 128.742188 105.375 C 144.992188 88.585938 165.125 76.847656 186.210938 72.589844 C 188.820312 72.078125 187.515625 72.332031 187.960938 72.238281 C 194.289062 70.996094 194.703125 70.902344 197.40625 64.890625 L 197.628906 64.414062 C 201.667969 55.382812 207.359375 42.628906 218.652344 46.828125 C 227.523438 48.894531 229.179688 62.984375 230.164062 71.378906 L 230.164062 71.601562 C 230.195312 71.761719 232.519531 73.160156 236.113281 75.769531 C 249.980469 85.847656 279.429688 107.253906 280.636719 138.894531 Z M 200.746094 100.097656 C 201.03125 99.90625 201.285156 99.746094 201.574219 99.589844 L 201.890625 99.367188 L 202.527344 98.984375 L 202.8125 98.792969 L 204.402344 97.839844 L 204.847656 97.585938 L 202.367188 93.355469 L 200.617188 94.402344 L 200.269531 94.625 L 199.949219 94.816406 L 199.632812 95.039062 L 199.28125 95.230469 L 198.964844 95.421875 L 198.648438 95.644531 L 198.105469 95.960938 Z M 185.480469 111.738281 C 186.242188 111.070312 187.007812 110.402344 187.800781 109.734375 C 188.246094 109.351562 188.691406 109 189.136719 108.621094 L 186.050781 104.835938 L 185.605469 105.183594 L 184.9375 105.726562 C 184.621094 106.011719 184.304688 106.265625 183.984375 106.550781 C 183.667969 106.839844 183.347656 107.09375 183.03125 107.378906 C 182.777344 107.601562 182.523438 107.824219 182.265625 108.046875 Z M 171.804688 125.316406 C 172.058594 125.0625 172.28125 124.808594 172.503906 124.550781 C 173.363281 123.628906 174.222656 122.707031 175.078125 121.785156 L 171.550781 118.414062 C 171.039062 118.921875 170.59375 119.433594 170.117188 119.941406 C 169.449219 120.640625 168.8125 121.339844 168.179688 122.039062 Z M 159.6875 140.390625 C 160.386719 139.402344 161.085938 138.449219 161.816406 137.527344 C 162.070312 137.179688 162.328125 136.828125 162.582031 136.511719 L 158.699219 133.519531 C 157.683594 134.824219 156.695312 136.160156 155.742188 137.496094 Z M 149.160156 156.578125 C 149.953125 155.179688 150.8125 153.808594 151.640625 152.441406 L 147.472656 149.867188 L 146.996094 150.660156 L 146.742188 151.074219 C 146.457031 151.519531 146.203125 151.933594 145.945312 152.347656 C 145.691406 152.792969 145.4375 153.207031 145.183594 153.652344 L 144.929688 154.097656 Z M 140.222656 173.71875 C 140.890625 172.253906 141.589844 170.824219 142.289062 169.363281 L 137.902344 167.199219 C 137.167969 168.695312 136.46875 170.1875 135.769531 171.683594 Z M 133.128906 191.6875 C 133.640625 190.160156 134.179688 188.632812 134.71875 187.140625 L 130.109375 185.453125 C 129.566406 187.011719 129.027344 188.570312 128.488281 190.160156 Z M 128.265625 210.289062 C 128.550781 208.730469 128.898438 207.140625 129.25 205.582031 L 124.480469 204.503906 C 124.097656 206.125 123.746094 207.746094 123.460938 209.398438 Z M 217.664062 91.382812 L 217.984375 91.289062 L 218.269531 91.160156 L 218.554688 91.066406 L 218.875 90.9375 L 219.160156 90.84375 L 219.476562 90.714844 L 220.050781 90.523438 L 220.367188 90.429688 L 220.65625 90.332031 L 220.972656 90.238281 L 221.546875 90.046875 L 221.863281 89.953125 L 222.148438 89.855469 L 220.75 85.183594 L 219.476562 85.5625 L 219.128906 85.660156 L 218.84375 85.785156 L 218.492188 85.882812 L 218.175781 86.007812 L 217.855469 86.105469 L 217.539062 86.230469 L 217.21875 86.328125 L 216.902344 86.453125 L 216.550781 86.582031 L 216.265625 86.675781 L 215.949219 86.804688 Z M 113.253906 228.578125 C 135.164062 227.113281 151.542969 225.777344 163.660156 224.761719 C 172.3125 224.0625 178.769531 223.519531 183.699219 223.265625 C 191.300781 204.183594 205.132812 183.132812 221.925781 166.914062 C 236.589844 152.761719 253.605469 142.265625 270.875 139.785156 C 272.496094 139.5 274.148438 139.277344 275.804688 139.148438 C 274.660156 109.828125 246.511719 89.378906 233.25 79.710938 C 228.605469 76.339844 225.554688 74.113281 225.296875 72.144531 L 225.265625 71.953125 C 224.472656 64.796875 223.074219 52.808594 217.476562 51.566406 C 217.316406 51.535156 217.15625 51.472656 216.996094 51.40625 C 209.9375 48.832031 205.324219 59.105469 202.082031 66.417969 L 201.859375 66.894531 C 198.136719 75.226562 197.566406 75.324219 188.882812 77.039062 C 187.386719 77.328125 188.53125 77.105469 187.164062 77.390625 C 167.066406 81.429688 147.824219 92.65625 132.269531 108.777344 C 117.035156 124.550781 105.332031 145 99.832031 167.960938 C 97.253906 178.742188 96.207031 189.300781 96.585938 199.351562 C 96.9375 209.71875 98.8125 219.546875 101.992188 228.578125 C 101.992188 228.609375 102.023438 228.671875 102.023438 228.703125 C 103.171875 228.734375 104.285156 228.769531 105.363281 228.800781 C 107.8125 228.832031 110.328125 228.769531 113.253906 228.578125 " fill-opacity="1" fill-rule="nonzero"/></svg>