<svg xmlns="http://www.w3.org/2000/svg" xmlns:xlink="http://www.w3.org/1999/xlink" width="375" zoomAndPan="magnify" viewBox="0 0 375 374.999991" height="374.999991" preserveAspectRatio="xMidYMid meet" version="1.0"><defs><clipPath id="id1"><path d="M 28.0625 8.5 L 348.988281 8.5 L 348.988281 368.5 L 28.0625 368.5 Z M 28.0625 8.5 " clip-rule="nonzero"/></clipPath></defs><rect x="-37.5" width="450" fill="rgb(100%, 100%, 100%)" y="-37.499999" height="449.999989" fill-opacity="1"/><rect x="-37.5" width="450" fill="rgb(100%, 100%, 100%)" y="-37.499999" height="449.999989" fill-opacity="1"/><g clip-path="url(#id1)"><path fill="rgb(18.818665%, 16.859436%, 17.649841%)" d="M 267.851562 102.449219 L 267.902344 102.378906 C 267.609375 102.160156 267.355469 101.914062 267.113281 101.640625 C 251.375 97.347656 238.652344 90.585938 229.121094 81.464844 C 198.316406 71.667969 164.832031 76.703125 132.21875 96.074219 C 98.949219 115.835938 76.894531 163.679688 70.113281 230.777344 L 69.980469 232.101562 C 68.792969 243.550781 61.847656 255.035156 54.488281 267.183594 C 50.039062 274.546875 45.441406 282.160156 41.917969 290.070312 C 38.21875 298.382812 34.347656 318.429688 46.175781 334.753906 C 60.046875 353.894531 91.363281 361.585938 136.746094 356.988281 C 255.515625 344.992188 314.136719 243.472656 309.242188 177.890625 C 307.289062 151.644531 291.039062 122.039062 267.855469 102.449219 Z M 226.992188 62.605469 C 234.917969 75.964844 248.53125 85.5625 267.472656 91.171875 C 269.269531 76.734375 269.421875 36.503906 219.613281 21.105469 C 218.453125 29.492188 217.648438 46.855469 226.992188 62.605469 Z M 344.070312 42.90625 C 312.957031 44.632812 286.652344 67.742188 277.003906 96.898438 C 301.144531 118.402344 317.304688 148.84375 319.40625 177.128906 C 322.300781 215.917969 305.988281 260.296875 275.78125 295.824219 C 241.382812 336.292969 192.375 361.609375 137.773438 367.125 C 128.722656 368.039062 120.207031 368.5 112.230469 368.5 C 76.242188 368.5 51.304688 359.191406 37.917969 340.726562 C 25.277344 323.28125 26.300781 300.089844 32.597656 285.929688 C 36.378906 277.4375 41.152344 269.554688 45.769531 261.925781 C 52.515625 250.769531 58.886719 240.226562 59.832031 231.058594 L 59.964844 229.757812 C 67.082031 159.351562 90.890625 108.773438 127.007812 87.3125 C 157.492188 69.214844 188.832031 62.769531 218.554688 68.316406 C 218.425781 68.109375 218.285156 67.902344 218.160156 67.6875 C 203.15625 42.289062 210.382812 14.527344 210.703125 13.359375 L 212.015625 8.503906 L 216.898438 9.753906 C 256.304688 19.855469 270.464844 43.5625 275.398438 61.671875 C 276.417969 65.421875 277.09375 69.078125 277.515625 72.539062 C 292.210938 49.984375 316.515625 34.238281 344.070312 32.710938 C 350.644531 32.347656 350.609375 42.550781 344.070312 42.90625 Z M 102.523438 192.496094 C 104.339844 185.429688 106.480469 178.476562 109.035156 171.625 C 111.332031 165.476562 101.464844 162.8125 99.191406 168.914062 C 96.636719 175.753906 94.496094 182.71875 92.671875 189.785156 C 91.039062 196.152344 100.882812 198.863281 102.523438 192.496094 Z M 118.074219 152.410156 C 114.75 158.078125 105.925781 152.933594 109.261719 147.265625 C 119.109375 130.496094 132.214844 117.8125 149.734375 109.234375 C 166.269531 101.136719 184.304688 96.679688 202.761719 97.640625 C 209.3125 97.984375 209.335938 108.179688 202.761719 107.84375 C 186.101562 106.972656 169.839844 110.722656 154.886719 118.039062 C 138.855469 125.890625 127.097656 137.050781 118.074219 152.410156 " fill-opacity="1" fill-rule="nonzero"/></g></svg>