<svg xmlns="http://www.w3.org/2000/svg" xmlns:xlink="http://www.w3.org/1999/xlink" width="375" zoomAndPan="magnify" viewBox="0 0 375 374.999991" height="374.999991" preserveAspectRatio="xMidYMid meet" version="1.0"><defs><clipPath id="id1"><path d="M 93 109 L 284 109 L 284 364.222656 L 93 364.222656 Z M 93 109 " clip-rule="nonzero"/></clipPath></defs><rect x="-37.5" width="450" fill="rgb(100%, 100%, 100%)" y="-37.499999" height="449.999989" fill-opacity="1"/><rect x="-37.5" width="450" fill="rgb(100%, 100%, 100%)" y="-37.499999" height="449.999989" fill-opacity="1"/><path fill="rgb(18.818665%, 16.859436%, 17.649841%)" d="M 336.273438 182.394531 C 332.480469 178.0625 328.421875 174.277344 324.359375 170.757812 C 321.921875 173.464844 319.214844 175.898438 316.507812 178.335938 C 320.570312 181.582031 324.632812 185.371094 328.421875 189.699219 C 341.144531 204.039062 355.492188 226.226562 349.808594 250.308594 C 347.644531 259.777344 342.5 267.625 335.730469 271.414062 C 330.585938 274.660156 324.632812 275.203125 318.132812 273.578125 C 309.199219 271.144531 298.640625 266.542969 286.730469 259.507812 C 292.414062 251.390625 299.996094 247.332031 311.636719 248.683594 C 314.613281 251.933594 315.96875 254.097656 316.238281 255.449219 C 315.15625 257.882812 316.238281 260.859375 318.675781 262.214844 C 321.113281 263.566406 324.632812 262.753906 325.984375 260.050781 C 334.917969 244.085938 287.542969 216.214844 282.125 213.238281 C 270.484375 206.746094 256.136719 199.710938 244.226562 196.464844 C 243.953125 196.464844 240.707031 195.382812 239.894531 195.382812 C 239.894531 195.652344 241.246094 203.5 241.789062 205.933594 C 241.789062 206.203125 245.847656 224.332031 248.285156 233.261719 C 248.828125 235.15625 249.097656 236.78125 249.640625 238.671875 C 252.347656 232.722656 253.972656 227.308594 253.972656 221.898438 C 253.972656 219.191406 253.429688 214.863281 252.347656 210.535156 C 259.386719 213.238281 267.777344 217.296875 277.253906 222.710938 C 287 228.121094 294.582031 233.53125 300.535156 238.132812 C 275.898438 242.460938 268.589844 269.519531 261.820312 293.871094 C 260.199219 299.28125 258.84375 304.695312 257.21875 310.105469 C 254.78125 329.316406 247.746094 344.738281 236.375 355.832031 C 258.300781 346.902344 265.882812 320.386719 272.378906 296.847656 C 275.359375 286.023438 278.066406 276.554688 281.585938 268.976562 C 294.308594 276.285156 305.679688 281.425781 315.425781 283.859375 C 318.675781 284.671875 321.652344 285.210938 324.902344 285.210938 C 330.859375 285.210938 336.273438 283.589844 341.417969 280.613281 C 350.621094 275.203125 357.660156 264.917969 360.367188 252.742188 C 366.863281 224.0625 350.890625 198.628906 336.273438 182.394531 Z M 336.273438 182.394531 " fill-opacity="1" fill-rule="nonzero"/><g clip-path="url(#id1)"><path fill="rgb(18.818665%, 16.859436%, 17.649841%)" d="M 243.953125 264.109375 C 242.058594 254.636719 239.621094 244.898438 237.457031 235.695312 C 233.125 218.109375 228.523438 200.25 227.710938 182.121094 C 227.441406 175.085938 227.710938 169.40625 228.792969 163.996094 C 229.875 163.996094 230.417969 163.722656 230.6875 163.722656 C 250.453125 161.019531 283.480469 154.253906 283.480469 138.019531 C 283.210938 118.808594 234.207031 109.878906 188.453125 109.878906 C 142.703125 109.878906 93.699219 118.808594 93.699219 138.289062 C 93.699219 154.523438 126.730469 161.289062 146.492188 163.996094 C 147.304688 163.996094 147.847656 164.265625 148.929688 164.265625 C 152.175781 183.476562 146.222656 207.285156 139.722656 233.53125 C 129.164062 277.636719 118.066406 323.09375 151.09375 351.503906 C 160.570312 359.621094 173.566406 364.222656 186.832031 364.222656 C 192.246094 364.222656 197.390625 363.410156 202.804688 362.054688 C 239.621094 352.316406 254.242188 317.683594 243.953125 264.109375 Z M 255.867188 128.820312 C 266.695312 132.335938 272.378906 135.855469 272.378906 138.289062 C 272.378906 140.722656 262.632812 148.300781 232.3125 152.902344 C 232.582031 152.359375 232.855469 152.089844 232.855469 151.546875 C 237.726562 142.617188 249.367188 129.089844 255.867188 128.820312 Z M 104.53125 138.289062 C 104.53125 136.125 109.945312 132.335938 120.230469 129.089844 C 133.769531 134.773438 141.617188 142.890625 145.679688 152.902344 C 114.546875 148.300781 104.53125 140.722656 104.53125 138.289062 Z M 200.097656 351.773438 C 184.933594 355.832031 168.691406 352.585938 158.132812 343.65625 C 130.25 319.304688 140.265625 277.09375 150.28125 236.238281 C 160.839844 192.945312 171.398438 148.300781 135.933594 125.300781 C 141.617188 124.21875 148.117188 123.136719 155.15625 122.597656 C 156.507812 123.949219 161.113281 129.902344 163.820312 141.265625 C 164.359375 143.699219 166.527344 145.324219 168.960938 145.324219 C 169.503906 145.324219 169.773438 145.324219 170.316406 145.054688 C 173.292969 144.242188 174.917969 141.535156 174.378906 138.558594 C 172.480469 130.984375 170.046875 125.300781 167.609375 121.511719 C 172.753906 120.972656 177.625 120.703125 183.039062 120.703125 L 183.039062 153.171875 C 183.039062 156.148438 185.476562 158.582031 188.453125 158.582031 C 191.433594 158.582031 193.871094 156.148438 193.871094 153.171875 L 193.871094 120.703125 C 199.285156 120.703125 204.15625 120.972656 209.03125 121.242188 C 206.59375 125.300781 204.15625 130.714844 202.261719 138.289062 C 201.449219 141.265625 203.34375 144.242188 206.324219 144.785156 C 206.863281 144.785156 207.136719 145.054688 207.675781 145.054688 C 210.113281 145.054688 212.277344 143.429688 212.820312 140.996094 C 215.527344 129.632812 220.128906 123.949219 221.484375 122.324219 C 228.523438 123.136719 235.019531 123.949219 240.433594 125.03125 C 232.3125 131.796875 225.816406 141.535156 223.378906 146.136719 C 217.964844 155.875 215.796875 167.78125 216.609375 182.664062 C 217.421875 201.875 222.296875 220.273438 226.628906 238.402344 C 229.0625 247.601562 231.230469 257.074219 233.125 266.273438 C 239.621094 299.554688 239.351562 341.222656 200.097656 351.773438 Z M 200.097656 351.773438 " fill-opacity="1" fill-rule="nonzero"/></g><path fill="rgb(18.818665%, 16.859436%, 17.649841%)" d="M 183.039062 326.339844 C 183.039062 326.695312 183.003906 327.046875 182.9375 327.394531 C 182.867188 327.746094 182.765625 328.082031 182.628906 328.410156 C 182.492188 328.738281 182.324219 329.050781 182.128906 329.347656 C 181.929688 329.640625 181.707031 329.914062 181.453125 330.167969 C 181.203125 330.417969 180.929688 330.640625 180.632812 330.839844 C 180.339844 331.039062 180.027344 331.203125 179.699219 331.339844 C 179.371094 331.476562 179.03125 331.578125 178.683594 331.648438 C 178.332031 331.71875 177.980469 331.75 177.625 331.75 C 177.269531 331.75 176.917969 331.71875 176.570312 331.648438 C 176.222656 331.578125 175.882812 331.476562 175.554688 331.339844 C 175.226562 331.203125 174.914062 331.039062 174.617188 330.839844 C 174.320312 330.640625 174.046875 330.417969 173.796875 330.167969 C 173.546875 329.914062 173.320312 329.640625 173.125 329.347656 C 172.925781 329.050781 172.757812 328.738281 172.625 328.410156 C 172.488281 328.082031 172.382812 327.746094 172.316406 327.394531 C 172.246094 327.046875 172.210938 326.695312 172.210938 326.339844 C 172.210938 325.984375 172.246094 325.632812 172.316406 325.285156 C 172.382812 324.9375 172.488281 324.597656 172.625 324.269531 C 172.757812 323.941406 172.925781 323.628906 173.125 323.332031 C 173.320312 323.039062 173.546875 322.765625 173.796875 322.515625 C 174.046875 322.261719 174.320312 322.039062 174.617188 321.839844 C 174.914062 321.644531 175.226562 321.476562 175.554688 321.339844 C 175.882812 321.203125 176.222656 321.101562 176.570312 321.03125 C 176.917969 320.964844 177.269531 320.929688 177.625 320.929688 C 177.980469 320.929688 178.332031 320.964844 178.683594 321.03125 C 179.03125 321.101562 179.371094 321.203125 179.699219 321.339844 C 180.027344 321.476562 180.339844 321.644531 180.632812 321.839844 C 180.929688 322.039062 181.203125 322.261719 181.453125 322.515625 C 181.707031 322.765625 181.929688 323.039062 182.128906 323.332031 C 182.324219 323.628906 182.492188 323.941406 182.628906 324.269531 C 182.765625 324.597656 182.867188 324.9375 182.9375 325.285156 C 183.003906 325.632812 183.039062 325.984375 183.039062 326.339844 Z M 183.039062 326.339844 " fill-opacity="1" fill-rule="nonzero"/><path fill="rgb(18.818665%, 16.859436%, 17.649841%)" d="M 86.933594 179.417969 C 100.738281 183.207031 118.066406 185.097656 138.371094 185.371094 C 138.640625 181.582031 138.910156 177.792969 138.910156 174.546875 C 119.417969 174.277344 102.90625 172.382812 89.640625 168.863281 C 78.269531 165.886719 69.875 159.664062 64.460938 150.195312 C 57.964844 138.558594 56.609375 122.597656 61.214844 106.632812 C 72.582031 67.398438 110.757812 47.105469 140.808594 36.824219 C 181.144531 23.292969 217.152344 26 258.300781 46.023438 C 279.417969 56.304688 306.492188 74.972656 315.425781 106.632812 C 320.027344 122.597656 318.945312 138.289062 312.175781 150.195312 C 306.761719 159.664062 298.371094 165.886719 287 168.863281 C 274.003906 172.382812 257.492188 174.277344 237.726562 174.546875 C 237.726562 176.710938 238 184.015625 238 185.371094 C 258.300781 185.097656 275.628906 182.933594 289.707031 179.417969 C 303.785156 175.628906 314.613281 167.511719 321.382812 155.605469 C 329.503906 141.265625 330.859375 122.597656 325.714844 103.925781 C 315.695312 68.210938 286.1875 47.644531 263.175781 36.550781 C 219.316406 15.449219 180.605469 12.472656 137.558594 26.8125 C 105.070312 37.636719 63.378906 60.09375 50.925781 103.925781 C 45.511719 122.597656 47.136719 141.535156 55.257812 155.605469 C 61.753906 167.511719 72.855469 175.898438 86.933594 179.417969 Z M 86.933594 179.417969 " fill-opacity="1" fill-rule="nonzero"/><path fill="rgb(18.818665%, 16.859436%, 17.649841%)" d="M 115.085938 293.871094 C 108.320312 269.519531 100.738281 242.460938 76.914062 237.863281 C 82.871094 233.261719 90.722656 227.851562 100.199219 222.4375 C 109.671875 217.027344 118.066406 212.96875 125.105469 210.261719 C 123.75 214.59375 123.210938 218.921875 123.480469 221.628906 C 123.480469 227.039062 124.832031 232.179688 127.542969 237.863281 C 128.082031 235.425781 128.625 232.992188 129.164062 230.828125 C 131.332031 222.167969 134.582031 207.015625 134.582031 207.015625 C 134.582031 206.746094 136.746094 195.652344 136.746094 195.109375 C 135.933594 195.109375 134.851562 195.382812 132.957031 196.191406 C 120.773438 199.710938 106.425781 206.476562 95.054688 212.96875 C 89.640625 216.214844 42.261719 243.8125 51.195312 259.777344 C 52.277344 261.671875 53.902344 262.484375 55.796875 262.484375 C 59.589844 262.484375 62.296875 258.425781 60.671875 254.90625 C 60.941406 253.554688 62.566406 251.121094 65.273438 248.144531 C 76.914062 246.789062 84.496094 250.847656 90.179688 258.964844 C 78.269531 266 67.710938 270.601562 58.777344 273.035156 C 52.277344 274.660156 46.324219 274.117188 41.179688 270.871094 C 34.410156 266.8125 29.265625 259.238281 27.101562 249.765625 C 21.414062 225.957031 35.492188 203.769531 48.488281 189.15625 C 52.277344 184.828125 56.070312 181.3125 60.402344 177.792969 C 57.421875 175.628906 54.984375 172.921875 52.550781 170.21875 C 48.488281 173.734375 44.429688 177.523438 40.636719 181.851562 C 26.019531 198.628906 10.046875 224.0625 16.8125 252.472656 C 19.792969 264.648438 26.558594 274.929688 35.765625 280.34375 C 43.617188 284.941406 53.089844 286.023438 61.753906 283.589844 C 71.5 280.882812 82.871094 276.011719 95.59375 268.707031 C 98.84375 276.285156 101.820312 285.753906 104.800781 296.578125 C 111.296875 319.847656 118.335938 345.550781 139.453125 355.019531 C 125.644531 340.953125 119.960938 323.90625 118.605469 305.507812 C 117.523438 301.988281 116.441406 297.929688 115.085938 293.871094 Z M 115.085938 293.871094 " fill-opacity="1" fill-rule="nonzero"/><path fill="rgb(18.818665%, 16.859436%, 17.649841%)" d="M 210.65625 288.460938 C 207.675781 289 205.78125 291.707031 206.324219 294.683594 C 208.21875 304.964844 208.21875 317.953125 197.660156 320.929688 C 194.683594 321.742188 193.058594 324.71875 193.871094 327.691406 C 194.683594 330.398438 197.660156 332.292969 200.636719 331.480469 C 214.984375 327.421875 220.941406 313.351562 216.882812 292.789062 C 216.609375 289.8125 213.632812 287.917969 210.65625 288.460938 Z M 210.65625 288.460938 " fill-opacity="1" fill-rule="nonzero"/></svg>