<svg xmlns="http://www.w3.org/2000/svg" width="375" viewBox="0 0 375 375" height="375" version="1.0"><defs><clipPath id="a"><path d="M 105.871094 130 L 284.371094 130 L 284.371094 299 L 105.871094 299 Z M 105.871094 130"/></clipPath><clipPath id="b"><path d="M 191 291 L 207 291 L 207 309.917969 L 191 309.917969 Z M 191 291"/></clipPath><clipPath id="c"><path d="M 172 291 L 191 291 L 191 309.917969 L 172 309.917969 Z M 172 291"/></clipPath><clipPath id="d"><path d="M 204 291 L 218 291 L 218 309.917969 L 204 309.917969 Z M 204 291"/></clipPath></defs><path fill="#FFF" d="M-37.5 -37.5H412.5V412.5H-37.5z"/><path fill="#E1DDD3" d="M-37.5 -37.5H412.5V412.5H-37.5z"/><g clip-path="url(#a)"><path fill="#302B2D" d="M 195.078125 298.351562 C 145.945312 298.351562 105.9375 266.332031 105.9375 226.980469 C 105.9375 203.433594 120.441406 181.4375 144.722656 168.074219 C 157.109375 161.3125 165.746094 149.742188 168.433594 136.382812 L 169.003906 133.613281 C 169.332031 131.902344 170.878906 130.679688 172.589844 130.679688 L 215.367188 130.679688 C 217.078125 130.679688 218.628906 131.902344 218.953125 133.613281 L 219.117188 134.34375 C 221.886719 148.359375 231.011719 160.417969 244.132812 167.34375 C 269.308594 180.539062 284.300781 202.863281 284.300781 226.980469 C 284.222656 266.332031 244.214844 298.351562 195.078125 298.351562 Z M 175.523438 138.09375 C 172.425781 153.492188 162.484375 166.773438 148.226562 174.59375 C 126.308594 186.570312 113.269531 206.203125 113.269531 227.0625 C 113.269531 262.339844 149.9375 291.097656 195.078125 291.097656 C 240.21875 291.097656 276.886719 262.421875 276.886719 227.0625 C 276.886719 205.714844 263.363281 185.835938 240.628906 173.941406 C 226.207031 166.363281 216.019531 153.410156 212.273438 138.175781 L 175.523438 138.175781 Z M 175.523438 138.09375"/></g><path fill="#302B2D" d="M 195.078125 298.351562 C 161.835938 298.351562 134.78125 266.332031 134.78125 226.980469 C 134.78125 203.679688 144.398438 181.84375 160.53125 168.484375 C 168.679688 161.71875 174.382812 150.152344 176.175781 136.625 L 176.5 133.855469 C 176.746094 132.066406 178.292969 130.679688 180.167969 130.679688 L 208.523438 130.679688 C 210.398438 130.679688 211.945312 132.066406 212.191406 133.855469 L 212.273438 134.589844 C 214.144531 148.765625 220.175781 160.90625 228.730469 167.667969 C 245.433594 180.949219 255.457031 203.109375 255.457031 226.980469 C 255.375 266.332031 228.324219 298.351562 195.078125 298.351562 Z M 183.34375 138.09375 C 181.308594 153.246094 174.628906 166.363281 165.175781 174.1875 C 150.671875 186.164062 142.035156 205.878906 142.035156 227.0625 C 142.035156 262.339844 165.828125 291.097656 194.996094 291.097656 C 224.25 291.097656 248.042969 262.421875 248.042969 227.0625 C 248.042969 205.472656 239.078125 185.429688 224.085938 173.535156 C 214.554688 165.957031 207.707031 153.164062 205.265625 138.09375 Z M 183.34375 138.09375"/><path fill="#302B2D" d="M 195.078125 298.351562 C 186.6875 298.351562 179.109375 290.449219 173.8125 276.109375 C 168.921875 262.910156 166.234375 245.476562 166.234375 226.980469 C 166.234375 204.167969 170.472656 182.742188 177.558594 169.542969 C 181.226562 162.699219 183.835938 150.722656 184.648438 136.871094 L 184.8125 134.101562 C 184.894531 132.144531 186.523438 130.679688 188.480469 130.679688 L 201.109375 130.679688 C 203.0625 130.679688 204.695312 132.226562 204.777344 134.101562 L 204.855469 134.835938 C 205.671875 149.253906 208.523438 161.882812 212.351562 168.726562 C 219.6875 181.84375 224.085938 203.597656 224.085938 226.898438 C 224.085938 245.394531 221.398438 262.828125 216.425781 276.027344 C 210.96875 290.449219 203.472656 298.351562 195.078125 298.351562 Z M 191.820312 138.09375 C 190.921875 152.757812 187.988281 165.46875 183.917969 173.125 C 177.398438 185.265625 173.484375 205.472656 173.484375 227.0625 C 173.484375 264.785156 184.8125 291.097656 195.078125 291.097656 C 205.265625 291.097656 216.671875 264.785156 216.671875 227.0625 C 216.671875 204.902344 212.597656 184.53125 205.835938 172.476562 C 201.679688 165.0625 198.746094 152.675781 197.605469 138.175781 L 191.820312 138.175781 Z M 191.820312 138.09375"/><path fill="#302B2D" d="M 197.359375 138.09375 L 180.085938 138.09375 C 178.863281 138.09375 177.804688 137.523438 177.070312 136.546875 C 176.417969 135.566406 176.175781 134.347656 176.582031 133.207031 C 177.640625 130.191406 179.761719 121.148438 176.828125 115.933594 C 175.441406 113.40625 172.101562 108.4375 168.597656 103.140625 C 158.980469 88.640625 152.625 78.863281 152.136719 74.542969 C 151.8125 71.53125 153.035156 69.085938 155.398438 67.78125 C 159.714844 65.417969 166.804688 67.78125 171.125 71.285156 C 175.6875 75.035156 195.078125 94.667969 198.421875 105.832031 C 201.515625 116.097656 200.863281 133.777344 200.863281 134.507812 C 200.945312 136.546875 199.316406 138.09375 197.359375 138.09375 Z M 184.8125 130.761719 L 193.695312 130.761719 C 193.695312 125.222656 193.449219 114.546875 191.492188 107.949219 C 188.96875 99.476562 171.9375 81.308594 166.558594 76.988281 C 164.195312 75.113281 161.101562 74.136719 159.550781 74.136719 C 160.613281 77.886719 169.738281 91.574219 174.707031 99.066406 C 178.457031 104.691406 181.632812 109.496094 183.183594 112.347656 C 186.605469 118.214844 185.871094 125.871094 184.8125 130.761719 Z M 184.8125 130.761719"/><path fill="#302B2D" d="M 202.984375 137.035156 L 197.359375 137.035156 C 196.382812 137.035156 195.40625 136.625 194.753906 135.894531 C 194.101562 135.160156 193.695312 134.265625 193.695312 133.285156 C 193.855469 125.140625 193.367188 114.140625 191.492188 107.949219 C 191.414062 107.785156 191.332031 107.542969 191.332031 107.378906 C 190.921875 106.320312 191.085938 105.097656 191.738281 104.121094 C 196.871094 96.378906 205.996094 87.089844 209.175781 84.402344 C 212.761719 81.46875 218.546875 79.675781 222.210938 81.632812 C 224.332031 82.773438 225.472656 85.054688 225.144531 87.660156 C 224.820312 90.921875 221.070312 96.867188 212.433594 109.984375 C 209.746094 113.976562 207.21875 117.808594 206.160156 119.679688 C 204.042969 123.429688 205.671875 130.191406 206.40625 132.226562 C 206.8125 133.367188 206.648438 134.589844 205.917969 135.566406 C 205.347656 136.464844 204.207031 137.035156 202.984375 137.035156 Z M 198.828125 106.726562 C 199.480469 109.253906 199.96875 112.183594 200.292969 115.117188 C 201.597656 112.917969 203.796875 109.578125 206.324219 105.832031 C 209.664062 100.859375 215.367188 92.222656 217.242188 88.3125 C 216.183594 88.640625 214.878906 89.210938 213.820312 90.105469 C 211.539062 91.980469 203.714844 99.882812 198.828125 106.726562 Z M 211.539062 87.253906 Z M 211.539062 87.253906"/><g clip-path="url(#b)"><path fill="#302B2D" d="M 203.308594 309.917969 C 203.226562 309.917969 203.226562 309.917969 203.144531 309.917969 C 194.671875 309.511719 191.820312 296.882812 191.492188 295.5 C 191.085938 293.542969 192.308594 291.589844 194.347656 291.179688 C 196.300781 290.773438 198.257812 291.996094 198.664062 294.03125 C 199.480469 297.941406 201.761719 302.585938 203.472656 302.667969 C 205.507812 302.75 207.058594 304.460938 206.976562 306.496094 C 206.8125 308.371094 205.265625 309.917969 203.308594 309.917969 Z M 203.308594 309.917969"/></g><g clip-path="url(#c)"><path fill="#302B2D" d="M 176.664062 309.917969 C 174.707031 309.917969 173.078125 308.371094 172.996094 306.417969 C 172.914062 304.378906 174.464844 302.667969 176.5 302.585938 C 178.128906 302.503906 181.554688 297.941406 183.507812 293.300781 C 184.324219 291.425781 186.441406 290.527344 188.316406 291.34375 C 190.191406 292.160156 191.085938 294.277344 190.273438 296.152344 C 190.191406 296.3125 188.96875 299.328125 186.929688 302.425781 C 183.753906 307.230469 180.414062 309.757812 176.910156 309.917969 C 176.746094 309.917969 176.664062 309.917969 176.664062 309.917969 Z M 176.664062 309.917969"/></g><g clip-path="url(#d)"><path fill="#302B2D" d="M 213.738281 309.917969 C 212.761719 309.917969 211.78125 309.511719 211.050781 308.777344 C 207.300781 304.707031 204.9375 296.640625 204.695312 295.742188 C 204.125 293.789062 205.265625 291.75 207.21875 291.179688 C 209.175781 290.609375 211.210938 291.75 211.78125 293.707031 C 212.597656 296.476562 214.554688 301.691406 216.507812 303.726562 C 217.894531 305.195312 217.8125 307.558594 216.347656 308.941406 C 215.53125 309.59375 214.636719 309.917969 213.738281 309.917969 Z M 213.738281 309.917969"/></g></svg>