<svg xmlns="http://www.w3.org/2000/svg" xmlns:xlink="http://www.w3.org/1999/xlink" width="375" zoomAndPan="magnify" viewBox="0 0 375 374.999991" height="374.999991" preserveAspectRatio="xMidYMid meet" version="1.0"><defs><clipPath id="id1"><path d="M 43.726562 8.597656 L 331.726562 8.597656 L 331.726562 367.097656 L 43.726562 367.097656 Z M 43.726562 8.597656 " clip-rule="nonzero"/></clipPath></defs><rect x="-37.5" width="450" fill="rgb(100%, 100%, 100%)" y="-37.499999" height="449.999989" fill-opacity="1"/><rect x="-37.5" width="450" fill="rgb(100%, 100%, 100%)" y="-37.499999" height="449.999989" fill-opacity="1"/><g clip-path="url(#id1)"><path fill="rgb(18.818665%, 16.859436%, 17.649841%)" d="M 265.730469 270.660156 C 272.261719 270.660156 272.273438 260.5 265.730469 260.5 C 259.1875 260.5 259.1875 270.660156 265.730469 270.660156 Z M 111.972656 188.597656 C 118.507812 188.597656 118.519531 178.4375 111.972656 178.4375 C 105.4375 178.4375 105.421875 188.597656 111.972656 188.597656 Z M 94.1875 263.113281 C 100.722656 263.113281 100.734375 252.953125 94.1875 252.953125 C 87.652344 252.953125 87.640625 263.113281 94.1875 263.113281 Z M 238.929688 310.75 C 245.472656 310.75 245.472656 300.585938 238.929688 300.585938 C 232.398438 300.585938 232.386719 310.75 238.929688 310.75 Z M 179.582031 268.277344 C 186.113281 268.277344 186.125 258.117188 179.582031 258.117188 C 173.039062 258.117188 173.027344 268.277344 179.582031 268.277344 Z M 121.726562 320.503906 C 128.257812 320.503906 128.269531 310.34375 121.726562 310.34375 C 115.1875 310.34375 115.175781 320.503906 121.726562 320.503906 Z M 321.273438 223.367188 C 321.273438 162.222656 280 109.777344 222.566406 94.34375 C 216.429688 105.710938 211.824219 117.863281 208.972656 130.144531 C 207.488281 136.523438 197.699219 133.800781 199.167969 127.4375 C 200.058594 123.628906 201.285156 119.878906 202.566406 116.179688 C 205.410156 107.957031 208.859375 99.882812 212.878906 92.117188 C 211.027344 91.765625 209.175781 91.457031 207.296875 91.179688 C 201.808594 101.28125 195.808594 108.421875 193.488281 111.011719 L 193.628906 111.730469 L 192.664062 111.910156 C 192.601562 111.988281 192.523438 112.066406 192.5 112.09375 L 192.359375 111.960938 L 188.632812 112.660156 C 181.25 114.050781 174.214844 114.738281 167.539062 114.738281 C 152.316406 114.738281 138.960938 111.140625 127.628906 103.988281 C 82.820312 126.601562 54.125 172.929688 54.125 223.367188 C 54.125 297.0625 114.046875 357 187.707031 357 C 261.355469 357 321.273438 297.0625 321.273438 223.367188 Z M 130.871094 93.972656 C 144.09375 103.210938 161.078125 106.429688 181.386719 103.570312 C 176.988281 89.335938 160 50.882812 106.128906 57.816406 C 108.570312 66.148438 115.210938 83.039062 130.871094 93.972656 Z M 177.289062 74.222656 C 184.253906 83.152344 188.261719 92.359375 190.429688 98.691406 C 194.234375 93.613281 199.34375 85.820312 202.984375 76.476562 C 210.820312 56.382812 208.777344 38.082031 196.921875 22 C 188.816406 28.1875 170.570312 45.738281 177.289062 74.222656 Z M 331.417969 223.367188 C 331.417969 302.652344 266.945312 367.148438 187.703125 367.148438 C 108.449219 367.148438 43.976562 302.652344 43.976562 223.367188 C 43.976562 170.757812 72.992188 122.308594 118.695312 97.230469 C 99.242188 79.753906 95.058594 55.578125 94.878906 54.460938 L 94.066406 49.515625 L 99 48.640625 C 130.851562 43.011719 152.019531 51.417969 165.683594 62.386719 C 165.578125 28.734375 195.03125 10.960938 195.375 10.757812 L 199.0625 8.59375 L 201.816406 11.851562 C 218.59375 31.644531 222.207031 55.375 212.316406 80.476562 C 212.152344 80.867188 212 81.238281 211.832031 81.621094 C 213.925781 81.976562 216.007812 82.367188 218.074219 82.816406 C 235.191406 54.304688 260.71875 31.363281 294.261719 23.628906 C 300.625 22.15625 303.328125 31.957031 296.960938 33.425781 C 267.859375 40.132812 243.953125 60.148438 227.902344 85.292969 C 288.289062 102.800781 331.417969 158.542969 331.417969 223.363281 Z M 236.359375 133.175781 C 257.230469 147.722656 272.792969 168.539062 280.832031 192.679688 C 282.886719 198.859375 292.699219 196.207031 290.621094 189.980469 C 281.707031 163.1875 264.636719 140.53125 241.480469 124.40625 C 236.105469 120.660156 231.019531 129.457031 236.359375 133.175781 Z M 285.347656 211.824219 C 284.976562 209.082031 287.972656 206.738281 290.429688 206.738281 C 293.421875 206.738281 295.148438 209.097656 295.503906 211.824219 C 296.25 217.394531 296.632812 222.988281 296.65625 228.605469 C 296.695312 235.152344 286.539062 235.152344 286.5 228.605469 C 286.472656 222.988281 286.09375 217.394531 285.347656 211.824219 " fill-opacity="1" fill-rule="nonzero"/></g></svg>