<svg xmlns="http://www.w3.org/2000/svg" xmlns:xlink="http://www.w3.org/1999/xlink" width="375" zoomAndPan="magnify" viewBox="0 0 375 374.999991" height="374.999991" preserveAspectRatio="xMidYMid meet" version="1.0"><defs><clipPath id="id1"><path d="M 82.707031 11.679688 L 296.359375 11.679688 L 296.359375 370.179688 L 82.707031 370.179688 Z M 82.707031 11.679688 " clip-rule="nonzero"/></clipPath></defs><rect x="-37.5" width="450" fill="rgb(100%, 100%, 100%)" y="-37.499999" height="449.999989" fill-opacity="1"/><rect x="-37.5" width="450" fill="rgb(100%, 100%, 100%)" y="-37.499999" height="449.999989" fill-opacity="1"/><g clip-path="url(#id1)"><path fill="rgb(18.818665%, 16.859436%, 17.649841%)" d="M 184.441406 297.996094 C 177.898438 297.996094 177.90625 287.839844 184.441406 287.839844 C 190.988281 287.839844 190.976562 297.996094 184.441406 297.996094 Z M 170.878906 262.363281 C 164.332031 262.363281 164.34375 252.203125 170.878906 252.203125 C 177.421875 252.203125 177.410156 262.363281 170.878906 262.363281 Z M 176.601562 238.011719 C 170.054688 238.011719 170.066406 227.84375 176.601562 227.84375 C 183.148438 227.84375 183.132812 238.011719 176.601562 238.011719 Z M 203.089844 278.074219 C 196.542969 278.074219 196.554688 267.917969 203.089844 267.917969 C 209.628906 267.917969 209.628906 278.074219 203.089844 278.074219 Z M 199.0625 247.117188 C 192.515625 247.117188 192.527344 236.960938 199.0625 236.960938 C 205.605469 236.960938 205.597656 247.117188 199.0625 247.117188 Z M 189.621094 216.910156 C 183.074219 216.910156 183.089844 206.765625 189.621094 206.765625 C 196.167969 206.765625 196.152344 216.910156 189.621094 216.910156 Z M 273.742188 314.394531 C 246.28125 359.730469 183.933594 373.042969 138.820312 346.832031 C 116.460938 333.832031 99.855469 312.070312 94.578125 286.621094 C 89.488281 262.082031 96.5 238.039062 106.335938 215.65625 C 111.460938 204.003906 117.28125 192.664062 123.277344 181.441406 C 126.507812 175.40625 131.5625 168.558594 133.140625 161.785156 C 134.21875 157.195312 133.390625 151.792969 133.390625 147.113281 C 133.390625 141.648438 133.648438 136.410156 135.257812 131.132812 C 139.980469 115.679688 153.097656 104.472656 168.003906 99.234375 C 175.351562 99.851562 182.980469 98.71875 190.351562 96.304688 C 190.519531 96.246094 190.660156 96.167969 190.816406 96.097656 C 215.371094 96.554688 240.945312 110.523438 245.316406 136.667969 C 246.6875 144.871094 244.226562 153.773438 246.089844 161.785156 C 247.421875 167.453125 251.492188 173.097656 254.207031 178.171875 C 265.199219 198.664062 276.304688 219.613281 282.59375 242.121094 C 289.398438 266.46875 286.941406 292.59375 273.742188 314.394531 Z M 144.132812 72.394531 C 155.152344 70.089844 166.394531 71.296875 175.070312 79.542969 C 177.730469 82.070312 179.9375 84.953125 181.777344 88.113281 C 170.710938 90.5625 159.386719 89.566406 150.710938 81.125 C 148.269531 78.75 145.867188 75.4375 144.132812 72.394531 Z M 187.109375 47.671875 C 194.722656 57.484375 194.496094 69.925781 189.347656 80.925781 C 187.4375 77.972656 185.203125 75.222656 182.726562 72.820312 C 179.851562 63.960938 181.332031 54.695312 187.109375 47.671875 Z M 296.101562 260.996094 C 294.367188 235.457031 282.753906 211.261719 271.265625 188.789062 C 266.472656 179.429688 260.84375 170.351562 256.535156 160.75 C 256.28125 160.195312 255.988281 159.152344 255.964844 159.472656 C 255.683594 156.363281 256 153.042969 256 149.933594 C 256 144.570312 256.050781 139.28125 255.101562 133.972656 C 250.09375 106.027344 224.558594 89.339844 198.035156 86.398438 C 202.179688 78.15625 203.953125 69.050781 202.898438 60.335938 C 211.792969 40.613281 226.523438 25.746094 248.445312 21.585938 C 254.859375 20.367188 252.148438 10.578125 245.746094 11.792969 C 224.800781 15.765625 208.871094 28.941406 198.546875 46.609375 C 196.613281 43.0625 194.070312 39.734375 190.851562 36.742188 C 188.691406 34.738281 185.863281 34.945312 183.667969 36.742188 C 175.171875 43.699219 170.867188 54.285156 171.105469 64.878906 C 160.140625 59.949219 147.625 60.335938 135.675781 64.101562 C 133.148438 64.898438 131.257812 67.652344 132.128906 70.347656 C 134.484375 77.640625 139.257812 84.644531 144.996094 89.664062 C 147.511719 91.863281 150.179688 93.644531 152.964844 95.0625 C 144.507812 99.917969 137.171875 106.496094 131.761719 114.855469 C 125.097656 125.160156 123.234375 136.449219 123.234375 148.464844 C 123.234375 151.492188 123.167969 154.523438 123.234375 157.570312 C 123.238281 157.796875 122.996094 159.761719 123.082031 159.914062 C 123.058594 159.964844 123.039062 160.015625 123.019531 160.078125 C 122.527344 161.386719 120.136719 165.796875 118.890625 168.132812 C 113.511719 178.238281 108.066406 188.296875 103.082031 198.605469 C 91.597656 222.371094 81.339844 247.707031 82.851562 274.605469 C 84.390625 302.035156 97.828125 327.828125 118.96875 345.289062 C 162.335938 381.074219 229.515625 378.273438 268.722656 337.425781 C 288.554688 316.78125 298.050781 289.414062 296.109375 260.996094 Z M 218.308594 267.351562 C 214.378906 286.449219 203.085938 302.527344 189.617188 316.1875 C 176.140625 302.527344 164.84375 286.449219 160.917969 267.351562 C 158.003906 253.199219 159.960938 238.511719 165.339844 225.183594 C 170.609375 212.125 179.171875 199.316406 189.617188 189.511719 C 200.058594 199.316406 208.625 212.125 213.898438 225.183594 C 219.273438 238.511719 221.226562 253.199219 218.308594 267.351562 Z M 229.25 244.472656 C 226.765625 223.703125 216.625 204.742188 203.046875 189.105469 C 200.003906 185.59375 196.777344 182.105469 193.207031 179.113281 C 192.074219 178.164062 190.824219 177.820312 189.632812 177.882812 C 188.429688 177.820312 187.167969 178.164062 186.027344 179.113281 C 158.253906 202.421875 141.980469 242.519531 153.167969 277.875 C 159.222656 297.011719 171.699219 313.191406 186.027344 326.925781 C 188.035156 328.855469 191.1875 328.855469 193.207031 326.925781 C 215.734375 305.332031 233.105469 276.746094 229.25 244.472656 " fill-opacity="1" fill-rule="nonzero"/></g></svg>