<svg xmlns="http://www.w3.org/2000/svg" xmlns:xlink="http://www.w3.org/1999/xlink" width="375" zoomAndPan="magnify" viewBox="0 0 375 374.999991" height="374.999991" preserveAspectRatio="xMidYMid meet" version="1.0"><defs><clipPath id="id1"><path d="M 126 103 L 305 103 L 305 366.75 L 126 366.75 Z M 126 103 " clip-rule="nonzero"/></clipPath></defs><rect x="-37.5" width="450" fill="rgb(100%, 100%, 100%)" y="-37.499999" height="449.999989" fill-opacity="1"/><rect x="-37.5" width="450" fill="rgb(100%, 100%, 100%)" y="-37.499999" height="449.999989" fill-opacity="1"/><path fill="rgb(18.818665%, 16.859436%, 17.649841%)" d="M 132.863281 144.367188 C 132.054688 144.367188 131.238281 144.121094 130.53125 143.613281 C 104.21875 124.671875 83.296875 100.921875 78.46875 84.511719 C 78.195312 83.570312 78.269531 82.5625 78.6875 81.675781 C 81.992188 74.640625 91.71875 67.128906 96.070312 66.140625 C 97.785156 65.75 99.550781 66.53125 100.421875 68.066406 C 113.523438 91.128906 127.570312 113.871094 141.601562 124.015625 C 143.390625 125.3125 143.789062 127.8125 142.5 129.605469 C 141.210938 131.398438 138.710938 131.804688 136.921875 130.507812 C 122.359375 119.976562 108.363281 98.015625 95.355469 75.308594 C 92.644531 77.132812 88.714844 80.488281 86.632812 83.78125 C 91.0625 96.03125 107.679688 117.308594 135.191406 137.113281 C 136.984375 138.402344 137.390625 140.902344 136.109375 142.699219 C 135.328125 143.789062 134.101562 144.367188 132.863281 144.367188 Z M 132.863281 144.367188 " fill-opacity="1" fill-rule="evenodd"/><path fill="rgb(18.818665%, 16.859436%, 17.649841%)" d="M 151.0625 119.214844 C 150.394531 119.214844 149.722656 119.050781 149.105469 118.699219 C 129.210938 107.488281 114.210938 83.964844 96.878906 49.691406 C 90.828125 52.179688 81.632812 56.78125 77.105469 61.421875 C 79.925781 65.828125 85.585938 71.734375 88.996094 74.519531 C 90.710938 75.914062 90.96875 78.4375 89.570312 80.152344 C 88.183594 81.867188 85.667969 82.125 83.953125 80.726562 C 79.417969 77.023438 71.421875 68.707031 68.660156 62.628906 C 68.078125 61.347656 68.210938 59.859375 69.007812 58.703125 C 74.867188 50.164062 91.578125 42.945312 97.519531 40.882812 C 99.410156 40.222656 101.496094 41.074219 102.394531 42.871094 C 119.746094 77.546875 134.277344 101.160156 153.019531 111.722656 C 154.949219 112.804688 155.632812 115.246094 154.550781 117.171875 C 153.816406 118.476562 152.460938 119.214844 151.0625 119.214844 Z M 151.0625 119.214844 " fill-opacity="1" fill-rule="evenodd"/><path fill="rgb(18.818665%, 16.859436%, 17.649841%)" d="M 165.976562 112.660156 C 165.34375 112.660156 164.691406 112.507812 164.09375 112.1875 C 138.6875 98.597656 121.945312 60.808594 102.894531 16.695312 C 98.234375 18.53125 89.304688 23.179688 84.585938 30.222656 C 85.476562 31.445312 86.699219 33.046875 87.839844 34.523438 C 90.230469 37.625 93.191406 41.484375 95.605469 45.089844 C 96.828125 46.925781 96.335938 49.414062 94.5 50.644531 C 92.667969 51.871094 90.1875 51.378906 88.964844 49.539062 C 86.703125 46.160156 83.945312 42.574219 81.515625 39.410156 C 78.710938 35.769531 77.097656 33.640625 76.339844 32.183594 C 75.734375 31.023438 75.734375 29.644531 76.339844 28.484375 C 83.007812 15.679688 100.140625 8.425781 104.667969 7.871094 C 106.425781 7.660156 108.113281 8.628906 108.820312 10.257812 L 108.921875 10.492188 C 127.917969 54.519531 144.328125 92.542969 167.855469 105.125 C 169.804688 106.164062 170.542969 108.589844 169.503906 110.539062 C 168.789062 111.890625 167.40625 112.660156 165.976562 112.660156 Z M 165.976562 112.660156 " fill-opacity="1" fill-rule="evenodd"/><path fill="rgb(18.818665%, 16.859436%, 17.649841%)" d="M 147.785156 97.15625 C 145.910156 97.15625 144.230469 95.820312 143.863281 93.902344 C 142.675781 87.648438 141.75 80.207031 140.769531 72.328125 C 138.363281 53.058594 135.425781 29.511719 126.996094 11.367188 C 122.527344 16.335938 117.175781 21.21875 112.988281 25.03125 L 112.464844 25.503906 C 110.835938 26.992188 108.304688 26.871094 106.824219 25.238281 C 105.34375 23.601562 105.457031 21.070312 107.089844 19.582031 L 107.613281 19.109375 C 112.914062 14.273438 120.179688 7.65625 124.589844 1.75 C 125.398438 0.667969 126.695312 0.0664062 128.042969 0.152344 C 129.390625 0.238281 130.605469 1 131.273438 2.179688 C 142.566406 22.214844 145.960938 49.449219 148.691406 71.332031 C 149.65625 79.082031 150.570312 86.398438 151.710938 92.402344 C 152.128906 94.574219 150.703125 96.667969 148.539062 97.082031 C 148.285156 97.132812 148.03125 97.15625 147.785156 97.15625 Z M 147.785156 97.15625 " fill-opacity="1" fill-rule="evenodd"/><path fill="rgb(18.818665%, 16.859436%, 17.649841%)" d="M 170.359375 111.859375 C 168.554688 111.859375 166.914062 110.625 166.472656 108.789062 C 164.492188 100.535156 163.335938 90.882812 162.113281 80.664062 C 159.550781 59.375 156.671875 35.386719 145.679688 11.160156 C 142.984375 12.671875 139.113281 15.066406 135.457031 18.109375 C 133.761719 19.523438 131.246094 19.292969 129.839844 17.589844 C 128.425781 15.890625 128.660156 13.367188 130.359375 11.953125 C 137.679688 5.847656 145.519531 2.199219 145.851562 2.046875 C 147.816406 1.136719 150.15625 1.972656 151.113281 3.925781 C 164.152344 30.628906 167.414062 57.839844 170.042969 79.707031 C 171.242188 89.6875 172.375 99.117188 174.246094 106.917969 C 174.761719 109.066406 173.441406 111.226562 171.292969 111.746094 C 170.984375 111.820312 170.667969 111.859375 170.359375 111.859375 Z M 170.359375 111.859375 " fill-opacity="1" fill-rule="evenodd"/><g clip-path="url(#id1)"><path fill="rgb(18.818665%, 16.859436%, 17.649841%)" d="M 153.976562 113.359375 L 153.984375 113.359375 Z M 177.019531 111.390625 C 169.460938 111.390625 162.207031 113.222656 155.972656 116.828125 C 145.503906 122.886719 137.914062 133.957031 135.160156 147.199219 C 132.222656 161.328125 135.375 175.992188 143.8125 187.4375 L 232.890625 308.273438 C 247.246094 327.746094 260.546875 335.363281 271.238281 341.476562 C 278.769531 345.796875 284.726562 349.207031 288.28125 355.363281 C 289.140625 356.855469 290.453125 358.015625 291.886719 358.53125 C 292.585938 358.792969 293.941406 359.117188 295.15625 358.417969 C 297.238281 357.207031 297.601562 353.78125 295.953125 350.925781 C 292.308594 344.597656 292.351562 337.300781 292.394531 328.847656 C 292.460938 316.59375 292.535156 301.347656 282.957031 279.3125 L 223.070312 141.582031 C 217.398438 128.535156 206.304688 118.464844 192.628906 113.953125 C 187.4375 112.238281 182.152344 111.390625 177.019531 111.390625 Z M 293.484375 366.839844 C 292.042969 366.839844 290.578125 366.582031 289.148438 366.054688 C 285.933594 364.878906 283.164062 362.503906 281.359375 359.367188 C 278.886719 355.078125 274.019531 352.296875 267.269531 348.433594 C 256.535156 342.277344 241.820312 333.859375 226.46875 313.03125 L 137.390625 192.195312 C 127.601562 178.917969 123.941406 161.921875 127.335938 145.566406 C 130.558594 130.09375 139.535156 117.09375 151.976562 109.894531 C 164.417969 102.695312 180.148438 101.40625 195.125 106.347656 C 210.964844 111.574219 223.8125 123.25 230.394531 138.382812 L 290.28125 276.113281 C 300.53125 299.699219 300.449219 316.570312 300.382812 328.890625 C 300.339844 336.773438 300.316406 342.46875 302.878906 346.925781 C 306.75 353.644531 305.074219 361.917969 299.148438 365.347656 C 297.4375 366.339844 295.488281 366.839844 293.484375 366.839844 Z M 293.484375 366.839844 " fill-opacity="1" fill-rule="evenodd"/></g><path fill="rgb(18.818665%, 16.859436%, 17.649841%)" d="M 145.703125 200.734375 C 144.324219 200.734375 142.980469 200.015625 142.242188 198.730469 C 141.132812 196.816406 141.792969 194.367188 143.707031 193.261719 L 168.679688 178.8125 C 170.59375 177.707031 173.03125 178.363281 174.140625 180.277344 C 175.238281 182.191406 174.589844 184.640625 172.675781 185.742188 L 147.699219 200.195312 C 147.066406 200.558594 146.378906 200.734375 145.703125 200.734375 Z M 145.703125 200.734375 " fill-opacity="1" fill-rule="evenodd"/><path fill="rgb(18.818665%, 16.859436%, 17.649841%)" d="M 180.296875 247.664062 C 178.917969 247.664062 177.574219 246.945312 176.835938 245.660156 C 175.738281 243.746094 176.386719 241.296875 178.300781 240.191406 L 200.503906 227.34375 C 202.417969 226.238281 204.855469 226.894531 205.960938 228.808594 C 207.0625 230.722656 206.410156 233.171875 204.496094 234.277344 L 182.296875 247.125 C 181.664062 247.488281 180.980469 247.664062 180.296875 247.664062 Z M 180.296875 247.664062 " fill-opacity="1" fill-rule="evenodd"/><path fill="rgb(18.818665%, 16.859436%, 17.649841%)" d="M 220.5 302.195312 C 219.117188 302.195312 217.777344 301.476562 217.039062 300.191406 C 215.929688 298.277344 216.589844 295.828125 218.5 294.722656 L 237.984375 283.449219 C 239.890625 282.347656 242.335938 283.003906 243.441406 284.917969 C 244.542969 286.832031 243.882812 289.28125 241.976562 290.386719 L 222.496094 301.65625 C 221.863281 302.019531 221.171875 302.195312 220.5 302.195312 Z M 220.5 302.195312 " fill-opacity="1" fill-rule="evenodd"/><path fill="rgb(18.818665%, 16.859436%, 17.649841%)" d="M 219.609375 177.273438 C 218.230469 177.273438 216.878906 176.554688 216.140625 175.269531 C 215.042969 173.355469 215.699219 170.90625 217.605469 169.800781 L 234.863281 159.816406 C 236.777344 158.710938 239.214844 159.367188 240.324219 161.28125 C 241.421875 163.195312 240.773438 165.644531 238.859375 166.75 L 221.597656 176.734375 C 220.964844 177.101562 220.285156 177.273438 219.609375 177.273438 Z M 219.609375 177.273438 " fill-opacity="1" fill-rule="evenodd"/><path fill="rgb(18.818665%, 16.859436%, 17.649841%)" d="M 244.949219 241.390625 C 243.566406 241.390625 242.226562 240.671875 241.488281 239.386719 C 240.382812 237.472656 241.039062 235.023438 242.945312 233.917969 L 262.234375 222.761719 C 264.140625 221.65625 266.585938 222.3125 267.683594 224.226562 C 268.792969 226.140625 268.132812 228.589844 266.226562 229.695312 L 246.9375 240.851562 C 246.316406 241.214844 245.625 241.390625 244.949219 241.390625 Z M 244.949219 241.390625 " fill-opacity="1" fill-rule="evenodd"/><path fill="rgb(18.818665%, 16.859436%, 17.649841%)" d="M 275.175781 313.984375 C 273.796875 313.984375 272.453125 313.269531 271.714844 311.984375 C 270.605469 310.070312 271.265625 307.621094 273.179688 306.515625 L 291.761719 295.761719 C 293.675781 294.65625 296.113281 295.3125 297.21875 297.226562 C 298.320312 299.140625 297.671875 301.589844 295.757812 302.695312 L 277.171875 313.449219 C 276.539062 313.8125 275.859375 313.984375 275.175781 313.984375 Z M 275.175781 313.984375 " fill-opacity="1" fill-rule="evenodd"/></svg>