<svg xmlns="http://www.w3.org/2000/svg" xmlns:xlink="http://www.w3.org/1999/xlink" width="375" zoomAndPan="magnify" viewBox="0 0 375 374.999991" height="374.999991" preserveAspectRatio="xMidYMid meet" version="1.0"><defs><clipPath id="id1"><path d="M 37.5 4.003906 L 330.710938 4.003906 L 330.710938 362.785156 L 37.5 362.785156 Z M 37.5 4.003906 " clip-rule="nonzero"/></clipPath></defs><rect x="-37.5" width="450" fill="rgb(100%, 100%, 100%)" y="-37.499999" height="449.999989" fill-opacity="1"/><rect x="-37.5" width="450" fill="rgb(100%, 100%, 100%)" y="-37.499999" height="449.999989" fill-opacity="1"/><g clip-path="url(#id1)"><path fill="rgb(18.818665%, 16.859436%, 17.649841%)" d="M 320.558594 205.261719 C 320.558594 147.914062 281.617188 101.269531 233.738281 101.269531 C 219.109375 101.269531 204.832031 105.660156 192.105469 114.015625 C 193.488281 115.453125 194.820312 116.9375 196.128906 118.4375 C 209.375 133.636719 219.222656 151.925781 224.210938 171.492188 C 232.203125 202.773438 226.8125 234.792969 214.019531 264.019531 C 211.40625 270.007812 202.652344 264.816406 205.253906 258.878906 C 212.839844 241.53125 217.726562 222.886719 217.929688 203.867188 C 218.257812 173.597656 205.925781 140.046875 182.996094 119.230469 C 182.425781 118.71875 178.847656 115.898438 178.453125 115.617188 C 165.140625 106.226562 150.011719 101.269531 134.472656 101.269531 C 86.601562 101.269531 47.652344 147.914062 47.652344 205.261719 C 47.652344 263.816406 114.144531 348.980469 179.609375 352.597656 C 181.003906 352.671875 188.285156 352.632812 190.253906 352.496094 C 220.824219 350.199219 253.714844 330.363281 280.5 298.089844 C 305.21875 268.332031 320.558594 232.75 320.558594 205.261719 Z M 147.019531 92.074219 C 158.722656 93.855469 170.019531 98.121094 180.402344 104.707031 C 181.175781 97.0625 181.441406 84.742188 177.785156 71.578125 C 170.289062 44.519531 150.21875 26.011719 118.117188 16.507812 C 115.871094 30.046875 113.296875 67.621094 147.019531 92.074219 Z M 330.710938 205.261719 C 330.710938 235.019531 314.46875 273.066406 288.316406 304.578125 C 259.792969 338.953125 224.3125 360.109375 191.015625 362.609375 C 189.453125 362.734375 185.738281 362.785156 182.78125 362.785156 C 181.117188 362.785156 179.683594 362.773438 179.050781 362.734375 C 145.441406 360.871094 109.539062 339.957031 80.535156 305.351562 C 53.992188 273.664062 37.5 235.3125 37.5 205.261719 C 37.5 143.890625 78.855469 93.695312 130.484375 91.222656 C 117.585938 78.164062 109.703125 61.449219 107.515625 42.101562 C 105.425781 23.671875 109.179688 9.449219 109.34375 8.851562 L 110.648438 4.011719 L 115.503906 5.257812 C 164.15625 17.742188 181.613281 46.96875 187.691406 69.285156 C 189.632812 76.441406 190.558594 83.304688 190.886719 89.453125 C 212.90625 51.972656 247.191406 16.9375 292.554688 14.484375 C 299.101562 14.128906 299.050781 24.296875 292.554688 24.648438 C 278.089844 25.429688 264.386719 30.136719 252.0625 37.667969 C 232.636719 49.546875 217.179688 67.34375 204.847656 86.273438 C 201.992188 90.660156 199.300781 95.152344 196.75 99.730469 C 208.398438 94.066406 220.9375 91.117188 233.738281 91.117188 C 287.214844 91.117188 330.710938 142.316406 330.710938 205.261719 Z M 294.382812 206.910156 C 294.355469 203.039062 294.117188 199.195312 293.644531 195.351562 C 293.328125 192.632812 291.550781 190.273438 288.570312 190.273438 C 286.082031 190.273438 283.152344 192.609375 283.496094 195.351562 C 283.953125 199.195312 284.191406 203.039062 284.21875 206.910156 C 284.242188 213.445312 294.40625 213.460938 294.382812 206.910156 Z M 286.046875 168.015625 C 288.785156 173.917969 280.019531 179.082031 277.265625 173.15625 C 267.378906 151.886719 248.636719 135.25 224.3125 134.867188 C 217.765625 134.765625 217.765625 124.597656 224.3125 124.695312 C 252.050781 125.136719 274.652344 143.496094 286.046875 168.015625 " fill-opacity="1" fill-rule="nonzero"/></g></svg>