<svg xmlns="http://www.w3.org/2000/svg" xmlns:xlink="http://www.w3.org/1999/xlink" width="375" zoomAndPan="magnify" viewBox="0 0 375 374.999991" height="374.999991" preserveAspectRatio="xMidYMid meet" version="1.0"><defs><clipPath id="id1"><path d="M 106.363281 108 L 268.363281 108 L 268.363281 355 L 106.363281 355 Z M 106.363281 108 " clip-rule="nonzero"/></clipPath><clipPath id="id2"><path d="M 175 19.773438 L 235 19.773438 L 235 89 L 175 89 Z M 175 19.773438 " clip-rule="nonzero"/></clipPath></defs><rect x="-37.5" width="450" fill="rgb(100%, 100%, 100%)" y="-37.499999" height="449.999989" fill-opacity="1"/><rect x="-37.5" width="450" fill="rgb(100%, 100%, 100%)" y="-37.499999" height="449.999989" fill-opacity="1"/><path stroke-linecap="round" transform="matrix(0.66526, 0, 0, 0.665971, 17.02173, 16.975029)" fill="none" stroke-linejoin="round" d="M 305.075855 347.05762 C 322.203786 361.398749 332.414781 386.027951 327.693884 409.853581 C 325.491973 420.939362 320.289591 434.38307 312.938145 447.445522 " stroke="rgb(0%, 0%, 0%)" stroke-width="13.066" stroke-opacity="1" stroke-miterlimit="10"/><g clip-path="url(#id1)"><path stroke-linecap="round" transform="matrix(0.66526, 0, 0, 0.665971, 17.02173, 16.975029)" fill="none" stroke-linejoin="round" d="M 255.993793 144.06466 C 232.031131 144.06466 204.563026 164.271281 206.600528 235.601534 C 208.925746 316.721293 141.083403 313.577389 141.083403 403.184516 C 141.083403 492.791643 221.080294 500.991601 255.993793 500.991601 C 290.907292 500.991601 370.915927 492.791643 370.915927 403.184516 C 370.915927 313.583255 303.061841 316.721293 305.39293 235.601534 C 307.436303 164.271281 279.968199 144.06466 255.993793 144.06466 Z M 255.993793 144.06466 " stroke="rgb(0%, 0%, 0%)" stroke-width="13.066" stroke-opacity="1" stroke-miterlimit="10"/></g><g clip-path="url(#id2)"><path stroke-linecap="round" transform="matrix(0.66526, 0, 0, 0.665971, 17.02173, 16.975029)" fill="none" stroke-linejoin="round" d="M 245.58903 78.828654 C 242.612047 69.590503 244.361832 58.891845 252.711478 49.06128 C 273.016032 25.153533 320.037106 11.005966 320.037106 11.005966 C 320.037106 11.005966 319.461673 60.117733 302.139974 86.230905 C 294.847245 97.234569 284.753685 101.844846 274.830407 101.299355 " stroke="rgb(0%, 0%, 0%)" stroke-width="13.066" stroke-opacity="1" stroke-miterlimit="10"/></g><path stroke-linecap="round" transform="matrix(0.66526, 0, 0, 0.665971, 17.02173, 16.975029)" fill="none" stroke-linejoin="round" d="M 255.623872 159.297344 C 255.623872 113.693141 229.271402 76.799194 196.718352 76.799194 " stroke="rgb(0%, 0%, 0%)" stroke-width="13.066" stroke-opacity="1" stroke-miterlimit="10"/><path stroke-linecap="round" transform="matrix(0.66526, 0, 0, 0.665971, 17.02173, 16.975029)" fill="none" stroke-linejoin="round" d="M 244.050628 110.29702 L 270.256304 76.799194 " stroke="rgb(0%, 0%, 0%)" stroke-width="13.066" stroke-opacity="1" stroke-miterlimit="10"/></svg>