<svg xmlns="http://www.w3.org/2000/svg" xmlns:xlink="http://www.w3.org/1999/xlink" width="375" zoomAndPan="magnify" viewBox="0 0 375 374.999991" height="374.999991" preserveAspectRatio="xMidYMid meet" version="1.0"><defs><clipPath id="id1"><path d="M 57.664062 5.601562 L 316.125 5.601562 L 316.125 367.839844 L 57.664062 367.839844 Z M 57.664062 5.601562 " clip-rule="nonzero"/></clipPath></defs><rect x="-37.5" width="450" fill="rgb(100%, 100%, 100%)" y="-37.499999" height="449.999989" fill-opacity="1"/><rect x="-37.5" width="450" fill="rgb(100%, 100%, 100%)" y="-37.499999" height="449.999989" fill-opacity="1"/><g clip-path="url(#id1)"><path fill="rgb(18.818665%, 16.859436%, 17.649841%)" d="M 209.484375 169.292969 C 203.203125 171.394531 200.542969 161.496094 206.761719 159.410156 C 217.585938 155.777344 233.066406 150.375 242.304688 160.207031 C 247.578125 165.824219 248.5625 174.324219 248.589844 181.671875 C 248.601562 192.371094 246.898438 203.175781 245.441406 213.75 C 244.546875 220.277344 234.679688 217.488281 235.5625 211.023438 C 236.714844 202.636719 237.828125 194.175781 238.222656 185.703125 C 238.492188 180.226562 239.070312 171.941406 235.0625 167.464844 C 229.332031 161.050781 215.894531 167.144531 209.484375 169.292969 Z M 233.402344 232.539062 C 233.667969 229.671875 235.523438 227.546875 238.519531 227.40625 C 241.101562 227.292969 243.894531 229.851562 243.636719 232.539062 C 243.382812 235.34375 243.113281 238.171875 242.957031 240.988281 C 242.816406 243.867188 240.734375 245.992188 237.839844 246.121094 C 235.167969 246.25 232.570312 243.675781 232.710938 240.988281 C 232.863281 238.171875 233.132812 235.34375 233.402344 232.539062 Z M 300.78125 183.988281 C 296.0625 200.21875 289.5625 229.109375 285.351562 274.5 C 282.371094 306.71875 271.878906 325.714844 255.472656 329.273438 C 257.429688 325.292969 258.964844 321.078125 260.015625 316.664062 C 262.882812 304.671875 262.125 295.761719 261.167969 284.472656 C 259.757812 267.957031 257.839844 245.351562 265.761719 196.929688 C 270.074219 170.546875 265.800781 155.710938 265.621094 155.097656 L 265.324219 154.214844 C 260.871094 138.96875 247.066406 128.335938 231.226562 127.875 C 230.546875 125.777344 229.996094 122.714844 231.007812 119.75 C 232.183594 116.316406 235.34375 113.492188 240.414062 111.367188 C 259.3125 103.414062 280.117188 108.660156 296.0625 125.390625 C 312.746094 142.886719 303.738281 173.824219 300.78125 183.988281 Z M 188.757812 357.597656 L 185.035156 357.597656 C 155.027344 357.597656 129.816406 339.78125 123.722656 314.28125 C 121.238281 303.902344 121.902344 296.105469 122.816406 285.339844 C 124.265625 268.292969 126.253906 244.945312 118.128906 195.277344 C 114.949219 175.859375 116.839844 163.40625 117.660156 159.410156 L 118.078125 157.824219 C 121.117188 146.203125 131.625 138.074219 143.625 138.074219 C 144.207031 138.074219 144.769531 138.113281 145.335938 138.164062 L 146.21875 138.214844 C 147.285156 138.316406 148.359375 138.496094 149.492188 138.75 L 149.625 138.777344 C 152.832031 139.417969 157.730469 140.699219 162.855469 143.140625 C 173.742188 148.328125 186.363281 148.390625 186.902344 148.390625 C 187.425781 148.390625 200.042969 148.328125 210.929688 143.140625 C 216.0625 140.699219 220.949219 139.417969 224.160156 138.777344 L 224.289062 138.75 C 225.289062 138.519531 226.246094 138.355469 227.246094 138.238281 L 228.449219 138.164062 C 229.011719 138.113281 229.585938 138.074219 230.164062 138.074219 C 242.152344 138.074219 252.65625 146.203125 255.703125 157.824219 L 256.125 159.386719 C 256.945312 163.390625 258.839844 175.847656 255.652344 195.277344 C 247.527344 244.945312 249.511719 268.292969 250.96875 285.339844 C 251.890625 296.105469 252.542969 303.902344 250.058594 314.28125 C 243.96875 339.78125 218.761719 357.597656 188.757812 357.597656 Z M 88.429688 274.5 C 84.230469 229.097656 77.71875 200.21875 73 183.988281 C 70.039062 173.824219 61.042969 142.886719 77.71875 125.390625 C 93.671875 108.660156 114.480469 103.414062 133.378906 111.367188 C 138.4375 113.492188 141.597656 116.316406 142.769531 119.75 C 143.785156 122.714844 143.234375 125.777344 142.566406 127.875 C 127 128.324219 113.414062 138.585938 108.707031 153.382812 L 108.171875 155.097656 C 107.988281 155.710938 103.707031 170.546875 108.027344 196.929688 C 115.949219 245.351562 114.023438 267.957031 112.621094 284.472656 C 111.65625 295.761719 110.898438 304.671875 113.765625 316.664062 C 114.820312 321.078125 116.359375 325.292969 118.3125 329.285156 C 101.910156 325.726562 91.414062 306.71875 88.429688 274.5 Z M 148.167969 96.945312 C 153.019531 95.707031 158.402344 96.585938 164.21875 99.554688 C 160.980469 105.640625 156.117188 110.875 150.054688 111.652344 C 147.570312 107.960938 143.789062 104.933594 138.78125 102.589844 C 140.976562 100.367188 144.113281 97.980469 148.167969 96.945312 Z M 156.535156 25.894531 C 141.484375 27.949219 139.214844 44.90625 143.234375 56.988281 C 141.023438 57.210938 139.046875 57.414062 136.921875 57.394531 C 132.488281 48.054688 130.484375 35.476562 136.703125 26.835938 C 145.949219 13.988281 165.167969 12.1875 175.59375 23.847656 C 192.863281 43.171875 191.660156 71.480469 196.34375 95.3125 C 198.582031 106.699219 208.066406 119.386719 220.285156 121.691406 C 220.105469 124.371094 220.425781 126.867188 220.9375 128.992188 C 217.1875 129.8125 211.992188 131.292969 206.53125 133.898438 C 197.777344 138.070312 186.992188 138.144531 186.902344 138.144531 C 186.785156 138.144531 176.078125 138.09375 167.257812 133.898438 C 161.800781 131.285156 156.59375 129.8125 152.851562 128.992188 C 153.382812 126.757812 153.707031 124.117188 153.460938 121.28125 C 157.5 120.167969 161.480469 117.933594 164.363281 115.726562 C 172.960938 109.152344 176.78125 99 178.554688 88.640625 C 180.625 76.585938 181.390625 64.101562 179.382812 51.988281 C 177.507812 40.691406 170.765625 23.953125 156.535156 25.894531 Z M 144.703125 56.628906 C 144.824219 56.414062 144.851562 56.496094 144.703125 56.628906 Z M 225.53125 96.921875 C 229.625 97.945312 232.785156 100.351562 235 102.589844 C 229.996094 104.9375 226.210938 107.96875 223.726562 111.660156 C 217.457031 110.980469 211.917969 105.941406 208.769531 99.980469 C 214.859375 96.695312 220.476562 95.660156 225.53125 96.921875 Z M 303.46875 118.320312 C 286.914062 100.949219 265.761719 94.070312 245.390625 98.976562 C 242.472656 95.128906 236.777344 89.234375 228.152344 87.027344 C 221.050781 85.207031 213.542969 86.21875 205.75 90.027344 C 204.507812 82.753906 204.226562 75.210938 203.011719 67.976562 C 199.429688 46.796875 192.402344 15.902344 169.648438 7.394531 C 156.839844 2.609375 140.472656 7.855469 131.234375 17.472656 C 121.414062 27.703125 121.054688 42.539062 125.257812 55.375 C 126.25 58.421875 127.339844 62.214844 129.230469 64.859375 C 133.003906 70.128906 145.113281 68.445312 150.0625 65.253906 C 151.710938 64.191406 153.308594 62.632812 154.007812 60.761719 C 155.410156 56.988281 152.363281 53.878906 151.609375 50.234375 C 150.359375 44.195312 154.890625 30.785156 162.679688 37.96875 C 170.261719 44.964844 170.464844 59.367188 170.265625 68.820312 C 170.125 75.414062 169.476562 82.027344 168.199219 88.5 C 168.101562 88.976562 167.992188 89.460938 167.871094 89.949219 C 160.140625 86.210938 152.675781 85.222656 145.632812 87.027344 C 136.996094 89.238281 131.316406 95.132812 128.394531 98.976562 C 108.027344 94.070312 86.867188 100.953125 70.308594 118.320312 C 49.566406 140.078125 59.804688 175.28125 63.171875 186.851562 C 67.765625 202.648438 74.109375 230.847656 78.238281 275.441406 C 83.332031 330.460938 107.582031 340.148438 124.027344 340.148438 C 124.386719 340.148438 124.726562 340.136719 125.082031 340.125 C 138.285156 357.148438 160.273438 367.835938 185.035156 367.835938 L 188.753906 367.835938 C 213.515625 367.835938 235.5 357.148438 248.703125 340.125 C 249.050781 340.136719 249.394531 340.148438 249.753906 340.148438 C 266.207031 340.148438 290.457031 330.445312 295.550781 275.441406 C 299.683594 230.847656 306.015625 202.648438 310.609375 186.851562 C 313.976562 175.28125 324.210938 140.078125 303.46875 118.320312 " fill-opacity="1" fill-rule="nonzero"/></g></svg>