<svg xmlns="http://www.w3.org/2000/svg" xmlns:xlink="http://www.w3.org/1999/xlink" width="375" zoomAndPan="magnify" viewBox="0 0 375 374.999991" height="374.999991" preserveAspectRatio="xMidYMid meet" version="1.0"><defs><clipPath id="id1"><path d="M 88.808594 6.574219 L 284.417969 6.574219 L 284.417969 365.074219 L 88.808594 365.074219 Z M 88.808594 6.574219 " clip-rule="nonzero"/></clipPath></defs><rect x="-37.5" width="450" fill="rgb(100%, 100%, 100%)" y="-37.499999" height="449.999989" fill-opacity="1"/><rect x="-37.5" width="450" fill="rgb(100%, 100%, 100%)" y="-37.499999" height="449.999989" fill-opacity="1"/><g clip-path="url(#id1)"><path fill="rgb(18.818665%, 16.859436%, 17.649841%)" d="M 218.453125 139.898438 L 217.976562 141.328125 C 215.082031 142.445312 212.28125 143.8125 209.578125 145.339844 L 207.542969 146.550781 C 206.140625 147.410156 204.804688 148.300781 203.53125 149.222656 L 202.101562 150.242188 C 201.082031 151.035156 200.128906 151.832031 199.207031 152.660156 L 198.125 150.242188 C 197.457031 148.808594 196.820312 147.472656 196.152344 146.230469 L 195.675781 145.308594 C 194.847656 143.78125 194.082031 142.445312 193.351562 141.296875 C 192.621094 140.121094 192.015625 139.195312 191.507812 138.433594 L 192.015625 137.191406 C 193.765625 133.945312 195.738281 130.636719 197.871094 127.390625 L 199.398438 125.128906 L 200.957031 122.804688 L 203.085938 119.941406 L 203.820312 118.957031 C 204.742188 117.808594 205.695312 116.664062 206.652344 115.550781 C 209.609375 112.144531 212.757812 108.929688 216.132812 105.9375 C 217.816406 104.410156 219.566406 102.882812 221.414062 101.449219 C 223.289062 99.984375 224.945312 98.746094 226.726562 97.40625 C 237.796875 89.769531 250.238281 84.328125 263.34375 81.335938 C 248.710938 92.476562 227.808594 112.269531 218.421875 139.898438 Z M 232.546875 145.847656 C 228.855469 148.585938 225.546875 151.832031 222.71875 155.492188 C 221.667969 156.859375 220.710938 158.292969 219.820312 159.757812 L 218.867188 161.507812 C 216.769531 165.550781 215.398438 169.910156 214.828125 174.429688 C 214.730469 175.417969 214.507812 176.402344 214.253906 177.324219 C 211.804688 178.472656 209.257812 179.332031 206.652344 179.9375 C 206.207031 176.371094 205.601562 172.804688 204.742188 169.304688 C 204.457031 167.9375 204.105469 166.632812 203.753906 165.261719 C 203.40625 163.894531 202.960938 162.460938 202.546875 161.253906 L 202.226562 160.332031 C 203.246094 159.375 204.296875 158.421875 205.410156 157.53125 C 208.496094 154.953125 211.835938 152.753906 215.429688 150.941406 C 216.894531 150.210938 218.359375 149.574219 219.949219 148.96875 C 221.507812 148.363281 222.875 147.917969 224.402344 147.472656 C 227.042969 146.738281 229.78125 146.199219 232.515625 145.847656 Z M 238.625 183.722656 C 238.050781 190.949219 236.175781 198.011719 233.058594 204.570312 C 229.015625 201.003906 225.007812 197.378906 221.476562 193.8125 C 219.695312 192.03125 218.007812 190.28125 216.480469 188.527344 L 214.253906 185.917969 C 216.511719 185.125 218.707031 184.007812 220.710938 182.640625 L 221.476562 182.066406 C 223.863281 180.445312 225.359375 177.773438 225.484375 174.875 C 225.484375 174.398438 225.390625 173.921875 225.199219 173.476562 C 230.066406 176.308594 234.582031 179.777344 238.625 183.722656 Z M 243.398438 189.070312 C 250.492188 197.726562 255.835938 207.6875 259.082031 218.382812 C 258.828125 218.765625 258.667969 219.242188 258.667969 219.71875 C 258.636719 221.246094 258.539062 222.808594 258.347656 224.335938 C 251 219.335938 243.9375 213.992188 237.128906 208.261719 C 240.121094 202.152344 242.21875 195.625 243.363281 188.910156 Z M 262.738281 233.277344 C 264.296875 242.191406 265.0625 251.261719 265 260.332031 C 265 263.449219 265 266.441406 264.742188 269.371094 C 258.828125 266.761719 253.066406 263.738281 247.53125 260.332031 C 253.894531 252.054688 258.730469 242.699219 261.914062 232.738281 Z M 264.332031 275.988281 C 262.644531 282.769531 256.28125 291.746094 247.214844 301.164062 C 238.402344 297.535156 229.90625 293.238281 221.761719 288.308594 C 229.9375 281.082031 237.445312 273.125 244.253906 264.597656 C 250.648438 268.574219 257.394531 272.074219 264.332031 275.003906 Z M 258.222656 304.984375 C 256.3125 304.378906 254.40625 303.742188 252.464844 303.042969 C 255.867188 299.445312 259.050781 295.660156 261.945312 291.648438 C 260.988281 296.199219 259.71875 300.6875 258.160156 305.078125 Z M 242.347656 333.085938 C 236.015625 332.226562 229.78125 330.542969 223.894531 328.058594 C 232.515625 321.789062 240.691406 314.851562 248.265625 307.339844 C 250.90625 308.359375 253.546875 309.28125 256.28125 310.140625 C 252.941406 318.480469 248.230469 326.246094 242.316406 333.054688 Z M 215.6875 351.832031 C 208.050781 351.039062 200.542969 349.191406 193.351562 346.390625 C 202.164062 342.160156 210.628906 337.257812 218.707031 331.71875 C 224.847656 334.425781 231.210938 336.460938 237.765625 337.828125 C 231.402344 343.875 223.894531 348.621094 215.6875 351.832031 Z M 186.734375 357.054688 C 180.816406 357.054688 174.964844 356.449219 169.171875 355.207031 C 175.121094 353.710938 180.976562 351.769531 186.609375 349.382812 C 192.269531 351.800781 198.09375 353.773438 204.074219 355.238281 C 198.378906 356.449219 192.558594 357.054688 186.734375 357.054688 Z M 135.800781 337.734375 C 142.226562 336.367188 148.492188 334.359375 154.539062 331.71875 C 162.621094 337.226562 171.144531 342.125 179.988281 346.359375 C 172.832031 349.191406 165.355469 351.007812 157.71875 351.832031 C 149.574219 348.585938 142.128906 343.78125 135.800781 337.734375 Z M 117.15625 309.980469 C 119.734375 309.21875 122.308594 308.292969 124.917969 307.308594 C 132.554688 314.820312 140.730469 321.726562 149.417969 327.964844 C 143.5625 330.414062 137.421875 332.101562 131.15625 332.992188 C 125.238281 326.179688 120.496094 318.414062 117.125 310.042969 Z M 111.714844 292.15625 C 114.546875 296.007812 117.601562 299.667969 120.878906 303.136719 C 119 303.808594 117.125 304.410156 115.277344 305.015625 C 113.847656 300.816406 112.636719 296.519531 111.714844 292.15625 Z M 109.074219 274.875 C 115.914062 271.980469 122.566406 268.542969 128.894531 264.597656 C 135.734375 273.125 143.308594 281.050781 151.515625 288.273438 C 143.371094 293.175781 134.84375 297.503906 126.03125 301.101562 C 118.8125 294.386719 113.085938 286.144531 109.265625 277.007812 C 109.171875 276.339844 109.140625 275.480469 109.074219 274.90625 Z M 108.40625 260.363281 C 108.375 251.226562 109.140625 242.09375 110.699219 233.085938 L 111.300781 232.738281 C 114.453125 242.699219 119.320312 252.054688 125.683594 260.363281 C 120.210938 263.671875 114.515625 266.664062 108.660156 269.242188 C 108.535156 266.378906 108.40625 263.449219 108.40625 260.363281 Z M 129.851562 189.101562 C 131.058594 195.691406 133.160156 202.054688 136.117188 208.070312 C 129.339844 213.769531 122.246094 219.148438 114.929688 224.144531 C 114.738281 222.617188 114.609375 221.089844 114.609375 219.527344 C 114.578125 219.148438 114.484375 218.734375 114.324219 218.382812 C 117.539062 207.722656 122.820312 197.757812 129.851562 189.101562 Z M 148.269531 173.316406 C 147.984375 173.855469 147.855469 174.429688 147.855469 175.035156 C 147.984375 177.929688 149.480469 180.605469 151.867188 182.226562 L 152.628906 182.800781 C 154.601562 184.136719 156.703125 185.21875 158.929688 186.015625 L 156.734375 188.5625 C 155.238281 190.214844 153.582031 191.964844 151.867188 193.683594 C 148.269531 197.3125 144.292969 201.035156 140.09375 204.664062 C 137.007812 198.171875 135.101562 191.140625 134.527344 183.976562 C 138.632812 179.902344 143.246094 176.402344 148.269531 173.507812 Z M 140.890625 145.691406 C 143.625 146.070312 146.296875 146.707031 148.9375 147.472656 C 150.464844 147.917969 151.992188 148.394531 153.394531 148.96875 C 154.792969 149.539062 156.449219 150.210938 157.878906 150.941406 C 161.472656 152.753906 164.847656 154.953125 167.933594 157.53125 C 169.046875 158.453125 170.128906 159.375 171.113281 160.332031 L 170.796875 161.253906 C 170.351562 162.558594 169.96875 163.894531 169.585938 165.261719 C 169.171875 166.695312 168.855469 167.96875 168.535156 169.304688 C 167.710938 172.804688 167.105469 176.371094 166.660156 179.9375 C 164.050781 179.363281 161.503906 178.472656 159.089844 177.390625 C 158.800781 176.402344 158.609375 175.449219 158.484375 174.429688 C 157.941406 169.910156 156.605469 165.550781 154.476562 161.507812 L 153.519531 159.789062 C 152.628906 158.292969 151.675781 156.859375 150.625 155.492188 C 147.824219 151.863281 144.546875 148.617188 140.890625 145.847656 Z M 110.09375 81.398438 C 123.234375 84.359375 135.640625 89.832031 146.742188 97.472656 C 148.589844 98.746094 150.339844 100.082031 152.023438 101.480469 C 153.871094 102.914062 155.652344 104.410156 157.339844 105.96875 C 160.679688 109.058594 163.859375 112.304688 166.820312 115.773438 C 167.773438 116.917969 168.726562 118.03125 169.617188 119.210938 L 170.382812 120.195312 L 172.511719 122.804688 L 174.007812 124.9375 L 175.472656 127.199219 C 177.605469 130.445312 179.511719 133.722656 181.359375 137.03125 L 181.960938 138.148438 C 181.421875 138.910156 180.785156 139.898438 180.117188 141.011719 C 179.417969 142.125 178.621094 143.460938 177.761719 145.019531 L 177.285156 145.945312 C 176.648438 147.1875 175.980469 148.523438 175.3125 149.953125 L 174.230469 152.375 C 173.308594 151.546875 172.324219 150.75 171.304688 149.953125 L 169.9375 148.96875 C 168.664062 148.011719 167.328125 147.152344 165.929688 146.328125 L 163.921875 145.179688 C 161.25 143.714844 158.484375 142.445312 155.589844 141.363281 L 155.078125 139.898438 C 145.664062 112.269531 124.726562 92.476562 110.09375 81.398438 Z M 119.734375 24.621094 C 137.453125 34.675781 153.105469 48.042969 165.832031 63.957031 C 167.199219 65.675781 168.570312 67.394531 169.871094 69.082031 C 171.242188 70.992188 172.578125 72.835938 173.882812 74.714844 C 175.152344 76.59375 176.679688 79.011719 177.890625 81.113281 C 176.425781 83.851562 175.089844 86.683594 173.882812 89.578125 C 172.925781 91.839844 172.003906 94.257812 171.113281 96.867188 C 170.667969 98.140625 170.253906 99.476562 169.871094 100.878906 C 169.460938 102.277344 168.886719 104.410156 168.472656 106.289062 C 163.957031 101.480469 159.054688 97.089844 153.808594 93.113281 C 146.265625 68.574219 134.78125 45.433594 119.734375 24.621094 Z M 186.734375 16.089844 C 190.742188 20.738281 198.410156 33.339844 199.429688 61.316406 C 196.246094 65.328125 193.351562 69.335938 190.710938 73.632812 L 189.820312 72.488281 L 189.375 72.042969 L 189.375 52.753906 C 189.375 51.289062 188.199219 50.082031 186.734375 50.113281 C 185.269531 50.113281 184.09375 51.289062 184.09375 52.753906 L 184.09375 72.074219 L 183.648438 72.519531 L 182.757812 73.664062 C 180.117188 69.65625 177.222656 65.644531 174.039062 61.347656 C 175.058594 33.308594 182.820312 20.703125 186.734375 16.089844 Z M 189.375 126.847656 L 189.375 107.496094 C 189.375 106.035156 188.199219 104.855469 186.734375 104.855469 C 185.269531 104.855469 184.09375 106.035156 184.09375 107.496094 L 184.09375 126.847656 C 182.28125 123.921875 180.339844 120.992188 178.242188 118.128906 C 177.285156 116.789062 176.332031 115.453125 175.28125 114.085938 C 176.011719 109.628906 177.0625 105.238281 178.429688 100.910156 C 178.84375 99.539062 179.289062 98.171875 179.765625 96.898438 C 180.277344 95.625 180.816406 94.160156 181.390625 92.890625 C 181.960938 91.582031 182.441406 90.46875 182.949219 89.386719 C 183.488281 88.304688 184.539062 86.269531 185.238281 84.964844 C 185.972656 83.691406 186.351562 82.957031 186.894531 82.132812 C 187.402344 82.957031 187.976562 83.914062 188.546875 84.964844 C 189.089844 86.015625 190.011719 87.734375 190.808594 89.355469 C 191.539062 90.949219 191.824219 91.648438 192.398438 92.921875 C 192.9375 94.195312 193.480469 95.5 193.988281 96.929688 C 194.53125 98.394531 194.941406 99.539062 195.355469 100.972656 C 196.722656 105.238281 197.773438 109.660156 198.507812 114.085938 C 197.457031 115.421875 196.46875 116.757812 195.515625 118.128906 C 193.191406 121.023438 191.15625 123.953125 189.375 126.847656 Z M 195.644531 181.71875 L 194.148438 181.71875 L 190.140625 181.941406 L 189.375 181.941406 L 189.375 164.5 C 189.40625 164.246094 189.40625 163.992188 189.375 163.734375 C 188.898438 162.367188 187.433594 161.636719 186.066406 162.113281 C 185.304688 162.367188 184.699219 162.972656 184.445312 163.734375 C 184.414062 163.992188 184.414062 164.246094 184.445312 164.5 L 184.445312 182.101562 L 183.394531 182.101562 L 179.386719 181.878906 L 177.890625 181.878906 L 174.707031 181.558594 C 175.058594 178.949219 175.441406 176.433594 175.917969 174.046875 C 176.203125 172.648438 176.523438 171.246094 176.839844 170.003906 C 177.160156 168.828125 177.285156 168.414062 177.507812 167.652344 L 177.984375 165.996094 L 178.496094 164.308594 L 178.910156 163.132812 C 179.386719 161.667969 179.894531 160.265625 180.433594 159.089844 C 180.945312 157.941406 181.230469 157.179688 181.644531 156.257812 L 182.375 154.507812 C 183.042969 153.074219 183.710938 151.738281 184.347656 150.496094 C 185.015625 149.253906 185.558594 148.234375 186.128906 147.28125 L 186.574219 146.515625 L 186.796875 146.070312 L 187.054688 146.515625 L 187.402344 146.929688 C 187.976562 147.886719 188.578125 148.96875 189.183594 150.144531 C 189.789062 151.292969 190.457031 152.660156 191.15625 154.15625 L 192.015625 155.8125 C 192.429688 156.734375 192.84375 157.65625 193.191406 158.644531 C 193.542969 159.660156 194.242188 161.378906 194.71875 162.683594 L 195.132812 163.863281 L 195.644531 165.582031 L 196.054688 167.363281 C 196.246094 168.128906 196.46875 168.921875 196.691406 169.75 C 196.882812 170.546875 197.328125 172.488281 197.617188 173.761719 C 198.09375 176.179688 198.507812 178.664062 198.824219 181.273438 Z M 199.207031 190.375 L 198.09375 192.125 L 196.566406 194.351562 L 195.164062 196.359375 C 192.558594 200.082031 189.695312 203.773438 186.609375 207.464844 C 183.523438 203.773438 180.65625 200.019531 178.050781 196.328125 L 176.648438 194.351562 L 175.121094 192.125 L 174.007812 190.375 L 173.277344 189.230469 L 176.714844 189.644531 L 180.753906 189.898438 C 182.726562 189.898438 184.761719 189.898438 186.703125 189.898438 C 188.613281 189.898438 190.710938 189.898438 192.621094 189.898438 L 196.628906 189.644531 L 199.875 189.261719 Z M 213.425781 235.027344 C 205.125 227.707031 197.328125 219.878906 190.011719 211.570312 L 190.902344 210.523438 C 194.941406 205.714844 198.695312 200.6875 202.195312 195.5 L 202.929688 194.417969 C 203.753906 193.144531 204.550781 191.777344 205.316406 190.375 L 206.777344 187.957031 L 207.253906 187.957031 L 208.65625 187.574219 L 209.546875 188.65625 C 210.371094 189.675781 211.230469 190.691406 212.15625 191.742188 C 214.921875 194.863281 218.039062 198.078125 221.378906 201.261719 C 224.722656 204.410156 227.425781 206.828125 230.542969 209.503906 C 225.769531 218.605469 220.042969 227.136719 213.523438 235.027344 Z M 217.214844 238.273438 C 223.765625 230.382812 229.558594 221.914062 234.519531 212.941406 C 241.742188 218.957031 249.28125 224.589844 257.078125 229.808594 C 254.183594 239.898438 249.410156 249.285156 242.949219 257.5625 C 233.980469 251.707031 225.421875 245.277344 217.308594 238.273438 Z M 216.925781 285.316406 C 207.699219 279.425781 198.855469 272.933594 190.457031 265.902344 C 198.792969 258.546875 206.617188 250.6875 213.871094 242.285156 C 222.082031 249.320312 230.765625 255.84375 239.832031 261.761719 C 232.929688 270.261719 225.261719 278.1875 216.957031 285.378906 Z M 191.507812 311.351562 C 197.296875 307.339844 203.085938 303.328125 208.65625 299.03125 C 211.742188 296.613281 214.636719 294.195312 217.5 291.808594 C 225.644531 296.898438 234.171875 301.355469 242.984375 305.175781 C 235.1875 312.621094 226.851562 319.433594 218.007812 325.609375 C 208.910156 321.4375 200.066406 316.726562 191.570312 311.414062 Z M 186.574219 314.5625 C 195.039062 319.976562 203.820312 324.8125 212.917969 329.078125 C 204.550781 334.617188 195.738281 339.484375 186.574219 343.589844 C 177.414062 339.484375 168.601562 334.617188 160.234375 329.078125 C 169.332031 324.84375 178.144531 320.007812 186.609375 314.628906 Z M 164.433594 299.03125 C 170.097656 303.617188 175.980469 307.625 181.675781 311.414062 C 173.148438 316.726562 164.273438 321.46875 155.109375 325.609375 C 146.265625 319.433594 137.929688 312.621094 130.136719 305.175781 C 138.949219 301.355469 147.476562 296.898438 155.652344 291.808594 C 158.484375 294.257812 161.441406 296.675781 164.496094 299.0625 Z M 159.246094 242.285156 C 166.53125 250.6875 174.359375 258.546875 182.664062 265.902344 C 174.296875 272.933594 165.449219 279.425781 156.191406 285.316406 C 147.921875 278.152344 140.285156 270.261719 133.351562 261.761719 C 142.417969 255.84375 151.101562 249.351562 159.34375 242.347656 Z M 155.875 238.273438 C 147.730469 245.277344 139.109375 251.738281 130.105469 257.5625 C 123.679688 249.285156 118.875 239.898438 115.980469 229.808594 C 123.773438 224.589844 131.3125 218.957031 138.535156 212.941406 C 143.5 221.914062 149.320312 230.414062 155.875 238.273438 Z M 159.914062 235.027344 C 153.328125 227.167969 147.601562 218.605469 142.800781 209.566406 C 146.011719 206.796875 149.195312 203.933594 152.152344 201.070312 C 155.109375 198.234375 158.546875 194.765625 161.25 191.710938 C 162.207031 190.660156 163.03125 189.675781 163.890625 188.65625 L 164.71875 187.605469 L 166.277344 188.019531 L 166.53125 188.019531 L 167.933594 190.46875 C 168.726562 191.742188 169.554688 193.113281 170.414062 194.480469 L 171.144531 195.53125 C 174.644531 200.75 178.429688 205.78125 182.441406 210.585938 L 183.332031 211.636719 C 176.011719 219.910156 168.1875 227.738281 159.914062 235.027344 Z M 212.855469 288.847656 C 210.46875 290.886719 208.019531 292.890625 205.503906 294.863281 C 199.398438 299.636719 193.003906 304.09375 186.640625 308.230469 C 180.277344 304.21875 173.914062 299.574219 167.804688 294.863281 C 165.261719 292.859375 162.777344 290.820312 160.425781 288.847656 C 169.585938 282.894531 178.367188 276.371094 186.703125 269.304688 C 194.976562 276.371094 203.722656 282.894531 212.855469 288.847656 Z M 163.128906 239.039062 C 171.433594 231.71875 179.257812 223.890625 186.609375 215.582031 C 193.957031 223.890625 201.78125 231.71875 210.117188 239.039062 C 202.832031 247.441406 194.976562 255.300781 186.609375 262.589844 C 178.242188 255.300781 170.382812 247.441406 163.128906 239.039062 Z M 203.46875 68.988281 C 204.742188 67.269531 206.078125 65.550781 207.507812 63.832031 C 220.234375 47.917969 235.886719 34.582031 253.609375 24.554688 C 238.625 45.308594 227.171875 68.382812 219.664062 92.855469 C 214.382812 96.804688 209.515625 101.195312 204.996094 106.035156 C 204.519531 104.410156 204.074219 102.722656 203.566406 100.84375 C 203.054688 98.9375 202.707031 98.140625 202.292969 96.835938 C 201.433594 94.195312 200.511719 91.804688 199.523438 89.546875 C 198.347656 86.652344 197.011719 83.785156 195.515625 81.015625 C 196.851562 78.886719 198.15625 76.753906 199.523438 74.589844 C 200.796875 72.804688 202.132812 70.894531 203.53125 69.019531 Z M 280.398438 70.578125 C 262.835938 71.945312 245.8125 77.132812 230.511719 85.855469 C 239.515625 60.011719 253.324219 36.140625 271.265625 15.484375 C 272.761719 13.863281 272.632812 11.316406 270.980469 9.820312 C 269.835938 8.800781 268.242188 8.515625 266.8125 9.054688 C 243.875 18.953125 223.417969 33.722656 206.808594 52.371094 C 203.566406 17.363281 189.566406 7.71875 188.898438 7.210938 C 187.5625 6.351562 185.84375 6.351562 184.539062 7.210938 C 183.839844 7.65625 169.871094 17.363281 166.597656 52.339844 C 150.019531 33.722656 129.5625 18.953125 106.65625 9.054688 C 104.589844 8.261719 102.234375 9.277344 101.441406 11.347656 C 100.867188 12.75 101.183594 14.371094 102.203125 15.484375 C 120.113281 36.171875 133.953125 60.042969 142.925781 85.886719 C 127.625 77.167969 110.570312 71.945312 93.039062 70.578125 C 90.8125 70.484375 88.9375 72.167969 88.808594 74.398438 C 88.746094 75.894531 89.507812 77.292969 90.78125 78.058594 C 91.226562 78.3125 130.964844 100.242188 146.074219 138.59375 C 139.109375 137.222656 131.980469 136.808594 124.886719 137.382812 C 122.660156 137.542969 120.972656 139.417969 121.101562 141.648438 C 121.195312 143.238281 122.246094 144.640625 123.773438 145.179688 C 123.773438 145.179688 139.808594 151.386719 147.285156 164.882812 C 139.011719 169.210938 131.566406 175.035156 125.363281 182.035156 C 109.074219 200.433594 100.421875 227.515625 100.421875 260.363281 C 100.421875 293.175781 109.074219 320.261719 125.363281 338.65625 C 140.921875 356.035156 163.382812 365.679688 186.703125 365.042969 C 210.023438 365.679688 232.453125 356.035156 248.007812 338.65625 C 264.332031 320.261719 272.953125 293.175781 272.953125 260.363281 C 272.953125 227.515625 264.332031 200.433594 248.042969 182.035156 C 241.835938 175.035156 234.425781 169.210938 226.121094 164.882812 C 233.4375 151.417969 249.472656 145.277344 249.664062 145.179688 C 251.730469 144.351562 252.6875 141.996094 251.859375 139.960938 C 251.316406 138.59375 250.046875 137.636719 248.582031 137.476562 C 241.488281 136.875 234.359375 137.289062 227.425781 138.65625 C 242.601562 100.304688 282.242188 78.375 282.65625 78.089844 C 284.246094 77.132812 284.976562 75.191406 284.40625 73.441406 C 283.863281 71.691406 282.210938 70.515625 280.398438 70.578125 " fill-opacity="1" fill-rule="nonzero"/></g></svg>