<svg xmlns="http://www.w3.org/2000/svg" xmlns:xlink="http://www.w3.org/1999/xlink" width="375" zoomAndPan="magnify" viewBox="0 0 375 374.999991" height="374.999991" preserveAspectRatio="xMidYMid meet" version="1.0"><defs><clipPath id="id1"><path d="M 52.703125 52.703125 L 328.703125 52.703125 L 328.703125 328.703125 L 52.703125 328.703125 Z M 52.703125 52.703125 " clip-rule="nonzero"/></clipPath></defs><rect x="-37.5" width="450" fill="rgb(100%, 100%, 100%)" y="-37.499999" height="449.999989" fill-opacity="1"/><rect x="-37.5" width="450" fill="rgb(100%, 100%, 100%)" y="-37.499999" height="449.999989" fill-opacity="1"/><rect x="-37.5" width="450" fill="rgb(100%, 100%, 100%)" y="-37.499999" height="449.999989" fill-opacity="1"/><g clip-path="url(#id1)"><path fill="rgb(18.818665%, 16.859436%, 17.649841%)" d="M 244.125 319.800781 C 213.710938 319.800781 186.617188 302.621094 186.253906 288.917969 C 186.792969 287.40625 189.488281 284.398438 190.703125 284.1875 C 192.84375 284.1875 193.574219 284.832031 195.519531 286.554688 L 196.753906 287.597656 C 211.328125 299.804688 245.757812 297.230469 272.242188 288.414062 C 301.714844 278.589844 308.046875 259.285156 312.238281 246.503906 C 314.636719 239.167969 315.871094 236.296875 318.097656 235.480469 C 318.898438 238.089844 319.800781 244.800781 319.800781 261.929688 C 319.800781 289.910156 299.925781 319.800781 244.125 319.800781 Z M 61.605469 208.511719 C 61.605469 153.59375 104.628906 110.574219 159.542969 110.574219 C 176.269531 110.574219 192.945312 109.984375 201.605469 105.652344 C 204.824219 104.035156 207.1875 101.238281 208.40625 97.550781 C 211.65625 87.761719 206.582031 72.441406 202.71875 63.085938 C 214.492188 68.023438 217.34375 83.8125 217.484375 84.59375 L 218.890625 93.132812 L 225.011719 87.011719 C 227.65625 84.371094 230.125 79.554688 231.949219 75.34375 C 235.132812 81.726562 235.21875 88.246094 235.21875 88.316406 L 235.21875 96.175781 L 253.894531 84.976562 L 247.480469 104.246094 L 251.375 105.808594 C 261.6875 109.929688 266.539062 117.289062 268.816406 123.269531 C 262.035156 120.261719 254.140625 119.113281 247.792969 120.609375 C 241.671875 122.050781 237.289062 125.894531 235.445312 131.425781 C 233.132812 138.378906 237.011719 145.492188 241.898438 154.484375 C 248.382812 166.410156 257.199219 182.703125 257.425781 207.535156 L 250.277344 221.867188 L 236.195312 221.867188 L 231.324219 241.375 L 217.414062 250.644531 L 217.414062 255.636719 L 214.160156 252.382812 L 195.15625 258.730469 L 195.15625 276.015625 C 193.867188 275.597656 192.460938 275.285156 190.703125 275.285156 C 184.078125 275.285156 177.347656 283.859375 177.347656 288.640625 C 177.347656 293.890625 179.488281 299.074219 183.210938 303.871094 C 175.957031 305.578125 168.167969 306.445312 159.542969 306.445312 C 105.53125 306.445312 61.605469 262.519531 61.605469 208.511719 Z M 279.734375 226.875 L 279.734375 234.246094 L 263.738281 231.046875 L 260.679688 221.867188 L 260.226562 221.867188 L 264.675781 212.960938 L 276.257812 212.960938 Z M 281.476562 274.640625 L 272.605469 262.816406 L 284.1875 254.140625 L 295.195312 262.398438 C 292.03125 266.816406 287.71875 271.023438 281.476562 274.640625 Z M 251.53125 284.585938 L 248.054688 277.648438 L 259.320312 266.382812 L 264.15625 266.382812 L 273.285156 278.535156 C 272.050781 279.039062 270.78125 279.511719 269.425781 279.960938 C 263.53125 281.925781 257.496094 283.457031 251.53125 284.585938 Z M 224.613281 275.285156 L 236.925781 275.285156 L 242.28125 286.015625 C 233.828125 287.039062 225.847656 287.160156 219.066406 286.378906 Z M 217.933594 268.746094 L 210.023438 284.570312 C 207.691406 283.859375 205.710938 282.953125 204.058594 281.890625 L 204.058594 265.128906 L 211.761719 262.574219 Z M 235.21875 249.480469 L 244.835938 255.878906 L 247.929688 265.179688 L 243.863281 269.25 L 242.417969 266.382812 L 228.160156 266.382812 L 226.316406 264.539062 L 226.316406 255.410156 Z M 254.277344 230.769531 L 256.835938 238.472656 L 248 247.304688 L 240.296875 242.160156 L 243.148438 230.769531 Z M 266.988281 240.765625 L 279.734375 243.324219 L 279.734375 246.347656 L 264.902344 257.476562 L 255.636719 257.476562 L 254.972656 258.140625 L 253.671875 254.226562 L 267.023438 240.871094 Z M 296.34375 226.960938 L 306.253906 236.871094 C 305.316406 239.0625 304.53125 241.410156 303.769531 243.742188 C 302.636719 247.203125 301.402344 250.90625 299.679688 254.625 L 288.640625 246.347656 L 288.640625 229.515625 Z M 319.800781 226.316406 C 316.113281 226.316406 313.417969 227.480469 311.28125 229.308594 L 298.742188 216.769531 L 287.335938 220.578125 L 283.214844 204.058594 L 266.191406 204.058594 C 265.164062 178.898438 255.984375 161.734375 249.722656 150.238281 C 245.863281 143.128906 242.800781 137.527344 243.898438 134.242188 C 244.765625 131.632812 246.714844 130.015625 249.84375 129.269531 C 256.554688 127.6875 266.972656 130.816406 272.136719 135.980469 L 279.734375 143.578125 L 279.734375 132.832031 C 279.734375 131.859375 279.476562 110.035156 258.523438 99.289062 L 269.964844 64.945312 L 243.238281 80.996094 C 242.105469 75.726562 239.585938 68.597656 233.914062 62.910156 L 228.820312 57.816406 L 226.542969 64.648438 C 225.777344 66.945312 224.5625 70.128906 223.203125 73.117188 C 218.910156 63.3125 210.179688 52.703125 195.15625 52.703125 L 187.921875 52.703125 L 191.171875 59.15625 C 195.972656 68.683594 202.597656 86.769531 199.953125 94.734375 C 199.3125 96.644531 198.320312 97.34375 197.609375 97.691406 C 189.660156 101.671875 168.550781 101.671875 159.542969 101.671875 C 99.636719 101.671875 52.703125 148.605469 52.703125 208.511719 C 52.703125 267.425781 100.628906 315.347656 159.542969 315.347656 C 170.933594 315.347656 181.035156 313.941406 190.410156 311.140625 C 203.015625 321.453125 223.203125 328.703125 244.125 328.703125 C 306.480469 328.703125 328.703125 294.203125 328.703125 261.929688 C 328.703125 237.308594 327.417969 226.316406 319.800781 226.316406 " fill-opacity="1" fill-rule="nonzero"/></g><path fill="rgb(18.818665%, 16.859436%, 17.649841%)" d="M 248.574219 301.996094 L 248.574219 310.898438 C 271.753906 310.898438 295.246094 297.230469 300.691406 291.785156 L 294.394531 285.492188 C 290.414062 289.472656 269.078125 301.996094 248.574219 301.996094 " fill-opacity="1" fill-rule="nonzero"/><path fill="rgb(18.818665%, 16.859436%, 17.649841%)" d="M 230.769531 310.898438 L 239.671875 310.898438 L 239.671875 301.996094 L 230.769531 301.996094 L 230.769531 310.898438 " fill-opacity="1" fill-rule="nonzero"/><path fill="rgb(18.818665%, 16.859436%, 17.649841%)" d="M 70.511719 208.511719 C 70.511719 218.109375 72.039062 227.570312 75.066406 236.628906 L 83.5 233.8125 C 80.789062 225.671875 79.414062 217.152344 79.414062 208.511719 C 79.414062 185.574219 88.402344 164.601562 104.699219 149.457031 L 98.644531 142.917969 C 80.492188 159.769531 70.511719 183.070312 70.511719 208.511719 " fill-opacity="1" fill-rule="nonzero"/><path fill="rgb(18.818665%, 16.859436%, 17.649841%)" d="M 134.1875 132.625 C 142.917969 129.808594 151.457031 128.382812 159.542969 128.382812 L 159.542969 119.476562 C 150.519531 119.476562 141.074219 121.042969 131.476562 124.136719 L 134.1875 132.625 " fill-opacity="1" fill-rule="nonzero"/></svg>