<svg xmlns="http://www.w3.org/2000/svg" width="375" viewBox="0 0 375 375" height="375" version="1.0"><defs><clipPath id="a"><path d="M 70.332031 171 L 248 171 L 248 294.171875 L 70.332031 294.171875 Z M 70.332031 171"/></clipPath></defs><path fill="#FFF" d="M-37.5 -37.5H412.5V412.5H-37.5z"/><path fill="none" d="M-37.5 -37.5H412.5V412.5H-37.5z"/><path fill="#302B2D" d="M 299.71875 186.589844 C 295.039062 167.09375 279.023438 148.863281 256.886719 137.851562 C 254.367188 136.585938 251.667969 135.324219 248.96875 134.242188 C 241.410156 130.992188 234.394531 127.921875 229.175781 122.328125 C 226.65625 119.621094 224.496094 116.914062 221.976562 113.84375 C 217.296875 108.066406 212.617188 102.292969 206.679688 97.597656 C 190.484375 84.78125 167.808594 81.171875 147.832031 88.574219 C 128.9375 95.613281 115.800781 110.59375 111.839844 129.910156 C 108.960938 143.445312 110.941406 157.164062 117.601562 170.703125 C 119.941406 169.980469 122.277344 169.441406 124.796875 168.898438 C 123.359375 166.011719 122.097656 163.121094 121.199219 160.234375 L 124.4375 155.179688 C 125.519531 153.554688 125.160156 151.207031 123.359375 150.125 C 121.738281 149.042969 119.757812 149.402344 118.679688 150.847656 C 117.421875 144.167969 117.601562 137.671875 118.859375 131.171875 C 122.277344 114.386719 133.796875 101.207031 150.351562 95.25 C 156.472656 93.085938 162.769531 91.820312 169.25 91.820312 C 181.125 91.820312 193.003906 95.613281 202.359375 103.195312 C 207.578125 107.34375 212.257812 112.941406 216.578125 118.355469 C 218.917969 121.246094 221.4375 124.492188 224.136719 127.203125 C 225.574219 128.824219 227.375 130.269531 228.996094 131.535156 C 227.914062 134.058594 226.113281 136.226562 223.777344 137.488281 C 222.15625 138.574219 221.617188 140.738281 222.515625 142.542969 C 223.59375 144.167969 225.753906 144.710938 227.554688 143.808594 C 230.792969 141.824219 233.3125 138.933594 235.113281 135.503906 C 238.710938 137.488281 242.492188 139.113281 246.269531 140.738281 C 248.96875 141.824219 251.308594 142.90625 253.828125 144.167969 C 264.085938 149.222656 272.722656 155.902344 279.5625 163.484375 L 276.863281 167.453125 C 275.785156 169.078125 276.144531 171.425781 277.941406 172.507812 C 279.5625 173.59375 281.902344 173.230469 282.980469 171.425781 L 284.421875 169.441406 C 288.558594 175.398438 291.441406 181.714844 293.058594 188.03125 C 296.839844 203.738281 292.878906 221.96875 282.980469 234.242188 C 275.242188 243.988281 263.726562 248.863281 252.027344 250.308594 C 251.308594 252.835938 250.410156 255.363281 249.328125 257.707031 C 264.085938 256.804688 278.84375 251.03125 288.742188 238.753906 C 299.539062 224.675781 304.035156 204.640625 299.71875 186.589844 Z M 299.71875 186.589844"/><g clip-path="url(#a)"><path fill="#302B2D" d="M 230.613281 190.019531 C 215.496094 176.480469 193.003906 170.34375 163.847656 171.605469 C 140.816406 172.507812 70.632812 175.578125 70.992188 234.242188 C 71.171875 263.125 97.265625 282.800781 121.558594 288.757812 C 134.875 292.003906 150.171875 294.171875 165.289062 294.171875 C 193.542969 294.171875 221.4375 286.589844 236.371094 265.472656 C 251.128906 244.710938 252.390625 209.332031 230.613281 190.019531 Z M 230.433594 261.320312 C 225.035156 268.71875 217.835938 274.316406 209.558594 278.46875 L 209.558594 276.121094 C 209.558594 274.136719 207.9375 272.511719 205.960938 272.511719 C 203.980469 272.511719 202.359375 274.136719 202.359375 276.121094 L 202.359375 281.355469 C 178.605469 289.839844 147.832031 287.855469 123.179688 281.714844 C 121.378906 281.355469 119.578125 280.8125 117.78125 280.09375 C 117.78125 279.910156 117.78125 279.910156 117.78125 279.730469 L 117.78125 272.511719 C 117.78125 270.523438 116.160156 268.898438 114.179688 268.898438 C 112.203125 268.898438 110.582031 270.523438 110.582031 272.511719 L 110.582031 277.203125 C 93.484375 269.261719 78.371094 254.277344 78.1875 234.0625 C 78.007812 200.667969 102.664062 183.160156 155.570312 179.367188 L 155.570312 184.0625 C 155.570312 186.046875 157.191406 187.671875 159.171875 187.671875 C 161.148438 187.671875 162.769531 186.046875 162.769531 184.0625 L 162.769531 178.828125 C 163.308594 178.828125 168.886719 178.644531 171.046875 178.644531 C 194.980469 178.644531 213.335938 184.242188 225.753906 195.433594 C 244.652344 212.222656 243.390625 243.085938 230.433594 261.320312 Z M 230.433594 261.320312"/></g><path fill="#302B2D" d="M 103.382812 221.96875 C 101.402344 221.96875 99.785156 223.59375 99.785156 225.578125 L 99.785156 232.796875 C 99.785156 234.785156 101.402344 236.410156 103.382812 236.410156 C 105.363281 236.410156 106.984375 234.785156 106.984375 232.796875 L 106.984375 225.578125 C 106.984375 223.59375 105.363281 221.96875 103.382812 221.96875 Z M 103.382812 221.96875"/><path fill="#302B2D" d="M 157.371094 229.1875 C 155.390625 229.1875 153.773438 230.8125 153.773438 232.796875 L 153.773438 240.019531 C 153.773438 242.003906 155.390625 243.628906 157.371094 243.628906 C 159.351562 243.628906 160.96875 242.003906 160.96875 240.019531 L 160.96875 232.796875 C 160.96875 230.8125 159.351562 229.1875 157.371094 229.1875 Z M 157.371094 229.1875"/><path fill="#302B2D" d="M 155.570312 131.714844 C 156.652344 131.714844 157.910156 131.171875 158.628906 130.089844 L 162.230469 124.675781 C 163.308594 123.050781 162.949219 120.703125 161.148438 119.621094 C 159.53125 118.535156 157.191406 118.898438 156.109375 120.703125 C 156.109375 120.703125 152.511719 126.117188 152.511719 126.117188 C 151.074219 128.464844 152.691406 131.714844 155.570312 131.714844 Z M 155.570312 131.714844"/><path fill="#302B2D" d="M 191.5625 164.207031 C 192.644531 164.207031 193.902344 163.664062 194.621094 162.582031 L 198.222656 157.164062 C 199.300781 155.542969 198.941406 153.195312 197.140625 152.113281 C 195.523438 151.027344 193.183594 151.390625 192.101562 153.195312 C 192.101562 153.195312 188.503906 158.609375 188.503906 158.609375 C 187.0625 160.957031 188.863281 164.207031 191.5625 164.207031 Z M 191.5625 164.207031"/><path fill="#302B2D" d="M 263.546875 214.746094 C 264.625 214.746094 265.886719 214.207031 266.605469 213.125 L 270.203125 207.707031 C 271.285156 206.082031 270.925781 203.738281 269.125 202.652344 C 267.503906 201.570312 265.164062 201.933594 264.085938 203.738281 C 264.085938 203.738281 260.488281 209.152344 260.488281 209.152344 C 259.046875 211.5 260.667969 214.746094 263.546875 214.746094 Z M 263.546875 214.746094"/><path fill="#302B2D" d="M 211.359375 221.96875 C 209.378906 221.96875 207.757812 223.59375 207.757812 225.578125 L 207.757812 232.796875 C 207.757812 234.785156 209.378906 236.410156 211.359375 236.410156 C 213.335938 236.410156 214.957031 234.785156 214.957031 232.796875 L 214.957031 225.578125 C 214.957031 223.59375 213.335938 221.96875 211.359375 221.96875 Z M 211.359375 221.96875"/></svg>