<svg xmlns="http://www.w3.org/2000/svg" width="375" viewBox="0 0 375 375" height="375" version="1.0"><path fill="#FFF" d="M-37.5 -37.5H412.5V412.5H-37.5z"/><path fill="none" d="M-37.5 -37.5H412.5V412.5H-37.5z"/><path fill="#302B2D" d="M 45.195312 130.386719 C 47.171875 133.164062 48.871094 136.105469 50.289062 139.203125 C 51.707031 142.304688 52.824219 145.511719 53.636719 148.820312 C 54.449219 152.132812 54.945312 155.488281 55.121094 158.894531 C 55.300781 162.296875 55.15625 165.6875 54.691406 169.066406 C 52.597656 184.589844 53.824219 207.203125 71.585938 226.777344 C 75.066406 230.53125 77.980469 234.683594 80.328125 239.226562 C 82.675781 243.773438 84.378906 248.550781 85.425781 253.554688 C 86.417969 258.394531 86.980469 263.285156 87.105469 268.222656 C 87.234375 273.160156 86.929688 278.074219 86.1875 282.957031 C 85.445312 287.839844 84.28125 292.621094 82.695312 297.300781 C 81.109375 301.980469 79.125 306.484375 76.742188 310.8125 C 70.699219 321.84375 79.144531 334.902344 91.601562 334.65625 C 95.539062 345.667969 111.65625 344.515625 113.910156 332.917969 C 115.191406 348.332031 137.136719 347.503906 136.863281 331.984375 C 133.683594 300.03125 149.664062 250.3125 195.722656 249.703125 C 218.867188 249.359375 260.074219 243.304688 276 206.636719 C 278.160156 201.679688 280.957031 197.113281 284.394531 192.9375 C 287.832031 188.761719 291.773438 185.136719 296.226562 182.0625 C 311.914062 171.1875 330.886719 151.734375 332.179688 120.808594 C 332.328125 117.371094 332.757812 113.964844 333.460938 110.597656 C 335.550781 100.515625 337.648438 81.925781 328.226562 70.679688 C 323.023438 64.464844 315.199219 61.453125 304.945312 61.726562 C 304.484375 61.738281 304.039062 61.835938 303.617188 62.027344 C 303.195312 62.214844 302.824219 62.476562 302.503906 62.8125 C 302.1875 63.148438 301.945312 63.53125 301.777344 63.960938 C 301.613281 64.394531 301.535156 64.839844 301.550781 65.304688 C 301.5625 65.765625 301.660156 66.207031 301.851562 66.632812 C 302.039062 67.054688 302.300781 67.425781 302.636719 67.742188 C 302.972656 68.058594 303.355469 68.300781 303.789062 68.46875 C 304.222656 68.632812 304.667969 68.710938 305.132812 68.699219 C 313.140625 68.488281 319.109375 70.660156 322.878906 75.15625 C 330.691406 84.488281 328.105469 102.0625 326.632812 109.1875 C 325.851562 112.925781 325.375 116.703125 325.210938 120.519531 C 324.039062 148.582031 306.640625 166.363281 292.25 176.335938 C 287.265625 179.78125 282.851562 183.839844 279.003906 188.515625 C 275.15625 193.195312 272.023438 198.308594 269.605469 203.859375 C 255.234375 236.933594 217.085938 242.414062 195.621094 242.730469 C 193.109375 242.761719 190.613281 242.945312 188.125 243.28125 C 185.636719 243.617188 183.179688 244.101562 180.753906 244.734375 C 178.324219 245.367188 175.945312 246.144531 173.609375 247.066406 C 171.277344 247.988281 169.007812 249.050781 166.804688 250.246094 C 164.597656 251.445312 162.476562 252.769531 160.429688 254.226562 C 158.386719 255.679688 156.441406 257.253906 154.585938 258.945312 C 152.734375 260.636719 150.992188 262.433594 149.359375 264.335938 C 147.722656 266.238281 146.210938 268.230469 144.820312 270.316406 C 129.6875 293.070312 128.976562 319.023438 129.898438 332.46875 C 129.941406 333.074219 129.863281 333.660156 129.660156 334.234375 C 129.453125 334.804688 129.144531 335.3125 128.726562 335.753906 C 126.441406 338.375 121.621094 337.078125 121.109375 333.597656 C 119.777344 325.835938 119.058594 318.015625 118.957031 310.144531 C 127.117188 281.070312 139.617188 244.914062 172.964844 233.457031 C 185.941406 228.671875 198.011719 222.203125 209.175781 214.046875 C 231.890625 216.421875 246.472656 203.9375 247.648438 201.285156 C 250.242188 197.554688 244.789062 193.582031 242.007812 197.179688 C 241.691406 197.601562 234.964844 206.253906 217.453125 207.191406 C 246.15625 180.964844 235.367188 166.003906 254.980469 145.085938 C 258.175781 141.777344 261.738281 137.835938 265.347656 133.375 C 277.375 120.882812 290.566406 109.769531 304.921875 100.035156 C 305.320312 99.785156 305.652344 99.464844 305.921875 99.078125 C 306.191406 98.691406 306.371094 98.269531 306.46875 97.808594 C 306.566406 97.347656 306.570312 96.886719 306.480469 96.425781 C 306.390625 95.964844 306.214844 95.539062 305.953125 95.148438 C 305.6875 94.757812 305.359375 94.433594 304.96875 94.175781 C 304.574219 93.917969 304.144531 93.746094 303.683594 93.660156 C 303.21875 93.578125 302.757812 93.585938 302.296875 93.6875 C 301.839844 93.789062 301.417969 93.976562 301.035156 94.25 C 296.160156 97.519531 289.320312 102.402344 281.621094 108.75 C 289.65625 93.078125 294.527344 74.835938 290.207031 56 C 289.929688 54.808594 289.59375 53.632812 289.203125 52.472656 C 288.816406 51.3125 288.371094 50.171875 287.875 49.054688 C 287.378906 47.933594 286.828125 46.84375 286.230469 45.777344 C 285.628906 44.707031 284.980469 43.671875 284.285156 42.664062 C 283.585938 41.660156 282.84375 40.6875 282.058594 39.75 C 281.269531 38.8125 280.4375 37.917969 279.566406 37.058594 C 278.695312 36.199219 277.78125 35.382812 276.835938 34.609375 C 275.886719 33.835938 274.902344 33.109375 273.882812 32.425781 C 272.867188 31.746094 271.820312 31.113281 270.742188 30.527344 C 269.667969 29.945312 268.566406 29.414062 267.4375 28.933594 C 266.3125 28.453125 265.164062 28.027344 264 27.65625 C 262.832031 27.28125 261.648438 26.964844 260.453125 26.703125 C 259.257812 26.441406 258.050781 26.234375 256.835938 26.085938 C 255.621094 25.9375 254.398438 25.84375 253.175781 25.8125 C 251.949219 25.777344 250.726562 25.800781 249.503906 25.878906 C 248.285156 25.960938 247.066406 26.097656 245.859375 26.289062 C 195.277344 33.246094 126.054688 62.648438 125.074219 124.859375 C 124.457031 137.269531 117.117188 139.613281 110.316406 148.4375 C 111.0625 139.746094 111.074219 131.054688 110.363281 122.363281 C 109.648438 113.671875 108.214844 105.101562 106.0625 96.648438 C 105.828125 95.320312 105.742188 93.984375 105.804688 92.636719 C 105.867188 91.292969 106.078125 89.96875 106.433594 88.667969 C 106.789062 87.367188 107.28125 86.121094 107.914062 84.929688 C 108.546875 83.738281 109.300781 82.632812 110.175781 81.605469 C 119.917969 68.367188 118.015625 56.808594 111.679688 58.847656 C 111.253906 59.019531 110.875 59.269531 110.546875 59.597656 C 110.21875 59.921875 109.964844 60.296875 109.785156 60.726562 C 109.605469 61.152344 109.515625 61.597656 109.511719 62.058594 C 109.511719 62.519531 109.597656 62.964844 109.773438 63.394531 C 109.792969 63.4375 111.195312 68.421875 104.65625 77.332031 C 103.457031 78.753906 102.441406 80.296875 101.613281 81.964844 C 99.410156 75.5625 96.691406 69.390625 93.449219 63.449219 C 91.09375 59.523438 85.183594 62.921875 87.402344 66.9375 C 87.601562 67.273438 101.945312 92.722656 103.671875 128.628906 C 99.492188 124.414062 93.769531 121.792969 87.765625 119.699219 C 86.917969 119.425781 86.089844 119.09375 85.289062 118.710938 C 84.484375 118.324219 83.710938 117.882812 82.96875 117.394531 C 82.222656 116.902344 81.519531 116.359375 80.847656 115.773438 C 80.179688 115.183594 79.554688 114.554688 78.96875 113.878906 C 78.386719 113.207031 77.851562 112.496094 77.367188 111.75 C 76.882812 111 76.449219 110.226562 76.070312 109.417969 C 75.691406 108.613281 75.367188 107.785156 75.101562 106.933594 C 74.835938 106.085938 74.628906 105.21875 74.480469 104.34375 C 73.894531 99.832031 67.183594 100.46875 67.542969 105.074219 C 72.320312 134.582031 105.605469 120.035156 103.1875 149.273438 C 102.585938 155.53125 101.558594 161.722656 100.109375 167.839844 C 95.453125 182.460938 94.882812 202.308594 104.796875 228.496094 C 106.230469 232.339844 107.121094 236.304688 107.457031 240.394531 C 107.796875 244.480469 107.574219 248.539062 106.789062 252.5625 C 103.285156 270.929688 97.765625 298.8125 91.324219 327.640625 C 84.296875 327.824219 79.398438 320.382812 82.855469 314.167969 C 85.4375 309.484375 87.585938 304.613281 89.304688 299.550781 C 91.023438 294.488281 92.285156 289.3125 93.085938 284.027344 C 93.890625 278.742188 94.222656 273.425781 94.085938 268.082031 C 93.949219 262.738281 93.347656 257.445312 92.273438 252.207031 C 91.101562 246.582031 89.199219 241.210938 86.566406 236.101562 C 83.933594 230.992188 80.664062 226.324219 76.761719 222.101562 C 60.800781 204.507812 59.710938 184.058594 61.613281 170 C 62.136719 166.191406 62.296875 162.363281 62.097656 158.519531 C 61.898438 154.679688 61.335938 150.890625 60.421875 147.15625 C 59.503906 143.417969 58.242188 139.800781 56.640625 136.304688 C 55.039062 132.804688 53.121094 129.488281 50.894531 126.351562 C 44.25 116.996094 40.140625 107.824219 38.683594 99.089844 C 35.902344 82.429688 42.027344 54.601562 56.773438 38.6875 C 66.074219 28.648438 77.609375 24.15625 91.078125 25.339844 C 113.996094 27.359375 127.28125 49.890625 134.386719 68.4375 C 136.128906 72.710938 142.453125 70.257812 140.90625 65.949219 C 129.691406 36.691406 112.675781 20.242188 91.695312 18.398438 C 76.191406 17.03125 62.34375 22.410156 51.648438 33.949219 C 35.253906 51.648438 28.675781 81.550781 31.792969 100.234375 C 33.425781 110.019531 37.9375 120.160156 45.195312 130.386719 Z M 98 329.753906 C 105.300781 292.695312 112.765625 264.917969 130.316406 227.148438 C 130.578125 226.667969 140.667969 206.199219 165.429688 202.414062 C 192.90625 198.339844 196.5625 180.082031 196.707031 179.308594 C 196.792969 178.851562 196.785156 178.398438 196.691406 177.949219 C 196.597656 177.496094 196.417969 177.078125 196.15625 176.695312 C 195.898438 176.316406 195.574219 176 195.1875 175.746094 C 194.800781 175.492188 194.378906 175.324219 193.925781 175.238281 C 193.46875 175.152344 193.015625 175.15625 192.5625 175.25 C 192.109375 175.34375 191.691406 175.523438 191.3125 175.78125 C 190.929688 176.042969 190.609375 176.363281 190.355469 176.75 C 190.105469 177.136719 189.933594 177.558594 189.847656 178.011719 C 189.730469 178.589844 186.707031 192.203125 164.40625 195.511719 C 160.207031 196.117188 156.144531 197.207031 152.207031 198.78125 C 148.273438 200.355469 144.574219 202.367188 141.121094 204.820312 C 144.808594 197.628906 148.664062 190.511719 152.660156 183.550781 C 152.996094 183.152344 153.25 182.707031 153.425781 182.21875 C 161.640625 167.859375 170.753906 154.097656 180.765625 140.925781 C 181.746094 140.023438 198.304688 125.015625 221.222656 120.285156 C 247.605469 114.835938 253.65625 100.238281 253.902344 99.621094 C 254.070312 99.195312 254.152344 98.753906 254.144531 98.296875 C 254.136719 97.835938 254.042969 97.398438 253.859375 96.976562 C 253.679688 96.558594 253.425781 96.1875 253.097656 95.867188 C 252.769531 95.546875 252.394531 95.300781 251.96875 95.132812 C 251.542969 94.960938 251.097656 94.875 250.636719 94.878906 C 250.175781 94.882812 249.734375 94.972656 249.308594 95.148438 C 248.882812 95.324219 248.507812 95.578125 248.183594 95.902344 C 247.855469 96.226562 247.605469 96.601562 247.425781 97.023438 C 247.226562 97.503906 242.199219 108.835938 219.804688 113.460938 C 212.039062 115.109375 204.617188 117.734375 197.539062 121.332031 C 233.519531 82.554688 242.984375 59.917969 243.375 58.957031 C 243.554688 58.527344 243.644531 58.082031 243.644531 57.617188 C 243.644531 57.152344 243.554688 56.703125 243.375 56.273438 C 243.199219 55.84375 242.941406 55.464844 242.613281 55.140625 C 242.28125 54.8125 241.902344 54.558594 241.46875 54.386719 C 241.039062 54.210938 240.589844 54.125 240.125 54.128906 C 239.660156 54.132812 239.210938 54.226562 238.785156 54.40625 C 238.355469 54.589844 237.980469 54.847656 237.65625 55.183594 C 237.328125 55.515625 237.082031 55.898438 236.910156 56.332031 C 236.851562 56.476562 232.957031 65.789062 220.742188 82.5625 C 220.8125 79.921875 220.734375 77.28125 220.511719 74.648438 C 219.980469 68.082031 220.910156 64.851562 221.519531 63.507812 C 223.324219 59.308594 217.105469 56.492188 215.148438 60.652344 C 210.148438 73.230469 218.652344 86.683594 207.898438 99.011719 C 202.875 105.058594 197.058594 111.679688 190.324219 118.847656 C 179.355469 130.519531 168.558594 144.933594 158.375 160.765625 C 158.664062 155.78125 158.171875 150.871094 156.90625 146.042969 C 152.847656 131.09375 154.71875 124.871094 154.800781 124.625 C 154.957031 124.195312 155.023438 123.75 155.003906 123.292969 C 154.984375 122.835938 154.878906 122.402344 154.6875 121.984375 C 154.496094 121.570312 154.234375 121.207031 153.898438 120.894531 C 153.566406 120.582031 153.183594 120.34375 152.757812 120.183594 C 152.328125 120.019531 151.886719 119.945312 151.429688 119.957031 C 150.972656 119.96875 150.53125 120.066406 150.113281 120.25 C 149.695312 120.433594 149.324219 120.691406 149.007812 121.019531 C 148.691406 121.347656 148.445312 121.722656 148.277344 122.148438 C 147.96875 122.933594 145.40625 130.328125 150.171875 147.871094 C 153.984375 161.925781 148.195312 176.679688 147.058594 179.363281 C 134.675781 200.929688 123.832031 223.246094 114.523438 246.304688 C 114.847656 239.332031 113.78125 232.574219 111.320312 226.039062 C 93.953125 180.144531 110.949219 155.847656 122.628906 145.449219 C 124.046875 144.15625 125.320312 142.734375 126.457031 141.1875 C 127.589844 139.640625 128.5625 138 129.367188 136.257812 C 130.175781 134.519531 130.804688 132.71875 131.253906 130.851562 C 131.703125 128.988281 131.964844 127.097656 132.039062 125.183594 C 135.011719 60.636719 205.3125 39.828125 246.957031 33.171875 C 247.949219 33.011719 248.949219 32.898438 249.953125 32.832031 C 250.957031 32.765625 251.960938 32.746094 252.96875 32.777344 C 253.972656 32.804688 254.976562 32.878906 255.972656 33 C 256.972656 33.121094 257.960938 33.289062 258.945312 33.503906 C 259.929688 33.71875 260.898438 33.980469 261.859375 34.285156 C 262.816406 34.589844 263.757812 34.941406 264.683594 35.335938 C 265.609375 35.726562 266.515625 36.164062 267.398438 36.644531 C 268.285156 37.121094 269.144531 37.640625 269.980469 38.199219 C 270.816406 38.757812 271.625 39.355469 272.402344 39.992188 C 273.183594 40.625 273.933594 41.296875 274.648438 42 C 275.367188 42.707031 276.046875 43.441406 276.695312 44.210938 C 277.34375 44.980469 277.953125 45.777344 278.527344 46.605469 C 279.101562 47.429688 279.632812 48.28125 280.125 49.15625 C 280.621094 50.035156 281.070312 50.929688 281.480469 51.851562 C 281.886719 52.769531 282.253906 53.703125 282.574219 54.65625 C 282.894531 55.609375 283.171875 56.574219 283.402344 57.554688 C 289.597656 84.589844 274.578125 110.8125 260.226562 128.605469 C 249.8125 139.851562 238.3125 151.835938 234.691406 167.277344 C 225.597656 201.613281 190.578125 219.378906 170.511719 226.917969 C 166.3125 228.476562 162.28125 230.390625 158.417969 232.664062 C 154.558594 234.9375 150.925781 237.535156 147.527344 240.453125 C 144.128906 243.371094 141.011719 246.566406 138.183594 250.035156 C 135.351562 253.507812 132.847656 257.203125 130.675781 261.117188 C 116.210938 287.449219 109.679688 316.554688 107.070312 331.5625 C 105.890625 337.566406 96.84375 336.019531 98 329.753906 Z M 98 329.753906"/><path fill="#302B2D" d="M 155.886719 105.613281 C 152.460938 108.78125 157.085938 113.953125 160.621094 110.90625 C 164.050781 107.746094 159.421875 102.570312 155.886719 105.613281 Z M 155.886719 105.613281"/></svg>