<svg xmlns="http://www.w3.org/2000/svg" xmlns:xlink="http://www.w3.org/1999/xlink" width="375" zoomAndPan="magnify" viewBox="0 0 375 374.999991" height="374.999991" preserveAspectRatio="xMidYMid meet" version="1.0"><defs><clipPath id="id1"><path d="M 77 39 L 298 39 L 298 359.25 L 77 359.25 Z M 77 39 " clip-rule="nonzero"/></clipPath></defs><rect x="-37.5" width="450" fill="rgb(100%, 100%, 100%)" y="-37.499999" height="449.999989" fill-opacity="1"/><rect x="-37.5" width="450" fill="rgb(100%, 100%, 100%)" y="-37.499999" height="449.999989" fill-opacity="1"/><g clip-path="url(#id1)"><path fill="rgb(18.818665%, 16.859436%, 17.649841%)" d="M 182.945312 320.90625 C 182.945312 326.757812 173.871094 326.734375 173.871094 320.90625 L 173.871094 312.628906 C 173.871094 306.789062 182.945312 306.796875 182.945312 312.628906 Z M 134.515625 260.007812 C 134.515625 265.851562 125.445312 265.839844 125.445312 260.007812 L 125.445312 251.730469 C 125.445312 245.878906 134.515625 245.890625 134.515625 251.730469 Z M 117.898438 186.046875 C 117.898438 191.886719 108.824219 191.875 108.824219 186.046875 L 108.824219 177.769531 C 108.824219 171.929688 117.898438 171.941406 117.898438 177.769531 Z M 208.78125 276.027344 C 208.78125 281.871094 199.707031 281.859375 199.707031 276.027344 L 199.707031 267.75 C 199.707031 261.898438 208.78125 261.921875 208.78125 267.75 Z M 251.566406 243.636719 C 251.566406 249.480469 242.492188 249.46875 242.492188 243.636719 L 242.492188 235.363281 C 242.492188 229.519531 251.566406 229.53125 251.566406 235.363281 Z M 266.28125 180.316406 C 266.28125 186.160156 257.207031 186.148438 257.207031 180.316406 L 257.207031 172.042969 C 257.207031 166.199219 266.28125 166.210938 266.28125 172.042969 Z M 192.085938 209.332031 C 192.085938 215.175781 183.015625 215.164062 183.015625 209.332031 L 183.015625 201.058594 C 183.015625 195.203125 192.085938 195.214844 192.085938 201.058594 Z M 239.09375 308.066406 C 218.863281 334.886719 192.140625 349.503906 187.554688 350.171875 C 182.960938 349.503906 156.246094 334.886719 136.015625 308.066406 C 110.273438 273.933594 86.453125 234.207031 86.453125 175.175781 C 86.453125 153.382812 98.855469 134.074219 117.769531 124.726562 C 116.203125 128.429688 115.078125 132.445312 114.414062 136.773438 L 113.9375 139.917969 L 116.734375 141.4375 C 117.269531 141.730469 128.277344 147.542969 144.09375 143.566406 C 142.238281 151.941406 142.03125 160.890625 143.472656 170.296875 L 144.417969 176.46875 L 149.992188 173.660156 C 150.503906 173.398438 160.5625 168.25 170.761719 157.460938 C 172.980469 166.3125 177.1875 174.667969 183.324219 182.390625 C 183.597656 182.730469 184.300781 183.464844 184.300781 183.464844 L 187.8125 187.167969 L 191.066406 183.183594 C 191.28125 182.921875 191.484375 182.671875 191.6875 182.410156 C 197.851562 174.667969 202.074219 166.300781 204.296875 157.402344 C 214.511719 168.238281 224.605469 173.398438 225.117188 173.660156 L 230.6875 176.457031 L 231.628906 170.296875 C 233.078125 160.890625 232.863281 151.941406 231.015625 143.566406 C 246.832031 147.542969 257.839844 141.730469 258.375 141.4375 L 261.171875 139.917969 L 260.683594 136.773438 C 260.027344 132.445312 258.90625 128.429688 257.34375 124.726562 C 276.25 134.074219 288.652344 153.382812 288.652344 175.179688 C 288.652344 234.21875 264.832031 273.933594 239.09375 308.066406 Z M 121.058594 95.316406 C 124.746094 93.007812 128.855469 91.414062 133.335938 90.558594 C 154.746094 86.449219 178.988281 99.9375 184.105469 102.988281 C 184.621094 103.542969 185.277344 103.945312 186.007812 104.171875 L 187.546875 105.164062 L 189.109375 104.164062 C 189.804688 103.9375 190.433594 103.546875 190.945312 103.011719 C 196.9375 99.449219 230.605469 80.722656 254.039062 95.328125 C 249.953125 97.90625 243.472656 101.394531 235.542969 103.648438 L 225.460938 106.519531 L 234.457031 111.894531 C 243.132812 117.082031 248.707031 124.722656 251.050781 134.636719 C 246.566406 136.003906 237.445312 137.449219 226.015625 132.246094 L 215.96875 127.671875 L 219.898438 137.980469 C 222.71875 145.339844 223.886719 153.378906 223.398438 161.96875 C 218.507812 158.550781 211.300781 152.6875 205.058594 144.257812 L 197.867188 134.515625 L 196.902344 146.589844 C 196.167969 155.902344 193.007812 164.699219 187.511719 172.816406 C 182.03125 164.722656 178.878906 155.9375 178.140625 146.652344 L 177.179688 134.605469 L 169.984375 144.316406 C 163.753906 152.722656 156.578125 158.5625 151.6875 161.96875 C 151.210938 153.378906 152.382812 145.339844 155.1875 137.980469 L 159.125 127.671875 L 149.078125 132.246094 C 137.636719 137.453125 128.519531 136 124.046875 134.640625 C 126.386719 124.722656 131.957031 117.082031 140.640625 111.894531 L 149.636719 106.519531 L 139.554688 103.648438 C 131.664062 101.40625 125.171875 97.902344 121.058594 95.316406 Z M 249.015625 111.992188 C 248.191406 111.109375 247.304688 110.257812 246.390625 109.4375 C 257.308594 104.921875 264.265625 99.234375 264.625 98.945312 L 268.691406 95.578125 L 264.75 92.070312 C 241.222656 71.140625 207.796875 84.050781 192.808594 91.636719 C 196.160156 72.117188 210.582031 55.1875 229.203125 48.253906 C 234.628906 46.234375 232.285156 37.46875 226.792969 39.511719 C 204.160156 47.941406 186.742188 68.308594 183.539062 92.304688 C 173.121094 86.878906 151.789062 77.796875 131.621094 81.664062 C 123.515625 83.214844 116.355469 86.71875 110.335938 92.070312 L 106.394531 95.578125 L 110.464844 98.945312 C 110.820312 99.238281 117.773438 104.925781 128.695312 109.4375 C 127.773438 110.257812 126.902344 111.109375 126.066406 111.992188 C 97.332031 119.617188 77.378906 145.394531 77.378906 175.183594 C 77.378906 245.386719 112.089844 291.40625 128.765625 313.515625 C 150.222656 341.96875 180.121094 359.242188 187.542969 359.242188 C 194.960938 359.242188 224.867188 341.96875 246.320312 313.515625 C 262.996094 291.40625 297.703125 245.386719 297.703125 175.183594 C 297.703125 145.394531 277.753906 119.621094 249.015625 111.992188 " fill-opacity="1" fill-rule="nonzero"/></g></svg>