<svg xmlns="http://www.w3.org/2000/svg" width="375" viewBox="0 0 375 375" height="375" version="1.0"><defs><clipPath id="a"><path d="M 52.519531 59 L 322 59 L 322 317.007812 L 52.519531 317.007812 Z M 52.519531 59"/></clipPath></defs><path fill="#FFF" d="M-37.5 -37.5H412.5V412.5H-37.5z"/><path fill="#E1DDD3" d="M-37.5 -37.5H412.5V412.5H-37.5z"/><g clip-path="url(#a)"><path fill="#302B2D" d="M 310.347656 59.375 C 310.347656 59.375 285.300781 58.527344 270.566406 73.761719 C 260.332031 67.972656 248.921875 65.011719 237.480469 65.011719 C 220.253906 65.011719 203.019531 71.578125 189.90625 84.699219 C 180.710938 93.90625 163.492188 110.777344 145.796875 128.039062 L 145.796875 128.027344 C 134.082031 139.449219 119.308594 147.164062 103.238281 151.207031 C 91.585938 154.140625 80.550781 160.257812 71.542969 169.496094 C 71.542969 169.5 71.542969 169.503906 71.542969 169.507812 C 59.023438 182.367188 52.929688 199.121094 52.941406 215.855469 C 52.953125 233.839844 59.972656 251.898438 73.53125 265.464844 L 104.441406 296.410156 C 117.996094 309.976562 136.046875 316.996094 154.015625 317.007812 C 170.703125 317.019531 187.421875 310.9375 200.257812 298.445312 C 209.511719 289.4375 215.632812 278.386719 218.574219 266.730469 C 222.625 250.695312 230.34375 235.949219 241.734375 224.257812 C 262 203.449219 281.03125 183.949219 285.058594 179.910156 L 285.046875 179.910156 C 306.441406 158.496094 310.371094 126.125 296.851562 100.671875 L 319.660156 80.367188 C 320.121094 79.960938 320.503906 79.488281 320.808594 78.953125 C 321.113281 78.414062 321.324219 77.84375 321.4375 77.238281 C 321.554688 76.636719 321.570312 76.027344 321.488281 75.417969 C 321.40625 74.804688 321.226562 74.226562 320.949219 73.671875 L 315.351562 62.472656 C 315.121094 62.007812 314.828125 61.582031 314.480469 61.199219 C 314.128906 60.816406 313.730469 60.488281 313.289062 60.214844 C 312.847656 59.941406 312.378906 59.730469 311.878906 59.589844 C 311.378906 59.449219 310.867188 59.375 310.347656 59.375 Z M 307.144531 71.082031 L 309.027344 74.84375 L 290.664062 91.175781 C 288.933594 88.9375 287.097656 86.753906 285.046875 84.699219 C 283.46875 83.121094 281.828125 81.648438 280.140625 80.257812 C 289.09375 72.75 303.140625 71.378906 307.144531 71.082031 Z M 237.480469 76.144531 C 251.824219 76.144531 266.160156 81.636719 277.132812 92.621094 C 299.082031 114.589844 299.078125 150.027344 277.132812 171.992188 C 272.835938 176.300781 253.992188 195.621094 233.722656 216.4375 C 220.816406 229.6875 212.210938 246.253906 207.734375 263.988281 C 205.28125 273.703125 200.210938 282.875 192.464844 290.414062 C 181.800781 300.796875 168.011719 305.816406 154.027344 305.804688 C 138.96875 305.796875 123.757812 299.902344 112.351562 288.488281 L 81.445312 257.542969 C 70.035156 246.128906 64.144531 230.917969 64.132812 215.84375 C 64.121094 201.820312 69.152344 188.003906 79.554688 177.320312 C 87.097656 169.578125 96.257812 164.515625 105.96875 162.070312 C 123.734375 157.601562 140.324219 149 153.601562 136.058594 C 171.304688 118.785156 188.519531 101.929688 197.820312 92.621094 C 208.796875 81.636719 223.140625 76.144531 237.480469 76.144531 Z M 215.230469 109.726562 C 214.503906 109.734375 213.804688 109.875 213.132812 110.152344 C 212.464844 110.433594 211.867188 110.824219 211.351562 111.335938 C 211.351562 111.335938 190.679688 131.171875 169.230469 152.09375 C 153.777344 167.171875 133.789062 178.164062 111.433594 183.792969 C 105.421875 185.308594 99.941406 188.484375 95.585938 192.949219 C 89.691406 199.011719 86.515625 207.101562 86.515625 215.496094 C 86.515625 223.132812 89.15625 230.09375 93.019531 236.050781 C 93.214844 236.371094 93.4375 236.671875 93.691406 236.949219 C 93.945312 237.222656 94.222656 237.472656 94.527344 237.695312 C 94.832031 237.914062 95.15625 238.101562 95.496094 238.257812 C 95.839844 238.414062 96.191406 238.535156 96.558594 238.617188 C 96.925781 238.703125 97.296875 238.75 97.671875 238.757812 C 98.046875 238.769531 98.417969 238.742188 98.789062 238.675781 C 99.160156 238.609375 99.519531 238.507812 99.867188 238.371094 C 100.21875 238.230469 100.550781 238.058594 100.863281 237.855469 C 101.179688 237.648438 101.472656 237.414062 101.738281 237.152344 C 102.007812 236.886719 102.246094 236.601562 102.457031 236.289062 C 102.664062 235.976562 102.839844 235.648438 102.984375 235.300781 C 103.128906 234.953125 103.234375 234.59375 103.308594 234.226562 C 103.378906 233.855469 103.414062 233.484375 103.410156 233.109375 C 103.40625 232.730469 103.367188 232.359375 103.289062 231.992188 C 103.207031 231.625 103.09375 231.269531 102.945312 230.925781 C 102.796875 230.578125 102.613281 230.253906 102.398438 229.945312 C 99.421875 225.359375 97.707031 220.570312 97.707031 215.496094 C 97.707031 209.886719 99.746094 204.734375 103.597656 200.769531 C 106.53125 197.765625 110.175781 195.660156 114.167969 194.65625 C 138.335938 188.570312 160.085938 176.65625 177.042969 160.113281 C 198.453125 139.230469 219.089844 119.429688 219.089844 119.429688 C 219.5 119.046875 219.847656 118.609375 220.128906 118.121094 C 220.410156 117.628906 220.613281 117.109375 220.738281 116.558594 C 220.859375 116.007812 220.902344 115.453125 220.855469 114.890625 C 220.8125 114.324219 220.6875 113.78125 220.476562 113.257812 C 220.269531 112.734375 219.988281 112.25 219.632812 111.8125 C 219.277344 111.371094 218.867188 110.996094 218.398438 110.679688 C 217.929688 110.367188 217.425781 110.125 216.886719 109.964844 C 216.347656 109.800781 215.792969 109.722656 215.230469 109.726562 Z M 215.230469 109.726562"/></g></svg>