<svg xmlns="http://www.w3.org/2000/svg" width="375" viewBox="0 0 375 375" height="375" version="1.0"><path fill="#FFF" d="M-37.5 -37.5H412.5V412.5H-37.5z"/><path fill="none" d="M-37.5 -37.5H412.5V412.5H-37.5z"/><path fill="#302B2D" d="M 137.902344 89.335938 C 143.59375 86.859375 149.78125 84.136719 154.234375 84.136719 C 158.933594 84.382812 163.386719 85.871094 166.851562 88.839844 C 167.839844 89.582031 168.582031 90.328125 169.574219 91.316406 C 171.800781 93.546875 174.273438 96.019531 177.488281 97.257812 C 179.964844 98.25 182.4375 98.742188 185.160156 98.742188 C 188.128906 98.742188 191.097656 98 193.570312 96.515625 C 196.292969 95.03125 198.519531 93.050781 200.5 91.070312 C 201.488281 90.328125 202.230469 89.335938 203.21875 88.59375 C 206.683594 85.621094 211.136719 84.136719 215.839844 83.890625 C 220.292969 83.640625 226.230469 86.363281 232.167969 89.089844 C 244.289062 94.535156 260.621094 101.714844 271.011719 84.136719 C 272.496094 81.660156 271.503906 78.691406 269.277344 77.453125 C 267.050781 75.96875 263.835938 76.957031 262.597656 79.183594 C 257.402344 88.097656 250.476562 86.363281 236.375 79.929688 C 229.445312 76.957031 222.519531 73.738281 215.839844 73.988281 C 208.910156 74.234375 202.476562 76.710938 197.28125 80.917969 C 196.292969 81.910156 195.054688 82.898438 194.066406 83.640625 C 192.828125 84.878906 191.59375 86.117188 190.355469 86.859375 C 190.109375 77.453125 192.085938 58.390625 212.375 48.484375 C 214.847656 47.25 215.839844 44.277344 214.601562 41.800781 C 213.363281 39.324219 210.394531 38.335938 207.921875 39.574219 C 182.683594 52.199219 179.964844 75.71875 180.210938 87.601562 C 178.972656 86.859375 177.738281 85.621094 176.5 84.382812 C 175.511719 83.394531 174.273438 82.402344 173.285156 81.414062 C 168.089844 77.203125 161.65625 74.730469 154.726562 74.480469 C 148.046875 74.234375 140.871094 77.453125 134.191406 80.421875 C 120.089844 86.859375 113.164062 88.59375 107.96875 79.679688 C 106.484375 77.203125 103.511719 76.460938 101.285156 77.949219 C 98.8125 79.433594 98.070312 82.402344 99.554688 84.632812 C 109.453125 101.960938 126.027344 94.535156 137.902344 89.335938 Z M 137.902344 89.335938"/><path fill="#302B2D" d="M 316.289062 129.445312 C 292.289062 102.953125 255.917969 93.050781 216.332031 102.457031 C 213.859375 102.953125 212.375 105.429688 212.621094 107.90625 C 212.871094 110.378906 215.097656 112.359375 217.570312 112.359375 C 217.570312 112.359375 256.910156 112.359375 267.792969 152.21875 C 255.671875 139.59375 234.148438 124.246094 199.261719 122.511719 C 197.53125 122.511719 196.046875 123.253906 195.054688 124.492188 C 194.066406 125.730469 193.820312 127.460938 194.3125 128.949219 C 194.3125 129.195312 202.972656 156.179688 189.613281 181.683594 C 187.878906 167.816406 183.675781 146.03125 173.035156 126.71875 C 172.292969 125.234375 170.5625 124.246094 168.832031 124.246094 C 167.097656 124.246094 131.222656 124.246094 107.71875 154.449219 C 110.441406 140.335938 120.335938 121.273438 151.015625 112.359375 C 153.242188 111.617188 154.726562 109.636719 154.480469 107.410156 C 154.480469 105.179688 152.75 103.199219 150.523438 102.707031 C 149.53125 102.457031 51.804688 81.660156 30.28125 166.828125 C 20.136719 206.6875 32.753906 254.222656 61.453125 284.671875 C 92.875 317.847656 138.398438 336.664062 186.644531 336.664062 C 187.878906 336.664062 189.117188 336.664062 190.355469 336.664062 C 237.609375 335.675781 281.402344 316.117188 310.347656 282.941406 C 352.160156 234.910156 354.636719 171.777344 316.289062 129.445312 Z M 302.925781 276.503906 C 275.960938 307.699219 234.890625 326.019531 190.355469 326.761719 C 143.347656 327.75 99.058594 309.925781 68.628906 277.742188 C 42.15625 249.765625 30.527344 205.945312 39.929688 168.808594 C 52.792969 118.054688 95.101562 109.390625 123.058594 109.390625 C 125.53125 109.390625 128.007812 109.390625 130.234375 109.636719 C 90.152344 131.425781 97.328125 172.769531 97.328125 173.265625 C 97.824219 175.492188 99.554688 176.976562 101.535156 177.226562 C 103.761719 177.472656 105.742188 176.234375 106.730469 174.503906 C 123.058594 139.59375 155.964844 134.640625 165.859375 133.898438 C 180.210938 162.125 180.953125 195.546875 180.953125 196.042969 C 180.953125 198.023438 182.191406 200.003906 184.167969 200.746094 C 186.148438 201.488281 188.375 200.992188 189.613281 199.261719 C 210.394531 174.75 208.167969 145.785156 205.445312 132.910156 C 252.949219 137.859375 270.515625 171.53125 271.257812 173.015625 C 272.246094 174.996094 274.722656 176.234375 276.949219 175.492188 C 279.175781 174.996094 280.660156 172.769531 280.660156 170.542969 C 278.929688 133.652344 260.867188 116.570312 244.539062 108.894531 C 244.785156 108.894531 244.785156 108.894531 245.03125 108.894531 C 270.269531 108.894531 292.78125 118.300781 309.113281 136.128906 C 349.6875 180.9375 334.347656 240.359375 302.925781 276.503906 Z M 302.925781 276.503906"/><path fill="#302B2D" d="M 191.097656 105.921875 C 189.613281 107.90625 187.386719 108.894531 185.160156 108.894531 C 182.933594 108.894531 180.707031 107.90625 179.222656 105.921875 C 177.488281 103.695312 174.519531 103.449219 172.292969 104.933594 C 170.066406 106.667969 169.820312 109.636719 171.304688 111.867188 C 174.519531 116.320312 179.714844 118.796875 185.160156 118.796875 C 190.601562 118.796875 195.550781 116.320312 199.015625 111.867188 C 200.746094 109.636719 200.25 106.667969 198.023438 104.933594 C 195.796875 103.199219 192.582031 103.695312 191.097656 105.921875 Z M 191.097656 105.921875"/><path fill="#302B2D" d="M 291.296875 198.023438 C 288.578125 198.023438 286.351562 200.25 286.351562 202.972656 C 286.351562 203.222656 286.351562 228.472656 263.339844 248.773438 C 261.363281 250.507812 261.113281 253.726562 262.847656 255.707031 C 264.578125 257.6875 267.792969 257.933594 269.773438 256.203125 C 296.246094 232.929688 296.246094 204.210938 296.246094 202.972656 C 296.246094 200.25 294.269531 198.023438 291.296875 198.023438 Z M 291.296875 198.023438"/><path fill="#302B2D" d="M 256.910156 264.867188 C 256.910156 265.191406 256.875 265.515625 256.8125 265.832031 C 256.75 266.152344 256.65625 266.460938 256.53125 266.761719 C 256.40625 267.0625 256.253906 267.347656 256.074219 267.617188 C 255.894531 267.890625 255.6875 268.140625 255.460938 268.367188 C 255.230469 268.597656 254.980469 268.804688 254.710938 268.984375 C 254.4375 269.164062 254.152344 269.316406 253.855469 269.441406 C 253.554688 269.566406 253.246094 269.660156 252.925781 269.722656 C 252.605469 269.789062 252.285156 269.820312 251.960938 269.820312 C 251.636719 269.820312 251.3125 269.789062 250.996094 269.722656 C 250.675781 269.660156 250.367188 269.566406 250.066406 269.441406 C 249.765625 269.316406 249.480469 269.164062 249.210938 268.984375 C 248.941406 268.804688 248.691406 268.597656 248.460938 268.367188 C 248.230469 268.140625 248.027344 267.890625 247.847656 267.617188 C 247.664062 267.347656 247.511719 267.0625 247.390625 266.761719 C 247.265625 266.460938 247.171875 266.152344 247.105469 265.832031 C 247.042969 265.515625 247.011719 265.191406 247.011719 264.867188 C 247.011719 264.542969 247.042969 264.21875 247.105469 263.902344 C 247.171875 263.582031 247.265625 263.273438 247.390625 262.972656 C 247.511719 262.671875 247.664062 262.386719 247.847656 262.117188 C 248.027344 261.847656 248.230469 261.597656 248.460938 261.367188 C 248.691406 261.136719 248.941406 260.929688 249.210938 260.75 C 249.480469 260.570312 249.765625 260.417969 250.066406 260.292969 C 250.367188 260.167969 250.675781 260.074219 250.996094 260.011719 C 251.3125 259.949219 251.636719 259.914062 251.960938 259.914062 C 252.285156 259.914062 252.605469 259.949219 252.925781 260.011719 C 253.246094 260.074219 253.554688 260.167969 253.855469 260.292969 C 254.152344 260.417969 254.4375 260.570312 254.710938 260.75 C 254.980469 260.929688 255.230469 261.136719 255.460938 261.367188 C 255.6875 261.597656 255.894531 261.847656 256.074219 262.117188 C 256.253906 262.386719 256.40625 262.671875 256.53125 262.972656 C 256.65625 263.273438 256.75 263.582031 256.8125 263.902344 C 256.875 264.21875 256.910156 264.542969 256.910156 264.867188 Z M 256.910156 264.867188"/></svg>