<svg xmlns="http://www.w3.org/2000/svg" xmlns:xlink="http://www.w3.org/1999/xlink" width="375" zoomAndPan="magnify" viewBox="0 0 375 374.999991" height="374.999991" preserveAspectRatio="xMidYMid meet" version="1.0"><defs><clipPath id="id1"><path d="M 15 20 L 359 20 L 359 355.601562 L 15 355.601562 Z M 15 20 " clip-rule="nonzero"/></clipPath></defs><rect x="-37.5" width="450" fill="rgb(100%, 100%, 100%)" y="-37.499999" height="449.999989" fill-opacity="1"/><rect x="-37.5" width="450" fill="rgb(100%, 100%, 100%)" y="-37.499999" height="449.999989" fill-opacity="1"/><g clip-path="url(#id1)"><path fill="rgb(18.818665%, 16.859436%, 17.649841%)" d="M 304.945312 22.894531 C 301.996094 19.738281 297.058594 19.601562 293.96875 22.550781 L 18.085938 282.550781 C 14.929688 285.503906 14.792969 290.445312 17.742188 293.535156 C 55.46875 333.5625 106.433594 355.601562 161.445312 355.601562 C 211.863281 355.601562 259.949219 336.511719 296.644531 301.910156 C 335.058594 265.796875 357.007812 216.847656 358.515625 164.121094 C 360.09375 111.390625 341.09375 61.203125 304.945312 22.894531 Z M 342.945312 163.707031 C 341.503906 212.246094 321.269531 257.285156 285.945312 290.652344 C 252.128906 322.578125 207.886719 340.152344 161.445312 340.152344 C 113.429688 340.152344 68.707031 321.890625 34.617188 288.523438 L 46.550781 277.195312 C 60.820312 288.933594 75.429688 298.546875 90.109375 306.097656 C 91 306.578125 91.894531 306.785156 92.785156 306.785156 C 94.980469 306.785156 97.039062 305.550781 98.132812 303.488281 C 99.574219 300.539062 98.476562 296.898438 95.527344 295.457031 C 82.082031 288.59375 68.570312 279.734375 55.402344 268.957031 L 279.152344 57.839844 C 285.875 67.796875 291.707031 78.027344 296.441406 88.390625 C 297.46875 90.589844 299.59375 91.894531 301.859375 91.894531 C 302.75 91.894531 303.503906 91.6875 304.328125 91.34375 C 307.347656 89.902344 308.648438 86.402344 307.277344 83.378906 C 301.996094 71.847656 295.480469 60.449219 287.933594 49.535156 L 298.773438 39.304688 C 328.679688 73.835938 344.316406 117.707031 342.945312 163.707031 Z M 342.945312 163.707031 " fill-opacity="1" fill-rule="nonzero"/></g><path fill="rgb(18.818665%, 16.859436%, 17.649841%)" d="M 122.828125 318.730469 C 122.28125 318.730469 121.664062 318.664062 121.183594 318.457031 C 114.941406 316.601562 108.5625 314.269531 102.386719 311.660156 C 99.371094 310.355469 97.929688 306.855469 99.230469 303.832031 C 100.535156 300.8125 104.035156 299.371094 107.050781 300.675781 C 112.882812 303.148438 118.78125 305.273438 124.613281 306.992188 C 127.765625 307.953125 129.550781 311.25 128.660156 314.40625 C 127.835938 317.082031 125.503906 318.730469 122.828125 318.730469 Z M 122.828125 318.730469 " fill-opacity="1" fill-rule="nonzero"/><path fill="rgb(18.818665%, 16.859436%, 17.649841%)" d="M 165.011719 324.980469 C 155.546875 324.980469 146.011719 324.019531 136.410156 322.234375 C 133.1875 321.617188 131.058594 318.457031 131.675781 315.160156 C 132.292969 311.933594 135.449219 309.804688 138.742188 310.425781 C 184.21875 319.28125 229.699219 304.863281 266.667969 269.984375 C 286.769531 251.105469 301.035156 226.800781 308.03125 199.890625 C 315.164062 172.289062 314.480469 142.285156 305.835938 113.175781 C 304.875 110.019531 306.730469 106.65625 309.882812 105.761719 C 313.039062 104.871094 316.398438 106.65625 317.292969 109.8125 C 326.550781 140.914062 327.308594 173.183594 319.554688 202.839844 C 312.011719 231.949219 296.578125 258.175781 274.832031 278.636719 C 242.730469 309.121094 204.457031 324.980469 165.011719 324.980469 Z M 165.011719 324.980469 " fill-opacity="1" fill-rule="nonzero"/><path fill="rgb(18.818665%, 16.859436%, 17.649841%)" d="M 115.078125 254.746094 C 115.078125 255.351562 115.019531 255.957031 114.898438 256.554688 C 114.78125 257.148438 114.605469 257.730469 114.371094 258.292969 C 114.140625 258.855469 113.855469 259.386719 113.515625 259.894531 C 113.179688 260.398438 112.796875 260.867188 112.363281 261.296875 C 111.933594 261.730469 111.46875 262.113281 110.960938 262.453125 C 110.457031 262.789062 109.921875 263.074219 109.359375 263.308594 C 108.800781 263.539062 108.21875 263.714844 107.625 263.835938 C 107.027344 263.953125 106.425781 264.011719 105.816406 264.011719 C 105.210938 264.011719 104.605469 263.953125 104.011719 263.835938 C 103.414062 263.714844 102.835938 263.539062 102.273438 263.308594 C 101.710938 263.074219 101.179688 262.789062 100.671875 262.453125 C 100.167969 262.113281 99.699219 261.730469 99.269531 261.296875 C 98.839844 260.867188 98.457031 260.398438 98.117188 259.894531 C 97.78125 259.386719 97.496094 258.855469 97.261719 258.292969 C 97.027344 257.730469 96.851562 257.148438 96.734375 256.554688 C 96.617188 255.957031 96.558594 255.351562 96.558594 254.746094 C 96.558594 254.136719 96.617188 253.535156 96.734375 252.9375 C 96.851562 252.339844 97.027344 251.761719 97.261719 251.199219 C 97.496094 250.636719 97.78125 250.101562 98.117188 249.59375 C 98.457031 249.089844 98.839844 248.621094 99.269531 248.191406 C 99.699219 247.761719 100.167969 247.375 100.671875 247.039062 C 101.179688 246.699219 101.710938 246.414062 102.273438 246.183594 C 102.835938 245.949219 103.414062 245.773438 104.011719 245.65625 C 104.605469 245.535156 105.210938 245.476562 105.816406 245.476562 C 106.425781 245.476562 107.027344 245.535156 107.625 245.65625 C 108.21875 245.773438 108.800781 245.949219 109.359375 246.183594 C 109.921875 246.414062 110.457031 246.699219 110.960938 247.039062 C 111.46875 247.375 111.933594 247.761719 112.363281 248.191406 C 112.796875 248.621094 113.179688 249.089844 113.515625 249.59375 C 113.855469 250.101562 114.140625 250.636719 114.371094 251.199219 C 114.605469 251.761719 114.78125 252.339844 114.898438 252.9375 C 115.019531 253.535156 115.078125 254.136719 115.078125 254.746094 Z M 115.078125 254.746094 " fill-opacity="1" fill-rule="nonzero"/><path fill="rgb(18.818665%, 16.859436%, 17.649841%)" d="M 185.867188 215.335938 C 185.867188 215.945312 185.808594 216.546875 185.6875 217.144531 C 185.570312 217.742188 185.394531 218.320312 185.160156 218.882812 C 184.929688 219.445312 184.644531 219.980469 184.304688 220.484375 C 183.96875 220.992188 183.582031 221.460938 183.152344 221.890625 C 182.722656 222.320312 182.257812 222.703125 181.75 223.042969 C 181.246094 223.382812 180.710938 223.667969 180.148438 223.898438 C 179.589844 224.132812 179.007812 224.308594 178.414062 224.425781 C 177.816406 224.546875 177.214844 224.605469 176.605469 224.605469 C 175.996094 224.605469 175.394531 224.546875 174.800781 224.425781 C 174.203125 224.308594 173.625 224.132812 173.0625 223.898438 C 172.5 223.667969 171.96875 223.382812 171.460938 223.042969 C 170.957031 222.703125 170.488281 222.320312 170.058594 221.890625 C 169.628906 221.460938 169.246094 220.992188 168.90625 220.484375 C 168.570312 219.980469 168.285156 219.445312 168.050781 218.882812 C 167.816406 218.320312 167.640625 217.742188 167.523438 217.144531 C 167.40625 216.546875 167.347656 215.945312 167.347656 215.335938 C 167.347656 214.726562 167.40625 214.125 167.523438 213.527344 C 167.640625 212.929688 167.816406 212.351562 168.050781 211.789062 C 168.285156 211.226562 168.570312 210.691406 168.90625 210.1875 C 169.246094 209.679688 169.628906 209.214844 170.058594 208.78125 C 170.488281 208.351562 170.957031 207.96875 171.460938 207.628906 C 171.96875 207.292969 172.5 207.007812 173.0625 206.773438 C 173.625 206.539062 174.203125 206.363281 174.800781 206.246094 C 175.394531 206.128906 175.996094 206.066406 176.605469 206.066406 C 177.214844 206.066406 177.816406 206.128906 178.414062 206.246094 C 179.007812 206.363281 179.589844 206.539062 180.148438 206.773438 C 180.710938 207.007812 181.246094 207.292969 181.75 207.628906 C 182.257812 207.96875 182.722656 208.351562 183.152344 208.78125 C 183.582031 209.214844 183.96875 209.679688 184.304688 210.1875 C 184.644531 210.691406 184.929688 211.226562 185.160156 211.789062 C 185.394531 212.351562 185.570312 212.929688 185.6875 213.527344 C 185.808594 214.125 185.867188 214.726562 185.867188 215.335938 Z M 185.867188 215.335938 " fill-opacity="1" fill-rule="nonzero"/><path fill="rgb(18.818665%, 16.859436%, 17.649841%)" d="M 283.269531 182.3125 C 283.269531 182.921875 283.210938 183.523438 283.089844 184.121094 C 282.972656 184.71875 282.796875 185.296875 282.566406 185.859375 C 282.332031 186.421875 282.046875 186.957031 281.707031 187.460938 C 281.371094 187.96875 280.988281 188.4375 280.558594 188.867188 C 280.128906 189.296875 279.660156 189.679688 279.152344 190.019531 C 278.648438 190.359375 278.113281 190.644531 277.554688 190.875 C 276.992188 191.109375 276.414062 191.285156 275.816406 191.402344 C 275.21875 191.523438 274.617188 191.582031 274.007812 191.582031 C 273.402344 191.582031 272.800781 191.523438 272.203125 191.402344 C 271.605469 191.285156 271.027344 191.109375 270.464844 190.875 C 269.902344 190.644531 269.371094 190.359375 268.863281 190.019531 C 268.359375 189.679688 267.890625 189.296875 267.460938 188.867188 C 267.03125 188.4375 266.648438 187.96875 266.308594 187.460938 C 265.972656 186.957031 265.6875 186.421875 265.453125 185.859375 C 265.222656 185.296875 265.046875 184.71875 264.925781 184.121094 C 264.808594 183.523438 264.75 182.921875 264.75 182.3125 C 264.75 181.703125 264.808594 181.101562 264.925781 180.503906 C 265.046875 179.90625 265.222656 179.328125 265.453125 178.765625 C 265.6875 178.203125 265.972656 177.671875 266.308594 177.164062 C 266.648438 176.65625 267.03125 176.191406 267.460938 175.757812 C 267.890625 175.328125 268.359375 174.945312 268.863281 174.605469 C 269.371094 174.269531 269.902344 173.984375 270.464844 173.75 C 271.027344 173.515625 271.605469 173.339844 272.203125 173.222656 C 272.800781 173.105469 273.402344 173.042969 274.007812 173.042969 C 274.617188 173.042969 275.21875 173.105469 275.816406 173.222656 C 276.414062 173.339844 276.992188 173.515625 277.554688 173.75 C 278.113281 173.984375 278.648438 174.269531 279.152344 174.605469 C 279.660156 174.945312 280.128906 175.328125 280.558594 175.757812 C 280.988281 176.191406 281.371094 176.65625 281.707031 177.164062 C 282.046875 177.671875 282.332031 178.203125 282.566406 178.765625 C 282.796875 179.328125 282.972656 179.90625 283.089844 180.503906 C 283.210938 181.101562 283.269531 181.703125 283.269531 182.3125 Z M 283.269531 182.3125 " fill-opacity="1" fill-rule="nonzero"/><path fill="rgb(18.818665%, 16.859436%, 17.649841%)" d="M 270.167969 108.507812 C 270.167969 109.117188 270.109375 109.71875 269.988281 110.316406 C 269.871094 110.914062 269.695312 111.492188 269.464844 112.054688 C 269.230469 112.617188 268.945312 113.152344 268.605469 113.65625 C 268.269531 114.164062 267.886719 114.632812 267.457031 115.0625 C 267.027344 115.492188 266.558594 115.875 266.050781 116.214844 C 265.546875 116.554688 265.011719 116.839844 264.453125 117.070312 C 263.890625 117.304688 263.3125 117.480469 262.714844 117.597656 C 262.117188 117.71875 261.515625 117.777344 260.90625 117.777344 C 260.300781 117.777344 259.699219 117.71875 259.101562 117.597656 C 258.503906 117.480469 257.925781 117.304688 257.363281 117.070312 C 256.800781 116.839844 256.269531 116.554688 255.761719 116.214844 C 255.257812 115.875 254.789062 115.492188 254.359375 115.0625 C 253.929688 114.632812 253.546875 114.164062 253.207031 113.65625 C 252.871094 113.152344 252.585938 112.617188 252.351562 112.054688 C 252.121094 111.492188 251.945312 110.914062 251.824219 110.316406 C 251.707031 109.71875 251.648438 109.117188 251.648438 108.507812 C 251.648438 107.898438 251.707031 107.296875 251.824219 106.699219 C 251.945312 106.101562 252.121094 105.523438 252.351562 104.960938 C 252.585938 104.398438 252.871094 103.867188 253.207031 103.359375 C 253.546875 102.851562 253.929688 102.386719 254.359375 101.953125 C 254.789062 101.523438 255.257812 101.140625 255.761719 100.800781 C 256.269531 100.464844 256.800781 100.179688 257.363281 99.945312 C 257.925781 99.710938 258.503906 99.535156 259.101562 99.417969 C 259.699219 99.300781 260.300781 99.238281 260.90625 99.238281 C 261.515625 99.238281 262.117188 99.300781 262.714844 99.417969 C 263.3125 99.535156 263.890625 99.710938 264.453125 99.945312 C 265.011719 100.179688 265.546875 100.464844 266.050781 100.800781 C 266.558594 101.140625 267.027344 101.523438 267.457031 101.953125 C 267.886719 102.386719 268.269531 102.851562 268.605469 103.359375 C 268.945312 103.867188 269.230469 104.398438 269.464844 104.960938 C 269.695312 105.523438 269.871094 106.101562 269.988281 106.699219 C 270.109375 107.296875 270.167969 107.898438 270.167969 108.507812 Z M 270.167969 108.507812 " fill-opacity="1" fill-rule="nonzero"/><path fill="rgb(18.818665%, 16.859436%, 17.649841%)" d="M 228.804688 179.910156 C 228.804688 180.519531 228.746094 181.121094 228.628906 181.71875 C 228.507812 182.316406 228.332031 182.894531 228.101562 183.457031 C 227.867188 184.019531 227.582031 184.554688 227.246094 185.058594 C 226.90625 185.566406 226.523438 186.035156 226.09375 186.464844 C 225.664062 186.894531 225.195312 187.277344 224.691406 187.617188 C 224.183594 187.953125 223.652344 188.242188 223.089844 188.472656 C 222.527344 188.707031 221.949219 188.882812 221.351562 189 C 220.757812 189.121094 220.152344 189.179688 219.546875 189.179688 C 218.9375 189.179688 218.335938 189.121094 217.738281 189 C 217.144531 188.882812 216.5625 188.707031 216.003906 188.472656 C 215.441406 188.242188 214.90625 187.953125 214.402344 187.617188 C 213.894531 187.277344 213.429688 186.894531 212.996094 186.464844 C 212.566406 186.035156 212.183594 185.566406 211.847656 185.058594 C 211.507812 184.554688 211.222656 184.019531 210.992188 183.457031 C 210.757812 182.894531 210.582031 182.316406 210.464844 181.71875 C 210.34375 181.121094 210.285156 180.519531 210.285156 179.910156 C 210.285156 179.300781 210.34375 178.699219 210.464844 178.101562 C 210.582031 177.503906 210.757812 176.925781 210.992188 176.363281 C 211.222656 175.800781 211.507812 175.265625 211.847656 174.761719 C 212.183594 174.253906 212.566406 173.785156 212.996094 173.355469 C 213.429688 172.925781 213.894531 172.542969 214.402344 172.203125 C 214.90625 171.867188 215.441406 171.582031 216.003906 171.347656 C 216.5625 171.113281 217.144531 170.9375 217.738281 170.820312 C 218.335938 170.703125 218.9375 170.640625 219.546875 170.640625 C 220.152344 170.640625 220.757812 170.699219 221.351562 170.820312 C 221.949219 170.9375 222.527344 171.113281 223.089844 171.347656 C 223.652344 171.582031 224.183594 171.867188 224.691406 172.203125 C 225.195312 172.542969 225.664062 172.925781 226.09375 173.355469 C 226.523438 173.785156 226.90625 174.253906 227.246094 174.761719 C 227.582031 175.265625 227.867188 175.800781 228.101562 176.363281 C 228.332031 176.925781 228.507812 177.503906 228.628906 178.101562 C 228.746094 178.699219 228.804688 179.300781 228.804688 179.910156 Z M 228.804688 179.910156 " fill-opacity="1" fill-rule="nonzero"/><path fill="rgb(18.818665%, 16.859436%, 17.649841%)" d="M 179.144531 274.722656 C 179.144531 275.332031 179.085938 275.933594 178.964844 276.53125 C 178.847656 277.128906 178.671875 277.707031 178.4375 278.269531 C 178.207031 278.832031 177.921875 279.367188 177.582031 279.871094 C 177.246094 280.378906 176.863281 280.847656 176.433594 281.277344 C 176 281.707031 175.535156 282.09375 175.027344 282.429688 C 174.523438 282.769531 173.988281 283.054688 173.425781 283.285156 C 172.867188 283.519531 172.285156 283.695312 171.691406 283.8125 C 171.09375 283.933594 170.492188 283.992188 169.882812 283.992188 C 169.277344 283.992188 168.671875 283.933594 168.078125 283.8125 C 167.480469 283.695312 166.902344 283.519531 166.339844 283.285156 C 165.777344 283.054688 165.246094 282.769531 164.738281 282.429688 C 164.234375 282.09375 163.765625 281.707031 163.335938 281.277344 C 162.90625 280.847656 162.523438 280.378906 162.183594 279.871094 C 161.847656 279.367188 161.5625 278.832031 161.328125 278.269531 C 161.097656 277.707031 160.921875 277.128906 160.800781 276.53125 C 160.683594 275.933594 160.625 275.332031 160.625 274.722656 C 160.625 274.113281 160.683594 273.511719 160.800781 272.914062 C 160.921875 272.320312 161.097656 271.738281 161.328125 271.175781 C 161.5625 270.613281 161.847656 270.082031 162.183594 269.574219 C 162.523438 269.066406 162.90625 268.601562 163.335938 268.167969 C 163.765625 267.738281 164.234375 267.355469 164.738281 267.015625 C 165.246094 266.679688 165.777344 266.394531 166.339844 266.160156 C 166.902344 265.925781 167.480469 265.75 168.078125 265.632812 C 168.671875 265.515625 169.277344 265.453125 169.882812 265.453125 C 170.492188 265.453125 171.09375 265.515625 171.691406 265.632812 C 172.285156 265.75 172.867188 265.925781 173.425781 266.160156 C 173.988281 266.394531 174.523438 266.679688 175.027344 267.015625 C 175.535156 267.355469 176 267.738281 176.433594 268.167969 C 176.863281 268.601562 177.246094 269.066406 177.582031 269.574219 C 177.921875 270.082031 178.207031 270.613281 178.4375 271.175781 C 178.671875 271.738281 178.847656 272.320312 178.964844 272.914062 C 179.085938 273.511719 179.144531 274.113281 179.144531 274.722656 Z M 179.144531 274.722656 " fill-opacity="1" fill-rule="nonzero"/><path fill="rgb(18.818665%, 16.859436%, 17.649841%)" d="M 251.441406 244.035156 C 251.441406 244.644531 251.382812 245.246094 251.265625 245.84375 C 251.144531 246.441406 250.96875 247.019531 250.738281 247.582031 C 250.503906 248.144531 250.21875 248.679688 249.882812 249.183594 C 249.542969 249.691406 249.160156 250.15625 248.730469 250.589844 C 248.300781 251.019531 247.832031 251.402344 247.328125 251.742188 C 246.820312 252.078125 246.289062 252.363281 245.726562 252.597656 C 245.164062 252.832031 244.585938 253.007812 243.988281 253.125 C 243.390625 253.242188 242.789062 253.304688 242.183594 253.304688 C 241.574219 253.304688 240.972656 253.242188 240.375 253.125 C 239.777344 253.007812 239.199219 252.832031 238.636719 252.597656 C 238.078125 252.363281 237.542969 252.078125 237.035156 251.742188 C 236.53125 251.402344 236.0625 251.019531 235.632812 250.589844 C 235.203125 250.15625 234.820312 249.691406 234.480469 249.183594 C 234.144531 248.679688 233.859375 248.144531 233.625 247.582031 C 233.394531 247.019531 233.21875 246.441406 233.097656 245.84375 C 232.980469 245.246094 232.921875 244.644531 232.921875 244.035156 C 232.921875 243.425781 232.980469 242.824219 233.097656 242.226562 C 233.21875 241.628906 233.394531 241.050781 233.625 240.488281 C 233.859375 239.925781 234.144531 239.390625 234.480469 238.886719 C 234.820312 238.378906 235.203125 237.910156 235.632812 237.480469 C 236.0625 237.050781 236.53125 236.667969 237.035156 236.328125 C 237.542969 235.988281 238.078125 235.703125 238.636719 235.472656 C 239.199219 235.238281 239.777344 235.0625 240.375 234.945312 C 240.972656 234.824219 241.574219 234.765625 242.183594 234.765625 C 242.789062 234.765625 243.390625 234.824219 243.988281 234.945312 C 244.585938 235.0625 245.164062 235.238281 245.726562 235.472656 C 246.289062 235.703125 246.820312 235.988281 247.328125 236.328125 C 247.832031 236.667969 248.300781 237.050781 248.730469 237.480469 C 249.160156 237.910156 249.542969 238.378906 249.882812 238.886719 C 250.21875 239.390625 250.503906 239.925781 250.738281 240.488281 C 250.96875 241.050781 251.144531 241.628906 251.265625 242.226562 C 251.382812 242.824219 251.441406 243.425781 251.441406 244.035156 Z M 251.441406 244.035156 " fill-opacity="1" fill-rule="nonzero"/></svg>