<svg xmlns="http://www.w3.org/2000/svg" width="375" viewBox="0 0 375 375" height="375" version="1.0"><defs><clipPath id="a"><path d="M 57.246094 80.296875 L 306.996094 80.296875 L 306.996094 294.796875 L 57.246094 294.796875 Z M 57.246094 80.296875"/></clipPath></defs><path fill="#FFF" d="M-37.5 -37.5H412.5V412.5H-37.5z"/><path fill="#E1DDD3" d="M-37.5 -37.5H412.5V412.5H-37.5z"/><g clip-path="url(#a)"><path d="M 290.378906 166.90625 C 279.101562 151.863281 262.914062 143.582031 244.800781 143.582031 C 239.175781 143.582031 233.65625 144.351562 228.246094 145.890625 C 227.398438 145.625 226.539062 145.382812 225.675781 145.164062 L 194.679688 125.820312 L 194.664062 109.578125 C 194.664062 109.175781 194.703125 108.777344 194.78125 108.382812 C 194.859375 107.988281 194.976562 107.605469 195.132812 107.234375 C 195.285156 106.863281 195.472656 106.511719 195.695312 106.175781 C 195.917969 105.84375 196.171875 105.535156 196.457031 105.25 C 196.742188 104.964844 197.050781 104.710938 197.386719 104.488281 C 197.71875 104.265625 198.070312 104.078125 198.441406 103.921875 C 198.8125 103.769531 199.195312 103.652344 199.589844 103.574219 C 199.984375 103.496094 200.382812 103.457031 200.785156 103.457031 C 201.1875 103.457031 201.585938 103.496094 201.976562 103.574219 C 202.371094 103.652344 202.753906 103.769531 203.125 103.921875 C 203.496094 104.078125 203.851562 104.265625 204.183594 104.488281 C 204.519531 104.710938 204.828125 104.964844 205.109375 105.25 C 205.394531 105.535156 205.648438 105.84375 205.871094 106.175781 C 206.09375 106.511719 206.285156 106.863281 206.4375 107.234375 C 206.589844 107.605469 206.707031 107.988281 206.785156 108.382812 C 206.863281 108.777344 206.902344 109.175781 206.902344 109.578125 L 206.902344 111.628906 L 210.019531 114.746094 L 227.125 114.746094 L 230.242188 111.628906 L 230.242188 109.578125 C 230.222656 108.621094 230.160156 107.671875 230.050781 106.726562 C 229.941406 105.777344 229.785156 104.839844 229.582031 103.90625 C 229.382812 102.972656 229.136719 102.054688 228.84375 101.144531 C 228.554688 100.238281 228.21875 99.34375 227.84375 98.46875 C 227.464844 97.59375 227.046875 96.738281 226.585938 95.902344 C 226.128906 95.066406 225.628906 94.253906 225.089844 93.46875 C 224.550781 92.683594 223.972656 91.921875 223.363281 91.191406 C 222.75 90.460938 222.101562 89.761719 221.421875 89.09375 C 220.742188 88.425781 220.03125 87.792969 219.289062 87.195312 C 218.546875 86.59375 217.777344 86.03125 216.980469 85.507812 C 216.183594 84.984375 215.363281 84.5 214.519531 84.054688 C 213.675781 83.609375 212.8125 83.207031 211.933594 82.847656 C 211.050781 82.484375 210.152344 82.167969 209.238281 81.894531 C 208.324219 81.621094 207.398438 81.394531 206.464844 81.207031 C 205.527344 81.023438 204.585938 80.886719 203.636719 80.792969 C 202.6875 80.703125 201.738281 80.65625 200.785156 80.65625 C 199.832031 80.65625 198.878906 80.703125 197.929688 80.792969 C 196.980469 80.886719 196.039062 81.023438 195.105469 81.207031 C 194.167969 81.390625 193.242188 81.621094 192.332031 81.894531 C 191.417969 82.167969 190.519531 82.484375 189.636719 82.84375 C 188.753906 83.207031 187.890625 83.609375 187.046875 84.054688 C 186.203125 84.496094 185.382812 84.980469 184.589844 85.507812 C 183.792969 86.03125 183.023438 86.589844 182.28125 87.191406 C 181.539062 87.789062 180.828125 88.421875 180.148438 89.089844 C 179.464844 89.757812 178.820312 90.457031 178.207031 91.1875 C 177.59375 91.917969 177.019531 92.679688 176.480469 93.464844 C 175.941406 94.25 175.441406 95.0625 174.980469 95.898438 C 174.519531 96.730469 174.101562 97.585938 173.726562 98.464844 C 173.347656 99.339844 173.015625 100.230469 172.722656 101.140625 C 172.433594 102.046875 172.1875 102.96875 171.984375 103.898438 C 171.785156 104.832031 171.628906 105.773438 171.519531 106.71875 C 171.410156 107.664062 171.34375 108.617188 171.328125 109.570312 L 171.292969 125.339844 L 171.226562 125.277344 C 162.273438 134.238281 145.988281 138.898438 133.339844 136.113281 C 127.527344 134.832031 119.878906 131.351562 116.46875 122.054688 C 115.972656 120.730469 115.617188 119.371094 115.410156 117.972656 C 115.199219 116.578125 115.136719 115.171875 115.21875 113.761719 C 115.304688 112.351562 115.535156 110.964844 115.910156 109.605469 C 116.285156 108.242188 116.800781 106.933594 117.449219 105.679688 C 118.113281 104.453125 118.902344 103.3125 119.8125 102.253906 C 120.726562 101.199219 121.738281 100.253906 122.859375 99.417969 C 123.976562 98.582031 125.167969 97.875 126.441406 97.300781 C 127.710938 96.722656 129.027344 96.289062 130.394531 96 C 137.941406 94.121094 145.691406 99.511719 147.929688 105.519531 C 149.71875 110.324219 147.660156 114.507812 142.140625 117.304688 C 139.324219 118.730469 136.5 118.6875 134.589844 117.191406 C 134.214844 116.890625 133.890625 116.542969 133.617188 116.148438 C 133.34375 115.75 133.136719 115.324219 132.992188 114.863281 C 132.84375 114.40625 132.769531 113.9375 132.761719 113.457031 C 132.753906 112.976562 132.820312 112.503906 132.953125 112.042969 C 133.28125 111.214844 133.871094 110.660156 134.714844 110.378906 C 135.363281 110.058594 136.011719 110.050781 136.667969 110.351562 L 140.082031 105.136719 C 139.511719 104.785156 138.90625 104.503906 138.269531 104.296875 C 137.628906 104.085938 136.972656 103.960938 136.304688 103.914062 C 135.632812 103.867188 134.96875 103.898438 134.304688 104.015625 C 133.644531 104.132812 133.003906 104.324219 132.390625 104.597656 C 131.726562 104.847656 131.097656 105.171875 130.511719 105.570312 C 129.921875 105.96875 129.386719 106.429688 128.910156 106.953125 C 128.429688 107.480469 128.019531 108.054688 127.675781 108.675781 C 127.332031 109.300781 127.066406 109.953125 126.878906 110.640625 C 126.617188 111.679688 126.507812 112.734375 126.550781 113.808594 C 126.59375 114.878906 126.785156 115.921875 127.128906 116.9375 C 127.46875 117.953125 127.949219 118.902344 128.5625 119.78125 C 129.179688 120.660156 129.90625 121.433594 130.746094 122.101562 C 134.554688 125.085938 140 125.382812 144.957031 122.871094 C 154.929688 117.824219 156.050781 109.480469 153.773438 103.355469 C 150.550781 94.691406 139.789062 87.242188 128.890625 89.949219 C 127.105469 90.355469 125.382812 90.941406 123.722656 91.714844 C 122.0625 92.484375 120.5 93.421875 119.039062 94.527344 C 117.578125 95.632812 116.25 96.875 115.054688 98.265625 C 113.859375 99.652344 112.824219 101.148438 111.949219 102.757812 C 111.09375 104.398438 110.417969 106.109375 109.917969 107.890625 C 109.421875 109.675781 109.117188 111.492188 109.003906 113.335938 C 108.890625 115.183594 108.96875 117.023438 109.242188 118.855469 C 109.511719 120.683594 109.972656 122.46875 110.621094 124.203125 C 114.039062 133.527344 121.632812 139.921875 132 142.203125 C 134.925781 142.828125 137.882812 143.136719 140.875 143.121094 C 142.136719 143.121094 143.414062 143.058594 144.695312 142.957031 L 142.527344 144.316406 C 140.285156 144.691406 138.082031 145.214844 135.910156 145.894531 C 130.5 144.355469 124.980469 143.585938 119.355469 143.585938 C 101.238281 143.585938 85.050781 151.867188 73.773438 166.910156 C 63.101562 181.144531 57.222656 200.734375 57.222656 222.078125 C 57.222656 243.34375 62.988281 261.390625 73.890625 274.265625 C 84.996094 287.382812 100.722656 294.316406 119.355469 294.316406 C 124.980469 294.324219 130.53125 293.675781 136.003906 292.375 C 141.0625 293.695312 146.207031 294.34375 151.4375 294.316406 C 157.445312 294.304688 163.304688 293.363281 169.011719 291.492188 C 173.078125 293.320312 177.34375 294.261719 181.804688 294.3125 L 182.351562 294.3125 C 186.8125 294.261719 191.074219 293.320312 195.140625 291.492188 C 200.851562 293.363281 206.707031 294.304688 212.714844 294.316406 C 217.945312 294.34375 223.089844 293.695312 228.152344 292.375 C 233.625 293.675781 239.171875 294.324219 244.796875 294.316406 C 263.429688 294.316406 279.152344 287.382812 290.261719 274.261719 C 301.167969 261.386719 306.929688 243.34375 306.929688 222.074219 C 306.929688 200.734375 301.054688 181.140625 290.378906 166.90625 Z M 176.054688 130.703125 L 177.519531 128.070312 L 177.558594 109.578125 C 177.566406 108.832031 177.609375 108.089844 177.683594 107.347656 C 177.761719 106.605469 177.875 105.871094 178.023438 105.136719 C 178.171875 104.40625 178.355469 103.683594 178.574219 102.972656 C 178.792969 102.257812 179.042969 101.554688 179.328125 100.867188 C 179.613281 100.179688 179.933594 99.503906 180.28125 98.84375 C 180.632812 98.1875 181.015625 97.546875 181.425781 96.925781 C 181.839844 96.304688 182.277344 95.703125 182.75 95.125 C 183.21875 94.542969 183.714844 93.988281 184.238281 93.457031 C 184.761719 92.925781 185.308594 92.421875 185.882812 91.941406 C 186.453125 91.460938 187.046875 91.011719 187.664062 90.589844 C 188.277344 90.167969 188.914062 89.777344 189.566406 89.417969 C 190.21875 89.058594 190.886719 88.730469 191.574219 88.433594 C 192.257812 88.136719 192.957031 87.875 193.664062 87.644531 C 194.375 87.417969 195.09375 87.222656 195.824219 87.0625 C 196.550781 86.90625 197.285156 86.78125 198.027344 86.691406 C 198.769531 86.601562 199.511719 86.550781 200.257812 86.53125 C 201.003906 86.515625 201.746094 86.535156 202.492188 86.589844 C 203.234375 86.644531 203.976562 86.734375 204.710938 86.859375 C 205.445312 86.984375 206.171875 87.148438 206.894531 87.34375 C 207.613281 87.539062 208.320312 87.769531 209.019531 88.035156 C 209.714844 88.296875 210.398438 88.59375 211.070312 88.925781 C 211.738281 89.253906 212.390625 89.617188 213.023438 90.007812 C 213.65625 90.402344 214.269531 90.824219 214.863281 91.277344 C 215.457031 91.730469 216.027344 92.207031 216.574219 92.714844 C 217.121094 93.222656 217.644531 93.753906 218.140625 94.3125 C 218.636719 94.867188 219.105469 95.449219 219.542969 96.050781 C 219.984375 96.652344 220.394531 97.277344 220.773438 97.917969 C 221.15625 98.558594 221.503906 99.21875 221.820312 99.894531 C 222.136719 100.570312 222.421875 101.257812 222.671875 101.960938 C 222.921875 102.664062 223.136719 103.375 223.320312 104.101562 C 223.5 104.824219 223.648438 105.554688 223.757812 106.292969 C 223.871094 107.03125 223.945312 107.769531 223.984375 108.515625 L 213.09375 108.515625 C 213.027344 107.726562 212.886719 106.953125 212.671875 106.195312 C 212.457031 105.433594 212.171875 104.699219 211.816406 103.996094 C 211.464844 103.289062 211.042969 102.621094 210.5625 101.996094 C 210.078125 101.371094 209.539062 100.796875 208.949219 100.277344 C 208.355469 99.753906 207.71875 99.292969 207.035156 98.890625 C 206.355469 98.492188 205.640625 98.160156 204.898438 97.898438 C 204.152344 97.632812 203.386719 97.445312 202.605469 97.328125 C 201.824219 97.210938 201.039062 97.171875 200.25 97.203125 C 199.460938 97.238281 198.683594 97.347656 197.914062 97.53125 C 197.144531 97.714844 196.402344 97.96875 195.683594 98.296875 C 194.960938 98.621094 194.28125 99.015625 193.636719 99.472656 C 192.992188 99.929688 192.398438 100.445312 191.851562 101.015625 C 191.304688 101.585938 190.820312 102.203125 190.390625 102.871094 C 189.964844 103.535156 189.605469 104.234375 189.3125 104.96875 C 189.019531 105.703125 188.800781 106.457031 188.652344 107.234375 C 188.503906 108.007812 188.429688 108.792969 188.433594 109.582031 L 188.449219 127.554688 L 189.917969 130.195312 L 211.40625 143.605469 C 205.613281 143.746094 199.976562 144.753906 194.492188 146.621094 C 190.675781 144.683594 186.628906 143.671875 182.347656 143.585938 L 181.800781 143.585938 C 177.523438 143.671875 173.476562 144.683594 169.660156 146.621094 C 164.980469 145.027344 160.171875 144.058594 155.238281 143.71875 Z M 119.359375 288.082031 C 85.402344 288.082031 63.460938 262.171875 63.460938 222.074219 C 63.460938 179.527344 86.445312 149.8125 119.359375 149.8125 C 121.617188 149.816406 123.867188 149.957031 126.105469 150.238281 C 122.597656 152.34375 119.363281 154.8125 116.40625 157.644531 C 113.453125 160.480469 110.847656 163.605469 108.59375 167.023438 C 99.117188 180.992188 93.894531 200.542969 93.894531 222.074219 C 93.894531 253.992188 105.210938 277.246094 124.675781 287.875 C 122.929688 288.007812 121.15625 288.078125 119.359375 288.082031 Z M 151.441406 288.082031 C 119.308594 288.082031 100.128906 263.40625 100.128906 222.074219 C 100.128906 186.105469 115.992188 149.8125 151.441406 149.8125 C 155.316406 149.820312 159.140625 150.265625 162.910156 151.160156 C 157.777344 155.75 153.730469 161.15625 150.765625 167.375 C 143.6875 181.5 139.789062 200.917969 139.789062 222.070312 C 139.789062 252.78125 147.972656 275.886719 161.746094 286.992188 C 158.347656 287.710938 154.914062 288.074219 151.441406 288.082031 Z M 182.078125 288.082031 C 160.164062 287.867188 146.019531 262.003906 146.019531 222.074219 C 146.019531 180.386719 161.167969 150.078125 182.078125 149.816406 C 202.992188 150.078125 218.140625 180.386719 218.140625 222.074219 C 218.140625 262.003906 203.992188 287.867188 182.078125 288.078125 Z M 212.71875 288.082031 C 209.242188 288.078125 205.808594 287.714844 202.40625 286.996094 C 216.183594 275.890625 224.367188 252.785156 224.367188 222.074219 C 224.367188 200.925781 220.46875 181.503906 213.386719 167.378906 C 210.425781 161.160156 206.375 155.753906 201.242188 151.160156 C 205.015625 150.269531 208.839844 149.820312 212.71875 149.8125 C 248.164062 149.8125 264.03125 186.105469 264.03125 222.074219 C 264.03125 263.40625 244.851562 288.082031 212.71875 288.082031 Z M 244.800781 288.082031 C 243 288.082031 241.230469 288.011719 239.484375 287.875 C 258.949219 277.246094 270.261719 253.988281 270.261719 222.074219 C 270.261719 200.542969 265.042969 180.996094 255.5625 167.023438 C 253.308594 163.605469 250.707031 160.480469 247.75 157.648438 C 244.796875 154.8125 241.5625 152.34375 238.050781 150.238281 C 240.292969 149.957031 242.542969 149.816406 244.800781 149.816406 C 277.710938 149.816406 300.699219 179.53125 300.699219 222.074219 C 300.699219 262.171875 278.757812 288.082031 244.800781 288.082031 Z M 244.800781 288.082031"/></g></svg>