<svg xmlns="http://www.w3.org/2000/svg" width="375" viewBox="0 0 375 375" height="375" version="1.0"><defs><clipPath id="a"><path d="M 67 43 L 337 43 L 337 318.640625 L 67 318.640625 Z M 67 43"/></clipPath></defs><path fill="#FFF" d="M-37.5 -37.5H412.5V412.5H-37.5z"/><path fill="none" d="M-37.5 -37.5H412.5V412.5H-37.5z"/><path fill="#231F20" d="M 139.078125 214.824219 C 143.929688 211.460938 148.941406 207.984375 154.355469 204.09375 C 156.003906 202.90625 156.378906 200.613281 155.191406 198.964844 C 154.007812 197.316406 151.707031 196.941406 150.058594 198.125 C 144.699219 201.980469 139.710938 205.441406 134.882812 208.789062 C 126.292969 214.75 118.179688 220.378906 110.234375 226.699219 C 106.109375 229.980469 95.5 239.835938 86.105469 260.441406 C 85.265625 262.289062 86.082031 264.46875 87.929688 265.308594 C 88.425781 265.535156 88.941406 265.640625 89.449219 265.640625 C 90.847656 265.640625 92.183594 264.84375 92.800781 263.488281 C 101.53125 244.332031 111.101562 235.402344 114.8125 232.449219 C 122.570312 226.277344 130.589844 220.71875 139.078125 214.824219"/><path fill="#231F20" d="M 267.230469 91.597656 C 266.03125 89.960938 263.730469 89.601562 262.09375 90.796875 C 251.742188 98.351562 237.957031 113.917969 223.363281 130.402344 C 204.761719 151.40625 183.679688 175.210938 166 186.636719 C 164.292969 187.738281 163.804688 190.011719 164.910156 191.71875 C 165.613281 192.804688 166.792969 193.398438 168 193.398438 C 168.683594 193.398438 169.378906 193.207031 169.992188 192.808594 C 188.519531 180.835938 209.957031 156.628906 228.871094 135.273438 C 243.191406 119.097656 256.722656 103.820312 266.429688 96.734375 C 268.070312 95.539062 268.425781 93.238281 267.230469 91.597656"/><path fill="#231F20" d="M 235.328125 192.863281 C 233.753906 191.582031 231.433594 191.820312 230.152344 193.390625 C 209.171875 219.144531 191.050781 241.382812 167.117188 261.839844 C 167.074219 261.871094 167.035156 261.910156 166.996094 261.945312 C 152.574219 275.390625 135.847656 285.023438 117.277344 290.582031 C 115.332031 291.164062 114.226562 293.214844 114.808594 295.15625 C 115.289062 296.75 116.75 297.78125 118.332031 297.78125 C 118.679688 297.78125 119.035156 297.730469 119.386719 297.625 C 139.027344 291.746094 156.710938 281.566406 171.953125 267.375 C 196.363281 246.5 214.664062 224.039062 235.855469 198.03125 C 237.136719 196.460938 236.902344 194.144531 235.328125 192.863281"/><path fill="#231F20" d="M 296.410156 113.390625 C 294.648438 112.386719 292.402344 113 291.394531 114.761719 C 291.261719 114.992188 277.9375 138.164062 255.789062 164.730469 C 254.488281 166.289062 254.699219 168.609375 256.261719 169.90625 C 256.945312 170.476562 257.78125 170.757812 258.613281 170.757812 C 259.664062 170.757812 260.710938 170.308594 261.4375 169.433594 C 283.992188 142.375 297.640625 118.644531 297.777344 118.40625 C 298.785156 116.644531 298.171875 114.398438 296.410156 113.390625"/><g clip-path="url(#a)"><path fill="#231F20" d="M 327.417969 77.808594 C 323.800781 83.394531 320.183594 89.097656 316.640625 94.796875 C 315.859375 96.078125 314.742188 96.867188 313.410156 97.078125 C 311.886719 97.320312 310.261719 96.78125 308.832031 95.554688 C 308.285156 95.085938 307.808594 94.542969 307.40625 93.945312 C 307.890625 93.46875 308.332031 92.953125 308.734375 92.394531 C 313.570312 85.8125 318.542969 79.207031 323.539062 72.730469 C 324.558594 71.375 325.332031 69.867188 325.839844 68.269531 C 326.3125 68.414062 326.738281 68.632812 327.105469 68.933594 C 329.183594 70.636719 329.320312 74.800781 327.417969 77.808594 Z M 299.667969 151.753906 C 282.957031 176.660156 261.976562 202.828125 237.304688 229.535156 C 215.914062 252.691406 192.875 274.992188 170.667969 294.015625 C 155.644531 306.890625 137.445312 313.03125 120.742188 310.855469 C 106.339844 308.980469 93.953125 301.078125 84.914062 288 C 63.882812 254.171875 80.636719 221.496094 105.121094 205.449219 C 147.511719 177.65625 187.542969 142.074219 227.496094 96.667969 C 242.902344 79.152344 259.386719 69.871094 274.320312 70.171875 C 274.535156 73.832031 276.367188 77.382812 279.410156 80.003906 C 280.742188 81.148438 282.238281 82.042969 283.835938 82.675781 C 283.871094 86.765625 285.789062 90.875 289.210938 93.828125 C 292.003906 96.234375 295.375 97.484375 298.675781 97.484375 C 299.402344 97.484375 300.125 97.421875 300.839844 97.300781 C 301.691406 98.742188 302.769531 100.039062 304.046875 101.132812 C 306.519531 103.253906 309.511719 104.414062 312.496094 104.46875 C 315.410156 118.578125 311.011719 134.847656 299.667969 151.753906 Z M 297.667969 53.199219 C 300.375 50.882812 304.792969 50.53125 307.125 52.453125 C 307.472656 52.742188 307.734375 53.066406 307.9375 53.394531 C 306.457031 54.128906 305.097656 55.089844 303.929688 56.273438 C 298.273438 62.121094 292.609375 68.121094 287.125 74.070312 C 286.679688 74.539062 286.285156 75.042969 285.925781 75.570312 C 285.316406 75.269531 284.738281 74.890625 284.210938 74.4375 C 282.597656 73.046875 281.664062 71.246094 281.652344 69.492188 C 281.644531 68.582031 281.890625 67.269531 283.148438 66.15625 C 287.925781 61.808594 292.820312 57.445312 297.667969 53.199219 Z M 319.179688 64.285156 C 319.074219 65.742188 318.550781 67.132812 317.6875 68.273438 C 312.683594 74.761719 307.675781 81.414062 302.785156 88.074219 C 302.335938 88.699219 301.773438 89.195312 301.109375 89.542969 C 299 90.664062 296.214844 90.160156 294.015625 88.261719 C 291.75 86.308594 290.699219 83.394531 291.398438 81.007812 C 291.613281 80.28125 291.972656 79.640625 292.503906 79.078125 C 297.980469 73.140625 303.601562 67.1875 309.191406 61.40625 C 310.464844 60.117188 311.972656 59.574219 313.007812 59.347656 C 313.011719 59.347656 313.011719 59.347656 313.011719 59.347656 C 314.847656 58.949219 316.609375 59.253906 317.71875 60.164062 C 318.773438 61.035156 319.308594 62.535156 319.179688 64.285156 Z M 331.769531 63.25 C 330.203125 61.964844 328.289062 61.152344 326.234375 60.855469 C 325.664062 58.320312 324.347656 56.097656 322.390625 54.488281 C 320.429688 52.875 317.949219 51.96875 315.273438 51.839844 C 314.605469 49.871094 313.421875 48.121094 311.804688 46.789062 C 306.761719 42.625 298.273438 43 292.851562 47.648438 C 287.941406 51.941406 283.011719 56.339844 278.226562 60.691406 C 277.476562 61.359375 276.828125 62.101562 276.285156 62.902344 C 258.628906 61.777344 239.441406 71.957031 221.972656 91.8125 C 182.460938 136.71875 142.921875 171.878906 101.085938 199.300781 C 87.054688 208.5 76.144531 222.324219 71.148438 237.226562 C 65.078125 255.347656 67.695312 274.273438 78.71875 291.960938 C 78.75 292.007812 78.78125 292.054688 78.8125 292.101562 C 89.066406 306.984375 103.238281 315.988281 119.792969 318.144531 C 122.316406 318.472656 124.867188 318.632812 127.429688 318.632812 C 143.949219 318.632812 161.082031 311.914062 175.457031 299.597656 C 197.871094 280.386719 221.128906 257.882812 242.710938 234.519531 C 267.632812 207.535156 288.855469 181.066406 305.777344 155.847656 C 318.433594 136.984375 323.160156 118.542969 319.546875 102.292969 C 320.871094 101.34375 322.007812 100.117188 322.902344 98.644531 C 326.40625 93.015625 330 87.347656 333.609375 81.765625 C 337.585938 75.488281 336.773438 67.355469 331.769531 63.25"/></g><path fill="#231F20" d="M 100.351562 289.332031 C 98.058594 287.375 96.058594 285.410156 94.570312 283.648438 C 92.757812 281.5 91.390625 279.101562 90.558594 277.464844 C 89.640625 275.65625 87.429688 274.929688 85.617188 275.847656 C 83.808594 276.765625 83.082031 278.976562 84 280.789062 C 85.003906 282.769531 86.679688 285.703125 88.953125 288.386719 C 90.71875 290.480469 92.945312 292.675781 95.574219 294.921875 C 96.265625 295.511719 97.113281 295.800781 97.960938 295.800781 C 98.996094 295.800781 100.03125 295.363281 100.757812 294.515625 C 102.078125 292.972656 101.894531 290.652344 100.351562 289.332031"/></svg>