<svg xmlns="http://www.w3.org/2000/svg" width="375" viewBox="0 150 375 85" height="375" version="1.0"><defs><clipPath id="a"><path d="M 127 128 L 260.796875 128 L 260.796875 262 L 127 262 Z M 127 128"/></clipPath><clipPath id="b"><path d="M 114.546875 132 L 162 132 L 162 159 L 114.546875 159 Z M 114.546875 132"/></clipPath></defs><g clip-path="url(#a)"><path fill="#FF914D" d="M 127.105469 194.976562 C 127.105469 158.152344 157.03125 128.292969 193.945312 128.292969 C 230.863281 128.292969 260.792969 158.148438 260.792969 194.976562 C 260.792969 231.808594 230.863281 261.660156 193.945312 261.660156 C 157.03125 261.660156 127.105469 231.808594 127.105469 194.976562 Z M 127.105469 194.976562"/></g><g clip-path="url(#b)"><path fill="#A47C66" d="M 161.191406 146.820312 C 160.109375 145.742188 157.960938 146.027344 155.703125 147.308594 C 142.332031 136.265625 120.648438 132.546875 119.667969 132.386719 C 117.453125 132.027344 115.375 133.503906 115.007812 135.703125 C 114.636719 137.902344 116.125 139.988281 118.332031 140.355469 C 118.546875 140.390625 138.320312 143.808594 150.019531 153.128906 C 148.902344 155.25 148.707031 157.230469 149.734375 158.25 C 151.316406 159.832031 155.164062 158.550781 158.328125 155.394531 C 161.492188 152.242188 162.773438 148.402344 161.191406 146.820312 Z M 161.191406 146.820312"/></g><path fill="#80B470" d="M 200.027344 120.207031 C 200.027344 120.207031 187.445312 137.660156 171.582031 141.519531 C 159.515625 144.457031 143.476562 144.742188 141.875 141.023438 C 140.277344 137.308594 148.242188 125.109375 162.003906 119.226562 C 175.769531 113.347656 200.027344 120.207031 200.027344 120.207031 Z M 200.027344 120.207031"/><g fill="#302B2D"><g><g><path d="M 25.859375 -39.734375 L 25.859375 -31.78125 L 11.9375 -31.78125 L 11.9375 -23.890625 L 24.796875 -23.890625 L 24.796875 -15.9375 L 11.9375 -15.9375 L 11.9375 0 L 2.890625 0 L 2.890625 -39.734375 Z M 25.859375 -39.734375" transform="translate(52.022 200.626)"/></g></g></g><g fill="#302B2D"><g><g><path d="M 2.890625 0 L 2.890625 -24.703125 L 11.40625 -24.703125 L 11.40625 -21.140625 L 11.515625 -21.140625 C 11.578125 -21.265625 11.679688 -21.421875 11.828125 -21.609375 C 11.972656 -21.804688 12.285156 -22.144531 12.765625 -22.625 C 13.242188 -23.113281 13.753906 -23.550781 14.296875 -23.9375 C 14.847656 -24.320312 15.554688 -24.664062 16.421875 -24.96875 C 17.285156 -25.269531 18.164062 -25.421875 19.0625 -25.421875 C 20 -25.421875 20.914062 -25.289062 21.8125 -25.03125 C 22.707031 -24.78125 23.367188 -24.523438 23.796875 -24.265625 L 24.46875 -23.890625 L 20.90625 -16.65625 C 19.84375 -17.5625 18.363281 -18.015625 16.46875 -18.015625 C 15.4375 -18.015625 14.550781 -17.785156 13.8125 -17.328125 C 13.082031 -16.878906 12.5625 -16.332031 12.25 -15.6875 C 11.945312 -15.050781 11.726562 -14.507812 11.59375 -14.0625 C 11.46875 -13.613281 11.40625 -13.257812 11.40625 -13 L 11.40625 0 Z M 2.890625 0" transform="translate(76.916 200.626)"/></g></g></g><g fill="#302B2D"><g><g><path d="M 27.875 -11.171875 L 9.96875 -11.171875 C 9.96875 -9.441406 10.53125 -8.15625 11.65625 -7.3125 C 12.78125 -6.476562 14 -6.0625 15.3125 -6.0625 C 16.695312 -6.0625 17.789062 -6.242188 18.59375 -6.609375 C 19.394531 -6.984375 20.304688 -7.71875 21.328125 -8.8125 L 27.5 -5.734375 C 24.925781 -1.429688 20.65625 0.71875 14.6875 0.71875 C 10.957031 0.71875 7.757812 -0.554688 5.09375 -3.109375 C 2.4375 -5.660156 1.109375 -8.734375 1.109375 -12.328125 C 1.109375 -15.921875 2.4375 -19 5.09375 -21.5625 C 7.757812 -24.132812 10.957031 -25.421875 14.6875 -25.421875 C 18.601562 -25.421875 21.789062 -24.289062 24.25 -22.03125 C 26.707031 -19.769531 27.9375 -16.535156 27.9375 -12.328125 C 27.9375 -11.753906 27.914062 -11.367188 27.875 -11.171875 Z M 10.203125 -15.890625 L 19.59375 -15.890625 C 19.40625 -17.171875 18.898438 -18.15625 18.078125 -18.84375 C 17.265625 -19.539062 16.210938 -19.890625 14.921875 -19.890625 C 13.515625 -19.890625 12.394531 -19.519531 11.5625 -18.78125 C 10.726562 -18.039062 10.273438 -17.078125 10.203125 -15.890625 Z M 10.203125 -15.890625" transform="translate(98.488 200.626)"/></g></g></g><g fill="#302B2D"><g><g><path d="M 13.625 -25.421875 C 15.039062 -25.421875 16.4375 -25.257812 17.8125 -24.9375 C 19.195312 -24.625 20.226562 -24.304688 20.90625 -23.984375 L 21.90625 -23.5 L 19.125 -17.921875 C 17.195312 -18.941406 15.363281 -19.453125 13.625 -19.453125 C 12.664062 -19.453125 11.984375 -19.347656 11.578125 -19.140625 C 11.179688 -18.929688 10.984375 -18.539062 10.984375 -17.96875 C 10.984375 -17.832031 11 -17.703125 11.03125 -17.578125 C 11.0625 -17.453125 11.125 -17.332031 11.21875 -17.21875 C 11.3125 -17.101562 11.398438 -17.003906 11.484375 -16.921875 C 11.566406 -16.847656 11.703125 -16.757812 11.890625 -16.65625 C 12.085938 -16.5625 12.238281 -16.488281 12.34375 -16.4375 C 12.457031 -16.394531 12.644531 -16.320312 12.90625 -16.21875 C 13.164062 -16.125 13.359375 -16.050781 13.484375 -16 C 13.609375 -15.957031 13.820312 -15.890625 14.125 -15.796875 C 14.4375 -15.703125 14.671875 -15.640625 14.828125 -15.609375 C 15.828125 -15.316406 16.695312 -14.992188 17.4375 -14.640625 C 18.175781 -14.285156 18.953125 -13.800781 19.765625 -13.1875 C 20.585938 -12.582031 21.222656 -11.8125 21.671875 -10.875 C 22.117188 -9.945312 22.34375 -8.890625 22.34375 -7.703125 C 22.34375 -2.085938 18.441406 0.71875 10.640625 0.71875 C 8.878906 0.71875 7.203125 0.445312 5.609375 -0.09375 C 4.015625 -0.644531 2.867188 -1.191406 2.171875 -1.734375 L 1.109375 -2.59375 L 4.578125 -8.421875 C 4.828125 -8.203125 5.160156 -7.9375 5.578125 -7.625 C 6.003906 -7.320312 6.757812 -6.90625 7.84375 -6.375 C 8.9375 -5.851562 9.882812 -5.59375 10.6875 -5.59375 C 12.457031 -5.59375 13.34375 -6.1875 13.34375 -7.375 C 13.34375 -7.914062 13.113281 -8.335938 12.65625 -8.640625 C 12.207031 -8.941406 11.445312 -9.285156 10.375 -9.671875 C 9.300781 -10.054688 8.457031 -10.410156 7.84375 -10.734375 C 6.300781 -11.535156 5.082031 -12.441406 4.1875 -13.453125 C 3.289062 -14.472656 2.84375 -15.816406 2.84375 -17.484375 C 2.84375 -19.984375 3.8125 -21.929688 5.75 -23.328125 C 7.695312 -24.722656 10.320312 -25.421875 13.625 -25.421875 Z M 13.625 -25.421875" transform="translate(125.116 200.626)"/></g></g></g><g fill="#302B2D"><g><g><path d="M 2.890625 0 L 2.890625 -41.421875 L 11.40625 -41.421875 L 11.40625 -22.109375 L 11.515625 -22.109375 C 13.722656 -24.316406 16.082031 -25.421875 18.59375 -25.421875 C 19.8125 -25.421875 21.019531 -25.257812 22.21875 -24.9375 C 23.425781 -24.625 24.582031 -24.128906 25.6875 -23.453125 C 26.800781 -22.773438 27.703125 -21.816406 28.390625 -20.578125 C 29.078125 -19.347656 29.421875 -17.914062 29.421875 -16.28125 L 29.421875 0 L 20.90625 0 L 20.90625 -13.96875 C 20.90625 -15.25 20.492188 -16.367188 19.671875 -17.328125 C 18.847656 -18.296875 17.78125 -18.78125 16.46875 -18.78125 C 15.1875 -18.78125 14.019531 -18.28125 12.96875 -17.28125 C 11.925781 -16.289062 11.40625 -15.1875 11.40625 -13.96875 L 11.40625 0 Z M 2.890625 0" transform="translate(146.399 200.626)"/></g></g></g><g fill="#302B2D"><g><g><path d="M 17.53125 -40.453125 C 19.675781 -40.453125 21.773438 -40.140625 23.828125 -39.515625 C 25.890625 -38.890625 27.414062 -38.269531 28.40625 -37.65625 L 29.859375 -36.6875 L 26.203125 -29.46875 C 25.910156 -29.664062 25.503906 -29.914062 24.984375 -30.21875 C 24.472656 -30.519531 23.507812 -30.925781 22.09375 -31.4375 C 20.6875 -31.957031 19.375 -32.21875 18.15625 -32.21875 C 16.644531 -32.21875 15.476562 -31.894531 14.65625 -31.25 C 13.84375 -30.613281 13.4375 -29.75 13.4375 -28.65625 C 13.4375 -28.101562 13.628906 -27.59375 14.015625 -27.125 C 14.398438 -26.664062 15.054688 -26.171875 15.984375 -25.640625 C 16.921875 -25.109375 17.738281 -24.679688 18.4375 -24.359375 C 19.144531 -24.046875 20.238281 -23.566406 21.71875 -22.921875 C 24.289062 -21.828125 26.484375 -20.34375 28.296875 -18.46875 C 30.109375 -16.59375 31.015625 -14.46875 31.015625 -12.09375 C 31.015625 -9.8125 30.601562 -7.816406 29.78125 -6.109375 C 28.96875 -4.410156 27.84375 -3.078125 26.40625 -2.109375 C 24.976562 -1.148438 23.394531 -0.441406 21.65625 0.015625 C 19.925781 0.484375 18.050781 0.71875 16.03125 0.71875 C 14.300781 0.71875 12.597656 0.539062 10.921875 0.1875 C 9.253906 -0.164062 7.859375 -0.601562 6.734375 -1.125 C 5.617188 -1.65625 4.609375 -2.175781 3.703125 -2.6875 C 2.804688 -3.207031 2.148438 -3.644531 1.734375 -4 L 1.109375 -4.53125 L 5.640625 -12.140625 C 6.023438 -11.816406 6.550781 -11.40625 7.21875 -10.90625 C 7.894531 -10.40625 9.09375 -9.738281 10.8125 -8.90625 C 12.53125 -8.070312 14.046875 -7.65625 15.359375 -7.65625 C 19.179688 -7.65625 21.09375 -8.957031 21.09375 -11.5625 C 21.09375 -12.101562 20.957031 -12.601562 20.6875 -13.0625 C 20.414062 -13.53125 19.929688 -14 19.234375 -14.46875 C 18.546875 -14.9375 17.9375 -15.304688 17.40625 -15.578125 C 16.875 -15.847656 16.003906 -16.265625 14.796875 -16.828125 C 13.597656 -17.390625 12.710938 -17.816406 12.140625 -18.109375 C 9.734375 -19.296875 7.867188 -20.78125 6.546875 -22.5625 C 5.234375 -24.34375 4.578125 -26.257812 4.578125 -28.3125 C 4.578125 -31.875 5.890625 -34.785156 8.515625 -37.046875 C 11.148438 -39.316406 14.15625 -40.453125 17.53125 -40.453125 Z M 17.53125 -40.453125" transform="translate(175.82 200.626)"/></g></g></g><g fill="#302B2D"><g><g><path d="M 4.328125 -24.703125 L 4.328125 -33.90625 L 12.859375 -33.90625 L 12.859375 -24.703125 L 18.0625 -24.703125 L 18.0625 -18.203125 L 12.859375 -18.203125 L 12.859375 -10.359375 C 12.859375 -8.078125 13.5 -6.9375 14.78125 -6.9375 C 15.101562 -6.9375 15.441406 -7 15.796875 -7.125 C 16.148438 -7.25 16.421875 -7.378906 16.609375 -7.515625 L 16.90625 -7.703125 L 19.015625 -0.8125 C 17.191406 0.207031 15.109375 0.71875 12.765625 0.71875 C 11.160156 0.71875 9.78125 0.4375 8.625 -0.125 C 7.46875 -0.6875 6.59375 -1.4375 6 -2.375 C 5.40625 -3.320312 4.976562 -4.316406 4.71875 -5.359375 C 4.457031 -6.410156 4.328125 -7.53125 4.328125 -8.71875 L 4.328125 -18.203125 L 0.765625 -18.203125 L 0.765625 -24.703125 Z M 4.328125 -24.703125" transform="translate(205.77 200.626)"/></g></g></g><g fill="#302B2D"><g><g><path d="M 2.890625 0 L 2.890625 -24.703125 L 11.40625 -24.703125 L 11.40625 -21.140625 L 11.515625 -21.140625 C 11.578125 -21.265625 11.679688 -21.421875 11.828125 -21.609375 C 11.972656 -21.804688 12.285156 -22.144531 12.765625 -22.625 C 13.242188 -23.113281 13.753906 -23.550781 14.296875 -23.9375 C 14.847656 -24.320312 15.554688 -24.664062 16.421875 -24.96875 C 17.285156 -25.269531 18.164062 -25.421875 19.0625 -25.421875 C 20 -25.421875 20.914062 -25.289062 21.8125 -25.03125 C 22.707031 -24.78125 23.367188 -24.523438 23.796875 -24.265625 L 24.46875 -23.890625 L 20.90625 -16.65625 C 19.84375 -17.5625 18.363281 -18.015625 16.46875 -18.015625 C 15.4375 -18.015625 14.550781 -17.785156 13.8125 -17.328125 C 13.082031 -16.878906 12.5625 -16.332031 12.25 -15.6875 C 11.945312 -15.050781 11.726562 -14.507812 11.59375 -14.0625 C 11.46875 -13.613281 11.40625 -13.257812 11.40625 -13 L 11.40625 0 Z M 2.890625 0" transform="translate(222.382 200.626)"/></g></g></g><g fill="#302B2D"><g><g><path d="M 27.875 -11.171875 L 9.96875 -11.171875 C 9.96875 -9.441406 10.53125 -8.15625 11.65625 -7.3125 C 12.78125 -6.476562 14 -6.0625 15.3125 -6.0625 C 16.695312 -6.0625 17.789062 -6.242188 18.59375 -6.609375 C 19.394531 -6.984375 20.304688 -7.71875 21.328125 -8.8125 L 27.5 -5.734375 C 24.925781 -1.429688 20.65625 0.71875 14.6875 0.71875 C 10.957031 0.71875 7.757812 -0.554688 5.09375 -3.109375 C 2.4375 -5.660156 1.109375 -8.734375 1.109375 -12.328125 C 1.109375 -15.921875 2.4375 -19 5.09375 -21.5625 C 7.757812 -24.132812 10.957031 -25.421875 14.6875 -25.421875 C 18.601562 -25.421875 21.789062 -24.289062 24.25 -22.03125 C 26.707031 -19.769531 27.9375 -16.535156 27.9375 -12.328125 C 27.9375 -11.753906 27.914062 -11.367188 27.875 -11.171875 Z M 10.203125 -15.890625 L 19.59375 -15.890625 C 19.40625 -17.171875 18.898438 -18.15625 18.078125 -18.84375 C 17.265625 -19.539062 16.210938 -19.890625 14.921875 -19.890625 C 13.515625 -19.890625 12.394531 -19.519531 11.5625 -18.78125 C 10.726562 -18.039062 10.273438 -17.078125 10.203125 -15.890625 Z M 10.203125 -15.890625" transform="translate(243.954 200.626)"/></g></g></g><g fill="#302B2D"><g><g><path d="M 4.328125 -24.703125 L 4.328125 -33.90625 L 12.859375 -33.90625 L 12.859375 -24.703125 L 18.0625 -24.703125 L 18.0625 -18.203125 L 12.859375 -18.203125 L 12.859375 -10.359375 C 12.859375 -8.078125 13.5 -6.9375 14.78125 -6.9375 C 15.101562 -6.9375 15.441406 -7 15.796875 -7.125 C 16.148438 -7.25 16.421875 -7.378906 16.609375 -7.515625 L 16.90625 -7.703125 L 19.015625 -0.8125 C 17.191406 0.207031 15.109375 0.71875 12.765625 0.71875 C 11.160156 0.71875 9.78125 0.4375 8.625 -0.125 C 7.46875 -0.6875 6.59375 -1.4375 6 -2.375 C 5.40625 -3.320312 4.976562 -4.316406 4.71875 -5.359375 C 4.457031 -6.410156 4.328125 -7.53125 4.328125 -8.71875 L 4.328125 -18.203125 L 0.765625 -18.203125 L 0.765625 -24.703125 Z M 4.328125 -24.703125" transform="translate(270.581 200.626)"/></g></g></g><g fill="#302B2D"><g><g><path d="M 16.03125 -18.4375 C 14.425781 -18.4375 13.046875 -17.84375 11.890625 -16.65625 C 10.734375 -15.46875 10.15625 -14.039062 10.15625 -12.375 C 10.15625 -10.675781 10.734375 -9.234375 11.890625 -8.046875 C 13.046875 -6.859375 14.425781 -6.265625 16.03125 -6.265625 C 16.800781 -6.265625 17.53125 -6.359375 18.21875 -6.546875 C 18.914062 -6.742188 19.425781 -6.9375 19.75 -7.125 L 20.171875 -7.421875 L 23.0625 -1.5 C 22.84375 -1.332031 22.53125 -1.128906 22.125 -0.890625 C 21.726562 -0.648438 20.8125 -0.320312 19.375 0.09375 C 17.945312 0.507812 16.414062 0.71875 14.78125 0.71875 C 11.15625 0.71875 7.96875 -0.554688 5.21875 -3.109375 C 2.476562 -5.660156 1.109375 -8.71875 1.109375 -12.28125 C 1.109375 -15.875 2.476562 -18.960938 5.21875 -21.546875 C 7.96875 -24.128906 11.15625 -25.421875 14.78125 -25.421875 C 16.414062 -25.421875 17.921875 -25.226562 19.296875 -24.84375 C 20.679688 -24.457031 21.664062 -24.070312 22.25 -23.6875 L 23.0625 -23.109375 L 20.171875 -17.28125 C 19.117188 -18.050781 17.738281 -18.4375 16.03125 -18.4375 Z M 16.03125 -18.4375" transform="translate(287.193 200.626)"/></g></g></g><g fill="#302B2D"><g><g><path d="M 2.890625 0 L 2.890625 -41.421875 L 11.40625 -41.421875 L 11.40625 -22.109375 L 11.515625 -22.109375 C 13.722656 -24.316406 16.082031 -25.421875 18.59375 -25.421875 C 19.8125 -25.421875 21.019531 -25.257812 22.21875 -24.9375 C 23.425781 -24.625 24.582031 -24.128906 25.6875 -23.453125 C 26.800781 -22.773438 27.703125 -21.816406 28.390625 -20.578125 C 29.078125 -19.347656 29.421875 -17.914062 29.421875 -16.28125 L 29.421875 0 L 20.90625 0 L 20.90625 -13.96875 C 20.90625 -15.25 20.492188 -16.367188 19.671875 -17.328125 C 18.847656 -18.296875 17.78125 -18.78125 16.46875 -18.78125 C 15.1875 -18.78125 14.019531 -18.28125 12.96875 -17.28125 C 11.925781 -16.289062 11.40625 -15.1875 11.40625 -13.96875 L 11.40625 0 Z M 2.890625 0" transform="translate(308.428 200.626)"/></g></g></g></svg>